<svg xmlns="http://www.w3.org/2000/svg" xmlns:xlink="http://www.w3.org/1999/xlink" width="76.826" height="76.826" viewBox="0 0 76.826 76.826">
  <defs>
    <clipPath id="clip-path">
      <rect id="Rectangle_411264" data-name="Rectangle 411264" width="67" height="67" transform="translate(11792 -10474)" fill="#fff" stroke="#707070" stroke-width="1" opacity="0"/>
    </clipPath>
  </defs>
  <g id="Group_1206960" data-name="Group 1206960" transform="translate(-11787.479 10478.654)">
    <g id="Group_1206958" data-name="Group 1206958" transform="translate(90 152.129)">
      <g id="Group_1206941" data-name="Group 1206941" transform="translate(8792 -1047.855)">
        <g id="Group_1206866" data-name="Group 1206866" transform="translate(2905.479 -9582.928)">
          <g id="Group_1200255" data-name="Group 1200255" transform="translate(0)">
            <g id="Group_1187152" data-name="Group 1187152" transform="translate(0 0)">
              <g id="Group_1185946" data-name="Group 1185946">
                <g id="Group_1184280" data-name="Group 1184280">
                  <g id="Group_1182168" data-name="Group 1182168">
                    <g id="Group_1178877" data-name="Group 1178877">
                      <g id="Group_1111311" data-name="Group 1111311">
                        <g id="Group_1098742" data-name="Group 1098742" transform="translate(0 0)">
                          <g id="Rectangle_400898" data-name="Rectangle 400898" transform="translate(0 0)" fill="#c8a0e6" stroke="#8b6fa0" stroke-width="1" opacity="0.859">
                            <rect width="76.826" height="76.826" rx="38.413" stroke="none"/>
                            <rect x="0.5" y="0.5" width="75.826" height="75.826" rx="37.913" fill="none"/>
                          </g>
                          <g id="Rectangle_400907" data-name="Rectangle 400907" transform="translate(0 0)" fill="none" stroke="#8b6fa0" stroke-width="1">
                            <rect width="76.826" height="76.826" rx="38.413" stroke="none"/>
                            <rect x="0.5" y="0.5" width="75.826" height="75.826" rx="37.913" fill="none"/>
                          </g>
                        </g>
                      </g>
                    </g>
                  </g>
                </g>
              </g>
            </g>
          </g>
        </g>
      </g>
    </g>
    <g id="Mask_Group_1099502" data-name="Mask Group 1099502" clip-path="url(#clip-path)">
      <g id="Layer_15" transform="translate(11792 -10474)">
        <g id="Group_1207009" data-name="Group 1207009">
          <g id="Group_1206961" data-name="Group 1206961">
            <path id="Path_1257006" data-name="Path 1257006" d="M16.438,64.037a.753.753,0,0,1,.753-.753h1.6a1.067,1.067,0,0,1-1.067-1.067V44.475l-1.908.48a3.543,3.543,0,0,0-2.672,3.238l-.992,17.113a.985.985,0,0,0,.983,1.04h5.616A2.309,2.309,0,0,1,16.438,64.037Z" fill="#5290db"/>
          </g>
          <g id="Group_1206962" data-name="Group 1206962">
            <path id="Path_1257007" data-name="Path 1257007" d="M39.5,43.214,39.44,43.2l-2.464-1.215a3.1,3.1,0,0,1-1.73-2.781V37.743a8.9,8.9,0,0,1-8.27,0V39.2a3.1,3.1,0,0,1-1.73,2.781L22.783,43.2l-.056.014Z" fill="#f9d0b4"/>
          </g>
          <g id="Group_1206963" data-name="Group 1206963">
            <path id="Path_1257008" data-name="Path 1257008" d="M49.083,48.193a3.542,3.542,0,0,0-2.672-3.238l-1.908-.48V62.217a1.067,1.067,0,0,1-1.067,1.067h1.6a.753.753,0,0,1,.753.753,2.309,2.309,0,0,1-2.309,2.309h5.616a.985.985,0,0,0,.983-1.04Z" fill="#5290db"/>
          </g>
          <g id="Group_1206964" data-name="Group 1206964">
            <path id="Path_1257009" data-name="Path 1257009" d="M38.806,19.05A1.645,1.645,0,0,0,36.6,18.9,9.015,9.015,0,0,1,25.628,18.9a1.643,1.643,0,0,0-2.207.15l0,0a4.641,4.641,0,0,0-1.282,3.2v7.533a8.976,8.976,0,1,0,17.952,0V22.253a4.644,4.644,0,0,0-1.283-3.2Z" fill="#f9d0b4"/>
          </g>
          <g id="Group_1206965" data-name="Group 1206965">
            <path id="Path_1257010" data-name="Path 1257010" d="M40.664,22.945a3.733,3.733,0,0,0-.576.046v6.8c0,.2-.009.4-.023.6a3.746,3.746,0,1,0,.6-7.443Z" fill="#f9d0b4"/>
          </g>
          <g id="Group_1206966" data-name="Group 1206966">
            <path id="Path_1257011" data-name="Path 1257011" d="M22.136,29.786v-6.8a3.749,3.749,0,1,0,.023,7.4h0c-.013-.2-.023-.4-.023-.6Z" fill="#f9d0b4"/>
          </g>
          <g id="Group_1206967" data-name="Group 1206967">
            <path id="Path_1257012" data-name="Path 1257012" d="M40.054,15.288a.555.555,0,0,1-.565-.532c-.069-5-5.781-5.941-11.469-4.959a10.057,10.057,0,0,0-8.347,9.909v3.753a3.706,3.706,0,0,1,2.463-.467v-.738a4.642,4.642,0,0,1,1.282-3.2l0,0a1.644,1.644,0,0,1,2.207-.15A9.015,9.015,0,0,0,36.6,18.9a1.644,1.644,0,0,1,2.21.147,4.641,4.641,0,0,1,1.282,3.2v.738a3.765,3.765,0,0,1,.576-.046,3.724,3.724,0,0,1,1.906.525V20.389c0-4.479-1.617-5.1-2.516-5.1Z" fill="#5b5d60"/>
          </g>
          <g id="Group_1206968" data-name="Group 1206968">
            <path id="Path_1257013" data-name="Path 1257013" d="M43.437,43.214H18.787a1.067,1.067,0,0,0-1.067,1.067V62.217a1.067,1.067,0,0,0,1.067,1.067h24.65A1.067,1.067,0,0,0,44.5,62.217V44.281a1.066,1.066,0,0,0-1.067-1.067Z" fill="#edf4fc"/>
          </g>
          <g id="Group_1206969" data-name="Group 1206969">
            <path id="Path_1257014" data-name="Path 1257014" d="M45.032,63.284H17.191a.753.753,0,0,0-.753.753,2.309,2.309,0,0,0,2.309,2.309h24.73a2.309,2.309,0,0,0,2.309-2.309.753.753,0,0,0-.753-.753Z" fill="#c7d7e5"/>
          </g>
          <g id="Group_1206971" data-name="Group 1206971">
            <g id="Group_1206970" data-name="Group 1206970">
              <path id="Path_1257015" data-name="Path 1257015" d="M11.244,39.227H3.73A2.26,2.26,0,0,1,1.472,36.97V23.452A2.26,2.26,0,0,1,3.73,21.2h7.515A2.26,2.26,0,0,1,13.5,23.452V36.97A2.26,2.26,0,0,1,11.244,39.227Z" fill="#70d6f9"/>
            </g>
          </g>
          <g id="Group_1206973" data-name="Group 1206973">
            <g id="Group_1206972" data-name="Group 1206972">
              <path id="Path_1257016" data-name="Path 1257016" d="M63.445,32.654H50.639a2.085,2.085,0,0,1-2.082-2.082V11.793a2.085,2.085,0,0,1,2.082-2.082H63.445a2.085,2.085,0,0,1,2.082,2.082V30.571A2.085,2.085,0,0,1,63.445,32.654Z" fill="#5290db"/>
            </g>
          </g>
          <g id="Group_1206974" data-name="Group 1206974">
            <path id="Path_1257017" data-name="Path 1257017" d="M51.174,12.328H62.911V30.037H51.174Z" fill="#f5c84c"/>
          </g>
          <g id="Group_1206975" data-name="Group 1206975">
            <path id="Path_1257018" data-name="Path 1257018" d="M16.438,64.037a.753.753,0,0,1,.753-.753h1.488v-.011a1.063,1.063,0,0,1-.959-1.056V59.351H12.493l-.345,5.955a.985.985,0,0,0,.983,1.04h5.548v0A2.307,2.307,0,0,1,16.438,64.037Z" fill="#f9d0b4"/>
          </g>
          <g id="Group_1206976" data-name="Group 1206976">
            <path id="Path_1257019" data-name="Path 1257019" d="M49.73,59.351H44.5v2.866a1.063,1.063,0,0,1-.959,1.056v.011h1.488a.753.753,0,0,1,.753.753,2.307,2.307,0,0,1-2.241,2.305v0h5.548a.985.985,0,0,0,.983-1.04Z" fill="#f9d0b4"/>
          </g>
          <g id="Group_1206977" data-name="Group 1206977">
            <path id="Path_1257020" data-name="Path 1257020" d="M5.262,21.461a2.225,2.225,0,0,0,4.449,0,2.28,2.28,0,0,0-.017-.266H5.28A2.224,2.224,0,0,0,5.262,21.461Z" fill="#5290db"/>
          </g>
          <g id="Group_1206978" data-name="Group 1206978">
            <path id="Path_1257021" data-name="Path 1257021" d="M51.174,12.328H62.911v3.114H51.174Z" fill="#6cadef"/>
          </g>
          <g id="Group_1206979" data-name="Group 1206979">
            <path id="Path_1257022" data-name="Path 1257022" d="M51.174,12.328h3.362v3.114H51.174Z" fill="#3a70bf"/>
          </g>
          <g id="Group_1206980" data-name="Group 1206980">
            <path id="Path_1257023" data-name="Path 1257023" d="M18.747,67H13.131a1.639,1.639,0,0,1-1.637-1.73l.992-17.115a4.178,4.178,0,0,1,3.165-3.835l1.832-.461a.654.654,0,1,1,.32,1.269l-1.832.461a2.875,2.875,0,0,0-2.178,2.64L12.8,65.344a.33.33,0,0,0,.33.347h5.616a.654.654,0,1,1,0,1.309Z"/>
          </g>
          <g id="Group_1206981" data-name="Group 1206981">
            <path id="Path_1257024" data-name="Path 1257024" d="M22.784,43.855a.654.654,0,0,1-.29-1.241L24.958,41.4A2.432,2.432,0,0,0,26.322,39.2V37.867a.654.654,0,0,1,1.309,0V39.2a3.732,3.732,0,0,1-2.095,3.368l-2.464,1.215A.65.65,0,0,1,22.784,43.855Z"/>
          </g>
          <g id="Group_1206982" data-name="Group 1206982">
            <path id="Path_1257025" data-name="Path 1257025" d="M39.44,43.855a.653.653,0,0,1-.289-.068l-2.464-1.215A3.732,3.732,0,0,1,34.592,39.2V37.851a.654.654,0,0,1,1.309,0V39.2A2.432,2.432,0,0,0,37.266,41.4l2.464,1.215a.654.654,0,0,1-.29,1.241Z"/>
          </g>
          <g id="Group_1206983" data-name="Group 1206983">
            <path id="Path_1257026" data-name="Path 1257026" d="M49.093,67H43.477a.654.654,0,0,1,0-1.309h5.616a.331.331,0,0,0,.33-.349L48.43,48.231a2.876,2.876,0,0,0-2.179-2.641l-1.8-.453a.654.654,0,1,1,.32-1.269l1.8.453a4.178,4.178,0,0,1,3.166,3.836l.992,17.112A1.639,1.639,0,0,1,49.093,67Z"/>
          </g>
          <g id="Group_1206984" data-name="Group 1206984">
            <path id="Path_1257027" data-name="Path 1257027" d="M31.112,39.416a9.641,9.641,0,0,1-9.63-9.63V22.253A5.272,5.272,0,0,1,22.944,18.6a2.294,2.294,0,0,1,3.087-.217,8.36,8.36,0,0,0,10.16.007,2.293,2.293,0,0,1,3.088.21,5.274,5.274,0,0,1,1.463,3.654v7.533a9.641,9.641,0,0,1-9.63,9.63ZM24.6,19.2a.973.973,0,0,0-.708.3,3.972,3.972,0,0,0-1.1,2.755v7.533a8.322,8.322,0,0,0,16.643,0V22.253a3.969,3.969,0,0,0-1.1-2.751A.989.989,0,0,0,37,19.418a9.669,9.669,0,0,1-11.775-.005A1.006,1.006,0,0,0,24.6,19.2Z"/>
          </g>
          <g id="Group_1206985" data-name="Group 1206985">
            <path id="Path_1257028" data-name="Path 1257028" d="M40.664,31.095c-.125,0-.248-.006-.369-.018a.654.654,0,1,1,.122-1.3c.081.008.164.012.248.012a3.093,3.093,0,1,0,0-6.187q-.108,0-.215.008a.654.654,0,1,1-.1-1.3q.154-.011.311-.012a4.4,4.4,0,1,1,0,8.8Z"/>
          </g>
          <g id="Group_1206986" data-name="Group 1206986">
            <path id="Path_1257029" data-name="Path 1257029" d="M21.56,31.095a4.4,4.4,0,1,1,0-8.8c.116,0,.231,0,.344.014a.654.654,0,0,1-.106,1.3c-.079-.006-.158-.01-.238-.01a3.093,3.093,0,0,0,0,6.187c.082,0,.163,0,.243-.012a.654.654,0,1,1,.119,1.3c-.119.011-.24.017-.362.017Z"/>
          </g>
          <g id="Group_1206987" data-name="Group 1206987">
            <path id="Path_1257030" data-name="Path 1257030" d="M31.242,33.853a3.835,3.835,0,0,1-2.933-1.276.654.654,0,1,1,1-.841,2.71,2.71,0,0,0,3.861,0,.654.654,0,0,1,1,.841A3.837,3.837,0,0,1,31.242,33.853Z"/>
          </g>
          <g id="Group_1206988" data-name="Group 1206988">
            <circle id="Ellipse_12564" data-name="Ellipse 12564" cx="1.206" cy="1.206" r="1.206" transform="translate(34.086 25.901)"/>
          </g>
          <g id="Group_1206989" data-name="Group 1206989">
            <circle id="Ellipse_12565" data-name="Ellipse 12565" cx="1.206" cy="1.206" r="1.206" transform="translate(25.987 25.901)"/>
          </g>
          <g id="Group_1206990" data-name="Group 1206990">
            <path id="Path_1257031" data-name="Path 1257031" d="M19.673,24.037a.654.654,0,0,1-.654-.654V19.706a10.689,10.689,0,0,1,8.89-10.553C32.437,8.37,36.21,8.9,38.26,10.6a5.206,5.206,0,0,1,1.881,4.035c1.192.037,3.084.867,3.084,5.754v2.986a.654.654,0,0,1-1.309,0V20.389c0-2.826-.679-4.447-1.862-4.447a1.212,1.212,0,0,1-1.219-1.178,3.926,3.926,0,0,0-1.411-3.157c-1.755-1.458-5.142-1.883-9.292-1.166a9.383,9.383,0,0,0-7.8,9.264v3.677A.654.654,0,0,1,19.673,24.037Z"/>
          </g>
          <g id="Group_1206991" data-name="Group 1206991">
            <path id="Path_1257032" data-name="Path 1257032" d="M32.763,54.7H29.4a.654.654,0,0,1,0-1.309h3.366a.654.654,0,0,1,0,1.309Z"/>
          </g>
          <g id="Group_1206992" data-name="Group 1206992">
            <path id="Path_1257033" data-name="Path 1257033" d="M43.437,63.938H18.787a1.723,1.723,0,0,1-1.721-1.721V44.282a1.723,1.723,0,0,1,1.721-1.721h24.65a1.723,1.723,0,0,1,1.721,1.721V62.217a1.723,1.723,0,0,1-1.721,1.721Zm-24.65-20.07a.413.413,0,0,0-.412.412V62.217a.413.413,0,0,0,.412.412h24.65a.413.413,0,0,0,.412-.412V44.281a.413.413,0,0,0-.412-.412Z"/>
          </g>
          <g id="Group_1206993" data-name="Group 1206993">
            <path id="Path_1257034" data-name="Path 1257034" d="M43.477,67H18.747a2.966,2.966,0,0,1-2.963-2.963,1.409,1.409,0,0,1,1.407-1.407H45.033a1.409,1.409,0,0,1,1.407,1.407A2.967,2.967,0,0,1,43.477,67ZM17.191,63.938a.1.1,0,0,0-.1.1,1.656,1.656,0,0,0,1.654,1.654h24.73a1.656,1.656,0,0,0,1.654-1.654.1.1,0,0,0-.1-.1Z"/>
          </g>
          <g id="Group_1206994" data-name="Group 1206994">
            <circle id="Ellipse_12566" data-name="Ellipse 12566" cx="0.89" cy="0.89" r="0.89" transform="translate(28.41 0)" fill="#87d147"/>
          </g>
          <g id="Group_1206995" data-name="Group 1206995">
            <path id="Path_1257035" data-name="Path 1257035" d="M55.521,49.072h.6v.6a.827.827,0,0,0,.837.837A.838.838,0,0,0,57.8,49.7v-.628h.6a.827.827,0,0,0,.838-.837.838.838,0,0,0-.811-.838H57.8v-.6a.827.827,0,0,0-.838-.838.838.838,0,0,0-.837.811V47.4h-.6a.827.827,0,0,0-.837.838.811.811,0,0,0,.837.837h0Z" fill="#70d6f9"/>
          </g>
          <g id="Group_1206996" data-name="Group 1206996">
            <path id="Path_1257036" data-name="Path 1257036" d="M9.768,45.33a2.04,2.04,0,0,1-1.623-1.6c0-.026-.079-.026-.079,0a2.04,2.04,0,0,1-1.623,1.6c-.026,0-.026.052,0,.079A2.04,2.04,0,0,1,8.067,47c0,.026.079.026.079,0a2.04,2.04,0,0,1,1.623-1.6C9.794,45.382,9.794,45.33,9.768,45.33Z" fill="#fc657e"/>
          </g>
          <g id="Group_1206997" data-name="Group 1206997">
            <circle id="Ellipse_12567" data-name="Ellipse 12567" cx="0.89" cy="0.89" r="0.89" transform="translate(53.796 54.49)" fill="#f5c84c"/>
          </g>
          <g id="Group_1206998" data-name="Group 1206998">
            <path id="Path_1257037" data-name="Path 1257037" d="M18.46,5.81a2.9,2.9,0,0,0,2.329-2.277c0-.052.1-.052.1,0A2.9,2.9,0,0,0,23.223,5.81c.052,0,.052.079,0,.1a2.9,2.9,0,0,0-2.329,2.277c0,.052-.1.052-.1,0A2.9,2.9,0,0,0,18.46,5.915c-.052-.026-.052-.1,0-.1Z" fill="#f5c84c"/>
          </g>
          <g id="Group_1207000" data-name="Group 1207000">
            <g id="Group_1206999" data-name="Group 1206999">
              <path id="Path_1257038" data-name="Path 1257038" d="M11.244,39.881H3.73A2.915,2.915,0,0,1,.818,36.97V23.452A2.915,2.915,0,0,1,3.73,20.541h7.515a2.915,2.915,0,0,1,2.912,2.912V36.97A2.915,2.915,0,0,1,11.244,39.881ZM3.73,21.849a1.605,1.605,0,0,0-1.6,1.6V36.969a1.605,1.605,0,0,0,1.6,1.6h7.515a1.6,1.6,0,0,0,1.6-1.6V23.452a1.6,1.6,0,0,0-1.6-1.6H3.73Z"/>
            </g>
          </g>
          <g id="Group_1207002" data-name="Group 1207002">
            <g id="Group_1207001" data-name="Group 1207001">
              <path id="Path_1257039" data-name="Path 1257039" d="M63.445,33.308H50.639A2.74,2.74,0,0,1,47.9,30.572V11.793a2.74,2.74,0,0,1,2.737-2.737H63.445a2.74,2.74,0,0,1,2.737,2.737V30.571A2.74,2.74,0,0,1,63.445,33.308ZM50.639,10.365a1.43,1.43,0,0,0-1.428,1.428V30.571A1.43,1.43,0,0,0,50.639,32H63.445a1.43,1.43,0,0,0,1.428-1.428V11.793a1.43,1.43,0,0,0-1.428-1.428Z"/>
            </g>
          </g>
          <g id="Group_1207003" data-name="Group 1207003">
            <path id="Path_1257040" data-name="Path 1257040" d="M62.911,30.691H51.174a.654.654,0,0,1-.654-.654V12.328a.654.654,0,0,1,.654-.654H62.911a.654.654,0,0,1,.654.654V30.037A.654.654,0,0,1,62.911,30.691ZM51.828,29.382H62.256v-16.4H51.828Z"/>
          </g>
          <g id="Group_1207004" data-name="Group 1207004">
            <path id="Path_1257041" data-name="Path 1257041" d="M17.5,60.005H12.726a.654.654,0,0,1,0-1.309H17.5a.654.654,0,1,1,0,1.309Z"/>
          </g>
          <g id="Group_1207005" data-name="Group 1207005">
            <path id="Path_1257042" data-name="Path 1257042" d="M49.509,60.005H44.743a.654.654,0,0,1,0-1.309h4.766a.654.654,0,0,1,0,1.309Z"/>
          </g>
          <g id="Group_1207006" data-name="Group 1207006">
            <path id="Path_1257043" data-name="Path 1257043" d="M7.487,24.34a2.882,2.882,0,0,1-2.879-2.879.654.654,0,0,1,1.309,0,1.57,1.57,0,0,0,3.141,0,.654.654,0,0,1,1.309,0A2.882,2.882,0,0,1,7.487,24.34Z"/>
          </g>
          <g id="Group_1207007" data-name="Group 1207007">
            <path id="Path_1257044" data-name="Path 1257044" d="M62.693,16.1H51.417a.654.654,0,0,1,0-1.309H62.693a.654.654,0,0,1,0,1.309Z"/>
          </g>
          <g id="Group_1207008" data-name="Group 1207008">
            <path id="Path_1257045" data-name="Path 1257045" d="M54.536,15.85a.654.654,0,0,1-.654-.654V12.612a.654.654,0,1,1,1.309,0V15.2A.654.654,0,0,1,54.536,15.85Z"/>
          </g>
        </g>
      </g>
    </g>
  </g>
</svg>
