<svg xmlns="http://www.w3.org/2000/svg" xmlns:xlink="http://www.w3.org/1999/xlink" width="76.826" height="76.826" viewBox="0 0 76.826 76.826">
  <defs>
    <clipPath id="clip-path">
      <rect id="Rectangle_411262" data-name="Rectangle 411262" width="67" height="66" transform="translate(11702 -10625)" fill="#fff" stroke="#707070" stroke-width="1" opacity="0"/>
    </clipPath>
  </defs>
  <g id="Group_1206940" data-name="Group 1206940" transform="translate(-11697.479 10630.783)">
    <g id="Group_1206941" data-name="Group 1206941" transform="translate(8792 -1047.855)">
      <g id="Group_1206866" data-name="Group 1206866" transform="translate(2905.479 -9582.928)">
        <g id="Group_1200255" data-name="Group 1200255" transform="translate(0)">
          <g id="Group_1187152" data-name="Group 1187152" transform="translate(0 0)">
            <g id="Group_1185946" data-name="Group 1185946">
              <g id="Group_1184280" data-name="Group 1184280">
                <g id="Group_1182168" data-name="Group 1182168">
                  <g id="Group_1178877" data-name="Group 1178877">
                    <g id="Group_1111311" data-name="Group 1111311">
                      <g id="Group_1098742" data-name="Group 1098742" transform="translate(0 0)">
                        <g id="Rectangle_400898" data-name="Rectangle 400898" transform="translate(0 0)" fill="#c8a0e6" stroke="#8b6fa0" stroke-width="1" opacity="0.859">
                          <rect width="76.826" height="76.826" rx="38.413" stroke="none"/>
                          <rect x="0.5" y="0.5" width="75.826" height="75.826" rx="37.913" fill="none"/>
                        </g>
                        <g id="Rectangle_400907" data-name="Rectangle 400907" transform="translate(0 0)" fill="none" stroke="#8b6fa0" stroke-width="1">
                          <rect width="76.826" height="76.826" rx="38.413" stroke="none"/>
                          <rect x="0.5" y="0.5" width="75.826" height="75.826" rx="37.913" fill="none"/>
                        </g>
                      </g>
                    </g>
                  </g>
                </g>
              </g>
            </g>
          </g>
        </g>
      </g>
    </g>
    <g id="Mask_Group_1099501" data-name="Mask Group 1099501" clip-path="url(#clip-path)">
      <g id="director" transform="translate(11701.436 -10626.064)">
        <g id="Group_1206956" data-name="Group 1206956">
          <g id="Group_1206944" data-name="Group 1206944">
            <path id="Path_1256991" data-name="Path 1256991" d="M34.065,20.226V30.871A1.068,1.068,0,0,1,33,31.935H30.871a1.068,1.068,0,0,1-1.065-1.065V20.226a1.068,1.068,0,0,1,1.065-1.065H33A1.068,1.068,0,0,1,34.065,20.226Z" fill="#ccd1d9"/>
          </g>
          <g id="Group_1206945" data-name="Group 1206945">
            <path id="Path_1256992" data-name="Path 1256992" d="M8.516,15.563,2.129,13.839V37.258l6.387-1.725,8.516-2.289L21.29,32.1l8.516-2.289V21.29Z" fill="#fcd770"/>
          </g>
          <g id="Group_1206946" data-name="Group 1206946">
            <path id="Path_1256993" data-name="Path 1256993" d="M21.29,40.452v6.387a2.135,2.135,0,0,1-2.129,2.129,2.145,2.145,0,0,1-2.129-2.129V44.71A1.068,1.068,0,0,0,18.1,43.645V39.387a1.068,1.068,0,0,0-1.065-1.065V33.245L21.29,32.1v4.1a2.135,2.135,0,0,0-2.129,2.129,2.145,2.145,0,0,0,2.129,2.129Z" fill="#969faa"/>
          </g>
          <g id="Group_1206947" data-name="Group 1206947">
            <path id="Path_1256994" data-name="Path 1256994" d="M59.613,52.161v.1a7.372,7.372,0,0,1-1.043,3.779l-.011.011a7.343,7.343,0,0,1-6.3,3.566,7.014,7.014,0,0,1-1.16-.1V44.71H42.219v-.043a19.247,19.247,0,0,1,2.789-4.2,19.936,19.936,0,0,1,10.347-6.4A14.927,14.927,0,0,1,66,48.372v3.79Z" fill="#4fc1e9"/>
          </g>
          <g id="Group_1206948" data-name="Group 1206948">
            <path id="Path_1256995" data-name="Path 1256995" d="M63.871,8.516v4.258H53.226a4.257,4.257,0,0,0-4.258-4.258H38.323A6.392,6.392,0,0,1,44.71,2.129H57.484A6.392,6.392,0,0,1,63.871,8.516Z" fill="#ff826e"/>
          </g>
          <g id="Group_1206949" data-name="Group 1206949">
            <path id="Path_1256996" data-name="Path 1256996" d="M53.226,12.774H36.194a2.145,2.145,0,0,1-2.129-2.129,2.135,2.135,0,0,1,2.129-2.129H48.968A4.257,4.257,0,0,1,53.226,12.774Z" fill="#fc6e51"/>
          </g>
          <g id="Group_1206950" data-name="Group 1206950">
            <path id="Path_1256997" data-name="Path 1256997" d="M63.871,12.774v6.462A10.641,10.641,0,0,1,56.962,29.2l-1.607.607V25.548L58.2,23.419a3.549,3.549,0,0,0,1.416-2.842,3.562,3.562,0,0,0-3.545-3.545h-.713V12.774Z" fill="#fcd770"/>
          </g>
          <g id="Group_1206951" data-name="Group 1206951">
            <path id="Path_1256998" data-name="Path 1256998" d="M51.075,66H36.194V44.71H51.1V59.517a7.213,7.213,0,0,1-2.917-1.139l-.522-.341a3.265,3.265,0,0,0-5.078,2.715v.032a3.269,3.269,0,0,0,1.81,2.927l2.076,1.043a12.059,12.059,0,0,0,4.609,1.224Z" fill="#e6e9ed"/>
          </g>
          <g id="Group_1206952" data-name="Group 1206952">
            <path id="Path_1256999" data-name="Path 1256999" d="M66,52.161v2.012A11.818,11.818,0,0,1,54.173,66H51.757c-.234,0-.458-.011-.681-.021a12.059,12.059,0,0,1-4.609-1.224L44.39,63.711a3.269,3.269,0,0,1-1.81-2.927v-.032a3.26,3.26,0,0,1,5.078-2.715l.522.341A7.213,7.213,0,0,0,51.1,59.517a7.014,7.014,0,0,0,1.16.1,7.343,7.343,0,0,0,6.3-3.566l.011-.011a7.372,7.372,0,0,0,1.043-3.779v-.1Z" fill="#f0d0b4"/>
          </g>
          <g id="Group_1206953" data-name="Group 1206953">
            <path id="Path_1257000" data-name="Path 1257000" d="M17.032,38.323A1.068,1.068,0,0,1,18.1,39.387v4.258a1.068,1.068,0,0,1-1.065,1.065,3.194,3.194,0,0,1,0-6.387Z" fill="#f0d0b4"/>
          </g>
          <g id="Group_1206954" data-name="Group 1206954">
            <path id="Path_1257001" data-name="Path 1257001" d="M23.419,36.194a2.145,2.145,0,0,1,2.129,2.129,2.135,2.135,0,0,0,2.129,2.129H45l.011.011a19.247,19.247,0,0,0-2.789,4.2v.043H36.194v2.129H28.327A12.714,12.714,0,0,1,21.29,44.71V40.452a2.145,2.145,0,0,1-2.129-2.129,2.135,2.135,0,0,1,2.129-2.129Z" fill="#f0d0b4"/>
          </g>
          <g id="Group_1206955" data-name="Group 1206955">
            <path id="Path_1257002" data-name="Path 1257002" d="M40.452,25.548V23.015a1.068,1.068,0,0,0-.585-.958l-.266-.128a2.3,2.3,0,0,1-1.277-2.065,2.4,2.4,0,0,1,.383-1.288L40.09,16.5a2.092,2.092,0,0,0,.362-1.182V12.774h14.9v4.258h.713a3.562,3.562,0,0,1,3.545,3.545A3.549,3.549,0,0,1,58.2,23.419l-2.842,2.129v8.516a19.7,19.7,0,0,0-6.387,2.853V29.806H44.71a4.257,4.257,0,0,1-4.258-4.258Z" fill="#f0d0b4"/>
          </g>
        </g>
        <g id="Group_1206957" data-name="Group 1206957">
          <path id="Path_1257003" data-name="Path 1257003" d="M56.419,33.292V30.544l.919-.344a11.764,11.764,0,0,0,7.6-10.965V8.516a7.461,7.461,0,0,0-7.452-7.452H44.71a7.458,7.458,0,0,0-7.366,6.387h-1.15a3.194,3.194,0,0,0,0,6.387h3.194v1.485a1.062,1.062,0,0,1-.179.591l-1.382,2.074a3.375,3.375,0,0,0,1.3,4.895l.261.13v2.536a5.329,5.329,0,0,0,5.323,5.323H47.9v5.524a21.061,21.061,0,0,0-3.347,2.992H27.677a1.065,1.065,0,0,1-1.065-1.065,3.2,3.2,0,0,0-3.194-3.194H22.355V32.915l6.419-1.728A2.127,2.127,0,0,0,30.871,33H33a2.131,2.131,0,0,0,2.129-2.129V20.226A2.131,2.131,0,0,0,33,18.1H30.871a2.127,2.127,0,0,0-2.1,1.813L1.065,12.45v26.2l14.9-4.012v2.774a4.238,4.238,0,0,0,0,8.214v1.217a3.194,3.194,0,1,0,6.387,0v-.3A13.7,13.7,0,0,0,28.321,47.9h6.808V67.065H51.1v-.039c.221.012.442.039.663.039h2.414a12.891,12.891,0,0,0,12.89-12.89v-5.8A15.9,15.9,0,0,0,56.419,33.292ZM30.871,20.226H33V30.871l-2.129,0Zm25.72,7.981-.171.064v-2.19l2.414-1.81a4.614,4.614,0,0,0-2.414-8.289V13.839h6.387v5.4A9.624,9.624,0,0,1,56.591,28.206ZM44.71,3.194H57.484a5.329,5.329,0,0,1,5.323,5.323V11.71H54.183a5.331,5.331,0,0,0-5.215-4.258H39.495A5.333,5.333,0,0,1,44.71,3.194Zm-9.581,7.452a1.065,1.065,0,0,1,1.065-1.065H48.968a3.2,3.2,0,0,1,3.012,2.129H36.194A1.065,1.065,0,0,1,35.129,10.645Zm9.581,18.1a3.189,3.189,0,0,1-3-2.129h1.933A4.262,4.262,0,0,0,47.9,22.355H45.774a2.131,2.131,0,0,1-2.129,2.129H41.516V23.013a2.117,2.117,0,0,0-1.178-1.905l-.261-.13a1.247,1.247,0,0,1-.48-1.808L40.98,17.1a3.18,3.18,0,0,0,.537-1.771V13.839H54.29V18.1h1.775a2.484,2.484,0,0,1,1.49,4.471L54.29,25.016v8.265a21.149,21.149,0,0,0-4.258,1.768V28.742Zm10.625,6.44a13.779,13.779,0,0,1,9.6,13.189V51.1H60.677V46.839H58.548v5.416a6.3,6.3,0,0,1-6.29,6.293c-.033,0-.064-.006-.1-.007v-14.9H44.007a18.969,18.969,0,0,1,11.328-8.463ZM28.742,28.99,9.581,34.15v-17.2l19.161,5.159ZM3.194,15.228l4.258,1.146V34.723L3.194,35.87ZM20.226,33.489v1.837a3.191,3.191,0,0,0-2.04,2.277c-.029-.018-.06-.031-.089-.048V34.062ZM14.9,41.516a2.131,2.131,0,0,1,2.129-2.129l0,4.258h0A2.131,2.131,0,0,1,14.9,41.516Zm5.323,5.323a1.065,1.065,0,0,1-2.129,0v-1.36a2.122,2.122,0,0,0,1.065-1.833V40.689a3.191,3.191,0,0,0,1.065.645Zm8.1-1.065a11.564,11.564,0,0,1-5.967-1.659V39.387H21.29a1.065,1.065,0,1,1,0-2.129h2.129a1.065,1.065,0,0,1,1.065,1.065,3.2,3.2,0,0,0,3.194,3.194h15.19a21.237,21.237,0,0,0-1.3,2.129H35.129v2.129Zm8.937,0H50.032V58.125a6.24,6.24,0,0,1-1.261-.631l-.518-.346a4.347,4.347,0,1,0-4.341,7.515l.547.273h-7.2Zm23.919,16.57a10.759,10.759,0,0,1-7,2.591H51.76A10.815,10.815,0,0,1,46.947,63.8l-2.083-1.042a2.218,2.218,0,1,1,2.207-3.839l.518.346a8.406,8.406,0,0,0,13.022-6.039h4.324v.948a10.745,10.745,0,0,1-3.759,8.17Z"/>
          <circle id="Ellipse_12563" data-name="Ellipse 12563" cx="1.065" cy="1.065" r="1.065" transform="translate(43.645 15.968)"/>
          <path id="Path_1257004" data-name="Path 1257004" d="M39.387,47.9H47.9v2.129H39.387Z"/>
          <path id="Path_1257005" data-name="Path 1257005" d="M39.387,52.161H47.9V54.29H39.387Z"/>
        </g>
      </g>
    </g>
  </g>
</svg>
