<svg xmlns="http://www.w3.org/2000/svg" xmlns:xlink="http://www.w3.org/1999/xlink" width="115" height="115" viewBox="0 0 115 115">
  <defs>
    <clipPath id="clip-path">
      <rect id="Rectangle_411123" data-name="Rectangle 411123" width="115" height="115" transform="translate(799.781 1954)" fill="#e8bad8" opacity="0.41"/>
    </clipPath>
    <clipPath id="clip-path-2">
      <rect id="Rectangle_411124" data-name="Rectangle 411124" width="98" height="98" transform="translate(-8788 -4288)" fill="#fff" stroke="#707070" stroke-width="1" opacity="0"/>
    </clipPath>
  </defs>
  <g id="Group_1201086" data-name="Group 1201086" transform="translate(8796.269 4296.322)">
    <g id="Mask_Group_1099385" data-name="Mask Group 1099385" transform="translate(-9596.05 -6250.322)" clip-path="url(#clip-path)">
      <g id="Group_1201087" data-name="Group 1201087" transform="translate(799.781 1960.273)">
        <g id="Group_1201086-2" data-name="Group 1201086">
          <ellipse id="Ellipse_12453" data-name="Ellipse 12453" cx="28.658" cy="28.658" rx="28.658" ry="28.658" transform="translate(56.527 44.289)" fill="#e6e51d"/>
          <ellipse id="Ellipse_12454" data-name="Ellipse 12454" cx="20.842" cy="20.842" rx="20.842" ry="20.842" fill="#e6e51d"/>
        </g>
      </g>
    </g>
    <g id="Mask_Group_1099386" data-name="Mask Group 1099386" clip-path="url(#clip-path-2)">
      <g id="colores" transform="translate(-8787.992 -4287.992)">
        <g id="Shadow">
          <g id="XMLID_133_">
            <g id="Group_1201089" data-name="Group 1201089">
              <path id="Path_1242811" data-name="Path 1242811" d="M48.991.778V48.99L3.139,34.09A48.274,48.274,0,0,1,48.991.766Z" fill="#ffd15b"/>
              <path id="Path_1242812" data-name="Path 1242812" d="M48.991,48.99l-28.339,39A48.213,48.213,0,0,1,3.139,34.09Z" fill="#6fd7a3"/>
              <path id="Path_1242813" data-name="Path 1242813" d="M77.329,87.994l.008.011a48.266,48.266,0,0,1-56.686-.011l28.339-39Z" fill="#01d0fb"/>
              <path id="Path_1242814" data-name="Path 1242814" d="M94.845,34.09A48.236,48.236,0,0,1,77.338,88.006l-.008-.011-28.339-39Z" fill="#9257ff"/>
              <path id="Path_1242815" data-name="Path 1242815" d="M94.845,34.09,48.991,48.99V.766A48.23,48.23,0,0,1,94.845,34.09Z" fill="#fd4755"/>
            </g>
          </g>
        </g>
        <g id="Base">
          <path id="Path_1242816" data-name="Path 1242816" d="M6.014,32.328A46.538,46.538,0,0,1,47.936,1.854v44.1Z" fill="#fee45a"/>
          <path id="Path_1242817" data-name="Path 1242817" d="M20.957,84.9A46.5,46.5,0,0,1,4.942,35.6l41.93,13.625Z" fill="#9be69d"/>
          <path id="Path_1242818" data-name="Path 1242818" d="M49.653,94.826a46.977,46.977,0,0,1-25.907-7.909L49.659,51.252,75.581,86.93a46.753,46.753,0,0,1-25.927,7.9Z" fill="#62dbfb"/>
          <path id="Path_1242819" data-name="Path 1242819" d="M52.446,49.227,94.376,35.6a46.355,46.355,0,0,1-16.009,49.3Z" fill="#be9bff"/>
          <path id="Path_1242820" data-name="Path 1242820" d="M51.381,1.853A46.354,46.354,0,0,1,93.312,32.327L51.381,45.951Z" fill="#fe646f"/>
        </g>
        <g id="Outline">
          <path id="Path_1242821" data-name="Path 1242821" d="M95.573,33.854v0A48.932,48.932,0,0,0,33.857,2.41,48.893,48.893,0,0,0,2.411,33.853h0A48.978,48.978,0,0,0,20.2,88.614a48.86,48.86,0,0,0,43.924,6.959A48.974,48.974,0,0,0,95.574,33.856v0Zm-46.588,62.6a47.856,47.856,0,0,1-27.259-8.633L48.991,50.292,76.264,87.83a47.691,47.691,0,0,1-27.279,8.621Zm.771-48.515V1.539A47.318,47.318,0,0,1,93.873,33.6Zm-1.531-46.4v46.4L4.115,33.6A47.494,47.494,0,0,1,48.225,1.539ZM3.636,35.057,47.752,49.393,20.487,86.92A47.444,47.444,0,0,1,3.636,35.057ZM77.5,86.93,50.229,49.393,94.346,35.057A47.319,47.319,0,0,1,77.5,86.93Z"/>
        </g>
      </g>
    </g>
  </g>
</svg>
