<svg id="Group_1200632" data-name="Group 1200632" xmlns="http://www.w3.org/2000/svg" xmlns:xlink="http://www.w3.org/1999/xlink" width="105" height="104.712" viewBox="0 0 105 104.712">
  <defs>
    <clipPath id="clip-path">
      <rect id="Rectangle_411493" data-name="Rectangle 411493" width="105" height="104.712" fill="none"/>
    </clipPath>
  </defs>
  <g id="Group_1200631" data-name="Group 1200631" clip-path="url(#clip-path)">
    <path id="Path_1241780" data-name="Path 1241780" d="M663.781,1165.472a1.1,1.1,0,1,1,0-2.2h0a1.1,1.1,0,1,1,0,2.2" transform="translate(-612.996 -1076.056)"/>
    <path id="Path_1241781" data-name="Path 1241781" d="M663.781,250.482a1.1,1.1,0,0,1,0-2.2h0a1.1,1.1,0,1,1,0,2.2" transform="translate(-612.996 -229.667)"/>
    <path id="Path_1241782" data-name="Path 1241782" d="M688.005,260.53a1.1,1.1,0,0,1-.778-.322,32.983,32.983,0,0,0-23.476-9.724,1.1,1.1,0,1,1,0-2.2,35.169,35.169,0,0,1,25.032,10.369,1.1,1.1,0,0,1-.778,1.878" transform="translate(-612.969 -229.668)"/>
    <path id="Path_1241783" data-name="Path 1241783" d="M997.295,408.734a1.1,1.1,0,0,1-1.1-1.1,32.983,32.983,0,0,0-9.724-23.476,1.1,1.1,0,0,1,1.556-1.556,35.169,35.169,0,0,1,10.369,25.032,1.1,1.1,0,0,1-1.1,1.1" transform="translate(-912.212 -353.618)"/>
    <path id="Path_1241784" data-name="Path 1241784" d="M987.248,732.232h-.033a1.1,1.1,0,0,1-.745-1.878,32.96,32.96,0,0,0,9.689-21.929c0-.013,0-.028,0-.041.005-.126.01-.251.014-.377,0,0,0-.01,0-.015s0-.029,0-.043c0-.072,0-.143.006-.215,0-.052,0-.1,0-.155,0,0,0,0,0-.006,0-.139,0-.279.006-.418,0-.092,0-.184,0-.277a1.1,1.1,0,1,1,2.2,0q0,.084,0,.168,0,.255-.006.51c0,.045,0,.09,0,.136a35.157,35.157,0,0,1-10.359,24.219,1.1,1.1,0,0,1-.778.322" transform="translate(-912.211 -652.861)"/>
    <path id="Path_1241785" data-name="Path 1241785" d="M663.751,1041.523a1.1,1.1,0,1,1,0-2.2,32.984,32.984,0,0,0,23.476-9.724,1.122,1.122,0,0,1,.8-.322,1.1,1.1,0,0,1,.758,1.878,35.176,35.176,0,0,1-25.032,10.369" transform="translate(-612.969 -952.106)"/>
    <path id="Path_1241786" data-name="Path 1241786" d="M677.325,58.946V88.911a19.57,19.57,0,0,1,13.881,5.75l10.373-10.373,10.816-10.816a49.441,49.441,0,0,0-35.07-14.526" transform="translate(-626.543 -54.527)" fill="#ed1c24"/>
    <path id="Path_1241787" data-name="Path 1241787" d="M677.632,82.187a1.1,1.1,0,0,1-.778-.322,18.41,18.41,0,0,0-13.1-5.428,1.1,1.1,0,0,1-1.1-1.1V45.372a1.1,1.1,0,0,1,1.1-1.1A50.541,50.541,0,0,1,699.6,59.121a1.1,1.1,0,0,1,0,1.556L678.41,81.865a1.1,1.1,0,0,1-.778.322M664.85,74.265a20.561,20.561,0,0,1,12.761,5.286l19.644-19.644A48.144,48.144,0,0,0,664.85,46.485Z" transform="translate(-612.968 -40.953)"/>
    <path id="Path_1241788" data-name="Path 1241788" d="M883.66,252.7l-10.816,10.816-10.373,10.373a19.57,19.57,0,0,1,5.75,13.881h29.965A49.441,49.441,0,0,0,883.66,252.7" transform="translate(-797.808 -233.751)" fill="#f7941d"/>
    <path id="Path_1241789" data-name="Path 1241789" d="M884.613,275.293H854.648a1.1,1.1,0,0,1-1.1-1.1,18.409,18.409,0,0,0-5.428-13.1,1.1,1.1,0,0,1,0-1.556l21.188-21.188a1.1,1.1,0,0,1,1.556,0,50.541,50.541,0,0,1,14.849,35.848,1.1,1.1,0,0,1-1.1,1.1m-28.893-2.2H883.5a48.145,48.145,0,0,0-13.423-32.405l-19.644,19.644a20.562,20.562,0,0,1,5.286,12.761" transform="translate(-784.234 -220.177)"/>
    <path id="Path_1241790" data-name="Path 1241790" d="M701.579,915.972,691.206,905.6a19.57,19.57,0,0,1-13.881,5.75v29.965a49.441,49.441,0,0,0,35.07-14.526l-10.816-10.816h0" transform="translate(-626.543 -837.702)" fill="#8dc63f"/>
    <path id="Path_1241791" data-name="Path 1241791" d="M663.75,928.84a1.1,1.1,0,0,1-1.1-1.1V897.775a1.1,1.1,0,0,1,1.1-1.1,18.41,18.41,0,0,0,13.1-5.428,1.1,1.1,0,0,1,1.556,0l10.365,10.365.008.008L699.6,912.435a1.1,1.1,0,0,1,0,1.556A50.541,50.541,0,0,1,663.75,928.84m1.1-29.994v27.781A48.144,48.144,0,0,0,697.256,913.2l-10.022-10.022-.007-.007-9.615-9.615a20.563,20.563,0,0,1-12.761,5.286" transform="translate(-612.968 -824.128)"/>
    <path id="Path_1241792" data-name="Path 1241792" d="M872.845,744.706l10.816,10.816a49.441,49.441,0,0,0,14.526-35.07H868.222a19.57,19.57,0,0,1-5.75,13.881l10.373,10.373h0" transform="translate(-797.808 -666.436)" fill="#ffec00"/>
    <path id="Path_1241793" data-name="Path 1241793" d="M870.087,743.047a1.1,1.1,0,0,1-.778-.322L858.5,731.917l-.008-.008L848.12,721.536a1.1,1.1,0,0,1,0-1.556,18.41,18.41,0,0,0,5.428-13.1,1.1,1.1,0,0,1,1.1-1.1h29.965a1.1,1.1,0,0,1,1.1,1.1,50.542,50.542,0,0,1-14.849,35.848,1.1,1.1,0,0,1-.778.322m-10.045-12.7.008.008,10.029,10.029A48.144,48.144,0,0,0,883.5,707.977H855.72a20.56,20.56,0,0,1-5.286,12.761Z" transform="translate(-784.234 -652.861)"/>
    <path id="Path_1241794" data-name="Path 1241794" d="M662.635,250.482a1.1,1.1,0,0,1,0-2.2h0a1.1,1.1,0,0,1,0,2.2" transform="translate(-611.936 -229.667)"/>
    <path id="Path_1241795" data-name="Path 1241795" d="M662.635,1165.472a1.1,1.1,0,1,1,0-2.2h0a1.1,1.1,0,0,1,0,2.2" transform="translate(-611.936 -1076.056)"/>
    <path id="Path_1241796" data-name="Path 1241796" d="M363.361,1041.522a35.169,35.169,0,0,1-25.032-10.369,1.1,1.1,0,0,1,1.556-1.556,32.984,32.984,0,0,0,23.476,9.724,1.1,1.1,0,1,1,0,2.2" transform="translate(-312.665 -952.106)"/>
    <path id="Path_1241797" data-name="Path 1241797" d="M215.157,732.232a1.1,1.1,0,0,1-.778-.322,35.169,35.169,0,0,1-10.369-25.032,1.1,1.1,0,1,1,2.2,0,32.983,32.983,0,0,0,9.724,23.476,1.1,1.1,0,0,1-.778,1.878" transform="translate(-188.714 -652.861)"/>
    <path id="Path_1241798" data-name="Path 1241798" d="M205.11,408.734a1.1,1.1,0,0,1-1.1-1.1A35.169,35.169,0,0,1,214.379,382.6a1.1,1.1,0,1,1,1.556,1.556,32.983,32.983,0,0,0-9.724,23.476,1.1,1.1,0,0,1-1.1,1.1" transform="translate(-188.714 -353.618)"/>
    <path id="Path_1241799" data-name="Path 1241799" d="M339.107,260.53a1.1,1.1,0,0,1-.778-1.878,35.169,35.169,0,0,1,25.032-10.369,1.1,1.1,0,1,1,0,2.2,32.983,32.983,0,0,0-23.476,9.724,1.1,1.1,0,0,1-.778.322" transform="translate(-312.665 -229.668)"/>
    <path id="Path_1241800" data-name="Path 1241800" d="M229.613,905.6l-10.373,10.373-10.816,10.816a49.441,49.441,0,0,0,35.07,14.526V911.349a19.57,19.57,0,0,1-13.881-5.75" transform="translate(-192.798 -837.702)" fill="#009444"/>
    <path id="Path_1241801" data-name="Path 1241801" d="M229.921,928.839a50.541,50.541,0,0,1-35.848-14.848,1.1,1.1,0,0,1,0-1.556l21.188-21.189a1.1,1.1,0,0,1,1.556,0,18.41,18.41,0,0,0,13.1,5.428,1.1,1.1,0,0,1,1.1,1.1v29.965a1.1,1.1,0,0,1-1.1,1.1M196.415,913.2a48.145,48.145,0,0,0,32.405,13.423V898.846a20.562,20.562,0,0,1-12.761-5.286Z" transform="translate(-179.224 -824.127)"/>
    <path id="Path_1241802" data-name="Path 1241802" d="M44.639,720.451H14.674A49.441,49.441,0,0,0,29.2,755.521l10.816-10.816,10.373-10.373a19.57,19.57,0,0,1-5.75-13.881" transform="translate(-13.574 -666.435)" fill="#27aae1"/>
    <path id="Path_1241803" data-name="Path 1241803" d="M15.627,743.048a1.1,1.1,0,0,1-.778-.322A50.542,50.542,0,0,1,0,706.878a1.1,1.1,0,0,1,1.1-1.1H31.065a1.1,1.1,0,0,1,1.1,1.1,18.409,18.409,0,0,0,5.428,13.1,1.1,1.1,0,0,1,0,1.556L16.4,742.726a1.1,1.1,0,0,1-.778.322M2.213,707.978a48.145,48.145,0,0,0,13.423,32.405l19.644-19.644a20.562,20.562,0,0,1-5.286-12.761Z" transform="translate(0 -652.862)"/>
    <path id="Path_1241804" data-name="Path 1241804" d="M219.241,84.288l10.373,10.373a19.57,19.57,0,0,1,13.881-5.75V58.946a49.441,49.441,0,0,0-35.07,14.526l10.816,10.816h0" transform="translate(-192.798 -54.527)" fill="#662d91"/>
    <path id="Path_1241805" data-name="Path 1241805" d="M216.039,82.187a1.1,1.1,0,0,1-.778-.322L204.9,71.5l-.008-.008L194.072,60.677a1.1,1.1,0,0,1,0-1.556A50.542,50.542,0,0,1,229.92,44.272a1.1,1.1,0,0,1,1.1,1.1V75.337a1.1,1.1,0,0,1-1.1,1.1,18.41,18.41,0,0,0-13.1,5.428,1.1,1.1,0,0,1-.778.322m-9.6-12.258.007.007,9.615,9.615a20.562,20.562,0,0,1,12.761-5.286V46.485a48.145,48.145,0,0,0-32.405,13.423Z" transform="translate(-179.224 -40.953)"/>
    <path id="Path_1241806" data-name="Path 1241806" d="M40.015,263.513,29.2,252.7a49.441,49.441,0,0,0-14.526,35.07H44.638a19.57,19.57,0,0,1,5.75-13.881L40.015,263.513h0" transform="translate(-13.573 -233.751)" fill="#2b3990"/>
    <path id="Path_1241807" data-name="Path 1241807" d="M31.065,275.291H1.1a1.1,1.1,0,0,1-1.1-1.1,50.541,50.541,0,0,1,14.849-35.848,1.1,1.1,0,0,1,1.556,0l10.808,10.808.008.008,10.373,10.373a1.1,1.1,0,0,1,0,1.556,18.41,18.41,0,0,0-5.428,13.1,1.1,1.1,0,0,1-1.1,1.1m-28.853-2.2H29.993a20.562,20.562,0,0,1,5.286-12.761l-9.607-9.607-.008-.008L15.635,240.686A48.145,48.145,0,0,0,2.213,273.091" transform="translate(0 -220.175)"/>
    <path id="Path_1241808" data-name="Path 1241808" d="M880.657,38.854,879,37.193,866.24,24.437l-1.661-1.661a4.886,4.886,0,0,1,6.91-6.91l1.661,1.661L888.693,1.983a6.77,6.77,0,0,1,9.574,0l3.183,3.182a6.77,6.77,0,0,1,0,9.574L885.906,30.284l1.661,1.661a4.886,4.886,0,0,1-6.91,6.91" transform="translate(-798.433)"/>
    <path id="Path_1241809" data-name="Path 1241809" d="M676.2,353.328a8.239,8.239,0,0,1-8.147.117l-2.785,2.785a2.349,2.349,0,0,1-3.322-3.322l2.785-2.785a8.24,8.24,0,0,1,.116-8.147,31.686,31.686,0,0,1,4.862-6.266l9.777-9.777,12.757,12.757-9.777,9.777a31.681,31.681,0,0,1-6.266,4.862" transform="translate(-611.683 -301.495)" fill="#94dbff"/>
    <path id="Path_1241810" data-name="Path 1241810" d="M653.656,347.769a3.155,3.155,0,0,1-2.232-5.386l2.373-2.373a9.083,9.083,0,0,1,.4-8.4,32.512,32.512,0,0,1,4.986-6.426l9.777-9.777a.807.807,0,0,1,1.141,0l12.757,12.757a.807.807,0,0,1,0,1.141l-9.777,9.777a32.512,32.512,0,0,1-6.426,4.986,9.083,9.083,0,0,1-8.4.4l-2.373,2.373a3.147,3.147,0,0,1-2.232.923m15.879-30.65-9.206,9.206a30.893,30.893,0,0,0-4.738,6.107,7.466,7.466,0,0,0-.1,7.349.807.807,0,0,1-.138.957l-2.785,2.785a1.542,1.542,0,1,0,2.181,2.181l2.785-2.785a.807.807,0,0,1,.957-.138,7.466,7.466,0,0,0,7.349-.1,30.89,30.89,0,0,0,6.107-4.738l9.206-9.206Z" transform="translate(-601.729 -291.542)"/>
    <path id="Path_1241811" data-name="Path 1241811" d="M763.717,423.312a1.027,1.027,0,0,1-.725-1.754l7.94-7.912a1.027,1.027,0,1,1,1.45,1.455l-7.94,7.912a1.024,1.024,0,0,1-.725.3" transform="translate(-705.507 -382.356)" fill="#fff"/>
    <path id="Path_1241812" data-name="Path 1241812" d="M1061.867,88.043a1.027,1.027,0,0,1-.717-1.762l10.606-10.337a1.027,1.027,0,1,1,1.433,1.471l-10.606,10.337a1.023,1.023,0,0,1-.716.291" transform="translate(-981.304 -69.98)" fill="#fff"/>
  </g>
</svg>
