<svg xmlns="http://www.w3.org/2000/svg" xmlns:xlink="http://www.w3.org/1999/xlink" width="503.348" height="364.506" viewBox="0 0 503.348 364.506">
  <defs>
    <filter id="Rectangle_409501" x="5.76" y="0" width="497.588" height="344.012" filterUnits="userSpaceOnUse">
      <feOffset dy="3" input="SourceAlpha"/>
      <feGaussianBlur stdDeviation="3" result="blur"/>
      <feFlood flood-opacity="0.161"/>
      <feComposite operator="in" in2="blur"/>
      <feComposite in="SourceGraphic"/>
    </filter>
    <clipPath id="clip-path">
      <rect id="Rectangle_411846" data-name="Rectangle 411846" width="436.556" height="340.388" fill="none"/>
    </clipPath>
    <clipPath id="clip-path-2">
      <path id="Path_1248186" data-name="Path 1248186" d="M24.26,227.335c0,71.249,49.239,111.42,49.239,111.42H362.8s52.468-23.832,52.468-94.444c0-107.987-52.445-168.262-147.032-168.262S24.26,119.349,24.26,227.335" transform="translate(-24.26 -76.05)" fill="none"/>
    </clipPath>
    <clipPath id="clip-path-4">
      <rect id="Rectangle_411828" data-name="Rectangle 411828" width="12.448" height="11.405" fill="none"/>
    </clipPath>
    <clipPath id="clip-path-5">
      <rect id="Rectangle_411834" data-name="Rectangle 411834" width="6.582" height="10.189" fill="none"/>
    </clipPath>
    <clipPath id="clip-path-6">
      <rect id="Rectangle_411835" data-name="Rectangle 411835" width="3.414" height="1.648" fill="none"/>
    </clipPath>
    <clipPath id="clip-path-7">
      <rect id="Rectangle_411836" data-name="Rectangle 411836" width="3.431" height="4.064" fill="none"/>
    </clipPath>
    <clipPath id="clip-path-8">
      <rect id="Rectangle_411837" data-name="Rectangle 411837" width="28.873" height="15.109" fill="none"/>
    </clipPath>
    <clipPath id="clip-path-9">
      <rect id="Rectangle_411838" data-name="Rectangle 411838" width="5.209" height="17.163" fill="none"/>
    </clipPath>
    <clipPath id="clip-path-10">
      <rect id="Rectangle_411839" data-name="Rectangle 411839" width="31.504" height="13.827" fill="none"/>
    </clipPath>
    <clipPath id="clip-path-11">
      <rect id="Rectangle_411840" data-name="Rectangle 411840" width="6.582" height="10.194" fill="none"/>
    </clipPath>
    <clipPath id="clip-path-12">
      <rect id="Rectangle_411841" data-name="Rectangle 411841" width="20.683" height="7.166" fill="none"/>
    </clipPath>
    <clipPath id="clip-path-15">
      <rect id="Rectangle_411844" data-name="Rectangle 411844" width="28.47" height="13.638" fill="none"/>
    </clipPath>
    <filter id="Rectangle_401315" x="433.348" y="198.512" width="34" height="117.092" filterUnits="userSpaceOnUse">
      <feOffset dy="3" input="SourceAlpha"/>
      <feGaussianBlur stdDeviation="3" result="blur-2"/>
      <feFlood flood-opacity="0.161"/>
      <feComposite operator="in" in2="blur-2"/>
      <feComposite in="SourceGraphic"/>
    </filter>
    <filter id="Ellipse_12336" x="452" y="38" width="36" height="36" filterUnits="userSpaceOnUse">
      <feOffset dy="3" input="SourceAlpha"/>
      <feGaussianBlur stdDeviation="3" result="blur-3"/>
      <feFlood flood-opacity="0.161"/>
      <feComposite operator="in" in2="blur-3"/>
      <feComposite in="SourceGraphic"/>
    </filter>
    <filter id="Ellipse_12337" x="452" y="61" width="36" height="36" filterUnits="userSpaceOnUse">
      <feOffset dy="3" input="SourceAlpha"/>
      <feGaussianBlur stdDeviation="3" result="blur-4"/>
      <feFlood flood-opacity="0.161"/>
      <feComposite operator="in" in2="blur-4"/>
      <feComposite in="SourceGraphic"/>
    </filter>
    <filter id="Ellipse_12338" x="452" y="84" width="36" height="36" filterUnits="userSpaceOnUse">
      <feOffset dy="3" input="SourceAlpha"/>
      <feGaussianBlur stdDeviation="3" result="blur-5"/>
      <feFlood flood-opacity="0.161"/>
      <feComposite operator="in" in2="blur-5"/>
      <feComposite in="SourceGraphic"/>
    </filter>
  </defs>
  <g id="Group_1200653" data-name="Group 1200653" transform="translate(-184.691 -2788)">
    <g id="Group_1187160" data-name="Group 1187160" transform="translate(184.691 2811)">
      <g id="Group_1187160-2" data-name="Group 1187160">
        <rect id="Rectangle_410370" data-name="Rectangle 410370" width="57" height="212" rx="5" fill="#e6e51d"/>
      </g>
    </g>
    <g id="Group_1187161" data-name="Group 1187161" transform="translate(199.451 2794)">
      <g transform="matrix(1, 0, 0, 1, -14.76, -6)" filter="url(#Rectangle_409501)">
        <path id="Rectangle_409501-2" data-name="Rectangle 409501" d="M5,0H474.588a5,5,0,0,1,5,5V321.012a5,5,0,0,1-5,5H0a0,0,0,0,1,0,0V5A5,5,0,0,1,5,0Z" transform="translate(14.76 6)" fill="#9a2cec"/>
      </g>
      <g id="Group_1184257" data-name="Group 1184257" transform="translate(427.588 198.512)">
        <g id="Group_1200871" data-name="Group 1200871" transform="translate(-404.674 -180.395)">
          <g id="Group_1200870" data-name="Group 1200870" clip-path="url(#clip-path)">
            <path id="Path_1248323" data-name="Path 1248323" d="M0,0H436.556V309.708H0Z" fill="#cff1ef"/>
            <g id="Group_1200831" data-name="Group 1200831" transform="translate(13.942 40.045)">
              <g id="Group_1200830" data-name="Group 1200830" clip-path="url(#clip-path-2)">
                <path id="Path_1248664" data-name="Path 1248664" d="M0,0H391.012V262.705H0Z" transform="translate(0 0)" fill="#88ddd8"/>
              </g>
            </g>
            <g id="Group_1200869" data-name="Group 1200869">
              <g id="Group_1200868" data-name="Group 1200868" clip-path="url(#clip-path)">
                <path id="Path_1248187" data-name="Path 1248187" d="M399.2,571.618c0,1.4-68.278,2.527-152.509,2.527S94.18,573.013,94.18,571.618s68.272-2.528,152.509-2.528S399.2,570.222,399.2,571.618" transform="translate(-40.057 -269.431)" fill="#bac8ce"/>
                <path id="Path_1248188" data-name="Path 1248188" d="M551.228,143.954c0,57.806-51.141,104.664-114.229,104.664S322.77,201.76,322.77,143.954,373.911,39.29,437,39.29,551.228,86.148,551.228,143.954" transform="translate(-137.281 -18.602)" fill="#193761"/>
                <path id="Path_1248189" data-name="Path 1248189" d="M634.888,325.434c-.523-.769-1.488.242-1.718-1.148a5.067,5.067,0,0,1,.523-3.028,25.062,25.062,0,0,0,2.379-5.55c.581-2.475,1.207-3.918,3.494-5.524a19.916,19.916,0,0,0,4.442-4.086c.626-.779,1.362-2.28,2.189-2.448a18.931,18.931,0,0,1-.063,3.607c-.04.674-.787,4.055-1.4,2.5-.443,1.722-.425,3.28-1.253,5.013a33.33,33.33,0,0,1-2.563,4.26c-.81,1.185-4.77,8.23-6.063,6.519.012-.047.017-.074.029-.121Z" transform="translate(-269.276 -143.761)" fill="#259caa"/>
                <path id="Path_1248190" data-name="Path 1248190" d="M588.985,81.054c-.144-.063-5.919.448-6.023.395-1.034-.548-2.448-2.033-3.27-2.1a21.292,21.292,0,0,0,2.908,3.507,7.769,7.769,0,0,1,1.494,2.248c.276.716.27,1.5-1.006.169-.954-1-.684-1.448-1.04-2.159a13.765,13.765,0,0,0-2.006-2.58c-1.31-1.459-2.684-3.175-4.189-3.986-1.414-.758-1.092,1.264.04,2.7.592.748,1.931,1.764.661,1.29-.833-.316-1.7-1.459-2.552-2.133-1.735-1.385-3.161-.953-4.586-1.337-1.822-.484-3.4-1.374-4.666-.637-.552.321-.937,1.032-1.994-.016-.828-.821-1.138-2.111-2.184-1.759-.782.263.046,1.274-.138,2.017-.184.721-1.063.5-1.6.874-.649.453-.563.806-1.724.411-.787-.269-2.161-.732-1.851-1.727.253-.8,4.506,1.316,3.149-1.158-.69-1.258-3.724-2.78-4.712-3.223-.919-.411-1.822-.632-2.747-1.022a8.693,8.693,0,0,1-2.144-1.374,7.633,7.633,0,0,0-4.948-1.164,20.02,20.02,0,0,0-4.534.453c-1.454.39-2.368,2.148-3.4,3.233-1.075,1.132-2.385,1.959-3.626,3.075a7.555,7.555,0,0,1-2.414,1.385c-.8.358-1.471.69-1.391,1.8a8.52,8.52,0,0,0,1.282,2.891c.8,1.369,1.149,1.274,2.31.853,1.891-.685,3.23-.363,4.505,2.027.483.906.132,2.527.983,3.254.621.532,1.8.042,2.218-.484.586-.742.092-1.416.282-2.3a9.278,9.278,0,0,1,1.511-2.412c.649-1.064.247-.979-.115-2.212a3.154,3.154,0,0,1,.281-2.512c.494-.632,1.213-.769,1.678-1.411.328-.458,1.351-1.5,2.345-.405.96,1.048-1.724,3.049-1.7,4.207.063,2.6,2.885,2.759,4.4,2.612.759-.074,1.862-.727,2.753-.258,1.132.59,1.08,1.427.161,1.453-.764.021-2.144-.758-2.9-.453-1.029.416.149,1.3.144,2.28-.92-.016-1.707-1.1-2.557-.974-1.1.158-.569,1.553-.437,2.538.454,3.275-2.287.732-4.27,1-1.161.153-1.345.885-2.592.621a10.634,10.634,0,0,1-2.609-.458c-1.488-.721-1.075-1.39-.971-2.438.1-1.064-.385-1.764-.661-2.843-1.374-.363-2.253,1.943-2.006,3.133.425,2.017,1.213,2.575-1.276,2.5-2.218-.068-2.787,1.8-4.46,3.022a30.878,30.878,0,0,1-4.73,3.317c-.839.4-5.954-.69-3.948,2.043,1.287,1.743,3.54,2.059,3.477,4.86-.069,2.907-3.011,1.422-5.074,1.28a5.4,5.4,0,0,0-3.241.521c-1.132.816-.753,1.69-.931,2.922-.3,2.069-1.5,3.907-.827,6.055.856,2.712,3.678-.505,4.459,2.722.276-.226.414-.337.69-.563.489.727,2.54.137,3.322-.095,2.264-.679,2.839-2.712,4.166-4.413.724-.927,1.7-1.1,2.483-1.922,1.006-1.058.31-1.938.8-3.028.534-1.179,1.667-.269,2.649-.163,1.6.174,1.368-.553,2.345-1.222,1.259-.864,4.08.985,5.31,2.075,1.506,1.337,3.655,2.491,4.931,4.07a1.9,1.9,0,0,1,.034,2.643c-.649.516-2.557-.758-2.764.395-.115.632,1.638,1.859,2.092,1.959,1.011.232,1.454-.516,2.161-1.19a2.133,2.133,0,0,0,.776-2.391c-.247-1.58-.391-1.448,1.287-1.422-.213-1.006-1.5-1.2-2.224-1.606-.96-.537-1.115-1.027-1.827-1.759-1.155-1.174-3.839-2.485-4.2-4.249-.621-3.1,3.488.316,4.3,1.016,1.609,1.39,3.965,2.622,5.092,4.539.644,1.1.546,2.291,1.149,3.365.471.832,1.3,1.4,1.69,2.264.437.974.414,2.527,1.764,2.733,1.632.247.718-1.359.46-2.259,1.483.358.8-.616.471-1.3-.477-1-1.2-1.669-.494-2.633,1.052-1.437,3.138-.09,4.569.174,3.948.721-.379-2.522.006-4.165.3-1.285,1.816-3.739,3.12-3.491a5.145,5.145,0,0,1,1.454.674c.391.358.224.8.6,1.153,1.052,1,1.661.063,2.655-.011,1.615-.121,3.81,1.848,5.316,2.9,1.667,1.164,4.833,2.633,2.891,4.149-1.517,1.179-3.592-.521-5.741-.685a18.515,18.515,0,0,1-2.937-.111,8.268,8.268,0,0,0-3.149-.495c-.851.147-1.4.869-2.218,1.079-1.19.295-2.109-.527-1.736,1.016.534,2.212,1.356,4.123,3.741,4.344,2.052.19,4.011-.063,6.028.068,1.563.1,1.753.353,1.741,1.78a27.943,27.943,0,0,0,.1,3.138c.224,2.122.46,4.513-2.057,4.5-2.075-.011-4.425-.606-6.643-.758a12.084,12.084,0,0,1-3.2-.453,22.584,22.584,0,0,0-3.08-1.164c-.718-.142-2.764-.49-3.316-.095s-.057.958-.437,1.39-.626.226-1.178.353c-2.6.6-3.023-1.085-5.092-2.4-1.034-.658-2.207-.979-3.2-1.706-.971-.711-.971-1.553-1.718-2.47-.4-.495-1.057-.7-1.322-1.3-.213-.484.126-1.2-.08-1.69-.58-1.38-1.615-.721-2.879-.964a29.684,29.684,0,0,0-6.373-.411c-2.2.042-3.758,1.011-5.706,1.98-.914.458-1.81,1.19-2.873,1.137-.983-.047-1.609-.869-2.649-.89-2.281-.047-3.316,2.269-4.7,3.86-.6.674-1.684,1.232-2.161,1.985-.667,1.053-.126,2.243-.534,3.386-.741,2.069-3.178,2.306-4.316,3.965l-.575.737c-.914,1.2-2.207,1.285-3.04,2.517-.96,1.422-1.224,3.4-1.983,4.913a17.312,17.312,0,0,0-1.31,2.238c-.184.89.448,1.48.672,2.243a7.567,7.567,0,0,1-.144,5.144c-.511,1.258-.368,2.57-.874,3.749-.586,1.359-1.115,1.769-.908,3.5.351,2.917,3.46,4.365,5.276,6.292,1.919,2.027,4.569,2.843,5.528,5.624.753,2.175.374,2.986,2.758,2.838,1.356-.084,2.707-.606,4.057-.616,1.236-.011,2.224.458,3.46.453a12.532,12.532,0,0,0,5.017-1.258c2.322-1.043,4.925-2.427,6.85-.158,1.052,1.243,1.5,2.159,3.075,2.48,1.373.284,1.908.142,2.684,1.459,1.506,2.559-.626,5.044-.063,7.709.471,2.19,2.839,4.028,3.868,5.855.678,1.2.23,2.248.4,3.586.167,1.306.954,2.364,1.259,3.57.678,2.68-1.27,4.734-1.81,7.2a31.507,31.507,0,0,0-.977,4.607,21.294,21.294,0,0,0,.443,3.575,10.248,10.248,0,0,0,.77,3.586c.494.948,1.494,1.6,1.661,2.728.31,2.127-.494,4.565.006,6.561.247.99.931,1.353,1.379,2.09a13.1,13.1,0,0,1,.856,2.47c.557,1.611-.684,4.291,1.04,4.76.155.521.236.779.385,1.3a6.647,6.647,0,0,0,2.62-1.074c1.172-.7,1.523-.432,2.718-.69,1.908-.405,3.787-2.222,5.425-3.575a27.478,27.478,0,0,0,4.954-4.881,8.008,8.008,0,0,0,1.345-2.917c.172-.9-.247-1.727.489-2.643a.4.4,0,0,1,.052-.237c1.552-1.037,4.241-1.922,4.408-4.4.075-1.069-.8-1.459-.488-2.664a9.812,9.812,0,0,1,2.063-3.08,20.751,20.751,0,0,1,3.029-3.307c1.034-.811,2.069-1.148,2.873-2.238,1.638-2.227,1.27-4.381,1.908-6.719.454-1.68.213-1.543-.362-2.949a3.492,3.492,0,0,1-.109-2.764c.241-.542.707-.437.793-1.222.063-.553-.471-.674-.511-1.143-.1-1.127.638-1.985,1.075-2.98a11.762,11.762,0,0,1,1.46-2.938,26.133,26.133,0,0,1,2.638-2.7c1.919-1.848,3.408-4.012,5.408-5.65,3.235-2.643,4.672-7.809,5.4-11.684.2-1.069.874-2.106-.149-2.57a3.547,3.547,0,0,0-2.77.495c-1.724.927-3.609,2.212-5.655,2.09-2.23-.132-3.287-2.122-3.741-4.276-.891-.532-1.046-1.432-1.684-2.238-.621-.779-1.563-1.153-2.115-2.017-.54-.848-.6-2-1.149-2.812-.8-1.18-1.351-1.227-1.632-2.691-.224-1.164-.109-2.159-.764-3.217-.69-1.106-1.569-1.106-2.379-1.869-2.052-1.932-1.885-4.176-2.764-6.529-.425-1.148-2.23-5.155-1.121-5.929.954,1.127,1.316,1.717,2.373,1.4,1.144-.342,1.138-.927,2.069.663a23.635,23.635,0,0,0,2.925,4.692,21.9,21.9,0,0,1,3.655,5.466,24.06,24.06,0,0,1,.943,3.449c.351,1.19.925,1.359,1.8,2.217,1.385,1.353,3.075,3.149,3.35,5.044.282,1.943-.7,4.987,2.126,4.944,1.85-.026,3.988-1.559,5.729-2.1,2.465-.764,3.293-2.412,5.011-4.234,1.523-1.617,3.1-2.691,3.46-4.918.086-.579-.035-.848.236-1.369.282-.537,1.006-.574.816-1.432-.155-.7-1.281-1.485-1.839-2.033-.667-.658-1.23-1.422-1.787-1.99-1.046-1.069-1.121-.548-1.626.369a3.392,3.392,0,0,1-5.138.195c-.874-1.122-.414-2.006-1.914-2.907-1.057-.637-1.948-.663-2.431-2.038-.609-1.743-1.207-5.676,1.609-3.7.839.59,1.121,1.5,1.707,2.248a17.879,17.879,0,0,0,2.563,2.707c1.7,1.4,3.615.663,5.155,2.222.856.864.9,1.064,2.029,1.453.816.284,1.776.7,2.6.937,2.155.621,3.816-.764,5.913-.379a7.515,7.515,0,0,1,4.1,2.728c.7.842.494,1.664,1.276,2.48.563.584,1.816,1.511,2.511,1.422.1-.7.3-1.459,1.109-1.164,1.35.479,1.282,2.37,1.46,3.317.391,2.1,2.241,4.486,3.109,6.466.891,2.027.965,4.3,1.4,6.408.276,1.343,2.034,2.085,2.58,1.732,1.908-40.866-22.223-69.095-36.337-80.769Z" transform="translate(-211.461 -32.327)" fill="#259caa"/>
                <path id="Path_1248191" data-name="Path 1248191" d="M523.974,108.354c1.006-.842,2.862-1.258,3.184-2.77a6.045,6.045,0,0,1,.2-1.2c.172-.416.511-.337.534-.879.04-1.022-1-1.174-1.672-.848-.592.284-.925.974-1.419,1.369-.736.574-1.713.321-2.419.879a1.9,1.9,0,0,0-.442,2.027c.339.732,1.477.537,1.46,1.311v.1h.586Z" transform="translate(-221.933 -48.531)" fill="#259caa"/>
                <path id="Path_1248192" data-name="Path 1248192" d="M510.818,75.228c.954-.821,4.322-.7,4.649-2.127.086-.39-.155-1.032,0-1.406.172-.395-.925-.606-.891-1.116.069-.958-.9-1.074-1.534-.753-.557.284-.885.937-1.356,1.322-.7.558-1.592.353-2.258.9-.42.342-2.724,1.443-2.454,2.08.282.674,1.333.453,1.293,1.179,0,.032,2-.09,2-.058.224-.005.328-.011.546-.011Z" transform="translate(-215.617 -32.982)" fill="#259caa"/>
                <path id="Path_1248193" data-name="Path 1248193" d="M532.266,103.919c.08-1.2.58-1.148,1.1-2.011.374-.621.029-1.574.132-2.275.1-.663.586-1.253.448-1.969-.149-.748-.839-.953-1.218-1.585a4.183,4.183,0,0,1,.649-4.5c.431-.405,1.425-.964,2-.49.736.606.224,1.332-.293,1.611.454.821,1.609.263,1.839,1.243.121.516-.276.574-.351.958-.1.479-.052.326.057.885.1.511.27.374.161.916-.092.432-.569.358-.448,1.022.115.616.925,1.106,1.3,1.432.351.311.489.079.678.642.149.453-.247.737-.149,1.085.172.574,1.6,1.237.839,1.911-.356.311-1.776-.116-2.276.058-.7.242-1.1.943-1.816,1.148-.546.158-1.793-.09-2.063.332-.241-.169-.362-.247-.6-.416Z" transform="translate(-226.381 -43.038)" fill="#259caa"/>
                <path id="Path_1248194" data-name="Path 1248194" d="M461.114,68.18c.557,2.122,3.161.116,4.23-1.143a20.421,20.421,0,0,1,1.736-2.148c.724-.658,1.6-1.148,2.322-1.8a15.284,15.284,0,0,0,1.747-2.127,3.9,3.9,0,0,1,2.184-1.243c1.609-.521,3.2-.521,4.58-1.738a8.062,8.062,0,0,1,5.005-2.2c1.057-.121,4.109-.269,4.655-1.585.276-.658-.454-1.243.471-1.69.707-.337,1.477.516,1.827-.332s-.868-1.1-.575-1.885,1.488-.416,2.1-.5c1.437-.195,1.5-1.306,1.58-2.606a1.6,1.6,0,0,0,1.086-1.527c.121-1.011.161-1.39,1.08-1.932,1.178-.7,2.534-.832,3.6-1.5.3-.19,1.247-.774,1.069-1.258-.178-.469-1.46-.321-1.868-.321-1.816.011-3.62.811-5.511.737-3.419-.132-6.477-1.416-9.815-1.111a18.784,18.784,0,0,0-6.4,1.674,42.728,42.728,0,0,1-6.1,2.075,29.333,29.333,0,0,1-2.885.969A10.728,10.728,0,0,0,464.3,46.17c-1.425.758-2.96,1.932-4.327,2.48-.983.395-3.523,1.174-2.132,2.248.73.563,2.006.074,3.12-.026a3.012,3.012,0,0,1,2.034.621c.845.632.1.9-.172,1.943-.316,1.2.759.542,1.236.879.822.579-.592.879-1.149,1.143-.178.753-.115,1.127-.73,1.68a8.323,8.323,0,0,0-1.523,1.285,10.182,10.182,0,0,0-1.764,4.128c-.276,1.2-.339,7.114,1.563,5.9l.644-.274Z" transform="translate(-194.555 -19.047)" fill="#259caa"/>
                <path id="Path_1248195" data-name="Path 1248195" d="M434.44,56.782c.58-.437,1.052-.053,1.552-.158a13.807,13.807,0,0,0,1.822-.785c1.092-.427,2.465-.184,3.62-.964.46-.311,1.259-1.316,1.828-1.753a15.157,15.157,0,0,1,2.063-1.222,17.706,17.706,0,0,1,2.609-1.2,8.6,8.6,0,0,0,2.023-1.3,29.451,29.451,0,0,1,4.115-1.811c1.373-.663,2.707-1.516,4.051-2.133.626-1.211-2.575-.016-3.086.084a30.3,30.3,0,0,0-4.942,1.532c-2.6.99-5.051,1.206-7.551,2.438-.644.321-3.052,1.4-2.345,2.006.31.269,2.856-.858,1.736.669-.615.837-2.644,1.722-3.385,2.127-1.172.648-2.253,1.269-3.442,2.006-.27.179-.4.269-.667.453Z" transform="translate(-184.776 -21.266)" fill="#259caa"/>
                <path id="Path_1248196" data-name="Path 1248196" d="M440.176,58.594c-.316-.253-.874-.211-1.224-.395-.368-.195-1-.016-1.7.421-.437.274-.839.637-1.282.906-.351.211-.69.427-1.017.6-.287.153-1.575.521-1.759.874s.563.706.793.669a6.076,6.076,0,0,0,1.787-.627c.667-.363,1.287-.8,1.954-1.1a8.36,8.36,0,0,1,.931-.405,4.094,4.094,0,0,0,.839-.226,2.671,2.671,0,0,0,.437-.326c.092-.158.138-.237.236-.395Z" transform="translate(-184.237 -27.517)" fill="#259caa"/>
                <path id="Path_1248197" data-name="Path 1248197" d="M425.743,81.192a3.379,3.379,0,0,0-1.224.058,2.89,2.89,0,0,0-1.27.842c-1.379,1.179-.253,1.243.632.985,1.086-.316,1.885-.663,2.448-.021a3.488,3.488,0,0,0,1.741,1.4c.3.079,1.144.353,1.58-.011.667-.548.121-1,.2-1.364.092-.442.6-.49.914-.516a1.656,1.656,0,0,0,1.437-.779,2.783,2.783,0,0,0,.615-2.728,1.178,1.178,0,0,1,.937-1.122c.529-.074.414.716.833.858,1.08.369,3.856-2.206,2.19-2.491-.713-.121-1.713.153-1.891-.611-.149-.637.172-.885.73-1.548,1.167-1.374-1.167-1.764-1.862-1.8a4.362,4.362,0,0,0-1.529.195,6.352,6.352,0,0,0-2.023.711c-.437.279-1.241.921-1.368.59s.23-.869-.322-.774-1.178.842-1.718,1.327a8.229,8.229,0,0,1-1.517,1.1,1.784,1.784,0,0,1,.563-1.206c.437-.49.626-.742.04-.59a9.358,9.358,0,0,0-2.6,2.054c-.46.458-.965,1.111-.833,1.453.144.363.839.2,1.339.068A14.393,14.393,0,0,0,427,76.116a3.782,3.782,0,0,1,1.247-.553c.126,0,.08.142.27.1.207-.047.333-.216.529-.342.965-.611.885.527,1.132,1,.374.711.241,1.764-.937,2.807a11.229,11.229,0,0,0-1.287,1.216,1.861,1.861,0,0,1-1.149.785c-.1.032-.213.063-.316.09-.3-.005-.448-.011-.747-.016Z" transform="translate(-179.665 -34.249)" fill="#259caa"/>
                <path id="Path_1248198" data-name="Path 1248198" d="M438.594,70.539c-.293.063-.776.132-.816-.147s.3-.727.644-.927a3.3,3.3,0,0,1,1.655-.237c.213-.026.621-.232.8-.168.276.1.1.474-.224.7a6.7,6.7,0,0,1-.9.353c-.356.174-.787.648-1.1.748-.023-.126-.04-.184-.063-.311Z" transform="translate(-186.194 -32.69)" fill="#259caa"/>
                <path id="Path_1248199" data-name="Path 1248199" d="M422.994,74.81c-.638.179-1.4.579-1.977.7a2.568,2.568,0,0,0-.638.121c-.149.105-.23.316-.356.442a3.3,3.3,0,0,1-.471.374c-.391.295-1.506,1.264-1.241,1.49.241.2,1.224-.663,1.655-.885a6.254,6.254,0,0,0,1.431-.721,5.632,5.632,0,0,0,1.356-1.222C422.85,74.989,422.9,74.931,422.994,74.81Z" transform="translate(-177.899 -35.418)" fill="#259caa"/>
                <path id="Path_1248200" data-name="Path 1248200" d="M433.024,68.542c.316-.495,1.414-.842,1.879-1.243.287-.247.776-.848.764-1.143s-.534-.111-.816,0a14.162,14.162,0,0,0-1.316.7,5.26,5.26,0,0,1-1.667.574,5.772,5.772,0,0,1-1.977.232c-.293-.09-.534-.137-1.08.495a10.115,10.115,0,0,1-1.282,1.432c.167.584,1.724-.174,2.552-.474a9.839,9.839,0,0,1,1.5-.532c.425-.063.707.158,1.155.016C432.852,68.579,432.909,68.563,433.024,68.542Z" transform="translate(-181.837 -31.246)" fill="#259caa"/>
                <path id="Path_1248201" data-name="Path 1248201" d="M410.266,82.414a5.7,5.7,0,0,0,2.276-1.49,12.759,12.759,0,0,0,.942-1.079c.259-.295.759-.764.816-1.053.057-.311-.552.053-.874.247a6.947,6.947,0,0,1-1.477.779c-.4.111-.494.126-.994.748a3.425,3.425,0,0,1-1.109,1.027c-.563.348-.6.532-.5.832.092.263.425.337.937.074a.423.423,0,0,0-.012-.084Z" transform="translate(-174.084 -37.246)" fill="#259caa"/>
                <path id="Path_1248202" data-name="Path 1248202" d="M419.018,73.768c-.19.269.391.174.592.1a2.881,2.881,0,0,0,.828-.542,5.272,5.272,0,0,1,.943-.679c.3-.169.655-.337.69-.721.052-.521-.9-.042-1.448.379-.276.211-.529.469-.787.685-.31.253-.609.421-.914.711a1.2,1.2,0,0,1,.1.074Z" transform="translate(-178.175 -33.944)" fill="#259caa"/>
                <path id="Path_1248203" data-name="Path 1248203" d="M409.619,96.035c.2-.479.983-.974,1.373-1.311a6.612,6.612,0,0,0,.977-1.148c.724-.89,1.408-.911,1.506-.405.075.374.287.421.466.706a.938.938,0,0,1-.19,1.111c-.408.316-.655-.095-.885-.137a1.125,1.125,0,0,0-.994.395,4.05,4.05,0,0,1-1.465.953c-.431.147-1.1.474-.764-.205-.006.016-.012.026-.017.042Z" transform="translate(-174.189 -43.953)" fill="#259caa"/>
                <path id="Path_1248204" data-name="Path 1248204" d="M406.388,80.083c.264-.163,1.954-1.153,1.615-1.353-.063-.037-.287.121-.368.116-.167-.016-.04-.068-.029-.226.012-.226-.034-.305-.454-.068-.385.216-.759.632-1.167.927-.437.311-.7.395-.885.353-.374-.079-.879.153-1.7.785a9.487,9.487,0,0,0-2.253,1.8c-.448.706.408.153.9-.126a18.975,18.975,0,0,1,2.149-1.09,10.485,10.485,0,0,0,2.385-1.174l-.184.063Z" transform="translate(-170.562 -37.121)" fill="#259caa"/>
                <path id="Path_1248205" data-name="Path 1248205" d="M392.618,90.464a15.781,15.781,0,0,0,2.052-1.622c.948-.932.029-.79.6-1.617.264-.379.649-.69.885-1.085.241-.421.144-.584-.253-.374-.6.316-2.35,2.364-2.552,1.969-.08-.153.161-.448-.322-.169-.282.163-.782.6-1.023.7-.282.116-.126-.2-.454-.068-.218.09-.649.463-.8.495-.218.047.086-.342.178-.542.184-.384-.063-.253-.431-.068-.322.168-.626.326-.919.453-.253.111-.4.126-.672.263a26.675,26.675,0,0,0-2.253,1.538c-.948.642-2.138,1.827-3.109,2.57a4.549,4.549,0,0,0-1.086,1.022c-.034.084.27-.037.368-.09a8.3,8.3,0,0,0,1.017-.764c.563-.437,1.011-.642,1.546-1.016a10.139,10.139,0,0,1,1.408-.937c.2-.047.011.111-.3.427.063.005.1.068.167.063s.374-.179.374-.121c0,.242-.764.711-.977.837-.351.205-.6.39-.649.663-.04.232.144.174-.471.7.04.126.419-.126.58-.121.19,0-.052.3.155.263a6.6,6.6,0,0,0,1.241-.821c.483-.337.885-.563,1.35-.853a12.064,12.064,0,0,1,2.523-1.432c.391-.105,1.19-.553,1.247-.211.23-.016.345-.021.58-.037Z" transform="translate(-162.666 -40.562)" fill="#259caa"/>
                <path id="Path_1248206" data-name="Path 1248206" d="M430.349,121.834c-1.3.548-1.431-.748-.54-1.732.3-.332,1.04-.753.983-1.274-.08-.753-.931.147-1.253.511-1.161,1.337-1.971,3.028-3.471,3.991a6.227,6.227,0,0,0-1.741,1.243c-.494.606-.713,1.111-.121,1.232a2.915,2.915,0,0,0,1.563-.253c.517-.279.942-.827,1.529-.969a3.482,3.482,0,0,1,1.373.105c.454.09.718.479,1.144.579,1.4.342,1.2-1,1.5-1.9.155-.448.31-1.122.517-1.559.213-.453.9-1.016.023-.885-.356.053-.661.379-.966.516-.213.158-.322.232-.534.39Z" transform="translate(-180.272 -56.12)" fill="#259caa"/>
                <path id="Path_1248207" data-name="Path 1248207" d="M374.547,145.881a14.192,14.192,0,0,1-2.4.885,2.139,2.139,0,0,1,.741-1.88,3.728,3.728,0,0,1,2.063-1.079c.626-1.127.816-1.817-.213-1.922-.517-.053-1.759-.074-1.822-.627-.046-.442.408-1.116.31-1.553-.08-.369-.506-.395-.833-.479-.736-.195-1.873.7-2.845,1.438-.529.4-1.069.906-1.6,1.232s-.965.39-1.477.663c-.316.168-1.155.537-1.224.916-.08.437.753.179,1.063.042a14.2,14.2,0,0,1,2.839-1.069c.425-.074.77,0,1.2-.058a10.145,10.145,0,0,1,1.224-.221c.155,0,.276.011.425.016-.023.532-.81.553-1.149.642a7.065,7.065,0,0,0-1.356.5c-1.224.579-1.391,1.074-2.322,2.122a12.159,12.159,0,0,0-2.011,2.649c-.408.764-.833,2.212.494,1.185a15.678,15.678,0,0,0,1.419-1.532,19.838,19.838,0,0,0,1.391-1.643,8.8,8.8,0,0,1,2.621-2.449c.425-.237.919-.484.793.058-.1.405-.741.916-1.075,1.3-.632.721-.3.463-.132.879.155.384-.1.8-.523,1.274-.54.6-1.419,1.206-1.092,1.748.259.432,1.121.321,1.741.063a10.824,10.824,0,0,0,2.086-1.243,21.093,21.093,0,0,0,1.626-1.511c.023-.137.023-.205.04-.342Z" transform="translate(-155.134 -65.902)" fill="#259caa"/>
                <path id="Path_1248208" data-name="Path 1248208" d="M325.1,148.771c.207-.521.46-1.037.724-1.553a27.187,27.187,0,0,1,1.408-2.822,15.51,15.51,0,0,1,4.7-3.481c1.736-.732,2.678.727,4.431-.727a5.964,5.964,0,0,1,2.534-1.48,9.257,9.257,0,0,1,2.879-.79c2.465-.016,1.213,2.491,1.092,4.455-.167,2.864,2.552,2.585,3.5-.369.385-1.222.069-2.185.4-3.391.408-1.474,1.247-2.1,2.368-3.238a46.294,46.294,0,0,1,3.9-3.854,16.982,16.982,0,0,0,3.517-3.828,28.314,28.314,0,0,1,7.017-6.9,31.333,31.333,0,0,0,3.523-2.764,28.272,28.272,0,0,1,3.052-2.691,19.237,19.237,0,0,1,3.109-1.932c-.828,2.106.126,2.09,1.891,1.311,1.5-.658,4.1-1.079,2.465-2.406-.592-.479-1.109-.258-.586-1.617.253-.648,1.322-1.764,1.19-2.354-.23-1.048-3.333.184-4.3.337.075-2.206,4.212-2.364,5.333-2.538a12.461,12.461,0,0,0,2.931-.537,19.044,19.044,0,0,0,2.994-1.875c1.77-1.158,3.988-1.3,4.241-3.591.224-2.1-2.19-2.059-2.023-4.107s1.649-5.3-1.632-2.965c-.764.548-2.138,1.359-2.621.864-.443-.453.057-1.5-.351-1.975a3.059,3.059,0,0,0-3.7-.458,25.56,25.56,0,0,0-2.437,2.959,32.48,32.48,0,0,0-2.431,2.438c-.3.495-.086.853-.333,1.337a7.228,7.228,0,0,1-1.408,1.638,37.9,37.9,0,0,0-3.074,2.707,16.834,16.834,0,0,1-2.609,2.917c-.839.685-1.787,1.459-2.655,2.127a6.154,6.154,0,0,1,.9-2.712c.759-1.411,1.1-1.5.178-1.89a5.4,5.4,0,0,0-3.712-.442c-.9.253-1.81.742-1.437-.326.167-.479.649-.858.81-1.274.2-.5-.04-.606.109-1,.575-1.548,3.661-3.228,5.08-4.244,1.1-.785,2.138-1.327,3.207-2a28.829,28.829,0,0,0,2.948-2.354,58.228,58.228,0,0,1,5.414-4.212c1.511-.99,2.937-.663,4.368-2.891,1.764-2.759-2.908,1.68-3.557,2.143-.977.685-1.736.837-.839-.511-.2.032-.287-.116-.557,0,.517-.916-.121-.8-.77-.5-.057-.4.431-1.011.948-1.469-1.6-.09-2.891,2.559-4.471,3.933-1.885,1.638-2.741,1.322-4.551,2.438a15.275,15.275,0,0,1-2.6,1.48c-.707.226-1.092-.042-1.879.263-1.7.669-3.776,2.048-5.511,2.9-1.1.537-1.1.221-1.569.142a6.353,6.353,0,0,0-2.523,1.211c-.977.616-1.994,1.322-2.977,1.99-.937.632-1.425.842-2.138,1.264-.207.121-.425.253-.644.395-11.965,15.56-18.907,30.2-23.252,48.822Z" transform="translate(-138.271 -39.473)" fill="#259caa"/>
                <path id="Path_1248209" data-name="Path 1248209" d="M399.052,256.6c-.092-1.627-.442-1.717-1.471-2.891a10.207,10.207,0,0,0-5.184-3.628c-2.287-.7-4.235-.916-6.126-2.68-1.914-1.78-3.965-.858-5.9-2.122a7.764,7.764,0,0,1-2.356-2.3c-.431-.932-.546-1.859-1.086-2.822-1.052-1.843-1.69-4.1-3.684-4.965-1.718-.748-4.46,0-5.436-1.69a8.086,8.086,0,0,0-1.5-2.4c-.667-.627-1.506-1.022-2.109-1.638-.718-.742-.931-1.648-1.8-2.185a3.944,3.944,0,0,0-2.741-.316,7.242,7.242,0,0,1-3.011.258,14.927,14.927,0,0,1-2.35-1.39c-1.034-.563-1.649-.948-2.494,0-.592.669-.276,2.333-1.282,2.1.052-.711.247-1.632-.5-1.964-.167-1.164.908-1.216.816-2.19a43.817,43.817,0,0,1-4.459,1.785,2.7,2.7,0,0,0-1.672,1.822,4.831,4.831,0,0,1-.529,1.68c-.287.39-.713.537-.96.958-.293-.358-.442-.537-.736-.9-.678-2.143-2.988-.068-4.241-.537a4.038,4.038,0,0,1-2.207-3.854c.075-1.416.724-4.191-.374-4.976s-3.448.037-4.73-.342c-.138-1.311,1.287-2.359,1.914-3.349.351-.558.506-1.237.8-1.806a14.469,14.469,0,0,0,.983-1.674c.563-1.948-1.408-1.106-2.511-.879-1.845.379-1.856,1.4-2.425,3.043-.012.09-.012.137-.023.232-1.126,1.1-4.385,2.085-5.471,1.143-.586-.505-.27-1.985-.316-2.728-.029-.484-.08-.948-.1-1.416a79.708,79.708,0,0,0-.81,8.5,8.085,8.085,0,0,0,2.121.084c1.747-.153,2.488,1.585,4.12,2.217,1.707.658,2.741,1.027,3.781,2.849.494.858.391,1.685.948,2.517a8.23,8.23,0,0,0,2.236,1.885,11.018,11.018,0,0,0,2.4,1.369c1.1.353,1.144-.205,1.983-.648,2.258-1.2,2.419,2.4,2.511,3.907a4.533,4.533,0,0,1-.517,2.7c-.351.864-.523,1.3-.862,2.143.2.137.356.116.264.49-1.552.379-1.167,1.111-1.523,2.543-.345,1.4.144,2.022.333,3.454.155,1.158-.707,1.043-.8,1.911-.08.7.994,1.911,1.425,2.575a20.034,20.034,0,0,0,1.891,2.859,17.716,17.716,0,0,1,2.626,2.8c1.167,1.8,1.937,4.239,3.488,5.85,1.374,1.422,3.3,2.4,4.8,3.554a17.746,17.746,0,0,1,5.011,6.608c.988,2.965,1.557,5.65,2.339,8.457.891,3.191,2.753,6.234,3.787,9.278a37.939,37.939,0,0,0,3.81,7.719c1.351,2.206,3.3,3.649,4.845,5.992,1.563,2.38,3.161,4.8,4.948,7.172,1.4,1.853,3.293,4.718,5.04,5.455,1.1.463.81.211,1.96,1.653a16.4,16.4,0,0,0,2.316,2.085l-.184-.079c.557.242,2.109,1.206,2.391,1.006.517-.369-.914-1.4-1.58-1.938a26.816,26.816,0,0,1-4.448-4.586c-1.563-2.038.477-2.127-.81-3.907-.718-.985-4.132-2.212-3.678-3.46.121-.332.833-.084.96-.474-.218-.3-.328-.453-.552-.758.017-1.227-.552-1.4-1.523-2.733a4.325,4.325,0,0,1-.782-1.6c.04-.6.644-.079,1.063-.158.724-.142.448-1.09,1.029-1.453.615-.379,2.241.305,2.5-.553.483-1.632-4.856-5.15-1.8-4.581.988.184,1.988.658,2.96.916,1.282.332,1.218-.137,1.414-1.164a14.775,14.775,0,0,0,.368-2.7,2.187,2.187,0,0,1,.322-1.469c.213-.326.649-.374.868-.706a5.443,5.443,0,0,0,.656-2.638c-.075-.974-.891-2.069-.8-3.07a3.923,3.923,0,0,1,3.546-3.149c.983-.016,2.2.569,2.9-.147.586-.595.58-1.759,1.2-2.433.753-.832,1.391-1.053,1.437-2.391a21.355,21.355,0,0,0-.506-3.507,12.676,12.676,0,0,1,.678-6.445c.362-1.111.3-2.175.954-3.212.546-.874,1.494-1.5,2.017-2.412.557-.985.27-2.28.207-3.507Z" transform="translate(-137.366 -100.055)" fill="#259caa"/>
                <path id="Path_1248210" data-name="Path 1248210" d="M348.433,208.133c-1.155-.369-.092-1.469.684-1.764a8.986,8.986,0,0,1,2.425-.29,5.707,5.707,0,0,1,2.431-.079c.718.29,1.218,1.016,1.914,1.369.672.342,4.385,1.664,3.143,3.07-.443.506-1.873.247-2.454.316-1.224.142-1.465.579-1.626-.742-.184-1.527-1.034-1.653-2.356-2.08-.391-.121-1.034-.621-1.385-.627-.759-.026-1.172.764-1.9.653-.351.068-.529.1-.879.168Z" transform="translate(-147.979 -97.472)" fill="#259caa"/>
                <path id="Path_1248211" data-name="Path 1248211" d="M368.292,216.379c-.276-.068-.96-.353-.943-.732.029-.637.511-.395.92-.553,1.391-.537.862-.653,1.115-1.959.1-.5-.328-.305.368-.574.494-.19.828.079,1.2.232.851.353,3.942.821,3.764,2.127-.149,1.053-1.362.563-2.1.742-.546.132-.58.321-.977.558a7.954,7.954,0,0,1-3.339.163Z" transform="translate(-156.241 -100.604)" fill="#259caa"/>
                <path id="Path_1248212" data-name="Path 1248212" d="M169.954,280.45H370.966a6.276,6.276,0,0,1,6.528,5.982V404.117a6.282,6.282,0,0,1-6.534,5.987H169.948a6.276,6.276,0,0,1-6.528-5.982V286.437a6.276,6.276,0,0,1,6.528-5.982Z" transform="translate(-69.506 -132.777)" fill="#2f282f"/>
                <path id="Path_1248213" data-name="Path 1248213" d="M376.08,380.277c0,2.965-.6,3.375-4.023,3.375H176.913c-3.425,0-4.023-.411-4.023-3.375V295.19c0-2.965.6-3.37,4.023-3.37H372.057c3.425,0,4.023.411,4.023,3.37Z" transform="translate(-73.534 -138.16)" fill="#1e94c5"/>
                <path id="Path_1248214" data-name="Path 1248214" d="M163.42,473.65v21.942a6.274,6.274,0,0,0,6.534,5.982H370.966a6.276,6.276,0,0,0,6.528-5.982V473.65Z" transform="translate(-69.506 -224.246)" fill="#ececec"/>
                <path id="Path_1248215" data-name="Path 1248215" d="M351.17,495.3a5.737,5.737,0,1,1-5.718-5.239,5.49,5.49,0,0,1,5.718,5.239" transform="translate(-144.498 -232.015)" fill="#d9d9d9"/>
                <path id="Path_1248216" data-name="Path 1248216" d="M352.575,544.967H330.26c11.155-9.146,0-18.287,0-18.287h22.315s-7.419,9.146,0,18.287" transform="translate(-140.466 -249.352)" fill="#d5d5d5"/>
                <rect id="Rectangle_411806" data-name="Rectangle 411806" width="71.117" height="4.781" transform="translate(165.399 295.615)" fill="#ececec"/>
                <ellipse id="Ellipse_12409" data-name="Ellipse 12409" cx="40.521" cy="6.208" rx="40.521" ry="6.208" transform="translate(18.321 302.06)" fill="#cac9c9"/>
                <path id="Path_1248217" data-name="Path 1248217" d="M508.351,571.5c22.379,0,40.521,2.78,40.521,6.208s-18.141,6.208-40.521,6.208-40.521-2.779-40.521-6.208,18.142-6.208,40.521-6.208" transform="translate(-198.977 -270.572)" fill="#cac9c9"/>
                <rect id="Rectangle_411807" data-name="Rectangle 411807" width="178.157" height="124.731" transform="translate(70.737 75.608)" fill="#f5f5f5"/>
                <rect id="Rectangle_411808" data-name="Rectangle 411808" width="178.157" height="11.137" transform="translate(70.737 75.608)" fill="#004b74"/>
                <path id="Path_1248218" data-name="Path 1248218" d="M418.837,151.442a3.311,3.311,0,1,1-3.3-3.022,3.17,3.17,0,0,1,3.3,3.022" transform="translate(-175.334 -70.268)" fill="#fff"/>
                <path id="Path_1248219" data-name="Path 1248219" d="M403.737,151.442a3.311,3.311,0,1,1-3.3-3.022,3.17,3.17,0,0,1,3.3,3.022" transform="translate(-168.912 -70.268)" fill="#fff"/>
                <path id="Path_1248220" data-name="Path 1248220" d="M389.227,151.442a3.311,3.311,0,1,1-3.3-3.022,3.17,3.17,0,0,1,3.3,3.022" transform="translate(-162.74 -70.268)" fill="#fff"/>
                <rect id="Rectangle_411809" data-name="Rectangle 411809" width="77.875" height="6.045" transform="translate(77.507 78.152)" fill="#fff"/>
                <rect id="Rectangle_411810" data-name="Rectangle 411810" width="178.157" height="43.273" transform="translate(70.737 86.745)" fill="#d5e1e9"/>
                <rect id="Rectangle_411811" data-name="Rectangle 411811" width="46.802" height="9.547" transform="translate(83.409 135.747)" fill="#f49c16"/>
                <rect id="Rectangle_411812" data-name="Rectangle 411812" width="46.802" height="4.771" transform="translate(83.409 148.158)" fill="#d5e1e9"/>
                <rect id="Rectangle_411813" data-name="Rectangle 411813" width="39.348" height="4.771" transform="translate(83.409 155.793)" fill="#d5e1e9"/>
                <rect id="Rectangle_411814" data-name="Rectangle 411814" width="151.411" height="9.541" transform="translate(83.409 165.818)" fill="#bbc6cd"/>
                <rect id="Rectangle_411815" data-name="Rectangle 411815" width="151.411" height="4.771" transform="translate(83.409 178.224)" fill="#d5e1e9"/>
                <rect id="Rectangle_411816" data-name="Rectangle 411816" width="127.292" height="4.771" transform="translate(83.409 185.859)" fill="#d5e1e9"/>
                <rect id="Rectangle_411817" data-name="Rectangle 411817" width="46.796" height="9.547" transform="translate(135.808 135.747)" fill="#55ada2"/>
                <rect id="Rectangle_411818" data-name="Rectangle 411818" width="46.796" height="4.771" transform="translate(135.808 148.158)" fill="#d5e1e9"/>
                <rect id="Rectangle_411819" data-name="Rectangle 411819" width="39.348" height="4.771" transform="translate(135.808 155.793)" fill="#d5e1e9"/>
                <rect id="Rectangle_411820" data-name="Rectangle 411820" width="46.802" height="9.547" transform="translate(188.024 135.747)" fill="#d38156"/>
                <rect id="Rectangle_411821" data-name="Rectangle 411821" width="46.802" height="4.771" transform="translate(188.024 148.158)" fill="#d5e1e9"/>
                <rect id="Rectangle_411822" data-name="Rectangle 411822" width="39.343" height="4.771" transform="translate(188.024 155.793)" fill="#d5e1e9"/>
                <rect id="Rectangle_411823" data-name="Rectangle 411823" width="26.045" height="23.864" transform="translate(97.127 95.333)" fill="#f49c16"/>
                <rect id="Rectangle_411824" data-name="Rectangle 411824" width="26.045" height="23.864" transform="translate(129.338 95.333)" fill="#55ada2"/>
                <rect id="Rectangle_411825" data-name="Rectangle 411825" width="26.045" height="23.864" transform="translate(162.675 95.333)" fill="#ad9ccb"/>
                <rect id="Rectangle_411826" data-name="Rectangle 411826" width="26.045" height="23.864" transform="translate(195.317 95.333)" fill="#d38156"/>
                <path id="Path_1248221" data-name="Path 1248221" d="M188.3,195.44a5.371,5.371,0,1,0-5.844-5.35,5.611,5.611,0,0,0,5.844,5.35" transform="translate(-77.604 -87.464)" fill="#e3bab5"/>
                <path id="Path_1248222" data-name="Path 1248222" d="M186.008,207.12c-4.942,0-8.948,3.67-8.948,8.2h17.9C194.956,210.79,190.95,207.12,186.008,207.12Z" transform="translate(-75.307 -98.059)" fill="#e3bab5"/>
                <path id="Path_1248223" data-name="Path 1248223" d="M358.214,195.44a5.371,5.371,0,1,0-5.845-5.35,5.616,5.616,0,0,0,5.845,5.35" transform="translate(-149.87 -87.464)" fill="#e3bab5"/>
                <path id="Path_1248224" data-name="Path 1248224" d="M355.918,207.12c-4.942,0-8.948,3.67-8.948,8.2h17.9C364.865,210.79,360.86,207.12,355.918,207.12Z" transform="translate(-147.573 -98.059)" fill="#e3bab5"/>
                <path id="Path_1248225" data-name="Path 1248225" d="M243.4,195.44a5.37,5.37,0,1,0-5.839-5.35,5.613,5.613,0,0,0,5.839,5.35" transform="translate(-101.039 -87.464)" fill="#91b7b6"/>
                <path id="Path_1248226" data-name="Path 1248226" d="M241.1,207.12c-4.942,0-8.942,3.67-8.942,8.2h17.9c0-4.528-4.006-8.2-8.948-8.2Z" transform="translate(-98.742 -98.059)" fill="#91b7b6"/>
                <path id="Path_1248227" data-name="Path 1248227" d="M301.409,195.44a5.37,5.37,0,1,0-5.839-5.35,5.613,5.613,0,0,0,5.839,5.35" transform="translate(-125.712 -87.464)" fill="#b68a97"/>
                <path id="Path_1248228" data-name="Path 1248228" d="M299.108,207.12c-4.942,0-8.948,3.67-8.948,8.2h17.9C308.055,210.79,304.05,207.12,299.108,207.12Z" transform="translate(-123.411 -98.059)" fill="#b68a97"/>
                <path id="Path_1248229" data-name="Path 1248229" d="M318.156,221.3h90.788a4.93,4.93,0,0,1,5.126,4.7V339.75a4.93,4.93,0,0,1-5.126,4.7H318.156a4.93,4.93,0,0,1-5.126-4.7V225.987a4.93,4.93,0,0,1,5.126-4.7Z" transform="translate(-133.138 -104.768)" fill="#fff"/>
                <path id="Path_1248230" data-name="Path 1248230" d="M414.07,236.413V225.987a4.923,4.923,0,0,0-5.126-4.7H318.156a4.927,4.927,0,0,0-5.126,4.7v10.426Z" transform="translate(-133.138 -104.768)" fill="#0069b2"/>
                <path id="Path_1248231" data-name="Path 1248231" d="M324.89,235.94v-5.15h1.167a1.045,1.045,0,0,1,.437.079.6.6,0,0,1,.276.279,1.587,1.587,0,0,1,.144.527,8.516,8.516,0,0,1,0,1.653,1.693,1.693,0,0,1-.144.542.72.72,0,0,1-.276.305.95.95,0,0,1-.443.095h-.506v1.664h-.655Zm1.057-2.264a.214.214,0,0,0,.149-.053.439.439,0,0,0,.109-.19,1.968,1.968,0,0,0,.069-.358c.012-.153.023-.348.023-.579a5.009,5.009,0,0,0-.023-.563,1.425,1.425,0,0,0-.069-.332.313.313,0,0,0-.109-.158.308.308,0,0,0-.155-.042h-.4v2.28h.4Z" transform="translate(-138.182 -109.266)" fill="#fff"/>
                <path id="Path_1248232" data-name="Path 1248232" d="M330.657,235.935a.523.523,0,0,1-.035-.084.582.582,0,0,1-.023-.126c-.006-.053-.017-.126-.023-.221s-.017-.216-.029-.369l-.034-.521c-.011-.174-.029-.348-.057-.521a.546.546,0,0,0-.1-.274.294.294,0,0,0-.213-.063h-.31v2.175h-.655v-5.15h1.19a1.158,1.158,0,0,1,.4.058.661.661,0,0,1,.247.179.751.751,0,0,1,.115.179,1.077,1.077,0,0,1,.08.237,2.182,2.182,0,0,1,.04.316c.006.121.012.258.012.416s0,.3-.006.411a1.931,1.931,0,0,1-.023.284c-.012.079-.029.147-.04.2s-.034.105-.052.147a.518.518,0,0,1-.121.179.5.5,0,0,1-.149.095v.032a.348.348,0,0,1,.144.126.658.658,0,0,1,.1.3c.034.237.063.474.086.716s.04.495.057.758c.012.105.023.195.034.263a.885.885,0,0,0,.057.211v.026h-.678Zm-.523-2.728a.711.711,0,0,0,.224-.032.3.3,0,0,0,.149-.147.9.9,0,0,0,.046-.111,1.461,1.461,0,0,0,.029-.147c.006-.063.012-.137.012-.232v-.648a1.515,1.515,0,0,0-.012-.184.324.324,0,0,0-.023-.116c-.011-.032-.029-.053-.04-.079a.3.3,0,0,0-.259-.132h-.414V233.2h.3Z" transform="translate(-140.007 -109.261)" fill="#fff"/>
                <path id="Path_1248233" data-name="Path 1248233" d="M333.575,235.532c-.034-.079-.063-.163-.092-.253a2.329,2.329,0,0,1-.057-.379c-.011-.158-.023-.369-.034-.621s-.012-.584-.012-.99,0-.732.012-.985.017-.458.034-.621a2.918,2.918,0,0,1,.057-.374,1.75,1.75,0,0,1,.092-.258.621.621,0,0,1,.3-.332,1.333,1.333,0,0,1,.569-.09,1.421,1.421,0,0,1,.569.09.624.624,0,0,1,.3.332,1.963,1.963,0,0,1,.086.258,2.158,2.158,0,0,1,.057.374c.017.158.023.363.034.621s.011.584.011.985,0,.732-.011.99-.017.463-.034.621a3.2,3.2,0,0,1-.057.379,1.935,1.935,0,0,1-.086.253.621.621,0,0,1-.3.332,1.367,1.367,0,0,1-.569.09,1.44,1.44,0,0,1-.569-.09.6.6,0,0,1-.3-.332m1.184-.437a1.231,1.231,0,0,0,.04-.179,2.438,2.438,0,0,0,.023-.284q.009-.19.017-.505c0-.211.006-.5.006-.858v-.858c0-.216-.006-.384-.017-.511s-.017-.216-.023-.279-.023-.121-.034-.174a.3.3,0,0,0-.109-.174.393.393,0,0,0-.218-.053.324.324,0,0,0-.213.053.3.3,0,0,0-.1.169,1.424,1.424,0,0,0-.04.179,2.2,2.2,0,0,0-.029.284c-.006.126-.011.295-.017.511v1.717c0,.211.006.384.017.505a2.2,2.2,0,0,0,.029.284,1.67,1.67,0,0,0,.04.179.281.281,0,0,0,.1.168.376.376,0,0,0,.213.047.363.363,0,0,0,.213-.047.3.3,0,0,0,.1-.168Z" transform="translate(-141.793 -109.19)" fill="#fff"/>
                <path id="Path_1248234" data-name="Path 1248234" d="M337.806,235.94v-5.15h1.713v.611h-1.063v1.68h1.04v.59h-1.04v2.264H337.8Z" transform="translate(-143.673 -109.266)" fill="#fff"/>
                <rect id="Rectangle_411827" data-name="Rectangle 411827" width="0.678" height="5.15" transform="translate(196.219 121.524)" fill="#fff"/>
                <path id="Path_1248235" data-name="Path 1248235" d="M343.48,235.94v-5.15h.655V235.3h1v.637H343.48Z" transform="translate(-146.089 -109.266)" fill="#fff"/>
                <path id="Path_1248236" data-name="Path 1248236" d="M346.936,235.94v-5.15h1.736v.611h-1.086v1.617h1.069v.584h-1.069v1.7h1.075v.637h-1.73Z" transform="translate(-147.556 -109.266)" fill="#fff"/>
                <g id="Group_1200834" data-name="Group 1200834" transform="translate(262.537 118.223)" style="mix-blend-mode: soft-light;isolation: isolate">
                  <g id="Group_1200833" data-name="Group 1200833">
                    <g id="Group_1200832" data-name="Group 1200832" clip-path="url(#clip-path-4)">
                      <path id="Path_1248237" data-name="Path 1248237" d="M469.288,230.223a6.248,6.248,0,1,1-6.224-5.7,5.981,5.981,0,0,1,6.224,5.7" transform="translate(-456.84 -224.52)" fill="#fff"/>
                    </g>
                  </g>
                </g>
                <path id="Path_1248238" data-name="Path 1248238" d="M468.559,234.071l-1.678-1.538L468.559,231l-1.741-1.6-1.678,1.538-1.672-1.538L461.72,231l1.678,1.532-1.678,1.538,1.747,1.6,1.672-1.538,1.678,1.538Z" transform="translate(-196.379 -108.608)" fill="#fff"/>
                <path id="Path_1248239" data-name="Path 1248239" d="M449.929,260.373a2.022,2.022,0,1,1-2.011-1.843,1.932,1.932,0,0,1,2.011,1.843" transform="translate(-189.65 -122.399)" fill="#d9d9d9"/>
                <path id="Path_1248240" data-name="Path 1248240" d="M462.353,260.373a2.019,2.019,0,1,1-2.011-1.843,1.936,1.936,0,0,1,2.011,1.843" transform="translate(-194.937 -122.399)" fill="#d9d9d9"/>
                <path id="Path_1248241" data-name="Path 1248241" d="M474.773,260.373a2.019,2.019,0,1,1-2.011-1.843,1.936,1.936,0,0,1,2.011,1.843" transform="translate(-200.219 -122.399)" fill="#d9d9d9"/>
                <rect id="Rectangle_411829" data-name="Rectangle 411829" width="21.683" height="19.867" transform="translate(186.466 139.817)" fill="#f49c16"/>
                <rect id="Rectangle_411830" data-name="Rectangle 411830" width="87.897" height="57.032" transform="translate(186.466 165.518)" fill="#c6c6c5"/>
                <path id="Path_1248242" data-name="Path 1248242" d="M340.532,277.509a4.472,4.472,0,1,0-4.862-4.455,4.67,4.67,0,0,0,4.862,4.455" transform="translate(-142.767 -127.166)" fill="#e3bab5"/>
                <path id="Path_1248243" data-name="Path 1248243" d="M338.618,287.24c-4.115,0-7.448,3.059-7.448,6.824h14.9C346.066,290.294,342.733,287.24,338.618,287.24Z" transform="translate(-140.853 -135.991)" fill="#e3bab5"/>
                <rect id="Rectangle_411831" data-name="Rectangle 411831" width="34.78" height="6.708" transform="translate(213.971 141.033)" fill="#f49c16"/>
                <rect id="Rectangle_411832" data-name="Rectangle 411832" width="54.796" height="3.354" transform="translate(213.971 149.753)" fill="#d5e1e9"/>
                <rect id="Rectangle_411833" data-name="Rectangle 411833" width="21.234" height="3.354" transform="translate(213.971 155.119)" fill="#d5e1e9"/>
                <path id="Path_1248244" data-name="Path 1248244" d="M346.153,434.126a3.342,3.342,0,0,1-3.477,3.186H327.947a3.2,3.2,0,1,1,0-6.371h14.729a3.342,3.342,0,0,1,3.477,3.186" transform="translate(-138.004 -204.025)" fill="#d5e1e9"/>
                <path id="Path_1248245" data-name="Path 1248245" d="M403.763,434.126a3.342,3.342,0,0,1-3.477,3.186H385.557a3.2,3.2,0,1,1,0-6.371h14.729a3.342,3.342,0,0,1,3.477,3.186" transform="translate(-162.506 -204.025)" fill="#d5e1e9"/>
                <path id="Path_1248246" data-name="Path 1248246" d="M461.373,434.126a3.342,3.342,0,0,1-3.477,3.186H443.167a3.2,3.2,0,1,1,0-6.371H457.9a3.338,3.338,0,0,1,3.477,3.186" transform="translate(-187.009 -204.025)" fill="#d5e1e9"/>
                <path id="Path_1248247" data-name="Path 1248247" d="M131.345,493.264c-1.54-2.564,8.333-47.222,2.534-74.466-1.529-7.172-12.752-5.85-11.384,0,6.787,29.04,1.954,77.7,1.954,77.7s1.862,3.028,9.879,3.9c2.948.321,5.207-1.743,4.08-2.359-3.029-1.653-5.517-2.222-7.051-4.786Z" transform="translate(-52.05 -195.959)" fill="#8c5433"/>
                <path id="Path_1248248" data-name="Path 1248248" d="M131.751,389.725c-8.85-6.7-13.741,12.511-13.741,12.511s1.615,18.735,3.287,24.49a47.054,47.054,0,0,0,12.654-1.632c-.017-8.878-1.684-28.766-2.2-35.369" transform="translate(-50.192 -183.841)" fill="#085d7e"/>
                <path id="Path_1248249" data-name="Path 1248249" d="M142.839,357.5c-8-12.658-11.379-32.352-11.379-32.352l6.3.211s1.69,18.356,9.551,32.183c1.988,1.274-1.644,4.434-4.471-.047Z" transform="translate(-55.913 -153.94)" fill="#8c5433"/>
                <path id="Path_1248250" data-name="Path 1248250" d="M153.157,389.528a27.782,27.782,0,0,1-1.707-4.565s1.167-2.838,2.511-1.948c.529.353,5.712.785,6.1.774.6-.016.253,1.148-.684,1.416a5.73,5.73,0,0,1-1.437-.079c-.282.011.31,1.416.517,1.78s-.81.974-2.08,1.938c-2.017,1.527-2.971,1.048-3.212.679Z" transform="translate(-64.415 -181.253)" fill="#8c5433"/>
                <path id="Path_1248251" data-name="Path 1248251" d="M159.462,393.533c-.741,0,1.891-1.622,1.431-1.037-.236.305,1.707,2.717,2.322,3.454.937,1.116.029,1.69-.816.821-1.109-1.132-2.419-3.233-2.937-3.233Z" transform="translate(-67.766 -185.764)" fill="#8c5433"/>
                <path id="Path_1248252" data-name="Path 1248252" d="M156.976,395.115c-.523-.026,1.511-1.243,1.448-.679-.27.416,1.575,2.843,2.373,3.67.718.742-.155,1.043-.925.263C158.81,397.285,157.344,395.137,156.976,395.115Z" transform="translate(-66.729 -186.672)" fill="#8c5433"/>
                <path id="Path_1248253" data-name="Path 1248253" d="M162.748,390.57s-1.667.979-1.057,1.037c.293-.1,2,2.206,2.753,3.075.575.653,1.707-.132.845-.99A27.9,27.9,0,0,1,162.748,390.57Z" transform="translate(-68.713 -184.912)" fill="#8c5433"/>
                <path id="Path_1248254" data-name="Path 1248254" d="M154.35,395.179c-.546-.953,1.437.068,1.511.247.149.348.942,1.553,1.506,2.48.356.59-.2.842-.586.384a29.394,29.394,0,0,1-2.431-3.107Z" transform="translate(-65.608 -186.905)" fill="#8c5433"/>
                <path id="Path_1248255" data-name="Path 1248255" d="M130.587,290.231c2.977.932,4.293,5.171,5.143,10.842s2.316,19.4,2.316,19.4a52.06,52.06,0,0,1-6.89.153c-3.207-10.5-10.195-33.4-.569-30.388Z" transform="translate(-53.459 -137.282)" fill="#c8a0e6"/>
                <path id="Path_1248256" data-name="Path 1248256" d="M143.239,580.277c-1.419.305-7.04.216-11.471.063-.471-.016-.753-.706-1.19-.727-.213-.011-.6.658-.8.653-2.115-.084-3.638-.174-3.712-.211-.672-.316-.638-3.4-.638-3.4l19.763,1.7S145.193,579.856,143.239,580.277Z" transform="translate(-53.348 -273.015)" fill="#002639"/>
                <path id="Path_1248257" data-name="Path 1248257" d="M143.652,576.71c-2.391.6-15.1-1.359-16.562-1.711-1.057-.247-1.534-.479-1.707-1.137a11.275,11.275,0,0,1,.316-3.1c1.971,1.574,6.8,2.491,9.488,3.1s4.488.158,4.465-1.559a28.211,28.211,0,0,0,3.431,1.364c2.276.611,2.965,2.448.569,3.038Z" transform="translate(-53.306 -270.222)" fill="#00648a"/>
                <path id="Path_1248258" data-name="Path 1248258" d="M76.283,494.133C75.2,491.385,92.6,448.7,91.524,420.952c-.282-7.309-11.6-7.609-11.246-1.638C82.013,448.971,68.91,496.34,68.91,496.34S70.232,499.6,78,501.616c2.856.737,5.442-.974,4.431-1.743-2.712-2.064-5.063-2.986-6.149-5.74Z" transform="translate(-29.309 -196.538)" fill="#8c5433"/>
                <path id="Path_1248259" data-name="Path 1248259" d="M84.244,581.22c-1.454.1-6.988-.8-11.338-1.585-.465-.084-.621-.811-1.052-.89-.207-.037-.707.563-.9.526-2.075-.39-3.557-.7-3.632-.742-.609-.411-.052-3.449-.052-3.449L86.5,579.6a2.216,2.216,0,0,1-2.258,1.617Z" transform="translate(-28.511 -272.267)" fill="#002639"/>
                <path id="Path_1248260" data-name="Path 1248260" d="M85,577.807c-2.46.242-14.677-3.512-16.062-4.07-1.006-.4-1.437-.69-1.488-1.369a11.429,11.429,0,0,1,.839-3.017c1.678,1.843,6.293,3.438,8.839,4.423s4.408.806,4.678-.9a27.516,27.516,0,0,0,3.155,1.838c2.144.927,2.506,2.844.04,3.086Z" transform="translate(-28.685 -269.554)" fill="#00648a"/>
                <path id="Path_1248261" data-name="Path 1248261" d="M114.734,378.057c2.575-7.224-1.172-14.47-1.172-14.47-2.218-2.148-10-8.378-10-8.378s-19.579,10.084-20.2,10.1c0,0-2.448,2.38-3.258,10.468-.839,5.908,3.144,10.979,3.144,10.979-.672,7.519,0,17.55,0,23.979A36.956,36.956,0,0,0,95.913,412c1.2-3.465,5.1-23.537,5.1-23.537s10.729-2.027,13.718-10.41Z" transform="translate(-34.02 -168.171)" fill="#007ca7"/>
                <path id="Path_1248262" data-name="Path 1248262" d="M96.231,238.722c16.844,2.691,22.263-15.628,22.263-15.628s2.712-2.491,2.362-8.625c-.333-5.882-5.2-12.174-14.281-12.8-14.016-.964-21.74,6.313-22.177,17.555C84.025,228.933,90.444,237.8,96.231,238.722Z" transform="translate(-35.89 -95.44)" fill="#1a1b25"/>
                <path id="Path_1248263" data-name="Path 1248263" d="M80.27,338.708l6.7-17.587s-3.2-13.506-3.2-16.508c0-7.835.178-15.934,3.281-16.945a19.746,19.746,0,0,1,5.086-1.058l6.689,3.523,6.689-3.523s2.655,1.016,5.753,2.027c1.092,9.236,3.856,10.837,5.143,15.839.006,2.68-2.345,5.255-2.345,5.255l-1.287,11.384,3.235,16.634a48.181,48.181,0,0,1-16.677,3.191c-13.367,0-19.062-2.238-19.062-2.238Z" transform="translate(-34.14 -135.693)" fill="#c8a0e6"/>
                <path id="Path_1248264" data-name="Path 1248264" d="M114.289,276.243c1.793,3.423,10.689,11.59.08,12.137-14.292.742-12.792-9.378-13.459-12.137,2.529-.405,3.511-6.055,1.592-9.752s12.229-.79,10.471.974-1.236,8.372,1.316,8.778" transform="translate(-42.919 -125.321)" fill="#8c5433"/>
                <g id="Group_1200837" data-name="Group 1200837" transform="translate(63.623 139.459)" style="mix-blend-mode: multiply;isolation: isolate">
                  <g id="Group_1200836" data-name="Group 1200836">
                    <g id="Group_1200835" data-name="Group 1200835" clip-path="url(#clip-path-5)">
                      <path id="Path_1248265" data-name="Path 1248265" d="M116.939,275.039c-4.115-1.459-6.247-6.066-6.23-10.189,3.385.342,7.419,1.7,6.431,2.685-1.328,1.327-1.35,5.4-.2,7.5" transform="translate(-110.71 -264.85)" fill="#ebdfd9"/>
                    </g>
                  </g>
                </g>
                <path id="Path_1248266" data-name="Path 1248266" d="M94.29,223.555,95,239.415c0,6.161,11.212,13.875,16.1,13.875,4.1,0,8.58-6.013,10.293-11.984,1.862-6.487,1.172-14.881.856-17.756H94.29Z" transform="translate(-40.103 -105.838)" fill="#8c5433"/>
                <path id="Path_1248267" data-name="Path 1248267" d="M95.81,246.427c0,1.88-.793,3.212-3.017,3.407-3.253.29-3.839-2.233-3.8-3.8a3.269,3.269,0,0,1,3.138-2.975c2.23.137,3.684,1.49,3.684,3.37" transform="translate(-37.848 -115.072)" fill="#8c5433"/>
                <path id="Path_1248268" data-name="Path 1248268" d="M112.78,243.01a1.3,1.3,0,1,0,1.287-1.179,1.243,1.243,0,0,0-1.287,1.179" transform="translate(-47.968 -114.492)" fill="#1a1b25"/>
                <path id="Path_1248269" data-name="Path 1248269" d="M134.3,243.01a1.3,1.3,0,1,0,1.287-1.179,1.243,1.243,0,0,0-1.287,1.179" transform="translate(-57.12 -114.492)" fill="#1a1b25"/>
                <path id="Path_1248270" data-name="Path 1248270" d="M119.95,261.63a3.723,3.723,0,0,0,3.983,3.928c1.351,0,4.448-.648,4.448-3.928Z" transform="translate(-51.017 -123.867)" fill="#72210d"/>
                <path id="Path_1248271" data-name="Path 1248271" d="M120.04,260.811a13.115,13.115,0,0,1,4.161-.911,12.7,12.7,0,0,1,4.207.911Z" transform="translate(-51.055 -123.048)" fill="#72210d"/>
                <path id="Path_1248272" data-name="Path 1248272" d="M77.483,356.175c-4.442-14.049-2.557-33.905-2.557-33.905l6.063,1.59s-3.178,18.187.828,33.347c1.6,1.674-2.753,3.944-4.327-1.032Z" transform="translate(-31.699 -152.576)" fill="#8c5433"/>
                <path id="Path_1248273" data-name="Path 1248273" d="M80.25,390.3a27.2,27.2,0,0,1-.46-4.807s1.879-2.5,2.948-1.337c.425.458,5.339,2.017,5.718,2.1.586.121-.052,1.169-1.034,1.227a5.839,5.839,0,0,1-1.379-.395c-.276-.053-.069,1.443.034,1.843s-1.046.769-2.529,1.422C81.192,391.382,80.388,390.708,80.25,390.3Z" transform="translate(-33.936 -181.728)" fill="#8c5433"/>
                <path id="Path_1248274" data-name="Path 1248274" d="M85.727,395.676c-.718-.158,2.264-1.158,1.661-.7-.31.242.948,3.012,1.345,3.86.615,1.29-.408,1.648-1.006.616-.776-1.337-1.5-3.67-2-3.786Z" transform="translate(-36.413 -186.943)" fill="#8c5433"/>
                <path id="Path_1248275" data-name="Path 1248275" d="M83.007,396.572c-.5-.142,1.793-.874,1.58-.337-.374.342.782,3.1,1.339,4.086.5.879-.425.979-.965.053-.747-1.29-1.6-3.7-1.96-3.8Z" transform="translate(-35.274 -187.502)" fill="#8c5433"/>
                <path id="Path_1248276" data-name="Path 1248276" d="M89.686,393.49s-1.879.585-1.3.779c.31-.037,1.362,2.58,1.868,3.586.385.764,1.69.247,1.08-.769A26.484,26.484,0,0,1,89.686,393.49Z" transform="translate(-37.546 -186.295)" fill="#8c5433"/>
                <path id="Path_1248277" data-name="Path 1248277" d="M80.567,395.76c-.276-1.043,1.379.384,1.4.574.057.369.511,1.717.81,2.738.19.648-.42.769-.667.242A26.719,26.719,0,0,1,80.567,395.76Z" transform="translate(-34.254 -187.191)" fill="#8c5433"/>
                <path id="Path_1248278" data-name="Path 1248278" d="M84.049,288.625c2.132-.263-.368,12.221-2.213,14.933A164.6,164.6,0,0,1,80,319.95a51.889,51.889,0,0,1-6.729-1.374c-.356-10.9.7-28.713,10.781-29.956Z" transform="translate(-31.138 -136.645)" fill="#c8a0e6"/>
                <g id="Group_1200840" data-name="Group 1200840" transform="translate(71.456 131.829)" style="mix-blend-mode: multiply;isolation: isolate">
                  <g id="Group_1200839" data-name="Group 1200839">
                    <g id="Group_1200838" data-name="Group 1200838" clip-path="url(#clip-path-6)">
                      <path id="Path_1248279" data-name="Path 1248279" d="M126.047,251.034a1.693,1.693,0,0,1,1.644.974,1.1,1.1,0,0,0,.063-.337,1.767,1.767,0,0,0-3.414,0,1.1,1.1,0,0,0,.063.337,1.687,1.687,0,0,1,1.644-.974" transform="translate(-124.34 -250.36)" fill="#ebdfd9"/>
                    </g>
                  </g>
                </g>
                <g id="Group_1200843" data-name="Group 1200843" transform="translate(52.089 129.204)" style="mix-blend-mode: multiply;isolation: isolate">
                  <g id="Group_1200842" data-name="Group 1200842">
                    <g id="Group_1200841" data-name="Group 1200841" clip-path="url(#clip-path-7)">
                      <path id="Path_1248280" data-name="Path 1248280" d="M91.2,247.652c.029.764,1.046,1.838,1.609,1.517s-.707-2.143,1.264-1.764a2,2,0,0,1-1.437,2.011,1.754,1.754,0,0,1-1.994-1.875c0-2.333,2.488-2.164,2.488-2.164a2.282,2.282,0,0,0-1.931,2.28Z" transform="translate(-90.64 -245.375)" fill="#ebdfd9"/>
                    </g>
                  </g>
                </g>
                <path id="Path_1248281" data-name="Path 1248281" d="M137.881,237.288c-.08.242-.6-.369-1.827-.737a2.757,2.757,0,0,0-1.85.174c-.465.174-.661-.848-.42-1.032a3.172,3.172,0,0,1,2.345-.169c1.207.363,1.833,1.516,1.753,1.759Z" transform="translate(-56.856 -111.441)" fill="#1a1b25"/>
                <path id="Path_1248282" data-name="Path 1248282" d="M109.616,237.349c.08.242.793-.179,2.023-.548a2.757,2.757,0,0,1,1.85.174c.465.179.661-.848.42-1.032a3.172,3.172,0,0,0-2.345-.169c-1.207.363-2.029,1.327-1.948,1.569Z" transform="translate(-46.62 -111.559)" fill="#1a1b25"/>
                <g id="Group_1200846" data-name="Group 1200846" transform="translate(53.731 116.957)" style="mix-blend-mode: multiply;isolation: isolate">
                  <g id="Group_1200845" data-name="Group 1200845">
                    <g id="Group_1200844" data-name="Group 1200844" clip-path="url(#clip-path-8)">
                      <path id="Path_1248283" data-name="Path 1248283" d="M93.907,222.876c-1.718,7.493,2.529,14.349,2.529,14.349-.42-3.544,1.793-8.246,4.569-9.841,5.017-2.891,13.626-3.849,18.522-.5,2.08,1.422,2.793,5.934,2.845,5.934l-.529-9.941S95.407,221.165,93.907,222.876Z" transform="translate(-93.498 -222.116)" fill="#ebdfd9"/>
                    </g>
                  </g>
                </g>
                <path id="Path_1248284" data-name="Path 1248284" d="M122.221,219.38c.753,3.544.471,8.925-.465,10.816-.247-5.008-2.069-8.067-10-8.067s-14.453,1.859-15.873,8.63c-1.31,1.7.023,5.171.023,5.171s-1.759-1.764-3.149-6.177c-.816-2.591-.46-7.093-.029-10.368H122.21Z" transform="translate(-39.243 -103.864)" fill="#1a1b25"/>
                <path id="Path_1248285" data-name="Path 1248285" d="M89.817,199.746s-4.672,8.314-9.241,9.862c-6.316,2.138-9.586-5.524-6.092-12.574,3.356-6.772,10.683-7.83,13.384-5.576s1.942,8.288,1.942,8.288Z" transform="translate(-31.073 -90.138)" fill="#1a1b25"/>
                <path id="Path_1248286" data-name="Path 1248286" d="M120.23,261.93a3.925,3.925,0,0,0,3.839,2.817c1.931,0,3.822-.832,4.293-2.817Z" transform="translate(-51.136 -124.009)" fill="#fff"/>
                <path id="Path_1248287" data-name="Path 1248287" d="M94.8,255a1.292,1.292,0,1,1-1.287-1.179A1.239,1.239,0,0,1,94.8,255" transform="translate(-39.227 -120.169)" fill="#fbbf00"/>
                <path id="Path_1248288" data-name="Path 1248288" d="M514.609,497.2c1.856-3.428-10.6-46.432-5.977-73.866,1.218-7.224,12.494-6.308,11.379-.411-5.534,29.261-.259,71.254,1.023,74.913.316,1.322-7.844,1.98-6.425-.637" transform="translate(-215.89 -197.994)" fill="#f8ba8c"/>
                <path id="Path_1248289" data-name="Path 1248289" d="M499.606,579.355c1.425.253,7.011-.427,11.43-.732.471-.032.724-.737,1.161-.769.213-.016.626.637.822.621a14.843,14.843,0,0,0,3.753-.758c.661-.337.465-2.617.465-2.617l-19.677,2.417s.063,1.5,2.034,1.843Z" transform="translate(-211.622 -272.276)" fill="#49270c"/>
                <path id="Path_1248290" data-name="Path 1248290" d="M499.12,575.676c2.414.505,15.028-1.9,16.476-2.306,1.046-.29,1.511-.532,1.655-1.2a10.981,10.981,0,0,0-.448-3.086c-1.833.979-6.609,1.332-6.6-.163-1.414.706-9.77,4.6-10.465,4.655C497.3,573.749,496.7,575.17,499.12,575.676Z" transform="translate(-211.631 -269.35)" fill="#7e4e24"/>
                <path id="Path_1248291" data-name="Path 1248291" d="M517.907,413.351c-.149,6.155.988,64.867,2.172,74.6l-11.511.758s-5.982-67.521-5.816-83.818C500.431,403.836,517.924,413.162,517.907,413.351Z" transform="translate(-213.741 -191.654)" fill="#1e2426"/>
                <path id="Path_1248292" data-name="Path 1248292" d="M550.314,498.052c1.4-3.6-16.493-44.963-15.419-72.707.282-7.3,11.591-7.609,11.247-1.632-1.736,29.656,8.9,70.79,10.637,74.282.483,1.28-7.54,2.817-6.465.063Z" transform="translate(-227.482 -198.619)" fill="#f8ba8c"/>
                <path id="Path_1248293" data-name="Path 1248293" d="M543.294,580.2c1.454.1,6.913-1.18,11.258-1.964.46-.084.626-.811,1.052-.89.207-.037.7.563.9.532a14.389,14.389,0,0,0,3.626-1.158c.609-.405.126-2.654.126-2.654l-19.229,4.518a2.209,2.209,0,0,0,2.259,1.617Z" transform="translate(-230.111 -271.789)" fill="#49270c"/>
                <path id="Path_1248294" data-name="Path 1248294" d="M542.734,576.8c2.465.242,14.677-3.512,16.068-4.07,1-.4,1.437-.7,1.488-1.369a11.428,11.428,0,0,0-.839-3.017c-1.7,1.169-6.39,2.032-6.58.553-1.316.853-9.109,5.629-9.793,5.75-2.391.432-2.8,1.911-.339,2.154Z" transform="translate(-230.131 -269.076)" fill="#7e4e24"/>
                <path id="Path_1248295" data-name="Path 1248295" d="M502.39,381.252a107.5,107.5,0,0,1,1.373-13.264c2.218-2.148,9.994-8.378,9.994-8.378s19.585,10.084,20.2,10.1c0,0,2.454,2.38,3.258,10.468.017.195.172,12.242.184,12.432.644,6.129,6.3,63.424,6.3,73.371l-11.333,2S519.579,410.56,519.1,398.4C516.659,397.6,503.333,394.526,502.39,381.252Z" transform="translate(-213.676 -170.254)" fill="#262d2f"/>
                <path id="Path_1248296" data-name="Path 1248296" d="M517.343,244.611c-13.114-.063-17.413-8.246-17.413-8.246s-4.23-3.907-4.505-14.217c-.144-5.324,1.741-17.924,11.746-13.7C521.4,202.071,531,212,531.072,223.686c.063,10.421-4.638,20.968-13.735,20.925Z" transform="translate(-210.711 -97.744)" fill="#1a1b25"/>
                <path id="Path_1248297" data-name="Path 1248297" d="M494.717,300.745a5.955,5.955,0,0,1,3.81-4.418c.879-.29,1.161,22.858,1.161,22.858l.713,7.941s-9,1.332-9.58-5.292C490.108,313.725,494.4,302.341,494.717,300.745Z" transform="translate(-208.722 -140.293)" fill="#d9d9d9"/>
                <g id="Group_1200849" data-name="Group 1200849" transform="translate(285.809 163.976)" style="mix-blend-mode: multiply;isolation: isolate">
                  <g id="Group_1200848" data-name="Group 1200848">
                    <g id="Group_1200847" data-name="Group 1200847" clip-path="url(#clip-path-9)">
                      <path id="Path_1248298" data-name="Path 1248298" d="M500.6,328.571c-5.528-2.907-2.661-6.124-1.316-10.484a52.339,52.339,0,0,1,2.816-6.677l.385,14.917.057.616C502.413,326.912,500.734,328.639,500.6,328.571Z" transform="translate(-497.336 -311.41)" fill="#ececec"/>
                    </g>
                  </g>
                </g>
                <path id="Path_1248299" data-name="Path 1248299" d="M534.908,341c3.293-1.116-1.4-27.66-1.4-30.661,0-7.835,1.77-17.261-1.333-18.272a31.028,31.028,0,0,0-7.649-1.048l-6.689,3.523-6.684-3.523s-5.35,1.785-8.453,2.8c-1.092,9.236-1.621,14.075-2.046,17.845s.655,17.908.655,17.908-1.764,11.221,1.454,12.227,28.843.321,32.142-.8Z" transform="translate(-212.897 -137.781)" fill="#c8a0e6"/>
                <path id="Path_1248300" data-name="Path 1248300" d="M532.886,291.368a37.475,37.475,0,0,0-4.442-.348l-6.689,3.523-6.684-3.523s-2.557.853-5.166,1.717c-1.161.384,5.052,9.578,8.264,10.584s15.8-11.795,14.718-11.948Z" transform="translate(-216.812 -137.781)" fill="#d9d9d9"/>
                <g id="Group_1200852" data-name="Group 1200852" transform="translate(287.777 175.474)" style="mix-blend-mode: multiply;isolation: isolate">
                  <g id="Group_1200851" data-name="Group 1200851">
                    <g id="Group_1200850" data-name="Group 1200850" clip-path="url(#clip-path-10)">
                      <path id="Path_1248301" data-name="Path 1248301" d="M513.535,333.865c3.816,1.78,6.419.832,10.178.147,3.35-.616,5.253,1.506,8.551,1.264v.764c0,1.938-.925,7.382-.437,10.979-6.7.579-13.85-3.523-13.85-3.523s-10.66,3.528-14.091,2.6l-1.184-7.172a3.791,3.791,0,0,1-1.942-2.3c4.712.274,7.62-5.176,12.792-2.764Z" transform="translate(-500.76 -333.247)" fill="#ececec"/>
                    </g>
                  </g>
                </g>
                <path id="Path_1248302" data-name="Path 1248302" d="M518.98,280.643c-.379,2.427,3.35,5.223,3.35,5.223s9.362-2.464,10.028-5.223c-2.534-.405-3.511-6.055-1.586-9.752s-12.229-.79-10.471.974,1.236,8.378-1.316,8.783Z" transform="translate(-220.721 -127.404)" fill="#f8ba8c"/>
                <g id="Group_1200855" data-name="Group 1200855" transform="translate(299.423 141.776)" style="mix-blend-mode: multiply;isolation: isolate">
                  <g id="Group_1200854" data-name="Group 1200854">
                    <g id="Group_1200853" data-name="Group 1200853" clip-path="url(#clip-path-11)">
                      <path id="Path_1248303" data-name="Path 1248303" d="M521.379,279.439c4.115-1.459,6.247-6.071,6.229-10.189-3.385.342-7.419,1.69-6.431,2.685,1.322,1.332,1.351,5.4.2,7.509Z" transform="translate(-521.026 -269.25)" fill="#ebdfd9"/>
                    </g>
                  </g>
                </g>
                <path id="Path_1248304" data-name="Path 1248304" d="M527.739,227.955l-.707,15.86c0,6.155-11.212,13.875-16.1,13.875-4.1,0-10.35-6.392-11.269-12.148-1.063-6.64-.2-14.717.121-17.592h27.958Z" transform="translate(-212.297 -107.921)" fill="#f8ba8c"/>
                <path id="Path_1248305" data-name="Path 1248305" d="M542.33,250.828c0,1.88.787,3.212,3.011,3.407,3.253.29,3.839-2.238,3.8-3.8a3.273,3.273,0,0,0-3.138-2.975c-2.23.137-3.678,1.49-3.678,3.37" transform="translate(-230.664 -117.155)" fill="#f8ba8c"/>
                <path id="Path_1248306" data-name="Path 1248306" d="M528.49,247.409a1.3,1.3,0,1,1-1.287-1.179,1.243,1.243,0,0,1,1.287,1.179" transform="translate(-223.68 -116.576)" fill="#1a1b25"/>
                <path id="Path_1248307" data-name="Path 1248307" d="M506.98,247.409a1.3,1.3,0,1,1-1.293-1.179,1.244,1.244,0,0,1,1.293,1.179" transform="translate(-214.531 -116.576)" fill="#1a1b25"/>
                <path id="Path_1248308" data-name="Path 1248308" d="M518.006,264.7c0,2.891-2.879,3.465-4.35,3.465S508.8,267.6,508.8,264.7Z" transform="translate(-216.403 -125.32)" fill="#fff"/>
                <path id="Path_1248309" data-name="Path 1248309" d="M507.207,336.464a41.587,41.587,0,0,0,6.2.49s3.224-2.038,1.724-3.2a6.609,6.609,0,0,1-1.063-1.99,4.352,4.352,0,0,0-3.034-2.417,3.559,3.559,0,0,0-2.063.8s-.672-.079-.914.232a2.424,2.424,0,0,0-.431,1.622s-.816-.168-.736,1.369c-.379.721-.862.679-.241,1.864-.534.606.178,1.122.557,1.232Z" transform="translate(-215.361 -155.923)" fill="#f8ba8c"/>
                <path id="Path_1248310" data-name="Path 1248310" d="M510.91,330.856l2.494.674-.218-.7-.707.295Z" transform="translate(-217.3 -156.629)" fill="#df986e"/>
                <path id="Path_1248311" data-name="Path 1248311" d="M554.51,293c-2.1-.411-1.747,11.263.017,14.028,3.207,4.565-.4,10.842-.4,10.842s1.017,7.84,4.494,6.382c9.632-4.655,7.982-28.887-4.109-31.251" transform="translate(-235.23 -138.714)" fill="#d9d9d9"/>
                <path id="Path_1248312" data-name="Path 1248312" d="M519.227,335.56l-2.747,4.881s17.114,7.709,26.579,3.965c4.77-1.885,2.414-8.693-3.483-6.893C534.013,339.214,519.227,335.56,519.227,335.56Z" transform="translate(-219.669 -158.868)" fill="#d9d9d9"/>
                <g id="Group_1200858" data-name="Group 1200858" transform="translate(296.811 177.555)" style="mix-blend-mode: multiply;isolation: isolate">
                  <g id="Group_1200857" data-name="Group 1200857">
                    <g id="Group_1200856" data-name="Group 1200856" clip-path="url(#clip-path-12)">
                      <path id="Path_1248313" data-name="Path 1248313" d="M531.686,342.223c-.425.032-5.81,2.138-6.327,2.143a70.649,70.649,0,0,1-8.879-3.149l1.977-3.507a31.632,31.632,0,0,0,4.689-.511c3.914.785,9.913,1.78,14.016,1.49,0,2.585-1.7,3.27-5.471,3.538Z" transform="translate(-516.48 -337.2)" fill="#ececec"/>
                    </g>
                  </g>
                </g>
                <g id="Group_1200861" data-name="Group 1200861" transform="translate(294.759 134.146)" style="mix-blend-mode: multiply;isolation: isolate">
                  <g id="Group_1200860" data-name="Group 1200860">
                    <g id="Group_1200859" data-name="Group 1200859" clip-path="url(#clip-path-6)">
                      <path id="Path_1248314" data-name="Path 1248314" d="M514.617,255.434a1.69,1.69,0,0,0-1.644.974,1.131,1.131,0,0,1-.063-.337,1.766,1.766,0,0,1,3.414,0,.977.977,0,0,1-.063.337,1.679,1.679,0,0,0-1.644-.974" transform="translate(-512.91 -254.76)" fill="#ebdfd9"/>
                    </g>
                  </g>
                </g>
                <g id="Group_1200864" data-name="Group 1200864" transform="translate(314.109 131.516)" style="mix-blend-mode: multiply;isolation: isolate">
                  <g id="Group_1200863" data-name="Group 1200863">
                    <g id="Group_1200862" data-name="Group 1200862" clip-path="url(#clip-path-7)">
                      <path id="Path_1248315" data-name="Path 1248315" d="M549.453,252.042c-.029.764-1.046,1.838-1.6,1.516s.707-2.143-1.27-1.764c0,.606.35,1.838,1.437,2.011a1.754,1.754,0,0,0,1.994-1.875c-.006-2.333-2.488-2.164-2.488-2.164a2.272,2.272,0,0,1,1.925,2.275Z" transform="translate(-546.58 -249.765)" fill="#ebdfd9"/>
                    </g>
                  </g>
                </g>
                <path id="Path_1248316" data-name="Path 1248316" d="M502.2,241.686c.08.242.6-.374,1.828-.737a2.757,2.757,0,0,1,1.85.174c.465.174.661-.848.419-1.032a3.134,3.134,0,0,0-2.339-.168c-1.207.363-1.839,1.522-1.753,1.764Z" transform="translate(-213.594 -113.522)" fill="#1a1b25"/>
                <path id="Path_1248317" data-name="Path 1248317" d="M530.306,241.753c-.081.242-.793-.179-2.023-.542a2.757,2.757,0,0,0-1.85.174c-.466.174-.661-.848-.419-1.032a3.171,3.171,0,0,1,2.345-.169c1.207.363,2.029,1.327,1.948,1.569" transform="translate(-223.68 -113.647)" fill="#1a1b25"/>
                <g id="Group_1200867" data-name="Group 1200867" transform="translate(287.018 120.034)" style="mix-blend-mode: multiply;isolation: isolate">
                  <g id="Group_1200866" data-name="Group 1200866">
                    <g id="Group_1200865" data-name="Group 1200865" clip-path="url(#clip-path-15)">
                      <path id="Path_1248318" data-name="Path 1248318" d="M527.91,227.96s-2.126,13.6-3.822,13.638c1.144-4.386-1.758-8.657-5.034-8.472-8.08.458-15.815-.943-16.959-.016-1.942,1.574-2.6,4.792-2.655,4.792l.529-9.941H527.91Z" transform="translate(-499.44 -227.96)" fill="#ebdfd9"/>
                    </g>
                  </g>
                </g>
                <path id="Path_1248319" data-name="Path 1248319" d="M498.4,223.775c-.753,3.544-.741,9.425.2,11.316,1.2-4.718,3.144-7.172,10.5-5.418,6.356,1.516,10.068-2.317,13.8,2.206,3.626,4.386.517,7.725.517,7.725l1.287.711s1.758-1.764,3.155-6.177c.816-2.591.46-7.093.029-10.368H498.407Z" transform="translate(-211.751 -105.942)" fill="#1a1b25"/>
                <path id="Path_1248320" data-name="Path 1248320" d="M543.244,337.4a41.8,41.8,0,0,1-6.207.39s-3.178-2.09-1.661-3.223a6.862,6.862,0,0,0,1.1-1.969,4.379,4.379,0,0,1,3.08-2.37,3.56,3.56,0,0,1,2.046.832s.678-.063.914.247a2.393,2.393,0,0,1,.4,1.627s.822-.158.707,1.374c.362.727.851.69.207,1.869.523.611-.2,1.122-.58,1.222Z" transform="translate(-227.532 -156.342)" fill="#f8ba8c"/>
                <path id="Path_1248321" data-name="Path 1248321" d="M544.656,331.753l-2.506.632.236-.7.7.305Z" transform="translate(-230.587 -157.036)" fill="#df986e"/>
                <path id="Path_1248322" data-name="Path 1248322" d="M517.936,336.96l2.649,4.929s-17.258,7.43-26.654,3.528c-4.735-1.964-2.241-8.73,3.62-6.835,5.528,1.79,20.384-1.622,20.384-1.622" transform="translate(-209.023 -159.531)" fill="#d9d9d9"/>
              </g>
            </g>
          </g>
        </g>
        <g transform="matrix(1, 0, 0, 1, -442.35, -204.51)" filter="url(#Rectangle_401315)">
          <rect id="Rectangle_401315-2" data-name="Rectangle 401315" width="16" height="99.092" rx="8" transform="translate(442.35 204.51)" fill="#e6e51d"/>
        </g>
      </g>
      <g id="Group_1200381" data-name="Group 1200381" transform="translate(0 250.835)">
        <path id="Path_1241404" data-name="Path 1241404" d="M.914.745H76.092V75.922H.914Z" transform="translate(-0.914 -0.745)" fill="#222223" fill-rule="evenodd"/>
        <path id="Path_1241405" data-name="Path 1241405" d="M34.519.687H.856V14.271H24.889L.856,38.14l9.712,9.646L34.519,24V47.786H48.278V.687Z" transform="translate(14.073 12.884)" fill="#e6e51d" fill-rule="evenodd"/>
      </g>
    </g>
    <g id="Group_1200235" data-name="Group 1200235" transform="translate(645.691 2832)">
      <g transform="matrix(1, 0, 0, 1, -461, -44)" filter="url(#Ellipse_12336)">
        <circle id="Ellipse_12336-2" data-name="Ellipse 12336" cx="9" cy="9" r="9" transform="translate(461 44)" fill="#e6e51d"/>
      </g>
      <g transform="matrix(1, 0, 0, 1, -461, -44)" filter="url(#Ellipse_12337)">
        <circle id="Ellipse_12337-2" data-name="Ellipse 12337" cx="9" cy="9" r="9" transform="translate(461 67)" fill="#e6e51d"/>
      </g>
      <g transform="matrix(1, 0, 0, 1, -461, -44)" filter="url(#Ellipse_12338)">
        <circle id="Ellipse_12338-2" data-name="Ellipse 12338" cx="9" cy="9" r="9" transform="translate(461 90)" fill="#e6e51d"/>
      </g>
    </g>
  </g>
</svg>
