<svg xmlns="http://www.w3.org/2000/svg" xmlns:xlink="http://www.w3.org/1999/xlink" width="100" height="100" viewBox="0 0 100 100">
  <defs>
    <clipPath id="clip-path">
      <rect id="Rectangle_411291" data-name="Rectangle 411291" width="100" height="100" transform="translate(792.781 1954)" fill="#e8bad8" opacity="0.41"/>
    </clipPath>
    <clipPath id="clip-path-2">
      <rect id="Rectangle_411292" data-name="Rectangle 411292" width="74" height="88" transform="translate(-2233 -7908)" fill="#fff" stroke="#707070" stroke-width="1" opacity="0"/>
    </clipPath>
  </defs>
  <g id="Group_1207081" data-name="Group 1207081" transform="translate(2246.051 7914.016)">
    <g id="Group_1207083" data-name="Group 1207083">
      <g id="Mask_Group_1099506" data-name="Mask Group 1099506" transform="translate(-3038.832 -9868.016)" clip-path="url(#clip-path)">
        <g id="Group_1207082" data-name="Group 1207082" transform="translate(793.651 1960)">
          <g id="Group_1207081-2" data-name="Group 1207081">
            <ellipse id="Ellipse_12574" data-name="Ellipse 12574" cx="24.92" cy="24.92" rx="24.92" ry="24.92" transform="translate(49.154 38.512)" fill="#c8a0e6"/>
            <ellipse id="Ellipse_12575" data-name="Ellipse 12575" cx="18.123" cy="18.123" rx="18.123" ry="18.123" fill="#c8a0e6"/>
          </g>
        </g>
      </g>
      <g id="Mask_Group_1099507" data-name="Mask Group 1099507" clip-path="url(#clip-path-2)">
        <g id="comunidad" transform="translate(-2233.145 -7901.145)">
          <g id="Group_1207089" data-name="Group 1207089">
            <g id="Group_1207084" data-name="Group 1207084">
              <path id="Path_1257081" data-name="Path 1257081" d="M58.542,44.135a7.241,7.241,0,0,1,14.44,0,.5.5,0,0,1-.5.543H59.045A.5.5,0,0,1,58.542,44.135Z" fill="#ffda2d" fill-rule="evenodd"/>
              <path id="Path_1257082" data-name="Path 1257082" d="M65.125,37.466c.21-.018.422-.028.637-.028a7.265,7.265,0,0,1,7.22,6.7.5.5,0,0,1-.5.543H71.205a.5.5,0,0,0,.5-.543,7.269,7.269,0,0,0-6.584-6.669Z" fill="#ffc700" fill-rule="evenodd"/>
              <circle id="Ellipse_12576" data-name="Ellipse 12576" cx="3.913" cy="3.913" r="3.913" transform="translate(60.218 33.24) rotate(-45)" fill="#ffd6bd"/>
              <path id="Path_1257083" data-name="Path 1257083" d="M65.762,29.323a3.943,3.943,0,0,0-.537.037,3.913,3.913,0,0,1,0,7.753,3.913,3.913,0,1,0,.537-7.79Z" fill="#f9c6aa" fill-rule="evenodd"/>
            </g>
            <g id="Group_1207085" data-name="Group 1207085">
              <path id="Path_1257084" data-name="Path 1257084" d="M1.307,44.135a7.241,7.241,0,0,1,14.44,0,.5.5,0,0,1-.5.543H1.811a.5.5,0,0,1-.5-.543Z" fill="#64b5f6" fill-rule="evenodd"/>
              <path id="Path_1257085" data-name="Path 1257085" d="M7.891,37.466c.21-.018.422-.028.637-.028a7.265,7.265,0,0,1,7.22,6.7.5.5,0,0,1-.5.543H13.971a.5.5,0,0,0,.5-.543,7.268,7.268,0,0,0-6.583-6.669Z" fill="#42a5f5" fill-rule="evenodd"/>
              <ellipse id="Ellipse_12577" data-name="Ellipse 12577" cx="3.914" cy="3.914" rx="3.914" ry="3.914" transform="translate(4.534 29.366) rotate(-1.088)" fill="#ffd6bd"/>
              <path id="Path_1257086" data-name="Path 1257086" d="M8.527,29.284a3.965,3.965,0,0,0-.537.037,3.913,3.913,0,0,1,0,7.753,3.913,3.913,0,1,0,.537-7.79Z" fill="#f9c6aa" fill-rule="evenodd"/>
            </g>
            <g id="Group_1207086" data-name="Group 1207086">
              <path id="Path_1257087" data-name="Path 1257087" d="M29.925,16.248a7.241,7.241,0,0,1,14.44,0,.5.5,0,0,1-.5.543H30.428A.5.5,0,0,1,29.925,16.248Z" fill="#72d561" fill-rule="evenodd"/>
              <path id="Path_1257088" data-name="Path 1257088" d="M36.508,9.579c.21-.018.422-.028.637-.028a7.265,7.265,0,0,1,7.22,6.7.5.5,0,0,1-.5.543H42.588a.5.5,0,0,0,.5-.543A7.269,7.269,0,0,0,36.508,9.579Z" fill="#3cbe52" fill-rule="evenodd"/>
              <ellipse id="Ellipse_12578" data-name="Ellipse 12578" cx="3.914" cy="3.914" rx="3.914" ry="3.914" transform="translate(33.156 1.383) rotate(-1.26)" fill="#ffd6bd"/>
              <path id="Path_1257089" data-name="Path 1257089" d="M37.145,1.306a3.967,3.967,0,0,0-.537.037,3.913,3.913,0,0,1,0,7.753,3.913,3.913,0,1,0,.537-7.79Z" fill="#f9c6aa" fill-rule="evenodd"/>
            </g>
            <g id="Group_1207087" data-name="Group 1207087">
              <path id="Path_1257090" data-name="Path 1257090" d="M29.925,72.441a7.241,7.241,0,0,1,14.44,0,.5.5,0,0,1-.5.543H30.428A.5.5,0,0,1,29.925,72.441Z" fill="#fc685b" fill-rule="evenodd"/>
              <path id="Path_1257091" data-name="Path 1257091" d="M36.508,65.772c.21-.018.422-.028.637-.028a7.265,7.265,0,0,1,7.22,6.7.5.5,0,0,1-.5.543H42.588a.5.5,0,0,0,.5-.543,7.269,7.269,0,0,0-6.584-6.669Z" fill="#f35244" fill-rule="evenodd"/>
              <circle id="Ellipse_12579" data-name="Ellipse 12579" cx="3.913" cy="3.913" r="3.913" transform="translate(31.601 61.606) rotate(-45)" fill="#ffd6bd"/>
              <path id="Path_1257092" data-name="Path 1257092" d="M37.145,57.7a3.968,3.968,0,0,0-.537.037,3.913,3.913,0,0,1,0,7.753,3.913,3.913,0,1,0,.537-7.79Z" fill="#f9c6aa" fill-rule="evenodd"/>
            </g>
            <g id="Group_1207088" data-name="Group 1207088">
              <path id="Path_1257093" data-name="Path 1257093" d="M36.735,49.43q-6.459-3.758-16.3-.86V26.007q10.159-2.99,16.712,1.108,6.554-4.1,16.712-1.108V48.57q-9.844-2.9-16.3.86A.8.8,0,0,1,36.735,49.43Z" fill="#ff94d5" fill-rule="evenodd"/>
              <path id="Path_1257094" data-name="Path 1257094" d="M36.735,49.43q-6.459-3.758-16.3-.86V46.824q9.844-2.9,16.3.86a.8.8,0,0,0,.819,0q6.459-3.758,16.3-.86V48.57q-9.844-2.9-16.3.86A.8.8,0,0,1,36.735,49.43Z" fill="#ff72c7" fill-rule="evenodd"/>
              <path id="Path_1257095" data-name="Path 1257095" d="M37.145,27.115q6.554-4.1,16.712-1.107V48.57q-9.844-2.9-16.3.86a.81.81,0,0,1-.409.113Z" fill="#ff72c7" fill-rule="evenodd"/>
              <path id="Path_1257096" data-name="Path 1257096" d="M53.857,46.824V48.57q-9.844-2.9-16.3.86a.81.81,0,0,1-.409.113V47.8a.81.81,0,0,0,.409-.113Q44.013,43.926,53.857,46.824Z" fill="#ff4fb9" fill-rule="evenodd"/>
            </g>
          </g>
          <path id="Path_1257097" data-name="Path 1257097" d="M50.661,35.41a22.019,22.019,0,0,0-10.45.386,1.161,1.161,0,0,0,.679,2.22,19.731,19.731,0,0,1,9.353-.322,1.161,1.161,0,1,0,.418-2.284ZM40.55,31.393a1.184,1.184,0,0,0,.376-.062,17.733,17.733,0,0,1,9.3-.377,1.16,1.16,0,0,0,.443-2.278,19.972,19.972,0,0,0-10.5.459,1.161,1.161,0,0,0,.376,2.259Zm0,3.338a1.162,1.162,0,0,1-.357-2.267,21.106,21.106,0,0,1,10.473-.422,1.161,1.161,0,1,1-.431,2.281,18.563,18.563,0,0,0-9.328.351A1.183,1.183,0,0,1,40.55,34.731Zm10.1,7.413a24.175,24.175,0,0,0-10.4.313,1.161,1.161,0,0,0,.3,2.281,1.184,1.184,0,0,0,.307-.04,21.849,21.849,0,0,1,9.4-.264,1.161,1.161,0,1,0,.389-2.29Zm.008-3.368a23.088,23.088,0,0,0-10.425.35A1.161,1.161,0,0,0,40.55,41.4a1.2,1.2,0,0,0,.322-.045,20.766,20.766,0,0,1,9.377-.295,1.161,1.161,0,1,0,.4-2.286ZM24.04,41.062a20.764,20.764,0,0,1,9.377.295,1.2,1.2,0,0,0,.322.045,1.161,1.161,0,0,0,.322-2.277,23.091,23.091,0,0,0-10.426-.35,1.161,1.161,0,0,0,.4,2.286Zm9.4,3.635a1.161,1.161,0,0,0,.609-2.241,24.174,24.174,0,0,0-10.4-.313,1.161,1.161,0,1,0,.389,2.29,21.849,21.849,0,0,1,9.4.264ZM24.06,30.954a17.734,17.734,0,0,1,9.3.377,1.18,1.18,0,0,0,.376.062,1.161,1.161,0,0,0,.376-2.259,19.971,19.971,0,0,0-10.5-.459,1.161,1.161,0,0,0,.444,2.278Zm-.013,6.739a19.734,19.734,0,0,1,9.353.322,1.148,1.148,0,0,0,.339.051,1.161,1.161,0,0,0,.339-2.271,22.017,22.017,0,0,0-10.45-.386,1.161,1.161,0,0,0,.418,2.284Zm.007-3.37a1.161,1.161,0,0,1-.433-2.281,21.115,21.115,0,0,1,10.475.422,1.162,1.162,0,0,1-.357,2.267,1.189,1.189,0,0,1-.357-.057A18.561,18.561,0,0,0,24.054,34.323ZM21.593,47.051V26.887c5.758-1.544,10.591-1.243,14.391.891V47.736a17.98,17.98,0,0,0-7.631-1.582A27.952,27.952,0,0,0,21.593,47.051ZM38.305,27.778c3.8-2.134,8.634-2.435,14.391-.891V47.051c-5.569-1.391-10.4-1.163-14.391.684ZM20.1,24.895c6.765-1.991,12.493-1.7,17.04.87,4.547-2.568,10.276-2.861,17.04-.87a1.159,1.159,0,0,1,.833,1.113V48.57a1.161,1.161,0,0,1-1.488,1.114c-6.213-1.83-11.391-1.577-15.392.75a1.948,1.948,0,0,1-1.985,0c-4-2.327-9.179-2.58-15.392-.75a1.161,1.161,0,0,1-1.488-1.114V26.008a1.159,1.159,0,0,1,.833-1.113ZM43.113,71.823a6.08,6.08,0,0,0-11.936,0Zm-5.968-7.24a2.753,2.753,0,1,0-2.752-2.752A2.755,2.755,0,0,0,37.145,64.583Zm8.378,7.771a1.664,1.664,0,0,1-1.661,1.79H30.428a1.664,1.664,0,0,1-1.661-1.79A8.435,8.435,0,0,1,33.546,65.4a5.074,5.074,0,1,1,7.2,0,8.435,8.435,0,0,1,4.779,6.952ZM14.5,43.518a6.08,6.08,0,0,0-11.936,0Zm-5.968-7.24a2.752,2.752,0,1,0-2.752-2.752A2.756,2.756,0,0,0,8.527,36.277Zm6.717,9.562H1.811A1.666,1.666,0,0,1,.149,44.049,8.44,8.44,0,0,1,4.929,37.1a5.074,5.074,0,1,1,7.2,0,8.431,8.431,0,0,1,4.779,6.952,1.666,1.666,0,0,1-1.662,1.791Zm56.487-2.322a6.08,6.08,0,0,0-11.936,0Zm-5.968-7.24a2.752,2.752,0,1,0-2.752-2.752A2.756,2.756,0,0,0,65.762,36.277ZM73.7,45.306a1.669,1.669,0,0,1-1.222.533H59.046a1.665,1.665,0,0,1-1.661-1.791A8.431,8.431,0,0,1,62.164,37.1a5.074,5.074,0,1,1,7.2,0,8.434,8.434,0,0,1,4.779,6.952,1.67,1.67,0,0,1-.439,1.258ZM31.177,15.212H43.113a6.08,6.08,0,0,0-11.936,0Zm5.967-7.24a2.752,2.752,0,1,0-2.752-2.752A2.755,2.755,0,0,0,37.145,7.972ZM29.206,17a1.672,1.672,0,0,1-.439-1.258,8.434,8.434,0,0,1,4.779-6.952,5.074,5.074,0,1,1,7.2,0,8.434,8.434,0,0,1,4.779,6.952,1.664,1.664,0,0,1-1.661,1.791H30.428A1.674,1.674,0,0,1,29.206,17Zm.222,47.976a1.16,1.16,0,0,0-.751-1.46A27.835,27.835,0,0,1,12.161,49.1a1.161,1.161,0,0,0-2.094,1,30.161,30.161,0,0,0,17.9,15.624,1.175,1.175,0,0,0,.355.056A1.161,1.161,0,0,0,29.429,64.978ZM63.677,48.556a1.161,1.161,0,0,0-1.548.544A27.825,27.825,0,0,1,45.61,63.516a1.161,1.161,0,0,0,.71,2.212A30.163,30.163,0,0,0,64.223,50.1a1.159,1.159,0,0,0-.545-1.548ZM10.47,26.075a1.159,1.159,0,0,0,1.541-.565A27.605,27.605,0,0,1,27.053,11.351a1.161,1.161,0,0,0-.847-2.162A30.126,30.126,0,0,0,9.9,24.533a1.162,1.162,0,0,0,.566,1.542ZM46.579,9.847a1.161,1.161,0,0,0,.657,1.5A27.6,27.6,0,0,1,62.279,25.51a1.161,1.161,0,0,0,2.107-.977,30.127,30.127,0,0,0-16.3-15.344,1.161,1.161,0,0,0-1.5.658Z" fill-rule="evenodd"/>
        </g>
      </g>
    </g>
  </g>
</svg>
