<svg xmlns="http://www.w3.org/2000/svg" xmlns:xlink="http://www.w3.org/1999/xlink" width="100" height="100" viewBox="0 0 100 100">
  <defs>
    <clipPath id="clip-path">
      <rect id="Rectangle_411289" data-name="Rectangle 411289" width="100" height="100" transform="translate(792.781 1954)" fill="#e8bad8" opacity="0.41"/>
    </clipPath>
    <clipPath id="clip-path-2">
      <rect id="Rectangle_411290" data-name="Rectangle 411290" width="74" height="88" transform="translate(-2219 -7949)" fill="#fff" stroke="#707070" stroke-width="1" opacity="0"/>
    </clipPath>
  </defs>
  <g id="Group_1207070" data-name="Group 1207070" transform="translate(2232.27 7955)">
    <g id="Mask_Group_1099504" data-name="Mask Group 1099504" transform="translate(-3025.051 -9909)" clip-path="url(#clip-path)">
      <g id="Group_1207071" data-name="Group 1207071" transform="translate(793.651 1960)">
        <g id="Group_1207070-2" data-name="Group 1207070">
          <ellipse id="Ellipse_12571" data-name="Ellipse 12571" cx="24.92" cy="24.92" rx="24.92" ry="24.92" transform="translate(49.154 38.512)" fill="#c8a0e6"/>
          <ellipse id="Ellipse_12572" data-name="Ellipse 12572" cx="18.123" cy="18.123" rx="18.123" ry="18.123" fill="#c8a0e6"/>
        </g>
      </g>
    </g>
    <g id="Mask_Group_1099505" data-name="Mask Group 1099505" clip-path="url(#clip-path-2)">
      <g id="eficacia" transform="translate(-2220.647 -7943.647)">
        <g id="Group_1207080" data-name="Group 1207080">
          <g id="Group_1207073" data-name="Group 1207073">
            <path id="Path_1257065" data-name="Path 1257065" d="M5.159,51.8H9.713a1.513,1.513,0,0,1,1.51,1.51v11.51a1.513,1.513,0,0,1-1.51,1.51H5.159a1.513,1.513,0,0,1-1.51-1.51V53.305a1.513,1.513,0,0,1,1.51-1.51Z" fill="#a79ba7" fill-rule="evenodd"/>
            <path id="Path_1257066" data-name="Path 1257066" d="M7.425,51.8H9.713a1.513,1.513,0,0,1,1.51,1.51v11.51a1.513,1.513,0,0,1-1.51,1.51H7.425a1.513,1.513,0,0,0,1.51-1.51V53.305a1.513,1.513,0,0,0-1.51-1.51Z" fill="#837683" fill-rule="evenodd"/>
          </g>
          <g id="Group_1207074" data-name="Group 1207074">
            <path id="Path_1257067" data-name="Path 1257067" d="M23.776,44.183H19.222a1.513,1.513,0,0,0-1.51,1.51V64.815a1.513,1.513,0,0,0,1.51,1.51h4.554a1.513,1.513,0,0,0,1.51-1.51V45.692A1.513,1.513,0,0,0,23.776,44.183Z" fill="#fe646f" fill-rule="evenodd"/>
            <path id="Path_1257068" data-name="Path 1257068" d="M23.776,44.183H21.489A1.513,1.513,0,0,1,23,45.692V64.815a1.513,1.513,0,0,1-1.51,1.51h2.288a1.513,1.513,0,0,0,1.51-1.51V45.692A1.513,1.513,0,0,0,23.776,44.183Z" fill="#fd4755" fill-rule="evenodd"/>
          </g>
          <g id="Group_1207075" data-name="Group 1207075">
            <path id="Path_1257069" data-name="Path 1257069" d="M37.839,36.234H33.285a1.513,1.513,0,0,0-1.51,1.51V64.815a1.513,1.513,0,0,0,1.51,1.51h4.554a1.513,1.513,0,0,0,1.51-1.51V37.743a1.513,1.513,0,0,0-1.51-1.51Z" fill="#ffe177" fill-rule="evenodd"/>
            <path id="Path_1257070" data-name="Path 1257070" d="M37.839,36.234H35.552a1.513,1.513,0,0,1,1.51,1.51V64.815a1.513,1.513,0,0,1-1.51,1.51h2.288a1.513,1.513,0,0,0,1.51-1.51V37.743a1.513,1.513,0,0,0-1.51-1.51Z" fill="#ffd064" fill-rule="evenodd"/>
          </g>
          <g id="Group_1207076" data-name="Group 1207076">
            <path id="Path_1257071" data-name="Path 1257071" d="M47.348,29.083H51.9a1.513,1.513,0,0,1,1.51,1.51V64.815a1.513,1.513,0,0,1-1.51,1.51H47.348a1.513,1.513,0,0,1-1.51-1.51V30.593a1.513,1.513,0,0,1,1.51-1.51Z" fill="#6cf5c2" fill-rule="evenodd"/>
            <path id="Path_1257072" data-name="Path 1257072" d="M49.614,29.083H51.9a1.513,1.513,0,0,1,1.51,1.51V64.815a1.513,1.513,0,0,1-1.51,1.51H49.614a1.513,1.513,0,0,0,1.51-1.51V30.593a1.513,1.513,0,0,0-1.51-1.51Z" fill="#00e499" fill-rule="evenodd"/>
          </g>
          <g id="Group_1207077" data-name="Group 1207077">
            <path id="Path_1257073" data-name="Path 1257073" d="M65.965,21.932H61.411a1.513,1.513,0,0,0-1.51,1.51V65.868a1.513,1.513,0,0,0,1.51,1.51h4.554a1.513,1.513,0,0,0,1.51-1.51V23.442a1.513,1.513,0,0,0-1.51-1.51Z" fill="#8ac9fe" fill-rule="evenodd"/>
            <path id="Path_1257074" data-name="Path 1257074" d="M65.965,21.932H63.677a1.513,1.513,0,0,1,1.51,1.51V65.868a1.513,1.513,0,0,1-1.51,1.51h2.288a1.513,1.513,0,0,0,1.51-1.51V23.442a1.513,1.513,0,0,0-1.51-1.51Z" fill="#60b7ff" fill-rule="evenodd"/>
          </g>
          <g id="Group_1207078" data-name="Group 1207078">
            <path id="Path_1257075" data-name="Path 1257075" d="M64,2.631l1.615,4.253a.33.33,0,0,0,.3.217l4.544.221a.336.336,0,0,1,.194.6l-3.546,2.85a.33.33,0,0,0-.114.35l1.193,4.39a.336.336,0,0,1-.509.37l-3.806-2.492a.33.33,0,0,0-.369,0L59.7,15.88a.336.336,0,0,1-.509-.37l1.193-4.39a.33.33,0,0,0-.114-.35L56.723,7.92a.336.336,0,0,1,.194-.6L61.461,7.1a.33.33,0,0,0,.3-.217l1.615-4.253a.337.337,0,0,1,.629,0Z" fill="#ffe177" fill-rule="evenodd"/>
            <path id="Path_1257076" data-name="Path 1257076" d="M64,2.631l.492,1.3L63.4,6.8a.33.33,0,0,1-.3.217l-4.544.221a.336.336,0,0,0-.194.6l3.546,2.85a.33.33,0,0,1,.114.35l-1.1,4.033L59.7,15.88a.336.336,0,0,1-.509-.37l1.193-4.39a.33.33,0,0,0-.114-.35L56.722,7.92a.336.336,0,0,1,.194-.6L61.46,7.1a.33.33,0,0,0,.3-.217l1.615-4.253a.337.337,0,0,1,.629,0Zm4.035,12.327-3.1-2.028a.33.33,0,0,0-.369,0l-.7.457,3.806,2.492a.336.336,0,0,0,.509-.37Z" fill="#ffd064" fill-rule="evenodd"/>
          </g>
          <g id="Group_1207079" data-name="Group 1207079">
            <path id="Path_1257077" data-name="Path 1257077" d="M61.733,45.78A13.542,13.542,0,0,1,65.7,47.424l2.576-1.144,3.036,3.036-1.144,2.575a13.537,13.537,0,0,1,1.644,3.966l2.628,1.012v4.294l-2.629,1.012a13.54,13.54,0,0,1-1.644,3.965l1.144,2.576-3.036,3.036L65.7,70.607a13.533,13.533,0,0,1-3.966,1.644L60.721,74.88H56.427l-1.012-2.629a13.54,13.54,0,0,1-3.965-1.644l-2.576,1.144-3.036-3.036,1.144-2.575a13.535,13.535,0,0,1-1.644-3.966L42.71,61.163V56.869l2.629-1.012a13.538,13.538,0,0,1,1.644-3.965l-1.144-2.576,3.036-3.036,2.576,1.144a13.542,13.542,0,0,1,3.965-1.644l1.012-2.629h4.294Z" fill="#ffe177" fill-rule="evenodd"/>
            <path id="Path_1257078" data-name="Path 1257078" d="M51.45,70.607l-2.576,1.144-.4-.4,2.415-1.073q.275.17.558.325ZM61.733,45.78A13.542,13.542,0,0,1,65.7,47.424l-.732.325a17.86,17.86,0,0,0-4.522-1.969l-1.012-2.629h1.29ZM65.7,70.607a13.533,13.533,0,0,1-3.966,1.644l-1.012,2.628h-1.29l1.012-2.628a17.857,17.857,0,0,0,4.523-1.969ZM48.477,46.676l.4-.4,2.576,1.144q-.282.156-.558.325Zm18.9,0,.893-.4,3.036,3.036-1.144,2.575a13.537,13.537,0,0,1,1.644,3.966l2.628,1.012v4.294l-2.629,1.012a13.54,13.54,0,0,1-1.644,3.965l1.144,2.576-3.036,3.036-.893-.4,2.64-2.64-1.144-2.576a13.536,13.536,0,0,0,1.644-3.965l2.629-1.012V56.868L70.52,55.857a13.537,13.537,0,0,0-1.644-3.966l1.144-2.575Z" fill="#ffd064" fill-rule="evenodd"/>
            <circle id="Ellipse_12573" data-name="Ellipse 12573" cx="7.486" cy="7.486" r="7.486" transform="translate(48 59.87) rotate(-49.747)" fill="#eceff1"/>
            <path id="Path_1257079" data-name="Path 1257079" d="M58.574,51.527a7.488,7.488,0,1,0,0,14.976q.3,0,.6-.024a7.488,7.488,0,0,1,0-14.929Q58.874,51.528,58.574,51.527Z" fill="#d1d1d6" fill-rule="evenodd"/>
          </g>
        </g>
        <path id="Path_1257080" data-name="Path 1257080" d="M58.576,65.3a6.281,6.281,0,1,1,6.282-6.28A6.287,6.287,0,0,1,58.576,65.3Zm0-14.977a8.7,8.7,0,1,0,8.7,8.7A8.706,8.706,0,0,0,58.576,50.318ZM73.232,60.333V57.7l-1.854-.713a1.213,1.213,0,0,1-.741-.847,12.272,12.272,0,0,0-1.5-3.613,1.206,1.206,0,0,1-.073-1.123l.806-1.818L68.009,47.72l-1.819.808a1.211,1.211,0,0,1-1.123-.075,12.3,12.3,0,0,0-3.611-1.5,1.209,1.209,0,0,1-.846-.741l-.714-1.855H57.259l-.714,1.855a1.2,1.2,0,0,1-.846.741,12.3,12.3,0,0,0-3.611,1.5,1.21,1.21,0,0,1-1.123.075l-1.818-.808-1.865,1.863.808,1.818a1.214,1.214,0,0,1-.075,1.125,12.321,12.321,0,0,0-1.5,3.611,1.207,1.207,0,0,1-.741.847l-1.854.713v2.636l1.854.713a1.208,1.208,0,0,1,.741.848,12.311,12.311,0,0,0,1.5,3.612,1.21,1.21,0,0,1,.075,1.123l-.808,1.818,1.865,1.865,1.818-.808a1.2,1.2,0,0,1,1.123.076,12.3,12.3,0,0,0,3.611,1.5,1.205,1.205,0,0,1,.846.741l.714,1.855h2.636l.714-1.854a1.209,1.209,0,0,1,.846-.741,12.3,12.3,0,0,0,3.613-1.5,1.209,1.209,0,0,1,1.123-.076l1.818.808,1.863-1.865-.808-1.818a1.211,1.211,0,0,1,.075-1.123,12.291,12.291,0,0,0,1.5-3.612,1.207,1.207,0,0,1,.741-.846ZM52.208,30.29V45.642c-.281.133-.557.275-.829.427l-2.011-.894a1.21,1.21,0,0,0-1.344.251l-.975.973V30.29ZM66.27,23.14V45.85l-.494.219a14.705,14.705,0,0,0-3.136-1.3l-.789-2.051a1.2,1.2,0,0,0-.74-.708V23.14Zm8.605,32.6-2.051-.789a14.72,14.72,0,0,0-1.3-3.137l.893-2.007a1.205,1.205,0,0,0-.249-1.345l-3.036-3.036a1.194,1.194,0,0,0-.445-.281V21.932a1.208,1.208,0,0,0-1.208-1.208H59.9A1.207,1.207,0,0,0,58.7,21.932V41.944H56.43a1.2,1.2,0,0,0-1.126.774l-.681,1.767v-15.4a1.208,1.208,0,0,0-1.208-1.208H45.841a1.208,1.208,0,0,0-1.207,1.208V54.011c-.112.311-.213.624-.3.941l-2.051.789a1.209,1.209,0,0,0-.774,1.128v4.293a1.205,1.205,0,0,0,.774,1.126l2.051.789c.09.319.192.631.3.942v2.305a1.207,1.207,0,0,0,.51.985l-.406.915a1.209,1.209,0,0,0,.249,1.344L48.024,72.6a1.206,1.206,0,0,0,1.344.251l2.011-.893a14.754,14.754,0,0,0,3.136,1.3l.789,2.05a1.206,1.206,0,0,0,1.126.774h4.293a1.21,1.21,0,0,0,1.128-.774l.789-2.05a14.7,14.7,0,0,0,3.136-1.3l2.01.893a1.207,1.207,0,0,0,1.345-.251l3.036-3.036a1.2,1.2,0,0,0,.249-1.344l-.893-2.011a14.643,14.643,0,0,0,1.3-3.136l2.052-.789a1.2,1.2,0,0,0,.772-1.126V56.869a1.207,1.207,0,0,0-.772-1.128ZM61.522,8.307a1.547,1.547,0,0,0,1.369-.994l.8-2.108.8,2.108a1.541,1.541,0,0,0,1.368.993l2.251.11L66.354,9.828a1.544,1.544,0,0,0-.524,1.609l.592,2.175-1.885-1.235a1.548,1.548,0,0,0-1.693,0l-1.885,1.234.591-2.175a1.54,1.54,0,0,0-.522-1.608L59.27,8.417Zm-5.552.554,3.1,2.493-1.045,3.839a1.543,1.543,0,0,0,2.338,1.7l3.328-2.179L67.02,16.89a1.544,1.544,0,0,0,2.335-1.7l-1.045-3.839,3.1-2.493a1.544,1.544,0,0,0-.892-2.746l-3.976-.193L65.134,2.2a1.545,1.545,0,0,0-2.888,0l-1.412,3.72-3.973.193a1.544,1.544,0,0,0-.893,2.746ZM2.855,45.83a1.208,1.208,0,0,1-.4-2.348A141.887,141.887,0,0,0,50.077,16.089l-2.654.144a1.208,1.208,0,0,1-.131-2.412l6.058-.328a1.208,1.208,0,0,1,1.261,1.38l-.874,6a1.208,1.208,0,0,1-2.391-.348l.391-2.68A144.279,144.279,0,0,1,3.252,45.764a1.218,1.218,0,0,1-.4.066Zm7.163,19.287H4.86V53h5.158Zm1.208-14.53H3.652A1.208,1.208,0,0,0,2.444,51.8v14.53a1.208,1.208,0,0,0,1.208,1.208h7.574a1.207,1.207,0,0,0,1.207-1.208V51.8A1.207,1.207,0,0,0,11.226,50.587Zm12.854,14.53V45.391H18.924V65.117Zm1.208-22.142H17.716a1.207,1.207,0,0,0-1.207,1.208V66.325a1.207,1.207,0,0,0,1.207,1.208h7.573A1.207,1.207,0,0,0,26.5,66.325V44.183a1.207,1.207,0,0,0-1.207-1.208ZM38.144,65.117V37.441H32.986V65.117Zm1.208-30.092H31.778a1.207,1.207,0,0,0-1.207,1.208V66.325a1.207,1.207,0,0,0,1.207,1.208h7.574a1.208,1.208,0,0,0,1.208-1.208V36.234a1.208,1.208,0,0,0-1.208-1.208Z" fill-rule="evenodd"/>
      </g>
    </g>
  </g>
</svg>
