<svg xmlns="http://www.w3.org/2000/svg" xmlns:xlink="http://www.w3.org/1999/xlink" width="100" height="100" viewBox="0 0 100 100">
  <defs>
    <clipPath id="clip-path">
      <rect id="Rectangle_411293" data-name="Rectangle 411293" width="100" height="100" transform="translate(792.781 1954)" fill="#e8bad8" opacity="0.41"/>
    </clipPath>
    <clipPath id="clip-path-2">
      <rect id="Rectangle_411294" data-name="Rectangle 411294" width="74" height="88" transform="translate(-219 -8045)" fill="#fff" stroke="#707070" stroke-width="1" opacity="0"/>
    </clipPath>
  </defs>
  <g id="Group_1207090" data-name="Group 1207090" transform="translate(232.051 8051.221)">
    <g id="Group_1207092" data-name="Group 1207092">
      <g id="Mask_Group_1099508" data-name="Mask Group 1099508" transform="translate(-1024.832 -10005.221)" clip-path="url(#clip-path)">
        <g id="Group_1207091" data-name="Group 1207091" transform="translate(793.651 1960)">
          <g id="Group_1207090-2" data-name="Group 1207090">
            <ellipse id="Ellipse_12580" data-name="Ellipse 12580" cx="24.92" cy="24.92" rx="24.92" ry="24.92" transform="translate(49.154 38.512)" fill="#c8a0e6"/>
            <ellipse id="Ellipse_12581" data-name="Ellipse 12581" cx="18.123" cy="18.123" rx="18.123" ry="18.123" fill="#c8a0e6"/>
          </g>
        </g>
      </g>
      <g id="Mask_Group_1099509" data-name="Mask Group 1099509" clip-path="url(#clip-path-2)">
        <g id="filled_outline" data-name="filled outline" transform="translate(-221.467 -8040.467)">
          <path id="Path_1257098" data-name="Path 1257098" d="M44.4,40.7V16.033h6.167L39.467,3.7l-11.1,12.333h6.167V40.7Z" fill="#ffc431"/>
          <path id="Path_1257099" data-name="Path 1257099" d="M51.8,44.4a3.7,3.7,0,0,0,3.7-3.7V37a2.467,2.467,0,0,1,2.467-2.467H62.9V40.7L75.233,29.6,62.9,18.5v6.167H56.733A8.633,8.633,0,0,0,48.1,33.3V37H30.833V33.3A8.633,8.633,0,0,0,22.2,24.666H16.033V18.5L3.7,29.6,16.033,40.7V34.533h4.933A2.467,2.467,0,0,1,23.433,37v3.7a3.7,3.7,0,0,0,3.7,3.7Z" fill="#ef5e3b"/>
          <path id="Path_1257100" data-name="Path 1257100" d="M29.6,54.267H28.367l-2.467-3.7L28.367,40.7,37,37h4.933l8.633,3.7,2.467,8.633-2.467,4.933H49.333L48.1,60.433H30.833Z" fill="#548aff"/>
          <path id="Path_1257101" data-name="Path 1257101" d="M43.167,30.833v3.7a3.7,3.7,0,0,1-7.4,0v-3.7Z" fill="#ffceb6"/>
          <path id="Path_1257102" data-name="Path 1257102" d="M35.767,30.833V28.74a2.84,2.84,0,0,1,4.415-2.363l2.985,1.99v2.467Z" fill="#b1712c"/>
          <path id="Path_1257103" data-name="Path 1257103" d="M48.1,60.433l.658,14.8H43.167l-3.7-7.4-3.7,7.4H30.175l.658-14.8Z" fill="#62798c"/>
          <path id="Path_1257104" data-name="Path 1257104" d="M49.333,54.267H44.4L39.467,51.8l-3.7,2.467H29.6l1.233,6.167H48.1Z" fill="#4976f2"/>
          <path id="Path_1257105" data-name="Path 1257105" d="M39.915,44.96,32.067,48.1V43.167h2.467Z" fill="#ffceb6"/>
          <path id="Path_1257106" data-name="Path 1257106" d="M40.8,44.605l2.364,4.728,3.7-2.467v-3.7H44.4Z" fill="#ffceb6"/>
          <path id="Path_1257107" data-name="Path 1257107" d="M29.284,76.086a1.234,1.234,0,0,0,.891.381h5.591a1.233,1.233,0,0,0,1.1-.682l2.6-5.194,2.6,5.194a1.233,1.233,0,0,0,1.1.682h5.591a1.233,1.233,0,0,0,1.232-1.288l-.651-14.65L50.344,55.5h.222a1.233,1.233,0,0,0,1.1-.682l2.467-4.933a1.233,1.233,0,0,0,.083-.891l-2.467-8.633a1.234,1.234,0,0,0-.7-.795l-7.078-3.033a4.9,4.9,0,0,0,.425-2V28.367a1.233,1.233,0,0,0-.549-1.026l-2.984-1.99a4.073,4.073,0,0,0-6.333,3.389v5.793a4.9,4.9,0,0,0,.425,2l-7.078,3.033a1.233,1.233,0,0,0-.711.835L24.7,50.267a1.233,1.233,0,0,0,.17.983l2.467,3.7a1.233,1.233,0,0,0,1.026.549h.222l1.006,5.028-.651,14.65a1.234,1.234,0,0,0,.341.907ZM43.929,74,40.57,67.282a1.233,1.233,0,0,0-2.206,0L35,74h-3.54l.548-12.333H46.92L47.468,74ZM37,34.533V32.067h4.933v2.467a2.467,2.467,0,0,1-4.933,0Zm1.607-7.4a1.6,1.6,0,0,1,.891.27l2.435,1.624V29.6H37v-.86a1.608,1.608,0,0,1,1.607-1.607Zm-11.378,23.2,2.186-8.744,7.158-3.068a4.918,4.918,0,0,0,5.788,0L49.542,41.6l2.174,7.608L49.8,53.033H44.691l-2.772-1.386L46.638,48.5l2.306.769.78-2.34L48.1,46.389V43.167a1.233,1.233,0,0,0-1.233-1.233H44.4a1.233,1.233,0,0,0-.458.088l-4.066,1.626L34.923,42a1.236,1.236,0,0,0-.39-.063H32.067a1.233,1.233,0,0,0-1.233,1.233V48.1a1.233,1.233,0,0,0,1.691,1.145l7.682-3.073,1.37,2.739-6.183,4.122H29.027Zm18.4-4.13-1.988,1.326-1.14-2.279,2.132-.853h1Zm-9.3-1.141L33.3,46.278V44.4h1.033ZM35.767,55.5a1.234,1.234,0,0,0,.684-.207l3.1-2.07,4.293,2.147a1.233,1.233,0,0,0,.552.13h3.429l-.74,3.7H31.844l-.74-3.7Z"/>
          <path id="Path_1257108" data-name="Path 1257108" d="M35.767,23.433v-7.4A1.233,1.233,0,0,0,34.533,14.8h-3.4l8.331-9.256L47.8,14.8H44.4a1.233,1.233,0,0,0-1.233,1.233v7.4h2.467V17.267h4.933a1.233,1.233,0,0,0,.917-2.058L40.383,2.875a1.233,1.233,0,0,0-1.833,0L27.45,15.208a1.233,1.233,0,0,0,.917,2.058H33.3v6.167Z"/>
          <path id="Path_1257109" data-name="Path 1257109" d="M15.208,41.617a1.233,1.233,0,0,0,2.058-.917V35.767h3.7A1.235,1.235,0,0,1,22.2,37v3.7h2.467V37a3.7,3.7,0,0,0-3.7-3.7H16.033A1.233,1.233,0,0,0,14.8,34.533v3.4L5.544,29.6,14.8,21.269v3.4A1.233,1.233,0,0,0,16.033,25.9H22.2a7.408,7.408,0,0,1,7.4,7.4v2.467h2.467V33.3A9.878,9.878,0,0,0,22.2,23.433H17.267V18.5a1.233,1.233,0,0,0-2.058-.917L2.875,28.683a1.233,1.233,0,0,0,0,1.833Z"/>
          <path id="Path_1257110" data-name="Path 1257110" d="M76.058,28.684l-12.333-11.1a1.233,1.233,0,0,0-2.058.917v4.933H56.733A9.878,9.878,0,0,0,46.867,33.3v2.467h2.467V33.3a7.408,7.408,0,0,1,7.4-7.4H62.9a1.233,1.233,0,0,0,1.233-1.233v-3.4L73.39,29.6l-9.256,8.331v-3.4A1.233,1.233,0,0,0,62.9,33.3H57.967a3.7,3.7,0,0,0-3.7,3.7v3.7h2.467V37a1.235,1.235,0,0,1,1.233-1.233h3.7V40.7a1.233,1.233,0,0,0,2.058.917l12.333-11.1a1.233,1.233,0,0,0,0-1.833Z"/>
        </g>
      </g>
    </g>
  </g>
</svg>
