<svg xmlns="http://www.w3.org/2000/svg" xmlns:xlink="http://www.w3.org/1999/xlink" width="76.826" height="76.826" viewBox="0 0 76.826 76.826">
  <defs>
    <clipPath id="clip-path">
      <rect id="Rectangle_411212" data-name="Rectangle 411212" width="67" height="65" transform="translate(-558 -4114)" fill="#fff" stroke="#707070" stroke-width="1" opacity="0"/>
    </clipPath>
  </defs>
  <g id="Group_1206808" data-name="Group 1206808" transform="translate(563.051 4120.285)">
    <g id="Group_1206809" data-name="Group 1206809" transform="translate(-563.051 -4120.285)">
      <g id="Group_1200255" data-name="Group 1200255" transform="translate(0 0)">
        <g id="Group_1187152" data-name="Group 1187152" transform="translate(0 0)">
          <g id="Group_1185946" data-name="Group 1185946">
            <g id="Group_1184280" data-name="Group 1184280">
              <g id="Group_1182168" data-name="Group 1182168">
                <g id="Group_1178877" data-name="Group 1178877">
                  <g id="Group_1111311" data-name="Group 1111311">
                    <g id="Group_1098742" data-name="Group 1098742" transform="translate(0 0)">
                      <g id="Rectangle_400898" data-name="Rectangle 400898" transform="translate(0 0)" fill="#c8a0e6" stroke="#8b6fa0" stroke-width="1" opacity="0.859">
                        <rect width="76.826" height="76.826" rx="38.413" stroke="none"/>
                        <rect x="0.5" y="0.5" width="75.826" height="75.826" rx="37.913" fill="none"/>
                      </g>
                      <g id="Rectangle_400907" data-name="Rectangle 400907" transform="translate(0 0)" fill="none" stroke="#8b6fa0" stroke-width="1">
                        <rect width="76.826" height="76.826" rx="38.413" stroke="none"/>
                        <rect x="0.5" y="0.5" width="75.826" height="75.826" rx="37.913" fill="none"/>
                      </g>
                    </g>
                  </g>
                </g>
              </g>
            </g>
          </g>
        </g>
      </g>
    </g>
    <g id="Mask_Group_1099462" data-name="Mask Group 1099462" clip-path="url(#clip-path)">
      <g id="www" transform="translate(-558 -4111.531)">
        <path id="Path_1256781" data-name="Path 1256781" d="M55.484,26.5h6.281a3.925,3.925,0,0,0,3.926-3.926V5.3a3.925,3.925,0,0,0-3.926-3.926H5.234A3.925,3.925,0,0,0,1.309,5.3V22.573A3.925,3.925,0,0,0,5.234,26.5Zm0,0" fill="#ffc66c"/>
        <path id="Path_1256782" data-name="Path 1256782" d="M49.477,46.9,60.35,57.774a3.129,3.129,0,1,0,4.425-4.424L53.9,42.476Zm0,0" fill="#ff5d5d"/>
        <path id="Path_1256783" data-name="Path 1256783" d="M56.27,33.565a15.7,15.7,0,1,1-15.7-15.7A15.7,15.7,0,0,1,56.27,33.565Zm0,0" fill="#fff"/>
        <path id="Path_1256784" data-name="Path 1256784" d="M50.774,33.565A10.207,10.207,0,1,1,40.567,23.358,10.207,10.207,0,0,1,50.774,33.565Zm0,0" fill="#72d8ff"/>
        <path id="Path_1256785" data-name="Path 1256785" d="M40.567,22.05A11.516,11.516,0,1,0,52.083,33.565,11.529,11.529,0,0,0,40.567,22.05Zm0,20.414a8.9,8.9,0,1,1,8.9-8.9A8.908,8.908,0,0,1,40.567,42.464Zm0,0"/>
        <path id="Path_1256786" data-name="Path 1256786" d="M40.567,27.677a1.309,1.309,0,1,0,0,2.617,3.275,3.275,0,0,1,3.271,3.271,1.309,1.309,0,0,0,2.617,0A5.9,5.9,0,0,0,40.567,27.677Zm0,0"/>
        <path id="Path_1256787" data-name="Path 1256787" d="M8.067,9.933a1.309,1.309,0,1,0-2.324,1.2l3.522,6.8a1.308,1.308,0,0,0,2.342-.035l2.133-4.44,2.316,4.475a1.31,1.31,0,0,0,1.162.707h.019a1.31,1.31,0,0,0,1.16-.742l3.268-6.8a1.308,1.308,0,1,0-2.359-1.133l-2.133,4.44L14.857,9.933a1.308,1.308,0,0,0-2.342.035l-2.132,4.44Zm0,0"/>
        <path id="Path_1256788" data-name="Path 1256788" d="M16.487,2.683A1.308,1.308,0,0,0,17.412.449a1.309,1.309,0,0,0-2.234.925,1.31,1.31,0,0,0,1.309,1.309Zm0,0"/>
        <path id="Path_1256789" data-name="Path 1256789" d="M67,22.573V5.3A5.241,5.241,0,0,0,61.766.065H21.983a1.309,1.309,0,0,0,0,2.617H61.766A2.62,2.62,0,0,1,64.383,5.3V22.573a2.62,2.62,0,0,1-2.617,2.617H55.484c-.038,0-.075,0-.111.006a17.1,17.1,0,0,0-9.2-7.692l1.94-4.039,2.317,4.475a1.307,1.307,0,0,0,1.162.707h.02a1.309,1.309,0,0,0,1.16-.742l3.268-6.8a1.308,1.308,0,0,0-2.359-1.133l-2.132,4.44L49.233,9.933a1.309,1.309,0,0,0-2.342.035l-2.133,4.44L42.442,9.933a1.309,1.309,0,0,0-2.325,1.2l2.9,5.595a17.038,17.038,0,0,0-7.089.467l2.928-6.1a1.308,1.308,0,0,0-2.359-1.133l-2.133,4.44L32.045,9.933a1.309,1.309,0,0,0-2.342.035l-2.132,4.44L25.255,9.933a1.309,1.309,0,0,0-2.324,1.2l3.522,6.8a1.308,1.308,0,0,0,2.342-.035l2.133-4.44,2.316,4.475a1.278,1.278,0,0,0,.138.208,17.126,17.126,0,0,0-7.617,7.042H5.234a2.62,2.62,0,0,1-2.617-2.617V5.3A2.62,2.62,0,0,1,5.234,2.683H10.6a1.309,1.309,0,0,0,0-2.617H5.234A5.241,5.241,0,0,0,0,5.3V22.573a5.24,5.24,0,0,0,5.234,5.234H24.559a17.008,17.008,0,0,0,24.48,20.506L59.425,58.7A4.437,4.437,0,1,0,65.7,52.424l-4.081-4.081a1.308,1.308,0,0,0-1.85,1.85l4.081,4.081a1.82,1.82,0,0,1-2.574,2.574L51.234,46.807a17,17,0,0,0,5.341-19h5.191A5.24,5.24,0,0,0,67,22.573ZM40.567,47.96A14.395,14.395,0,1,1,54.961,33.565,14.411,14.411,0,0,1,40.567,47.96Zm0,0"/>
        <path id="Path_1256790" data-name="Path 1256790" d="M56.665,45.239a1.308,1.308,0,1,0,.925-.383A1.318,1.318,0,0,0,56.665,45.239Zm0,0"/>
      </g>
    </g>
  </g>
</svg>
