<svg xmlns="http://www.w3.org/2000/svg" xmlns:xlink="http://www.w3.org/1999/xlink" width="76.826" height="76.826" viewBox="0 0 76.826 76.826">
  <defs>
    <clipPath id="clip-path">
      <rect id="Rectangle_411232" data-name="Rectangle 411232" width="68" height="66" transform="translate(2910 -9578)" fill="#fff" stroke="#707070" stroke-width="1" opacity="0"/>
    </clipPath>
  </defs>
  <g id="Group_1206865" data-name="Group 1206865" transform="translate(-2905.479 9582.928)">
    <g id="Group_1206866" data-name="Group 1206866" transform="translate(2905.479 -9582.928)">
      <g id="Group_1200255" data-name="Group 1200255" transform="translate(0)">
        <g id="Group_1187152" data-name="Group 1187152" transform="translate(0 0)">
          <g id="Group_1185946" data-name="Group 1185946">
            <g id="Group_1184280" data-name="Group 1184280">
              <g id="Group_1182168" data-name="Group 1182168">
                <g id="Group_1178877" data-name="Group 1178877">
                  <g id="Group_1111311" data-name="Group 1111311">
                    <g id="Group_1098742" data-name="Group 1098742" transform="translate(0 0)">
                      <g id="Rectangle_400898" data-name="Rectangle 400898" transform="translate(0 0)" fill="#c8a0e6" stroke="#8b6fa0" stroke-width="1" opacity="0.859">
                        <rect width="76.826" height="76.826" rx="38.413" stroke="none"/>
                        <rect x="0.5" y="0.5" width="75.826" height="75.826" rx="37.913" fill="none"/>
                      </g>
                      <g id="Rectangle_400907" data-name="Rectangle 400907" transform="translate(0 0)" fill="none" stroke="#8b6fa0" stroke-width="1">
                        <rect width="76.826" height="76.826" rx="38.413" stroke="none"/>
                        <rect x="0.5" y="0.5" width="75.826" height="75.826" rx="37.913" fill="none"/>
                      </g>
                    </g>
                  </g>
                </g>
              </g>
            </g>
          </g>
        </g>
      </g>
    </g>
    <g id="Mask_Group_1099476" data-name="Mask Group 1099476" clip-path="url(#clip-path)">
      <g id="pelicula" transform="translate(2911.332 -9577.668)">
        <g id="flat">
          <path id="Path_1256947" data-name="Path 1256947" d="M30.108,28.157h5.121v6.216H30.108Z" fill="#a9c0ee"/>
          <path id="Path_1256948" data-name="Path 1256948" d="M27.147,42.679,21.116,40.3V38.709H16.582V40.3L10.55,42.679A2.351,2.351,0,0,0,8.9,44.951v.25H28.8v-.25a2.351,2.351,0,0,0-1.648-2.272Z" fill="#ffc7b5"/>
          <path id="Path_1256949" data-name="Path 1256949" d="M27.147,42.679,21.116,40.3H16.582L10.55,42.679A2.351,2.351,0,0,0,8.9,44.951v.25H28.8v-.25a2.351,2.351,0,0,0-1.648-2.272Z" fill="#d763ad"/>
          <path id="Path_1256950" data-name="Path 1256950" d="M8.049,1.021H57.286V28.157H8.049Z" fill="#1b60db"/>
          <path id="Path_1256951" data-name="Path 1256951" d="M28.8,10.8v7.574l7.745-3.787Z" fill="#eaeffb"/>
          <path id="Path_1256952" data-name="Path 1256952" d="M54.294,40.572l-6.5-2.378V35.106H43.216v3.088l-6.5,2.378a2.656,2.656,0,0,0-1.77,2.5v2.2H56.07v-2.2a2.657,2.657,0,0,0-1.776-2.5Z" fill="#ffc7b5"/>
          <path id="Path_1256953" data-name="Path 1256953" d="M47.792,38.194l6.5,2.378a2.657,2.657,0,0,1,1.77,2.5v2.2H34.937v-2.2a2.656,2.656,0,0,1,1.769-2.5l6.5-2.378a8.59,8.59,0,0,0,4.576,0Z" fill="#2ecdce"/>
          <path id="Path_1256954" data-name="Path 1256954" d="M5.183,44.951H60.152a4.162,4.162,0,0,1,4.162,4.162V64.978H1.021V49.113a4.162,4.162,0,0,1,4.162-4.162Z" fill="#a9c0ee"/>
          <g id="Group_1206868" data-name="Group 1206868">
            <path id="Path_1256955" data-name="Path 1256955" d="M52.661,23.922c-.629-3.057-4.033-3.459-6.026-3.459a16.294,16.294,0,0,0-5.066,1.048,2.4,2.4,0,0,1-2-.863,6.652,6.652,0,0,0-.6,6.773A7.167,7.167,0,0,0,41,29.57v2.078a4.584,4.584,0,0,0,4.584,4.583H45.6a4.584,4.584,0,0,0,4.583-4.583V29.57a5.637,5.637,0,0,0,2.479-5.647Z" fill="#5772a1"/>
            <path id="Path_1256956" data-name="Path 1256956" d="M18.848,22.021a7.672,7.672,0,0,0-7.686,7.652V36.18a2.706,2.706,0,0,0,2.706,2.707H23.83a2.706,2.706,0,0,0,2.713-2.7V29.673a7.672,7.672,0,0,0-7.695-7.652Z" fill="#5772a1"/>
          </g>
        </g>
        <g id="outline">
          <path id="Path_1256957" data-name="Path 1256957" d="M8.05,28.846H8.9a1.021,1.021,0,0,0,.167-2.031V1.71H56.265V26.8H55.093a1.021,1.021,0,0,0,0,2.042h2.193a1.021,1.021,0,0,0,1.021-1.021V.689A1.021,1.021,0,0,0,57.286-.332H8.05A1.021,1.021,0,0,0,7.029.689V27.825A1.021,1.021,0,0,0,8.05,28.846Z"/>
          <path id="Path_1256958" data-name="Path 1256958" d="M36.54,28.846a1.021,1.021,0,1,0,0-2.042H29.01a1.021,1.021,0,0,0,0,2.042h.076v4.612H29.01a1.021,1.021,0,0,0,0,2.042h7.376a1.021,1.021,0,1,0,0-2.042H36.25V28.846Zm-2.333,4.612H31.128V28.846h3.079Z"/>
          <path id="Path_1256959" data-name="Path 1256959" d="M60.152,43.6H57.091V42.74a3.682,3.682,0,0,0-2.45-3.463L48.81,37.145V35.892a5.594,5.594,0,0,0,2.393-4.58V29.754a6.449,6.449,0,0,0,2.45-6.369c-.568-2.755-3.063-4.273-7.026-4.273a11.42,11.42,0,0,0-4.147.735,8.458,8.458,0,0,1-1.119.332c-.363.076-.844-.325-1.015-.521a1.056,1.056,0,0,0-1.56,0,7.644,7.644,0,0,0-.76,7.832,6.806,6.806,0,0,0,1.944,2.255v1.571A5.567,5.567,0,0,0,42.2,35.747v1.4l-5.822,2.129a3.685,3.685,0,0,0-2.45,3.467V43.6H29.665a3.437,3.437,0,0,0-2.144-2.2l-4.614-1.819h.923a3.731,3.731,0,0,0,3.727-3.727V29.345a8.711,8.711,0,0,0-17.423,0v6.506a3.731,3.731,0,0,0,3.727,3.727h.922l-4.6,1.814A3.448,3.448,0,0,0,8.031,43.6H5.183A5.189,5.189,0,0,0,0,48.781V64.647a1.021,1.021,0,1,0,2.042,0V48.781a3.144,3.144,0,0,1,3.142-3.14H60.152a3.144,3.144,0,0,1,3.142,3.14V64.647a1.021,1.021,0,1,0,2.042,0V48.781A5.189,5.189,0,0,0,60.152,43.6ZM13.873,37.537a1.688,1.688,0,0,1-1.691-1.685V29.345a6.67,6.67,0,0,1,13.339,0v6.506a1.688,1.688,0,0,1-1.685,1.685ZM10.391,43.6a1.85,1.85,0,0,1,.532-.3l6.033-2.378a1.02,1.02,0,0,0,.647-.953v-.392h2.492v.392a1.02,1.02,0,0,0,.647.953L26.784,43.3a1.8,1.8,0,0,1,.525.3ZM42.019,31.316V29.238a1.025,1.025,0,0,0-.429-.832,6.024,6.024,0,0,1-1.678-1.715,5.894,5.894,0,0,1-.064-4.857,2.763,2.763,0,0,0,1.921.347,10.783,10.783,0,0,0,1.38-.4,9.392,9.392,0,0,1,3.483-.625c2.974,0,4.665.889,5.027,2.643a4.586,4.586,0,0,1-2.02,4.576,1.018,1.018,0,0,0-.478.864v2.078a3.573,3.573,0,1,1-7.145,0ZM55.049,43.6H35.958V42.74A1.643,1.643,0,0,1,37.063,41.2l6.5-2.378a1.02,1.02,0,0,0,.671-.953V36.736a5.231,5.231,0,0,0,2.534.059v1.07a1.019,1.019,0,0,0,.671.953L53.954,41.2a1.64,1.64,0,0,1,1.089,1.541Z"/>
          <path id="Path_1256960" data-name="Path 1256960" d="M36.99,13.339,29.243,9.553a1.021,1.021,0,0,0-1.469.917v7.575A1.022,1.022,0,0,0,28.8,19.066a1.037,1.037,0,0,0,.448-.1l7.746-3.788a1.021,1.021,0,0,0,0-1.833Zm-7.173,3.068v-4.3l4.4,2.152Z"/>
        </g>
      </g>
    </g>
  </g>
</svg>
