<svg xmlns="http://www.w3.org/2000/svg" xmlns:xlink="http://www.w3.org/1999/xlink" width="115" height="115" viewBox="0 0 115 115">
  <defs>
    <clipPath id="clip-path">
      <rect id="Rectangle_411127" data-name="Rectangle 411127" width="115" height="115" transform="translate(799.781 1954)" fill="#e8bad8" opacity="0.41"/>
    </clipPath>
    <clipPath id="clip-path-2">
      <rect id="Rectangle_411128" data-name="Rectangle 411128" width="98" height="93" transform="translate(-8907 -4286)" fill="#fff" stroke="#707070" stroke-width="1" opacity="0"/>
    </clipPath>
  </defs>
  <g id="Group_1201092" data-name="Group 1201092" transform="translate(8915.321 4297)">
    <g id="Mask_Group_1099389" data-name="Mask Group 1099389" transform="translate(-9715.103 -6251)" clip-path="url(#clip-path)">
      <g id="Group_1201093" data-name="Group 1201093" transform="translate(799.781 1960.273)">
        <g id="Group_1201092-2" data-name="Group 1201092">
          <ellipse id="Ellipse_12457" data-name="Ellipse 12457" cx="28.658" cy="28.658" rx="28.658" ry="28.658" transform="translate(56.527 44.289)" fill="#e6e51d"/>
          <ellipse id="Ellipse_12458" data-name="Ellipse 12458" cx="20.842" cy="20.842" rx="20.842" ry="20.842" fill="#e6e51d"/>
        </g>
      </g>
    </g>
    <g id="Mask_Group_1099390" data-name="Mask Group 1099390" clip-path="url(#clip-path-2)">
      <g id="brillo_1_" data-name="brillo (1)" transform="translate(-8926.383 -4307.882)">
        <g id="Layer_1" data-name="Layer 1">
          <path id="Path_1242822" data-name="Path 1242822" d="M52.069,57.441A36.035,36.035,0,0,0,41.916,59.2a51.482,51.482,0,0,1-.886-7.232,27.353,27.353,0,1,1,54.706,0,50.544,50.544,0,0,1-.886,7.238A36.226,36.226,0,0,0,84.7,57.447a28,28,0,0,0-16.319,5.432,27.7,27.7,0,0,0-16.313-5.438Z" fill="#ff3446"/>
          <path id="Path_1242823" data-name="Path 1242823" d="M58.295,77.469A29.317,29.317,0,0,1,68.382,62.912,29.273,29.273,0,0,1,78.47,77.485,27.9,27.9,0,0,1,58.295,77.469Z" fill="#333"/>
          <path id="Path_1242824" data-name="Path 1242824" d="M55.6,76.041A29.2,29.2,0,0,1,41.883,59.318a37.556,37.556,0,0,1,10.356-1.876A31.325,31.325,0,0,1,68.3,62.682a32.906,32.906,0,0,0-8.879,11.931l-1.138,2.828Z" fill="#bf1533"/>
          <path id="Path_1242825" data-name="Path 1242825" d="M77.343,74.63A32.78,32.78,0,0,0,68.464,62.7a31.325,31.325,0,0,1,16.062-5.241A37.2,37.2,0,0,1,94.876,59.3,29.049,29.049,0,0,1,81.167,76.041L78.481,77.48Z" fill="#217c62"/>
          <path id="Path_1242826" data-name="Path 1242826" d="M51.971,112.147A27.271,27.271,0,0,1,39.186,60.724l2.686-1.439,1.138,2.828A28.589,28.589,0,0,0,58.366,77.431a27.9,27.9,0,0,0,7.309,26.839l2.626,2.577a31.806,31.806,0,0,1-16.33,5.3Z" fill="#3ae4de"/>
          <path id="Path_1242827" data-name="Path 1242827" d="M57.857,80.571l.476-3.014a36.073,36.073,0,0,0,10.049,1.767,35.98,35.98,0,0,0,10.044-1.767l.476,3.014a27.78,27.78,0,0,1-10.52,26.106A28.31,28.31,0,0,1,57.857,80.571Z" fill="#3a72de"/>
          <path id="Path_1242828" data-name="Path 1242828" d="M84.794,112.147a31.729,31.729,0,0,1-16.335-5.257l2.659-2.577a27.933,27.933,0,0,0,7.309-26.839A27.78,27.78,0,0,0,93.782,62.157l1.138-2.828a28.447,28.447,0,0,1,17.227,25.466,27.386,27.386,0,0,1-27.353,27.353Z" fill="#21ce62"/>
        </g>
        <g id="Layer_2_copy" data-name="Layer 2 copy">
          <path id="Path_1242829" data-name="Path 1242829" d="M51.971,114.882A30.088,30.088,0,1,1,82.059,84.794,30.088,30.088,0,0,1,51.971,114.882Zm0-54.706A24.618,24.618,0,1,0,76.588,84.794,24.618,24.618,0,0,0,51.971,60.176Z" fill="#1a1a1a"/>
          <path id="Path_1242830" data-name="Path 1242830" d="M84.794,114.882a30.088,30.088,0,1,1,30.088-30.088,30.088,30.088,0,0,1-30.088,30.088Zm0-54.706a24.618,24.618,0,1,0,24.618,24.618A24.618,24.618,0,0,0,84.794,60.176Z" fill="#1a1a1a"/>
          <path id="Path_1242831" data-name="Path 1242831" d="M68.382,82.059A30.088,30.088,0,1,1,98.471,51.971,30.088,30.088,0,0,1,68.382,82.059Zm0-54.706A24.618,24.618,0,1,0,93,51.971,24.618,24.618,0,0,0,68.382,27.353Z" fill="#1a1a1a"/>
        </g>
      </g>
    </g>
  </g>
</svg>
