<svg xmlns="http://www.w3.org/2000/svg" xmlns:xlink="http://www.w3.org/1999/xlink" width="345.68" height="316.699" viewBox="0 0 345.68 316.699">
  <defs>
    <clipPath id="clip-path">
      <rect id="Rectangle_412095" data-name="Rectangle 412095" width="345.68" height="316.699" fill="none"/>
    </clipPath>
  </defs>
  <g id="Group_1207139" data-name="Group 1207139" transform="translate(6775.516 4682.31)">
    <g id="Group_1207122" data-name="Group 1207122" transform="translate(-6775.516 -4682.31)">
      <g id="Group_1207121" data-name="Group 1207121" clip-path="url(#clip-path)">
        <path id="Path_1257187" data-name="Path 1257187" d="M222.257,346.56A109.1,109.1,0,0,1,114.8,358.112a109,109,0,0,0,218-1.235c0-.055,0-.11,0-.166A109.1,109.1,0,0,1,222.257,346.56" transform="translate(-49.417 -149.187)" fill="#00125c"/>
        <path id="Path_1257188" data-name="Path 1257188" d="M476.322,109.008a109.009,109.009,0,0,0-172.84-88.365,108.854,108.854,0,0,1,45.161,87.131,109.027,109.027,0,0,1,65.377,99.752,109.014,109.014,0,0,0,62.3-98.517" transform="translate(-130.642)" fill="#017e2f"/>
        <path id="Path_1257189" data-name="Path 1257189" d="M348.643,189.235c0,.412.015.822.015,1.235a108.856,108.856,0,0,1-45.176,88.365,109.093,109.093,0,0,0,110.537,10.152,109.027,109.027,0,0,0-65.377-99.752" transform="translate(-130.642 -81.462)" fill="#0081d5"/>
        <path id="Path_1257190" data-name="Path 1257190" d="M127.666,109.174c0-.055,0-.11,0-.166A108.857,108.857,0,0,1,172.84,20.643,109.017,109.017,0,1,0,65.379,208.926c0-.412-.015-.822-.015-1.235a109.015,109.015,0,0,1,62.3-98.517" fill="#e10819"/>
        <path id="Path_1257191" data-name="Path 1257191" d="M222.245,279.893a108.856,108.856,0,0,1-45.174-88.2,109.015,109.015,0,0,0-62.3,98.518c0,.413.011.823.016,1.235a109.1,109.1,0,0,0,107.461-11.552" transform="translate(-49.405 -82.52)" fill="#da005f"/>
        <path id="Path_1257192" data-name="Path 1257192" d="M224.159,124.611c0,.055,0,.11,0,.166a109.224,109.224,0,0,1,90.335-1.4,108.853,108.853,0,0,0-45.161-87.131,108.856,108.856,0,0,0-45.176,88.365" transform="translate(-96.496 -15.603)" fill="#fff001"/>
        <path id="Path_1257193" data-name="Path 1257193" d="M224.163,183.765a108.857,108.857,0,0,0,45.174,88.2A108.857,108.857,0,0,0,314.514,183.6c0-.413-.011-.823-.015-1.234a109.229,109.229,0,0,0-90.335,1.4" transform="translate(-96.497 -74.591)" fill="#fff"/>
      </g>
    </g>
    <g id="Group_1207123" data-name="Group 1207123" transform="translate(-356.875)">
      <path id="Path_1257199" data-name="Path 1257199" d="M-22.074-2.969H-26.84L-27.91,0h-1.547l4.344-11.375H-23.8L-19.449,0h-1.539ZM-26.387-4.2h3.867l-1.937-5.32Zm9.6-4.25.039.938a3.122,3.122,0,0,1,2.508-1.094A2.417,2.417,0,0,1-11.824-7.25a3.2,3.2,0,0,1,1.1-.984,3.242,3.242,0,0,1,1.6-.375q2.781,0,2.828,2.945V0H-7.746V-5.578A1.941,1.941,0,0,0-8.16-6.934a1.823,1.823,0,0,0-1.391-.449,1.916,1.916,0,0,0-1.336.48A1.949,1.949,0,0,0-11.5-5.609V0h-1.453V-5.539a1.613,1.613,0,0,0-1.8-1.844,1.934,1.934,0,0,0-1.945,1.211V0h-1.445V-8.453ZM1.1,0a3.036,3.036,0,0,1-.2-.891A3.225,3.225,0,0,1-1.512.156,2.984,2.984,0,0,1-3.562-.551a2.287,2.287,0,0,1-.8-1.793,2.39,2.39,0,0,1,1-2.051,4.733,4.733,0,0,1,2.824-.73H.871v-.664A1.623,1.623,0,0,0,.418-7,1.821,1.821,0,0,0-.918-7.445a2.107,2.107,0,0,0-1.3.391,1.151,1.151,0,0,0-.523.945H-4.191a2,2,0,0,1,.449-1.223,3.066,3.066,0,0,1,1.219-.934A4.1,4.1,0,0,1-.832-8.609a3.342,3.342,0,0,1,2.289.73,2.635,2.635,0,0,1,.859,2.012v3.891a4.757,4.757,0,0,0,.3,1.852V0ZM-1.3-1.1A2.54,2.54,0,0,0-.012-1.453a2.127,2.127,0,0,0,.883-.914V-4.1H-.262q-2.656,0-2.656,1.555a1.316,1.316,0,0,0,.453,1.063A1.742,1.742,0,0,0-1.3-1.1ZM8.668-7.156a4.331,4.331,0,0,0-.711-.055A1.9,1.9,0,0,0,6.027-6V0H4.582V-8.453H5.988l.023.977A2.251,2.251,0,0,1,8.027-8.609a1.477,1.477,0,0,1,.641.109ZM11.566,0H10.121V-8.453h1.445ZM10-10.7a.863.863,0,0,1,.215-.594.807.807,0,0,1,.637-.242.819.819,0,0,1,.641.242.854.854,0,0,1,.219.594.826.826,0,0,1-.219.586.834.834,0,0,1-.641.234.821.821,0,0,1-.637-.234A.834.834,0,0,1,10-10.7ZM15.449,0H14V-12h1.445Zm3.883,0H17.887V-12h1.445Zm1.93-4.3a4.993,4.993,0,0,1,.488-2.234A3.643,3.643,0,0,1,23.109-8.07,3.7,3.7,0,0,1,25.1-8.609a3.565,3.565,0,0,1,2.793,1.2,4.6,4.6,0,0,1,1.066,3.18v.1a5.036,5.036,0,0,1-.473,2.215A3.589,3.589,0,0,1,27.133-.391a3.743,3.743,0,0,1-2.02.547,3.556,3.556,0,0,1-2.785-1.2A4.575,4.575,0,0,1,21.262-4.2Zm1.453.172a3.616,3.616,0,0,0,.652,2.258,2.088,2.088,0,0,0,1.746.852,2.075,2.075,0,0,0,1.75-.863A3.955,3.955,0,0,0,27.512-4.3a3.61,3.61,0,0,0-.66-2.254A2.1,2.1,0,0,0,25.1-7.422a2.075,2.075,0,0,0-1.727.852A3.925,3.925,0,0,0,22.715-4.133Z" transform="translate(-6248.301 -4604.121)" fill="#12263f"/>
      <path id="Path_1257198" data-name="Path 1257198" d="M-15.453-1.992l3.25-9.383h1.641L-14.781,0h-1.328L-20.32-11.375h1.633ZM-6.1.156A3.693,3.693,0,0,1-8.9-.973a4.19,4.19,0,0,1-1.078-3.02v-.266A5.073,5.073,0,0,1-9.5-6.5,3.748,3.748,0,0,1-8.152-8.051a3.378,3.378,0,0,1,1.871-.559A3.166,3.166,0,0,1-3.719-7.523,4.7,4.7,0,0,1-2.8-4.414v.6H-8.531a3,3,0,0,0,.73,2.02,2.3,2.3,0,0,0,1.777.77,2.517,2.517,0,0,0,1.3-.312,3.259,3.259,0,0,0,.93-.828l.883.688A3.55,3.55,0,0,1-6.1.156Zm-.18-7.578a1.928,1.928,0,0,0-1.469.637A3.1,3.1,0,0,0-8.484-5H-4.25v-.109a2.753,2.753,0,0,0-.594-1.707A1.815,1.815,0,0,0-6.281-7.422Zm9.234.266a4.331,4.331,0,0,0-.711-.055A1.9,1.9,0,0,0,.313-6V0H-1.133V-8.453H.273L.3-7.477A2.251,2.251,0,0,1,2.313-8.609a1.477,1.477,0,0,1,.641.109ZM3.781-4.3A4.952,4.952,0,0,1,4.7-7.426,2.915,2.915,0,0,1,7.117-8.609,2.932,2.932,0,0,1,9.469-7.594V-12h1.445V0H9.586l-.07-.906A2.943,2.943,0,0,1,7.1.156a2.887,2.887,0,0,1-2.395-1.2,5.008,5.008,0,0,1-.926-3.141Zm1.445.164a3.749,3.749,0,0,0,.594,2.25,1.92,1.92,0,0,0,1.641.813A2.108,2.108,0,0,0,9.469-2.3V-6.187a2.125,2.125,0,0,0-1.992-1.2,1.929,1.929,0,0,0-1.656.82A4.128,4.128,0,0,0,5.227-4.133ZM16.664.156a3.693,3.693,0,0,1-2.8-1.129,4.19,4.19,0,0,1-1.078-3.02v-.266A5.073,5.073,0,0,1,13.27-6.5a3.748,3.748,0,0,1,1.344-1.547,3.378,3.378,0,0,1,1.871-.559,3.166,3.166,0,0,1,2.563,1.086,4.7,4.7,0,0,1,.914,3.109v.6H14.234a3,3,0,0,0,.73,2.02,2.3,2.3,0,0,0,1.777.77,2.517,2.517,0,0,0,1.3-.312,3.259,3.259,0,0,0,.93-.828l.883.688A3.55,3.55,0,0,1,16.664.156Zm-.18-7.578a1.928,1.928,0,0,0-1.469.637A3.1,3.1,0,0,0,14.281-5h4.234v-.109a2.753,2.753,0,0,0-.594-1.707A1.815,1.815,0,0,0,16.484-7.422Z" transform="translate(-6141.301 -4593.121)" fill="#fff"/>
      <path id="Path_1257200" data-name="Path 1257200" d="M-10.469-4.6h-2.672V0h-1.508V-11.375h3.766a4.457,4.457,0,0,1,2.957.875A3.148,3.148,0,0,1-6.891-7.953,3.062,3.062,0,0,1-7.465-6.1a3.428,3.428,0,0,1-1.6,1.18L-6.391-.094V0H-8Zm-2.672-1.227h2.3a2.6,2.6,0,0,0,1.777-.578A1.953,1.953,0,0,0-8.4-7.953,2.057,2.057,0,0,0-9.027-9.57a2.666,2.666,0,0,0-1.816-.57h-2.3ZM-5.4-4.3A4.993,4.993,0,0,1-4.91-6.539,3.643,3.643,0,0,1-3.551-8.07a3.7,3.7,0,0,1,1.988-.539,3.565,3.565,0,0,1,2.793,1.2A4.6,4.6,0,0,1,2.3-4.234v.1a5.036,5.036,0,0,1-.473,2.215A3.589,3.589,0,0,1,.473-.391a3.743,3.743,0,0,1-2.02.547,3.556,3.556,0,0,1-2.785-1.2A4.575,4.575,0,0,1-5.4-4.2Zm1.453.172a3.616,3.616,0,0,0,.652,2.258,2.088,2.088,0,0,0,1.746.852A2.075,2.075,0,0,0,.2-1.887,3.955,3.955,0,0,0,.852-4.3a3.61,3.61,0,0,0-.66-2.254,2.1,2.1,0,0,0-1.754-.863,2.075,2.075,0,0,0-1.727.852A3.925,3.925,0,0,0-3.945-4.133ZM5.6-8.453V.977q0,2.438-2.211,2.438a2.682,2.682,0,0,1-.883-.141V2.117a2.794,2.794,0,0,0,.656.063A.982.982,0,0,0,3.9,1.918a1.294,1.294,0,0,0,.254-.91V-8.453ZM4.008-10.7a.867.867,0,0,1,.215-.59.79.79,0,0,1,.629-.246.819.819,0,0,1,.641.242.854.854,0,0,1,.219.594.826.826,0,0,1-.219.586.834.834,0,0,1-.641.234.808.808,0,0,1-.633-.234A.843.843,0,0,1,4.008-10.7ZM7.547-4.3a4.993,4.993,0,0,1,.488-2.234A3.643,3.643,0,0,1,9.395-8.07a3.7,3.7,0,0,1,1.988-.539,3.565,3.565,0,0,1,2.793,1.2,4.6,4.6,0,0,1,1.066,3.18v.1a5.036,5.036,0,0,1-.473,2.215A3.589,3.589,0,0,1,13.418-.391,3.743,3.743,0,0,1,11.4.156a3.556,3.556,0,0,1-2.785-1.2A4.575,4.575,0,0,1,7.547-4.2ZM9-4.133a3.616,3.616,0,0,0,.652,2.258,2.088,2.088,0,0,0,1.746.852,2.075,2.075,0,0,0,1.75-.863A3.955,3.955,0,0,0,13.8-4.3a3.61,3.61,0,0,0-.66-2.254,2.1,2.1,0,0,0-1.754-.863,2.075,2.075,0,0,0-1.727.852A3.925,3.925,0,0,0,9-4.133Z" transform="translate(-6355.301 -4593.121)" fill="#fff"/>
      <path id="Path_1257201" data-name="Path 1257201" d="M-28.184-11.375l3.719,9.281,3.719-9.281H-18.8V0h-1.5V-4.43l.141-4.781L-23.895,0h-1.148L-28.77-9.187l.148,4.758V0h-1.5V-11.375ZM-11.16,0a3.036,3.036,0,0,1-.2-.891A3.225,3.225,0,0,1-13.77.156,2.984,2.984,0,0,1-15.82-.551a2.287,2.287,0,0,1-.8-1.793,2.39,2.39,0,0,1,1-2.051,4.733,4.733,0,0,1,2.824-.73h1.406v-.664A1.623,1.623,0,0,0-11.84-7a1.821,1.821,0,0,0-1.336-.449,2.107,2.107,0,0,0-1.3.391A1.151,1.151,0,0,0-15-6.109h-1.453A2,2,0,0,1-16-7.332a3.066,3.066,0,0,1,1.219-.934,4.1,4.1,0,0,1,1.691-.344,3.342,3.342,0,0,1,2.289.73,2.635,2.635,0,0,1,.859,2.012v3.891a4.757,4.757,0,0,0,.3,1.852V0Zm-2.4-1.1a2.54,2.54,0,0,0,1.289-.352,2.127,2.127,0,0,0,.883-.914V-4.1H-12.52q-2.656,0-2.656,1.555a1.316,1.316,0,0,0,.453,1.063A1.742,1.742,0,0,0-13.559-1.1ZM-8.02-4.3a4.968,4.968,0,0,1,.914-3.145A2.923,2.923,0,0,1-4.684-8.609,2.908,2.908,0,0,1-2.27-7.516l.07-.937h1.32V-.2a3.439,3.439,0,0,1-.973,2.586,3.589,3.589,0,0,1-2.613.945,4.348,4.348,0,0,1-1.789-.391A3.08,3.08,0,0,1-7.59,1.867L-6.84,1A2.826,2.826,0,0,0-4.566,2.148a2.214,2.214,0,0,0,1.645-.594,2.269,2.269,0,0,0,.59-1.672V-.844A2.971,2.971,0,0,1-4.7.156a2.887,2.887,0,0,1-2.4-1.2A5.224,5.224,0,0,1-8.02-4.3Zm1.453.164A3.79,3.79,0,0,0-5.98-1.887,1.9,1.9,0,0,0-4.34-1.07,2.117,2.117,0,0,0-2.332-2.312V-6.172A2.142,2.142,0,0,0-4.324-7.383a1.921,1.921,0,0,0-1.648.82A4.128,4.128,0,0,0-6.566-4.133ZM4.809.156a3.693,3.693,0,0,1-2.8-1.129A4.19,4.19,0,0,1,.934-3.992v-.266A5.073,5.073,0,0,1,1.414-6.5,3.748,3.748,0,0,1,2.758-8.051a3.378,3.378,0,0,1,1.871-.559A3.166,3.166,0,0,1,7.191-7.523a4.7,4.7,0,0,1,.914,3.109v.6H2.379a3,3,0,0,0,.73,2.02,2.3,2.3,0,0,0,1.777.77,2.517,2.517,0,0,0,1.3-.312,3.259,3.259,0,0,0,.93-.828L8-1.477A3.55,3.55,0,0,1,4.809.156Zm-.18-7.578a1.928,1.928,0,0,0-1.469.637A3.1,3.1,0,0,0,2.426-5H6.66v-.109a2.753,2.753,0,0,0-.594-1.707A1.815,1.815,0,0,0,4.629-7.422Zm6.516-1.031.047,1.063a3.08,3.08,0,0,1,2.531-1.219q2.68,0,2.7,3.023V0H14.98V-5.594a1.946,1.946,0,0,0-.418-1.352,1.675,1.675,0,0,0-1.277-.437,2.086,2.086,0,0,0-1.234.375,2.546,2.546,0,0,0-.828.984V0H9.777V-8.453ZM20.566-10.5v2.047h1.578v1.117H20.566v5.242a1.171,1.171,0,0,0,.211.762.888.888,0,0,0,.719.254,3.5,3.5,0,0,0,.688-.094V0a4.19,4.19,0,0,1-1.109.156A1.8,1.8,0,0,1,19.613-.43a2.517,2.517,0,0,1-.492-1.664V-7.336H17.582V-8.453h1.539V-10.5ZM29.051,0a3.036,3.036,0,0,1-.2-.891A3.225,3.225,0,0,1,26.441.156a2.984,2.984,0,0,1-2.051-.707,2.287,2.287,0,0,1-.8-1.793,2.39,2.39,0,0,1,1-2.051,4.733,4.733,0,0,1,2.824-.73h1.406v-.664A1.623,1.623,0,0,0,28.371-7a1.821,1.821,0,0,0-1.336-.449,2.108,2.108,0,0,0-1.3.391,1.151,1.151,0,0,0-.523.945H23.762a2,2,0,0,1,.449-1.223,3.066,3.066,0,0,1,1.219-.934,4.1,4.1,0,0,1,1.691-.344,3.342,3.342,0,0,1,2.289.73,2.635,2.635,0,0,1,.859,2.012v3.891a4.757,4.757,0,0,0,.3,1.852V0Zm-2.4-1.1a2.54,2.54,0,0,0,1.289-.352,2.127,2.127,0,0,0,.883-.914V-4.1H27.691q-2.656,0-2.656,1.555a1.316,1.316,0,0,0,.453,1.063A1.742,1.742,0,0,0,26.652-1.1Z" transform="translate(-6308.301 -4498.121)" fill="#fff"/>
      <path id="Path_1257204" data-name="Path 1257204" d="M-7.98-2.969h-4.766L-13.816,0h-1.547l4.344-11.375h1.313L-5.355,0H-6.895ZM-12.293-4.2h3.867l-1.937-5.32ZM-2.6-1.18H2.348V0H-4.363V-1.062L.3-7.258H-4.293v-1.2H2.113V-7.43ZM9.191-.836A3.07,3.07,0,0,1,6.715.156,2.628,2.628,0,0,1,4.656-.629a3.4,3.4,0,0,1-.715-2.324v-5.5H5.387v5.461q0,1.922,1.563,1.922A2.163,2.163,0,0,0,9.152-2.3V-8.453H10.6V0H9.223ZM14.363,0H12.918V-12h1.445Z" transform="translate(-6249.301 -4424.121)" fill="#fff"/>
      <path id="Path_1257203" data-name="Path 1257203" d="M-6.227-3.609A4.185,4.185,0,0,1-7.559-.824a4.365,4.365,0,0,1-2.98.98,4.008,4.008,0,0,1-3.23-1.445,5.815,5.815,0,0,1-1.215-3.867V-6.25a6.481,6.481,0,0,1,.566-2.789,4.231,4.231,0,0,1,1.605-1.848,4.47,4.47,0,0,1,2.406-.645A4.11,4.11,0,0,1-7.5-10.52a4.235,4.235,0,0,1,1.273,2.8H-7.734a3.254,3.254,0,0,0-.848-1.969,2.569,2.569,0,0,0-1.824-.609A2.685,2.685,0,0,0-12.66-9.234a4.875,4.875,0,0,0-.816,3.023v1.1A5.011,5.011,0,0,0-12.7-2.164,2.5,2.5,0,0,0-10.539-1.07a2.887,2.887,0,0,0,1.918-.566,3.143,3.143,0,0,0,.887-1.973ZM-2.836,0H-4.281V-8.453h1.445ZM-4.4-10.7a.863.863,0,0,1,.215-.594.807.807,0,0,1,.637-.242.819.819,0,0,1,.641.242.854.854,0,0,1,.219.594.826.826,0,0,1-.219.586.834.834,0,0,1-.641.234.821.821,0,0,1-.637-.234A.834.834,0,0,1-4.4-10.7ZM4.7,0a3.036,3.036,0,0,1-.2-.891A3.225,3.225,0,0,1,2.086.156,2.984,2.984,0,0,1,.035-.551a2.287,2.287,0,0,1-.8-1.793,2.39,2.39,0,0,1,1-2.051,4.733,4.733,0,0,1,2.824-.73H4.469v-.664A1.623,1.623,0,0,0,4.016-7,1.821,1.821,0,0,0,2.68-7.445a2.107,2.107,0,0,0-1.3.391,1.151,1.151,0,0,0-.523.945H-.594A2,2,0,0,1-.145-7.332a3.066,3.066,0,0,1,1.219-.934,4.1,4.1,0,0,1,1.691-.344,3.342,3.342,0,0,1,2.289.73,2.635,2.635,0,0,1,.859,2.012v3.891a4.757,4.757,0,0,0,.3,1.852V0ZM2.3-1.1a2.54,2.54,0,0,0,1.289-.352,2.127,2.127,0,0,0,.883-.914V-4.1H3.336Q.68-4.1.68-2.547a1.316,1.316,0,0,0,.453,1.063A1.742,1.742,0,0,0,2.3-1.1Zm7.25-7.352.047,1.063a3.08,3.08,0,0,1,2.531-1.219q2.68,0,2.7,3.023V0H13.383V-5.594a1.946,1.946,0,0,0-.418-1.352,1.675,1.675,0,0,0-1.277-.437,2.086,2.086,0,0,0-1.234.375,2.546,2.546,0,0,0-.828.984V0H8.18V-8.453Z" transform="translate(-6186.301 -4498.121)" fill="#fff"/>
      <path id="Path_1257202" data-name="Path 1257202" d="M-23.117,0V-11.375H-19.4a4.317,4.317,0,0,1,2.785.766,2.759,2.759,0,0,1,.934,2.266,2.31,2.31,0,0,1-.453,1.41,2.938,2.938,0,0,1-1.234.949A2.638,2.638,0,0,1-15.91-5a2.814,2.814,0,0,1,.535,1.723,3.042,3.042,0,0,1-.992,2.406,4.1,4.1,0,0,1-2.8.875Zm1.5-5.32v4.094h2.477a2.385,2.385,0,0,0,1.652-.543,1.907,1.907,0,0,0,.605-1.5q0-2.055-2.234-2.055Zm0-1.2h2.266a2.378,2.378,0,0,0,1.574-.492,1.649,1.649,0,0,0,.59-1.336,1.621,1.621,0,0,0-.547-1.363,2.69,2.69,0,0,0-1.664-.426h-2.219ZM-11.812,0h-1.445V-12h1.445Zm7.531,0a3.036,3.036,0,0,1-.2-.891A3.225,3.225,0,0,1-6.891.156,2.984,2.984,0,0,1-8.941-.551a2.287,2.287,0,0,1-.8-1.793,2.39,2.39,0,0,1,1-2.051,4.733,4.733,0,0,1,2.824-.73h1.406v-.664A1.623,1.623,0,0,0-4.961-7,1.821,1.821,0,0,0-6.3-7.445a2.107,2.107,0,0,0-1.3.391,1.151,1.151,0,0,0-.523.945H-9.57a2,2,0,0,1,.449-1.223A3.066,3.066,0,0,1-7.9-8.266a4.1,4.1,0,0,1,1.691-.344,3.342,3.342,0,0,1,2.289.73,2.635,2.635,0,0,1,.859,2.012v3.891a4.757,4.757,0,0,0,.3,1.852V0Zm-2.4-1.1a2.54,2.54,0,0,0,1.289-.352,2.127,2.127,0,0,0,.883-.914V-4.1H-5.641Q-8.3-4.1-8.3-2.547a1.316,1.316,0,0,0,.453,1.063A1.742,1.742,0,0,0-6.68-1.1ZM.57-8.453.617-7.391A3.08,3.08,0,0,1,3.148-8.609q2.68,0,2.7,3.023V0H4.406V-5.594a1.946,1.946,0,0,0-.418-1.352,1.675,1.675,0,0,0-1.277-.437,2.086,2.086,0,0,0-1.234.375,2.546,2.546,0,0,0-.828.984V0H-.8V-8.453Zm10.852,7.43a2.082,2.082,0,0,0,1.352-.469,1.649,1.649,0,0,0,.641-1.172h1.367a2.621,2.621,0,0,1-.5,1.383,3.293,3.293,0,0,1-1.23,1.047,3.55,3.55,0,0,1-1.629.391A3.482,3.482,0,0,1,8.676-1a4.59,4.59,0,0,1-1.02-3.152v-.242a5.089,5.089,0,0,1,.453-2.2,3.451,3.451,0,0,1,1.3-1.492,3.7,3.7,0,0,1,2-.531,3.39,3.39,0,0,1,2.363.852,3.043,3.043,0,0,1,1,2.211H13.414a1.992,1.992,0,0,0-.621-1.348,1.932,1.932,0,0,0-1.379-.527,2.023,2.023,0,0,0-1.707.793A3.724,3.724,0,0,0,9.1-4.336v.273a3.65,3.65,0,0,0,.6,2.25A2.033,2.033,0,0,0,11.422-1.023Zm4.6-3.281a4.993,4.993,0,0,1,.488-2.234A3.643,3.643,0,0,1,17.871-8.07a3.7,3.7,0,0,1,1.988-.539,3.565,3.565,0,0,1,2.793,1.2,4.6,4.6,0,0,1,1.066,3.18v.1a5.036,5.036,0,0,1-.473,2.215A3.589,3.589,0,0,1,21.895-.391a3.743,3.743,0,0,1-2.02.547,3.556,3.556,0,0,1-2.785-1.2A4.575,4.575,0,0,1,16.023-4.2Zm1.453.172a3.616,3.616,0,0,0,.652,2.258,2.088,2.088,0,0,0,1.746.852,2.075,2.075,0,0,0,1.75-.863A3.955,3.955,0,0,0,22.273-4.3a3.61,3.61,0,0,0-.66-2.254,2.1,2.1,0,0,0-1.754-.863,2.075,2.075,0,0,0-1.727.852A3.925,3.925,0,0,0,17.477-4.133Z" transform="translate(-6248.301 -4535.121)" fill="#12263f"/>
    </g>
  </g>
</svg>
