<svg xmlns="http://www.w3.org/2000/svg" xmlns:xlink="http://www.w3.org/1999/xlink" width="503.348" height="351.013" viewBox="0 0 503.348 351.013">
  <defs>
    <filter id="Rectangle_409501" x="5.76" y="0" width="497.588" height="344.012" filterUnits="userSpaceOnUse">
      <feOffset dy="3" input="SourceAlpha"/>
      <feGaussianBlur stdDeviation="3" result="blur"/>
      <feFlood flood-opacity="0.161"/>
      <feComposite operator="in" in2="blur"/>
      <feComposite in="SourceGraphic"/>
    </filter>
    <clipPath id="clip-path">
      <rect id="Rectangle_411861" data-name="Rectangle 411861" width="341.741" height="341.741" fill="none"/>
    </clipPath>
    <filter id="Rectangle_401315" x="453.348" y="197.512" width="34" height="117.092" filterUnits="userSpaceOnUse">
      <feOffset dy="3" input="SourceAlpha"/>
      <feGaussianBlur stdDeviation="3" result="blur-2"/>
      <feFlood flood-opacity="0.161"/>
      <feComposite operator="in" in2="blur-2"/>
      <feComposite in="SourceGraphic"/>
    </filter>
    <filter id="Ellipse_12336" x="452" y="38" width="36" height="36" filterUnits="userSpaceOnUse">
      <feOffset dy="3" input="SourceAlpha"/>
      <feGaussianBlur stdDeviation="3" result="blur-3"/>
      <feFlood flood-opacity="0.161"/>
      <feComposite operator="in" in2="blur-3"/>
      <feComposite in="SourceGraphic"/>
    </filter>
    <filter id="Ellipse_12337" x="452" y="61" width="36" height="36" filterUnits="userSpaceOnUse">
      <feOffset dy="3" input="SourceAlpha"/>
      <feGaussianBlur stdDeviation="3" result="blur-4"/>
      <feFlood flood-opacity="0.161"/>
      <feComposite operator="in" in2="blur-4"/>
      <feComposite in="SourceGraphic"/>
    </filter>
    <filter id="Ellipse_12338" x="452" y="84" width="36" height="36" filterUnits="userSpaceOnUse">
      <feOffset dy="3" input="SourceAlpha"/>
      <feGaussianBlur stdDeviation="3" result="blur-5"/>
      <feFlood flood-opacity="0.161"/>
      <feComposite operator="in" in2="blur-5"/>
      <feComposite in="SourceGraphic"/>
    </filter>
  </defs>
  <g id="Group_1207108" data-name="Group 1207108" transform="translate(-184.691 -2788)">
    <g id="Group_1187160" data-name="Group 1187160" transform="translate(184.691 2811)">
      <g id="Group_1187160-2" data-name="Group 1187160">
        <rect id="Rectangle_410370" data-name="Rectangle 410370" width="57" height="212" rx="5" fill="#e6e51d"/>
      </g>
    </g>
    <g id="Group_1207132" data-name="Group 1207132">
      <g id="Group_1187161" data-name="Group 1187161" transform="translate(199.451 2794)">
        <g transform="matrix(1, 0, 0, 1, -14.76, -6)" filter="url(#Rectangle_409501)">
          <path id="Rectangle_409501-2" data-name="Rectangle 409501" d="M5,0H474.588a5,5,0,0,1,5,5V321.012a5,5,0,0,1-5,5H0a0,0,0,0,1,0,0V5A5,5,0,0,1,5,0Z" transform="translate(14.76 6)" fill="#9a2cec"/>
        </g>
        <g id="Group_1200874" data-name="Group 1200874" transform="translate(123.344 -15.729)">
          <path id="Path_1248449" data-name="Path 1248449" d="M0,0H431.225V308.1H0Z" transform="translate(-98.981 33.635)" fill="#e6f8f7"/>
          <g id="Group_1200873" data-name="Group 1200873" transform="translate(-54.24)">
            <g id="Group_1200872" data-name="Group 1200872" transform="translate(0 19)" clip-path="url(#clip-path)">
              <path id="Path_1248324" data-name="Path 1248324" d="M111.669,127.232a19.116,19.116,0,0,0,1.374,5.967l-4.484,3.214,5.13,7.223,4.484-3.214a18.965,18.965,0,0,0,5.171,3.246l-.909,5.456,8.71,1.465.909-5.456a19.08,19.08,0,0,0,5.94-1.379l3.2,4.5,7.187-5.153-3.2-4.5a19.155,19.155,0,0,0,3.232-5.194l5.429.913,1.456-8.751-5.429-.913a19.115,19.115,0,0,0-1.374-5.967l4.484-3.214-5.13-7.223-4.484,3.214a18.965,18.965,0,0,0-5.171-3.245l.909-5.456-8.71-1.465-.909,5.456a19.082,19.082,0,0,0-5.94,1.379l-3.2-4.5-7.187,5.153,3.2,4.5a19.155,19.155,0,0,0-3.232,5.194l-5.429-.913-1.455,8.751Zm8.118-3.133a11.136,11.136,0,1,1,9.144,12.878A11.142,11.142,0,0,1,119.787,124.1Z" transform="translate(-58.217 -55.51)" fill="#4ada85"/>
              <path id="Path_1248325" data-name="Path 1248325" d="M620.63,101.965h-6.88V248.383h6.88a9.572,9.572,0,0,0,9.574-9.574V111.534a9.572,9.572,0,0,0-9.574-9.574Z" transform="translate(-336.322 -55.872)" fill="#8c7bff"/>
              <rect id="Rectangle_411848" data-name="Rectangle 411848" width="3.878" height="12.024" transform="translate(291.472 62.754)"/>
              <rect id="Rectangle_411849" data-name="Rectangle 411849" width="2.26" height="12.024" transform="translate(290.812 62.754)" fill="#fff"/>
              <path id="Path_1248326" data-name="Path 1248326" d="M645.253,150.789h-2.26a.3.3,0,0,1-.3-.3V138.463a.3.3,0,0,1,.3-.3h2.26a.3.3,0,0,1,.3.3v12.024a.3.3,0,0,1-.3.3m-1.957-.606h1.659V138.761H643.3Z" transform="translate(-352.18 -75.709)"/>
              <path id="Path_1248327" data-name="Path 1248327" d="M432.74,101.97h75.533c6.324,0,11.45,4.285,11.45,9.574V238.819c0,5.289-5.126,9.574-11.45,9.574H432.74c-6.324,0-11.45-4.285-11.45-9.574V111.544C421.29,106.255,426.416,101.97,432.74,101.97Z" transform="translate(-230.858 -55.877)" fill="#fff"/>
              <path id="Path_1248328" data-name="Path 1248328" d="M508.779,248.33H431.515a10.9,10.9,0,0,1-10.885-10.885V112.195a10.9,10.9,0,0,1,10.885-10.885h77.264a10.9,10.9,0,0,1,10.885,10.885V237.445a10.9,10.9,0,0,1-10.885,10.885M431.515,101.911a10.3,10.3,0,0,0-10.283,10.283V237.445a10.3,10.3,0,0,0,10.283,10.283h77.264a10.3,10.3,0,0,0,10.283-10.283V112.195a10.3,10.3,0,0,0-10.283-10.283Z" transform="translate(-230.496 -55.516)"/>
              <path id="Path_1248329" data-name="Path 1248329" d="M525.788,110.246H509.633a.3.3,0,0,1,0-.606h16.155a.3.3,0,1,1,0,.606" transform="translate(-279.102 -60.08)"/>
              <path id="Path_1248330" data-name="Path 1248330" d="M550.252,109.993a1.492,1.492,0,1,1,1.492-1.492,1.493,1.493,0,0,1-1.492,1.492m0-2.378a.886.886,0,1,0,.886.886.887.887,0,0,0-.886-.886" transform="translate(-300.709 -58.639)"/>
              <path id="Path_1248331" data-name="Path 1248331" d="M535.761,201.175s-13.032,11.974-29.106,11.974-29.106-11.974-29.106-11.974,13.113-13.8,29.187-13.8,29.024,13.8,29.024,13.8" transform="translate(-261.687 -102.675)"/>
              <path id="Path_1248332" data-name="Path 1248332" d="M535.761,203.394s-13.032,11.974-29.106,11.974-29.106-11.974-29.106-11.974,13.032-11.974,29.106-11.974,29.106,11.974,29.106,11.974" transform="translate(-261.687 -104.894)" fill="#fff"/>
              <path id="Path_1248333" data-name="Path 1248333" d="M506.288,215.315c-16.006,0-29.178-11.933-29.309-12.051a.3.3,0,0,1,0-.443c.131-.122,13.3-12.051,29.309-12.051S535.466,202.7,535.6,202.821a.3.3,0,0,1,0,.443C535.466,203.386,522.295,215.315,506.288,215.315Zm-28.649-12.277c1.885,1.632,14.09,11.671,28.649,11.671s26.764-10.039,28.649-11.671c-1.885-1.632-14.089-11.671-28.649-11.671s-26.764,10.039-28.649,11.671" transform="translate(-261.32 -104.538)"/>
              <path id="Path_1248334" data-name="Path 1248334" d="M528.821,193.97A10.821,10.821,0,1,1,518,204.791a10.821,10.821,0,0,1,10.821-10.821" transform="translate(-283.853 -106.291)" fill="#955b50"/>
              <path id="Path_1248335" data-name="Path 1248335" d="M535.156,205.53a5.6,5.6,0,1,1-5.6,5.6,5.6,5.6,0,0,1,5.6-5.6" transform="translate(-290.188 -112.626)"/>
              <path id="Path_1248336" data-name="Path 1248336" d="M489.75,207.428l1.971,1.966,45.189-45.148-1.971-1.966Z" transform="translate(-268.373 -88.926)" fill="#8c7bff"/>
              <path id="Path_1248337" data-name="Path 1248337" d="M520.875,173.616h-3.612a.3.3,0,1,1,0-.606h3.612a.3.3,0,1,1,0,.606" transform="translate(-283.283 -94.806)" fill="#fff"/>
              <path id="Path_1248338" data-name="Path 1248338" d="M338.07,280.22H154.513a.3.3,0,0,1-.3-.3v-106.6a.3.3,0,0,1,.3-.3H334.467a.3.3,0,1,1,0,.606H154.816v106H337.771V214.112a.3.3,0,0,1,.606,0v65.81a.3.3,0,0,1-.3.3Z" transform="translate(-84.504 -94.806)"/>
              <path id="Path_1248339" data-name="Path 1248339" d="M560.593,184.378a.3.3,0,0,1-.3-.3v-9.592a.3.3,0,1,1,.606,0v9.592a.3.3,0,0,1-.3.3" transform="translate(-307.027 -95.447)" fill="#fff"/>
              <path id="Path_1248340" data-name="Path 1248340" d="M339.9,281.794h-168a.3.3,0,0,1-.3-.3l-.122-91.729a.3.3,0,0,1,.086-.212.294.294,0,0,1,.212-.09H323.052a.3.3,0,1,1,0,.606H172.077l.118,91.127H339.587V220.658a.3.3,0,1,1,.606,0V281.5a.3.3,0,0,1-.3.3Z" transform="translate(-93.967 -103.82)"/>
              <path id="Path_1248341" data-name="Path 1248341" d="M351.853,430.614H298.2a.3.3,0,0,1-.3-.3V409.243a.3.3,0,0,1,.3-.3h53.65a.3.3,0,0,1,.3.3v21.069a.3.3,0,0,1-.3.3m-53.348-.606H351.55V409.541H298.506Z" transform="translate(-163.243 -224.09)"/>
              <path id="Path_1248342" data-name="Path 1248342" d="M344.708,472.641H296.45a.3.3,0,0,1,0-.606h47.566l-.845-.913a46.921,46.921,0,0,0-34.3-14.971H259.61a46.928,46.928,0,0,0-34.3,14.971l-.845.913h44.85a.3.3,0,1,1,0,.606H223.774a.307.307,0,0,1-.276-.181.3.3,0,0,1,.054-.325l1.315-1.419A47.537,47.537,0,0,1,259.61,455.55h49.261a47.537,47.537,0,0,1,34.742,15.165l1.315,1.419a.3.3,0,0,1,.054.325A.307.307,0,0,1,344.708,472.641Z" transform="translate(-122.458 -249.632)"/>
              <path id="Path_1248343" data-name="Path 1248343" d="M351.663,492.626h-27.13a.3.3,0,0,1,0-.606h27.13a.3.3,0,0,1,0,.606" transform="translate(-177.671 -269.617)" fill="#fff"/>
              <path id="Path_1248344" data-name="Path 1248344" d="M306.536,301.86a17.995,17.995,0,0,1,0-35.99h1.356v2.712h-1.356a15.283,15.283,0,1,0,15.274,15.283v-1.356h2.712v1.356a18.011,18.011,0,0,1-17.986,17.995" transform="translate(-158.119 -145.691)"/>
              <path id="Path_1248345" data-name="Path 1248345" d="M370.507,285.654H359.929L356.8,268.039H336.23V243.06h2.712v22.267h20.129l3.132,17.62h8.3Z" transform="translate(-184.247 -133.192)"/>
              <rect id="Rectangle_411850" data-name="Rectangle 411850" width="22.276" height="2.712" transform="translate(151.983 120.179)"/>
              <path id="Path_1248346" data-name="Path 1248346" d="M305.268,257.287l-.041-8.629h-9.4V245.95h12.1l.054,11.323Z" transform="translate(-162.109 -134.775)"/>
              <path id="Path_1248347" data-name="Path 1248347" d="M331.816,234.221a6.12,6.12,0,1,1,6.116-6.12,6.124,6.124,0,0,1-6.116,6.12m0-9.529a3.408,3.408,0,1,0,3.4,3.408,3.41,3.41,0,0,0-3.4-3.408" transform="translate(-178.477 -121.64)"/>
              <path id="Path_1248348" data-name="Path 1248348" d="M120.491,375.84l48.032.009A8.158,8.158,0,0,1,176.686,384l-.023,108.422a8.162,8.162,0,0,1-8.168,8.154l-48.032-.009a8.158,8.158,0,0,1-8.163-8.155l.023-108.422a8.162,8.162,0,0,1,8.168-8.155" transform="translate(-61.538 -205.952)"/>
              <rect id="Rectangle_411851" data-name="Rectangle 411851" width="4.023" height="10.632" transform="translate(112.535 183.896)"/>
              <rect id="Rectangle_411852" data-name="Rectangle 411852" width="1.93" height="10.243" transform="translate(112.535 184.09)" fill="#fff"/>
              <path id="Path_1248349" data-name="Path 1248349" d="M250.513,417.439h-1.93a.3.3,0,0,1-.3-.3V406.893a.287.287,0,0,1,.09-.212.305.305,0,0,1,.212-.09h1.93a.3.3,0,0,1,.3.3v10.243a.287.287,0,0,1-.09.212.3.3,0,0,1-.212.09m-1.627-.6h1.329V407.2h-1.329Z" transform="translate(-136.052 -222.803)"/>
              <path id="Path_1248350" data-name="Path 1248350" d="M111,375.84l48.032.009A8.158,8.158,0,0,1,167.2,384l-.023,108.422a8.162,8.162,0,0,1-8.168,8.154l-48.032-.009a8.158,8.158,0,0,1-8.164-8.155l.023-108.422A8.162,8.162,0,0,1,111,375.84" transform="translate(-56.338 -205.952)" fill="#8c7bff"/>
              <rect id="Rectangle_411853" data-name="Rectangle 411853" width="64.291" height="89.681" transform="translate(46.581 186.522)" fill="#fff"/>
              <path id="Path_1248351" data-name="Path 1248351" d="M166.954,502.25l-64.291-.014a.287.287,0,0,1-.212-.09.313.313,0,0,1-.09-.212l.018-89.681a.3.3,0,0,1,.3-.3l64.291.014a.287.287,0,0,1,.212.09.3.3,0,0,1,.09.212l-.018,89.681A.3.3,0,0,1,166.954,502.25Zm-63.988-.615,63.69.014.018-89.08-63.69-.014Z" transform="translate(-56.091 -225.74)"/>
              <path id="Path_1248352" data-name="Path 1248352" d="M158.746,500.515h0l-48.167-.009c-4.787,0-8.4-3.856-8.4-8.968l.023-108.557c0-4.163,3.928-7.811,8.4-7.811l48.167.009a8.587,8.587,0,0,1,5.935,2.382,7.6,7.6,0,0,1,2.464,5.433l-.023,108.557a9.239,9.239,0,0,1-2.454,6.432A8.145,8.145,0,0,1,158.746,500.515ZM110.6,375.776c-4.154,0-7.8,3.368-7.8,7.21l-.023,108.557c0,4.769,3.349,8.362,7.8,8.362l48.167.009a7.53,7.53,0,0,0,5.506-2.346,8.624,8.624,0,0,0,2.292-6.016l.023-108.557A7.006,7.006,0,0,0,164.288,378a7.987,7.987,0,0,0-5.519-2.215Z" transform="translate(-55.992 -205.585)"/>
              <path id="Path_1248353" data-name="Path 1248353" d="M161.795,384.336H148.013a.3.3,0,1,1,0-.606h13.782a.3.3,0,1,1,0,.606" transform="translate(-80.942 -210.276)"/>
              <path id="Path_1248354" data-name="Path 1248354" d="M182.675,384.126a1.312,1.312,0,0,1-1.315-1.315,1.288,1.288,0,0,1,.384-.927,1.317,1.317,0,0,1,2.247.931,1.32,1.32,0,0,1-1.315,1.315Zm0-2.025a.693.693,0,0,0-.5.208.7.7,0,0,0-.208.5.693.693,0,0,0,.208.5.7.7,0,0,0,.506.208.71.71,0,1,0,0-1.419Z" transform="translate(-99.381 -209.054)"/>
              <path id="Path_1248355" data-name="Path 1248355" d="M132.66,495.838l24.391,10.315V475.89L132.66,486.205Z" transform="translate(-72.695 -260.778)" fill="#fed101"/>
              <path id="Path_1248356" data-name="Path 1248356" d="M156.992,506.056,132,495.483v-10.03l24.992-10.573v31.176ZM132.6,495.085l23.79,10.062V475.793L132.6,485.855Z" transform="translate(-72.333 -260.224)"/>
              <path id="Path_1248357" data-name="Path 1248357" d="M182.4,475.71c1.922,0,3.481,6.812,3.481,15.215s-1.558,15.215-3.481,15.215-3.481-6.812-3.481-15.215,1.558-15.215,3.481-15.215" transform="translate(-98.044 -260.679)"/>
              <rect id="Rectangle_411854" data-name="Rectangle 411854" width="6.694" height="13.434" transform="translate(57.714 223.506)" fill="#fcb503"/>
              <path id="Path_1248358" data-name="Path 1248358" d="M134.3,507.835H127V493.8h7.3Zm-6.694-.6H133.7V494.406h-6.093Z" transform="translate(-69.593 -270.592)"/>
              <path id="Path_1248359" data-name="Path 1248359" d="M195.734,508.565a.3.3,0,0,1-.249-.131.294.294,0,0,1,.081-.416,9.928,9.928,0,0,0,4.385-8.24,9.782,9.782,0,0,0-4.082-8.028.3.3,0,0,1,.353-.488,10.584,10.584,0,0,1,4.33,8.516,10.755,10.755,0,0,1-4.651,8.742.279.279,0,0,1-.167.05Z" transform="translate(-107.093 -269.17)"/>
              <path id="Path_1248360" data-name="Path 1248360" d="M190.564,509.914a.3.3,0,0,1-.249-.131.294.294,0,0,1,.081-.416,5.744,5.744,0,0,0,2.536-4.764,5.652,5.652,0,0,0-2.36-4.642.3.3,0,0,1,.353-.488,6.376,6.376,0,0,1,2.608,5.126,6.481,6.481,0,0,1-2.8,5.266A.28.28,0,0,1,190.564,509.914Z" transform="translate(-104.26 -273.669)"/>
              <path id="Path_1248361" data-name="Path 1248361" d="M201.434,508.188a.3.3,0,0,1-.176-.547A13.906,13.906,0,0,0,207,496.413a13.5,13.5,0,0,0-5.167-10.794.3.3,0,1,1,.38-.47,14.458,14.458,0,0,1-.6,22.981.3.3,0,0,1-.176.059Z" transform="translate(-110.216 -265.814)"/>
              <path id="Path_1248362" data-name="Path 1248362" d="M192.253,501.3a.308.308,0,0,1-.244-.122,5.7,5.7,0,0,0-1.23-1.216.3.3,0,0,1,.353-.488,6.285,6.285,0,0,1,1.356,1.347.3.3,0,0,1-.244.479Z" transform="translate(-104.475 -273.669)" fill="#fff"/>
              <path id="Path_1248363" data-name="Path 1248363" d="M190.564,520.363a.3.3,0,0,1-.249-.131.3.3,0,0,1,.081-.416,5.778,5.778,0,0,0,1.311-1.216.3.3,0,1,1,.475.375,6.379,6.379,0,0,1-1.446,1.342.279.279,0,0,1-.167.05Z" transform="translate(-104.26 -284.119)" fill="#fff"/>
              <rect id="Rectangle_411855" data-name="Rectangle 411855" width="54.083" height="2.786" transform="translate(58.363 248.541) rotate(-45)" fill="#8c7bff"/>
              <rect id="Rectangle_411856" data-name="Rectangle 411856" width="17.624" height="5.447" transform="translate(204.318 160.734)" fill="#8c7bff"/>
              <path id="Path_1248364" data-name="Path 1248364" d="M383,545.464A45.062,45.062,0,1,1,427.972,500.4,45.068,45.068,0,0,1,383,545.464m0-89.518A44.456,44.456,0,1,0,427.371,500.4,44.466,44.466,0,0,0,383,455.946" transform="translate(-185.228 -249.517)" fill="#8c7bff"/>
              <path id="Path_1248365" data-name="Path 1248365" d="M432.435,554.138a4.2,4.2,0,1,1,4.195-4.2,4.2,4.2,0,0,1-4.195,4.2m0-7.806a3.6,3.6,0,1,0,3.594,3.6,3.6,3.6,0,0,0-3.594-3.6" transform="translate(-234.666 -299.049)" fill="#8c7bff"/>
              <path id="Path_1248366" data-name="Path 1248366" d="M337.516,620.621a3.811,3.811,0,1,1,3.806-3.81,3.813,3.813,0,0,1-3.806,3.81m0-7.02a3.209,3.209,0,1,0,3.2,3.209,3.208,3.208,0,0,0-3.2-3.209" transform="translate(-182.866 -335.911)" fill="#8c7bff"/>
              <path id="Path_1248367" data-name="Path 1248367" d="M323.921,618.236a15.048,15.048,0,1,1,15.021-15.048,15.051,15.051,0,0,1-15.021,15.048m0-29.49a14.442,14.442,0,1,0,14.415,14.442,14.442,14.442,0,0,0-14.415-14.442" transform="translate(-169.271 -322.288)" fill="#8c7bff"/>
              <path id="Path_1248368" data-name="Path 1248368" d="M342.543,505.826a.3.3,0,0,1-.3-.3v-94.73a.3.3,0,0,1,.3-.3h42.874a.3.3,0,0,1,0,.606H342.846v94.427A.3.3,0,0,1,342.543,505.826Z" transform="translate(-187.54 -224.94)"/>
              <path id="Path_1248369" data-name="Path 1248369" d="M454.144,384.21a.3.3,0,0,1-.3-.3V362l-2.414-.57a.3.3,0,0,1,.136-.588l2.649.624a.3.3,0,0,1,.231.294V383.9a.3.3,0,0,1-.3.3Z" transform="translate(-247.245 -197.729)"/>
              <path id="Path_1248370" data-name="Path 1248370" d="M487.57,554.356H432.293a.3.3,0,1,1,0-.606H487.57a.3.3,0,1,1,0,.606" transform="translate(-236.721 -303.443)"/>
              <path id="Path_1248371" data-name="Path 1248371" d="M519.464,316.31a3.973,3.973,0,1,1-3.964,3.973,3.968,3.968,0,0,1,3.964-3.973" transform="translate(-282.483 -173.331)"/>
              <path id="Path_1248372" data-name="Path 1248372" d="M490.084,312.87a3.973,3.973,0,1,1-3.964,3.973,3.968,3.968,0,0,1,3.964-3.973" transform="translate(-266.383 -171.446)"/>
              <path id="Path_1248373" data-name="Path 1248373" d="M507.64,302.39a3.5,3.5,0,1,1-3.49,3.5,3.494,3.494,0,0,1,3.49-3.5" transform="translate(-276.264 -165.703)"/>
              <path id="Path_1248374" data-name="Path 1248374" d="M526.164,305.99a3.973,3.973,0,1,1-3.964,3.973,3.968,3.968,0,0,1,3.964-3.973" transform="translate(-286.155 -167.676)"/>
              <rect id="Rectangle_411857" data-name="Rectangle 411857" width="8.557" height="11.079" transform="translate(227.132 150.473)" fill="#fda4ff"/>
              <path id="Path_1248375" data-name="Path 1248375" d="M511.027,336.14v-3.25H502.47v7.174a8.036,8.036,0,0,0,4.077-.235,8.339,8.339,0,0,0,4.48-3.688" transform="translate(-275.343 -182.417)"/>
              <path id="Path_1248376" data-name="Path 1248376" d="M501.04,310.43c3.8,0,6.88,3.412,6.88,7.621s-3.08,7.621-6.88,7.621-6.88-3.412-6.88-7.621,3.08-7.621,6.88-7.621" transform="translate(-270.789 -170.109)" fill="#fda4ff"/>
              <path id="Path_1248377" data-name="Path 1248377" d="M501.5,334.08a2.8,2.8,0,0,0,1.044,1.465,2.928,2.928,0,0,0,3.752-.271l-4.8-1.193Z" transform="translate(-274.811 -183.069)" fill="#fff"/>
              <path id="Path_1248378" data-name="Path 1248378" d="M522.564,292.72a3.973,3.973,0,1,1-3.964,3.973,3.968,3.968,0,0,1,3.964-3.973" transform="translate(-284.182 -160.404)"/>
              <path id="Path_1248379" data-name="Path 1248379" d="M512.474,284.69a3.973,3.973,0,1,1-3.964,3.973,3.968,3.968,0,0,1,3.964-3.973" transform="translate(-278.653 -156.004)"/>
              <path id="Path_1248380" data-name="Path 1248380" d="M498.284,284.3a3.973,3.973,0,1,1-3.964,3.973,3.969,3.969,0,0,1,3.964-3.973" transform="translate(-270.877 -155.79)"/>
              <path id="Path_1248381" data-name="Path 1248381" d="M486.474,290.93a3.973,3.973,0,1,1-3.964,3.973,3.968,3.968,0,0,1,3.964-3.973" transform="translate(-264.405 -159.423)"/>
              <path id="Path_1248382" data-name="Path 1248382" d="M492.574,301.26a3.973,3.973,0,1,1-3.964,3.973,3.968,3.968,0,0,1,3.964-3.973" transform="translate(-267.748 -165.084)"/>
              <path id="Path_1248383" data-name="Path 1248383" d="M500.064,291.97a3.973,3.973,0,1,1-3.964,3.973,3.969,3.969,0,0,1,3.964-3.973" transform="translate(-271.852 -159.993)"/>
              <path id="Path_1248384" data-name="Path 1248384" d="M505.954,298.97a3.973,3.973,0,1,1-3.964,3.973,3.968,3.968,0,0,1,3.964-3.973" transform="translate(-275.08 -163.829)"/>
              <path id="Path_1248385" data-name="Path 1248385" d="M511.474,296.37a3.973,3.973,0,1,1-3.964,3.973,3.968,3.968,0,0,1,3.964-3.973" transform="translate(-278.105 -162.405)"/>
              <path id="Path_1248386" data-name="Path 1248386" d="M517.464,301.75a3.973,3.973,0,1,1-3.964,3.973,3.968,3.968,0,0,1,3.964-3.973" transform="translate(-281.387 -165.353)"/>
              <path id="Path_1248387" data-name="Path 1248387" d="M481.544,303.05a3.973,3.973,0,1,1-3.964,3.973,3.968,3.968,0,0,1,3.964-3.973" transform="translate(-261.704 -166.065)"/>
              <path id="Path_1248388" data-name="Path 1248388" d="M351.3,535.99l11.549,3.313-6,20.974-4.389,4.561-7.883-5.356Z" transform="translate(-188.823 -293.711)" fill="#fda4ff"/>
              <path id="Path_1248389" data-name="Path 1248389" d="M368.489,539.3l-3.146,11.007-10.473-7.065,2.07-7.255Z" transform="translate(-194.461 -293.711)" fill="#020202"/>
              <path id="Path_1248390" data-name="Path 1248390" d="M358.389,565.992l-1.537,5.366-4.389,4.561-7.883-5.356,4.1-14.352Z" transform="translate(-188.823 -304.791)" fill="#020202"/>
              <path id="Path_1248391" data-name="Path 1248391" d="M327.046,571.081l2.9-6.057a1.972,1.972,0,0,0-1.8-2.825l-.434.009a5.757,5.757,0,0,1-5.777-4.877l-1.053-6.8-.339-.163a16.29,16.29,0,0,0-9.031-1.5l-.3.036a19.175,19.175,0,0,1-10.613-1.758l-1.935-.931a3.776,3.776,0,0,0-4.222.646l-.592.556L304.364,560.5l22.682,10.586Z" transform="translate(-161.024 -299.109)" fill="#8c7bff"/>
              <path id="Path_1248392" data-name="Path 1248392" d="M321.329,575.9l-11.649-5.6a73.632,73.632,0,0,1-19.215-13.38l-5.415-5.23,3.526-3.58,5.289,5.031a73.563,73.563,0,0,0,18.813,13l10.835,5.212Z" transform="translate(-156.201 -300.353)" fill="#fff"/>
              <path id="Path_1248393" data-name="Path 1248393" d="M320.968,575.84a.268.268,0,0,1-.131-.032L309.188,570.2A73.779,73.779,0,0,1,289.9,556.769l-5.415-5.23a.287.287,0,0,1-.09-.212.32.32,0,0,1,.086-.217L288,547.53a.3.3,0,0,1,.42-.009l5.289,5.031A73.209,73.209,0,0,0,312.447,565.5l10.835,5.212a.3.3,0,0,1,.14.4l-2.183,4.556a.3.3,0,0,1-.172.154A.257.257,0,0,1,320.968,575.84Zm-35.85-24.522,5.2,5.022a73.1,73.1,0,0,0,19.134,13.326l11.377,5.474,1.926-4.014-10.564-5.085a73.706,73.706,0,0,1-18.89-13.05l-5.072-4.828-3.105,3.151Z" transform="translate(-155.84 -299.985)"/>
              <path id="Path_1248394" data-name="Path 1248394" d="M342.93,555.174a.3.3,0,0,1-.2-.077l-3.114-2.775a.3.3,0,1,1,.4-.448l3.114,2.775a.3.3,0,0,1,.023.425A.292.292,0,0,1,342.93,555.174Z" transform="translate(-186.047 -302.372)"/>
              <path id="Path_1248395" data-name="Path 1248395" d="M335.875,555.736a.3.3,0,0,1-.2-.077l-3.25-2.888a.3.3,0,0,1,.4-.452l3.25,2.888a.3.3,0,0,1,.027.425.292.292,0,0,1-.226.1Z" transform="translate(-182.106 -302.618)"/>
              <path id="Path_1248396" data-name="Path 1248396" d="M328.4,555.956a.3.3,0,0,1-.2-.077l-3.25-2.888a.3.3,0,0,1,.4-.452l3.25,2.888a.3.3,0,0,1,.027.425.292.292,0,0,1-.226.1Z" transform="translate(-178.013 -302.738)"/>
              <path id="Path_1248397" data-name="Path 1248397" d="M350.31,483.142l10.559-39.2A13.977,13.977,0,0,1,373.946,433.6l57.949-1.69v17.728h-54.36l-10.143,38.123Z" transform="translate(-191.962 -236.678)" fill="#8c7bff"/>
              <rect id="Rectangle_411858" data-name="Rectangle 411858" width="24.436" height="12.019" transform="translate(177.15 272.473) rotate(-75.049)" fill="#fda4ff"/>
              <path id="Path_1248398" data-name="Path 1248398" d="M414.2,553.631l-1.84,6.911H399.93l2.662-10.012Z" transform="translate(-219.153 -301.679)" fill="#020202"/>
              <rect id="Rectangle_411859" data-name="Rectangle 411859" width="11.988" height="12.019" transform="translate(177.158 272.474) rotate(-75.049)" fill="#020202"/>
              <path id="Path_1248399" data-name="Path 1248399" d="M379.373,591.712V585a1.968,1.968,0,0,0-2.848-1.763l-.389.194a5.741,5.741,0,0,1-7.314-1.894l-3.892-5.673h-.375a16.322,16.322,0,0,0-8.787,2.568l-.253.163a19.189,19.189,0,0,1-10.329,3.019H343.04a3.783,3.783,0,0,0-3.526,2.414l-.294.759,15.134,7.232,25.019-.3Z" transform="translate(-185.885 -315.559)" fill="#8c7bff"/>
              <path id="Path_1248400" data-name="Path 1248400" d="M353.984,591.942a.267.267,0,0,1-.131-.032l-15.129-7.232a.3.3,0,0,1-.149-.38l.294-.759a4.059,4.059,0,0,1,3.806-2.6h2.147a18.851,18.851,0,0,0,10.166-2.97l.253-.163a16.617,16.617,0,0,1,8.95-2.613h.375a.3.3,0,0,1,.249.131l3.892,5.673a5.469,5.469,0,0,0,6.93,1.794l.389-.194a2.273,2.273,0,0,1,3.286,2.034v6.717a.3.3,0,0,1-.3.3l-25.024.3Zm-14.749-7.684,14.817,7.083,24.653-.294v-6.419a1.672,1.672,0,0,0-.791-1.424,1.641,1.641,0,0,0-1.618-.072l-.389.194a6.07,6.07,0,0,1-7.7-1.989l-3.8-5.542h-.217a16.023,16.023,0,0,0-8.625,2.518l-.253.163a19.445,19.445,0,0,1-10.491,3.065h-2.147a3.463,3.463,0,0,0-3.246,2.219Z" transform="translate(-185.52 -315.192)"/>
              <path id="Path_1248401" data-name="Path 1248401" d="M377.358,605.779H364.435a73.359,73.359,0,0,1-23.1-3.729l-7.142-2.364,1.632-4.755,6.943,2.242a73.488,73.488,0,0,0,22.578,3.553h12.019v5.054Z" transform="translate(-183.129 -326.009)" fill="#fff"/>
              <path id="Path_1248402" data-name="Path 1248402" d="M376.992,605.719H364.068a73.681,73.681,0,0,1-23.2-3.743l-7.142-2.364a.311.311,0,0,1-.176-.154.292.292,0,0,1-.014-.231l1.632-4.755a.306.306,0,0,1,.38-.19l6.943,2.242a73.013,73.013,0,0,0,22.483,3.539H377a.3.3,0,0,1,.3.3v5.054a.3.3,0,0,1-.3.3ZM334.2,599.133l6.853,2.269a73.019,73.019,0,0,0,23.008,3.711h12.62v-4.452H364.963a73.672,73.672,0,0,1-22.669-3.571l-6.658-2.152-1.437,4.19Z" transform="translate(-182.763 -325.647)"/>
              <path id="Path_1248403" data-name="Path 1248403" d="M385.99,579.411a.172.172,0,0,1-.081-.014l-4-1.153a.3.3,0,1,1,.163-.579l4,1.153a.3.3,0,0,1-.081.588Z" transform="translate(-209.155 -316.543)"/>
              <path id="Path_1248404" data-name="Path 1248404" d="M379.867,582.972a.171.171,0,0,1-.081-.014l-4.181-1.193a.3.3,0,0,1,.163-.579l4.181,1.193a.3.3,0,0,1-.081.588Z" transform="translate(-205.703 -318.472)"/>
              <path id="Path_1248405" data-name="Path 1248405" d="M373.227,586.412a.172.172,0,0,1-.081-.014l-4.181-1.193a.3.3,0,0,1,.163-.579l4.181,1.193a.3.3,0,0,1-.081.588Z" transform="translate(-202.064 -320.357)"/>
              <path id="Path_1248406" data-name="Path 1248406" d="M415.052,487.444l-17.082-4.62,10.8-40.1a13.45,13.45,0,0,1,12.987-9.962h15.4V424.12h26.714v12.254a14.1,14.1,0,0,1-14.089,14.117H425.01l-9.958,36.957Z" transform="translate(-218.079 -232.409)" fill="#8c7bff"/>
              <path id="Path_1248407" data-name="Path 1248407" d="M421.57,453.691l.131-.488a13.45,13.45,0,0,1,12.986-9.962h.249c.032.321.05.646.05.976a10.044,10.044,0,0,1-13.416,9.474Z" transform="translate(-231.011 -242.886)" fill="#6155ff"/>
              <path id="Path_1248408" data-name="Path 1248408" d="M484.67,429.947V424.12h26.715v12.254a11.921,11.921,0,0,0-7.861-3.282C497.2,433.065,489.416,435.949,484.67,429.947Z" transform="translate(-265.589 -232.409)"/>
              <path id="Path_1248409" data-name="Path 1248409" d="M414.688,487.368a.21.21,0,0,1-.077-.009l-17.082-4.62a.3.3,0,0,1-.212-.371l10.8-40.1A13.781,13.781,0,0,1,421.4,432.082h11.255a3.826,3.826,0,0,0,3.065-1.523.3.3,0,1,1,.479.362,4.41,4.41,0,0,1-3.544,1.758H421.4a13.178,13.178,0,0,0-12.7,9.741l-10.726,39.81,16.5,4.461,9.877-36.663a.3.3,0,0,1,.289-.221h24.775a13.82,13.82,0,0,0,13.791-13.818V423.733a.3.3,0,0,1,.606,0v12.254a14.421,14.421,0,0,1-14.392,14.419H424.876l-9.895,36.731a.3.3,0,0,1-.289.221Z" transform="translate(-217.715 -232.031)"/>
              <path id="Path_1248410" data-name="Path 1248410" d="M362.68,305.29H378.6v3.3H362.68a1.65,1.65,0,1,1,0-3.3Z" transform="translate(-197.837 -167.292)" fill="#fda4ff"/>
              <path id="Path_1248411" data-name="Path 1248411" d="M387.989,319.548a1.3,1.3,0,0,1-1.288,1.3h-4.073l0,1.7h-.985a3.15,3.15,0,0,1-2.423-1.112c-.981-1.1-.538-3.164,1.1-3.169l6.36-.009a1.294,1.294,0,0,1,1.3,1.293Z" transform="translate(-207.524 -174.4)" fill="#fda4ff"/>
              <path id="Path_1248412" data-name="Path 1248412" d="M385.792,325.248a1.3,1.3,0,0,1-1.288,1.3h-1.876l0,1.7h-.985a3.15,3.15,0,0,1-2.423-1.112c-.981-1.1-.538-3.164,1.1-3.169l4.163-.009a1.294,1.294,0,0,1,1.3,1.293Z" transform="translate(-207.524 -177.523)" fill="#fda4ff"/>
              <path id="Path_1248413" data-name="Path 1248413" d="M394.269,295.556l-3.209-3.3a4.228,4.228,0,0,1-1.193-2.943v-.307a1.544,1.544,0,0,0-1.541-1.546h-.185A1.543,1.543,0,0,0,386.6,289v1.939a4.215,4.215,0,0,0,1.2,2.947l3.729,3.824H384.84v10.573h6.315l12.611,19.13c1.632,2.4,4.932,3.155,7.834,3.16l22.818-.683-.045-10.324H411.441l-13.4-19.432a36,36,0,0,0-3.774-4.583Z" transform="translate(-210.884 -157.522)" fill="#fda4ff"/>
              <path id="Path_1248414" data-name="Path 1248414" d="M389.268,313.838a1.3,1.3,0,0,1-1.288,1.3h-5.352l0,1.7h-.985a3.15,3.15,0,0,1-2.423-1.112c-.981-1.1-.538-3.164,1.1-3.169l7.639-.009a1.293,1.293,0,0,1,1.3,1.293Z" transform="translate(-207.524 -171.271)" fill="#fda4ff"/>
              <path id="Path_1248415" data-name="Path 1248415" d="M378.784,315.564a.308.308,0,0,1-.24-.118,2.436,2.436,0,0,1-.271-2.5,1.817,1.817,0,0,1,1.691-1.053l7.639-.009h0a1.6,1.6,0,0,1,.086,3.2h-1.365a.3.3,0,0,1,0-.606h1.352a1,1,0,0,0-.068-1.989l-7.639.009a1.227,1.227,0,0,0-1.153.714,1.841,1.841,0,0,0,.2,1.871.3.3,0,0,1-.054.425.316.316,0,0,1-.185.063" transform="translate(-207.161 -170.904)"/>
              <path id="Path_1248416" data-name="Path 1248416" d="M378.779,321.284a.308.308,0,0,1-.24-.118,2.427,2.427,0,0,1-.276-2.5,1.819,1.819,0,0,1,1.7-1.053l6.36-.009h0a1.558,1.558,0,0,1,1.121.466,1.583,1.583,0,0,1,.47,1.13,1.6,1.6,0,0,1-1.587,1.6H384.4a.3.3,0,0,1-.3-.3.306.306,0,0,1,.3-.3h1.93a1,1,0,0,0-.009-1.993l-6.36.009a1.229,1.229,0,0,0-1.153.714,1.832,1.832,0,0,0,.208,1.871.3.3,0,0,1-.054.425.288.288,0,0,1-.185.063Z" transform="translate(-207.156 -174.038)"/>
              <path id="Path_1248417" data-name="Path 1248417" d="M406.137,330.441h-9.452a8.6,8.6,0,0,1-7.061-3.693l-.854-1.392L377.533,308.2l-5.931.009h-.014a3.494,3.494,0,0,1-2.635-1.216,2.449,2.449,0,0,1-.4-2.554,1.825,1.825,0,0,1,1.722-1.116l4.163-.009h0a1.558,1.558,0,0,1,1.121.466,1.583,1.583,0,0,1,.47,1.13,1.6,1.6,0,0,1-1.587,1.6h-1.74a.3.3,0,0,1-.3-.3.3.3,0,0,1,.3-.3h1.74a1,1,0,0,0,.99-1,1,1,0,0,0-.994-.994l-4.163.009a1.233,1.233,0,0,0-1.175.759,1.832,1.832,0,0,0,.294,1.908l.149.167a2.9,2.9,0,0,0,2.039.85h.014l6.26-.009,11.423,17.434.85,1.388a8,8,0,0,0,6.559,3.422h8.728L403.57,319.52l-5.677-.054-13.5-19.491a35.773,35.773,0,0,0-3.747-4.547l-3.209-3.3a4.5,4.5,0,0,1-1.279-3.155v-.307a1.241,1.241,0,0,0-1.238-1.243h-.185a1.241,1.241,0,0,0-1.239,1.243V290.6a3.879,3.879,0,0,0,1.112,2.735l2.1,2.152H362.2a1.215,1.215,0,0,0-1.22,1.22v.249a1.225,1.225,0,0,0,1.22,1.225h8.168a.3.3,0,0,1,0,.606H362.2a1.827,1.827,0,0,1-1.826-1.826v-.249a1.826,1.826,0,0,1,1.822-1.826h13.082l-1.1-1.121a4.5,4.5,0,0,1-1.284-3.155v-1.939a1.845,1.845,0,0,1,1.84-1.844h.185a1.846,1.846,0,0,1,1.844,1.844v.307a3.91,3.91,0,0,0,1.107,2.735l3.209,3.3a36.659,36.659,0,0,1,3.81,4.624l13.321,19.238,5.867.054,2.07,11.527Z" transform="translate(-197.475 -157.177)"/>
              <path id="Path_1248418" data-name="Path 1248418" d="M449.145,369.336l-2.73.1c-.47-4.443,1.6-4.321.936-7.3-.515-2.346.086-2.839.565-3.53l1.27.05-.041,10.681Z" transform="translate(-244.587 -196.505)"/>
              <path id="Path_1248419" data-name="Path 1248419" d="M451.86,355.68l.014,14.374,20.332.009V355.68Z" transform="translate(-247.61 -194.905)" fill="#fed101"/>
              <path id="Path_1248420" data-name="Path 1248420" d="M506.712,393.663H473.66V374.678a19.337,19.337,0,0,1,19.328-19.328,13.728,13.728,0,0,1,13.723,13.723Z" transform="translate(-259.556 -194.724)" fill="#fed101"/>
              <path id="Path_1248421" data-name="Path 1248421" d="M492.96,402.746l1.442-16.463-12.431-1.094-.9,10.265a2.4,2.4,0,0,1-2.6,2.183l-20.445-1.808-1.2,10.546,28.066,3.133a7.447,7.447,0,0,0,8.064-6.771Z" transform="translate(-250.333 -211.076)" fill="#fda4ff"/>
              <path id="Path_1248422" data-name="Path 1248422" d="M522.8,398.557l1.076-12.263L511.442,385.2l-.832,9.5a12.368,12.368,0,0,0,2.888-.158c1.356-.294,2.671-.366,3.792,1.487a5,5,0,0,0,5.51,2.527Z" transform="translate(-279.803 -211.082)"/>
              <path id="Path_1248423" data-name="Path 1248423" d="M412.332,394.94l3.887.4a11.622,11.622,0,0,1,4.932,1.686l7.124,4.425-16.44-1.7a2.366,2.366,0,0,1-2.111-2.6l.009-.1a2.368,2.368,0,0,1,2.595-2.115Z" transform="translate(-224.513 -216.414)" fill="#fda4ff"/>
              <path id="Path_1248424" data-name="Path 1248424" d="M427.917,401.381h-.032l-16.44-1.7a2.673,2.673,0,0,1-2.382-2.929l.009-.1A2.668,2.668,0,0,1,412,394.271l3.887.4a11.988,11.988,0,0,1,5.063,1.731l7.124,4.425a.3.3,0,0,1-.158.556Zm-16.191-6.523a2.069,2.069,0,0,0-2.048,1.858l-.009.1a2.069,2.069,0,0,0,1.844,2.269l15.138,1.559-6.016-3.738a11.34,11.34,0,0,0-4.8-1.641l-3.887-.4A1.744,1.744,0,0,0,411.725,394.859Z" transform="translate(-224.15 -216.044)"/>
              <path id="Path_1248425" data-name="Path 1248425" d="M397.165,405.408,371.883,402.8l-6.233-30.43,25.282,2.608Z" transform="translate(-200.368 -204.051)"/>
              <path id="Path_1248426" data-name="Path 1248426" d="M393.33,394.768a2.18,2.18,0,0,0,1.871,2.106,1.622,1.622,0,0,0,1.871-1.645,2.18,2.18,0,0,0-1.871-2.106,1.622,1.622,0,0,0-1.871,1.645" transform="translate(-215.537 -215.415)" fill="#fff"/>
              <path id="Path_1248427" data-name="Path 1248427" d="M396.8,405.349h-.032l-25.282-2.608a.293.293,0,0,1-.262-.24l-6.233-30.43a.308.308,0,0,1,.072-.262.312.312,0,0,1,.253-.1l25.282,2.608a.293.293,0,0,1,.262.24l6.233,30.43a.3.3,0,0,1-.294.362m-25.028-3.187,24.653,2.54-6.107-29.811-24.653-2.54Z" transform="translate(-200.006 -203.689)"/>
              <path id="Path_1248428" data-name="Path 1248428" d="M410.712,395.813l-4.534-2.319a1.313,1.313,0,0,0-1.9,1.035l-.014.127a1.321,1.321,0,0,0,.71,1.306l4.163,2.129a4.385,4.385,0,0,0,1.555.461l4.977.515.28-2.712-5.234-.538Z" transform="translate(-221.523 -215.547)" fill="#fda4ff"/>
              <path id="Path_1248429" data-name="Path 1248429" d="M406.089,407.02l-3.571-1.826a1.313,1.313,0,0,0-1.9,1.035l-.014.127a1.321,1.321,0,0,0,.71,1.306l4.163,2.129a4.383,4.383,0,0,0,1.555.461l8.787.9.28-2.712-7.969-.823A5.768,5.768,0,0,1,406.089,407.02Z" transform="translate(-219.518 -221.958)" fill="#fda4ff"/>
              <path id="Path_1248430" data-name="Path 1248430" d="M406.858,400.659l-4.751-2.427a1.321,1.321,0,0,0-1.917,1.044l-.009.1a1.322,1.322,0,0,0,.714,1.315l4.981,2.545a5.311,5.311,0,0,0,1.889.56l8.1.836.28-2.712-7.689-.791a4.582,4.582,0,0,1-1.6-.47Z" transform="translate(-219.288 -218.142)" fill="#fda4ff"/>
              <path id="Path_1248431" data-name="Path 1248431" d="M407.692,414.309a4.576,4.576,0,0,1-1.578-.466l-2.4-1.229a1.31,1.31,0,0,0-1.9,1.035l-.014.131a1.314,1.314,0,0,0,.705,1.3l2.988,1.528a3.122,3.122,0,0,0,1.094.325l9.605.99.28-2.712Z" transform="translate(-220.175 -226.024)" fill="#fda4ff"/>
              <path id="Path_1248432" data-name="Path 1248432" d="M424.048,411.861l-8.371-4.281-.646,6.3,6.509,3.327c1.234.628,2.418.47,3.792.61l3.372.393.628-5.8Z" transform="translate(-227.428 -223.345)" fill="#fda4ff"/>
              <path id="Path_1248433" data-name="Path 1248433" d="M427.03,399.662l-3.02-.312,5.646,14,5.2.2.561-10.089-3.63-2.2A11.493,11.493,0,0,0,427.03,399.662Z" transform="translate(-232.349 -218.835)" fill="#fda4ff"/>
              <path id="Path_1248434" data-name="Path 1248434" d="M455.363,419.427l-9.068-1.135L444.89,408l11.7,1.207Z" transform="translate(-243.79 -223.575)" fill="#fda4ff"/>
              <path id="Path_1248435" data-name="Path 1248435" d="M412.415,404.272h-.032l-5.022-.52a5.7,5.7,0,0,1-1.993-.588l-4.981-2.545a1.639,1.639,0,0,1-.877-1.614l.009-.1a1.623,1.623,0,0,1,2.355-1.279l4.751,2.427a4.19,4.19,0,0,0,1.492.443l4.611.475a.3.3,0,0,1,.267.33.294.294,0,0,1-.33.267l-4.611-.475a4.881,4.881,0,0,1-1.7-.5l-4.751-2.427a1.018,1.018,0,0,0-.954.014,1,1,0,0,0-.529.8l-.009.1a1.031,1.031,0,0,0,.551,1.017l4.981,2.545a5.131,5.131,0,0,0,1.781.529l5.022.52a.3.3,0,0,1,.267.33.3.3,0,0,1-.3.271Z" transform="translate(-218.918 -217.791)"/>
              <path id="Path_1248436" data-name="Path 1248436" d="M412.757,417.555h-.032l-6.527-.674a3.42,3.42,0,0,1-1.2-.357L402.008,415a1.624,1.624,0,0,1-.868-1.6l.014-.131a1.607,1.607,0,0,1,2.332-1.27l2.4,1.23a4.109,4.109,0,0,0,1.474.434l5.7.588a.3.3,0,0,1,.267.33.294.294,0,0,1-.33.267l-5.7-.588a4.808,4.808,0,0,1-1.686-.5l-2.4-1.229a.991.991,0,0,0-.94.014,1,1,0,0,0-.524.787l-.014.131a1.023,1.023,0,0,0,.542,1l2.988,1.528a2.816,2.816,0,0,0,.99.294l6.527.674a.3.3,0,0,1,.267.33.3.3,0,0,1-.3.271Z" transform="translate(-219.812 -225.667)"/>
              <path id="Path_1248437" data-name="Path 1248437" d="M454.161,409.489c-.231,0-.461-.009-.692-.032L421.4,405.733c-.23-.014-6.039-.38-7.621-.773a50.188,50.188,0,0,1-6.107-2.789l-2.355-.244a3.422,3.422,0,0,1-1.2-.357l-2.988-1.528a1.6,1.6,0,0,1-.868-1.6l.014-.131a1.589,1.589,0,0,1,.8-1.234.951.951,0,0,1,.136-.068l-.624-.316a1.63,1.63,0,0,1-.872-1.6l.014-.127a1.6,1.6,0,0,1,.692-1.166,1.551,1.551,0,0,1,.221-.127l-.24-.122a1.642,1.642,0,0,1-.877-1.618l.009-.1a1.628,1.628,0,0,1,1.885-1.437,1.691,1.691,0,0,1-.05-.588l.014-.126a1.612,1.612,0,0,1,2.337-1.27l4.484,2.292,2.35.244h.068l2.391.249a.3.3,0,0,1,.267.33.294.294,0,0,1-.33.267l-2.323-.24h-.068l-2.477-.253a.215.215,0,0,1-.1-.032l-4.534-2.319a.991.991,0,0,0-.94.014,1,1,0,0,0-.524.786l-.014.127a1.012,1.012,0,0,0,.506.981.307.307,0,0,1,.118.407.3.3,0,0,1-.4.127l-.579-.294a1.018,1.018,0,0,0-.954.014,1,1,0,0,0-.529.8l-.009.1a1.031,1.031,0,0,0,.551,1.017l1.139.583a.305.305,0,0,1,.145.375.3.3,0,0,1-.362.181,1,1,0,0,0-.836.145.981.981,0,0,0-.429.728l-.014.127a1.026,1.026,0,0,0,.547,1.008l1.7.868a.31.31,0,0,1,.136.4.3.3,0,0,1-.4.14.994.994,0,0,0-.922.036,1.006,1.006,0,0,0-.506.773l-.014.131a1,1,0,0,0,.547,1l2.988,1.528a2.815,2.815,0,0,0,.99.294l2.414.249a.233.233,0,0,1,.109.032,53.348,53.348,0,0,0,6.025,2.766c1.532.38,7.472.755,7.531.755l32.075,3.729a7.147,7.147,0,0,0,7.729-6.5l1.419-16.16-11.829-1.04-.877,9.967a2.7,2.7,0,0,1-.954,1.835,2.649,2.649,0,0,1-1.971.619l-25.069-1.944a.244.244,0,0,1-.136-.045l-5.555-3.472a.3.3,0,1,1,.321-.511l5.492,3.435,25,1.935a2.1,2.1,0,0,0,2.278-1.912l.9-10.27a.294.294,0,0,1,.108-.2.3.3,0,0,1,.221-.068l12.431,1.094a.3.3,0,0,1,.276.325l-1.446,16.463a7.75,7.75,0,0,1-7.7,7.074Z" transform="translate(-218.929 -210.718)"/>
              <path id="Path_1248438" data-name="Path 1248438" d="M522.261,356.443l.307.163a8.726,8.726,0,0,1,4.642,8.376l-.9,12.164-17.276-1.6,1.2-17.123,4.086-2.048a8.689,8.689,0,0,1,7.938.072Z" transform="translate(-278.938 -194.777)" fill="#fed101"/>
              <path id="Path_1248439" data-name="Path 1248439" d="M526.2,376.94l-17.873-1.663.461-6.563a.3.3,0,0,1,.6.041l-.42,5.98,16.675,1.55.881-11.861a8.418,8.418,0,0,0-4.484-8.087l-.307-.163c-2.02-1.062-3.372-1.067-6.062-1.08-.515,0-1.076,0-1.7-.018a.3.3,0,0,1,.009-.606c.619.009,1.18.014,1.69.018,2.7.014,4.186.023,6.337,1.148l.307.163a9.022,9.022,0,0,1,4.8,8.665l-.927,12.471Z" transform="translate(-278.554 -194.242)"/>
              <path id="Path_1248440" data-name="Path 1248440" d="M554.633,448.3a.3.3,0,0,1-.3-.3V360.5a.3.3,0,0,1,.3-.3h2.12a.3.3,0,1,1,0,.606h-1.822V448a.3.3,0,0,1-.3.3Z" transform="translate(-303.761 -197.382)"/>
              <rect id="Rectangle_411860" data-name="Rectangle 411860" width="17.624" height="5.447" transform="translate(252.992 160.44)" fill="#8c7bff"/>
              <path id="Path_1248441" data-name="Path 1248441" d="M501.062,482.716H456.913a.3.3,0,1,1,0-.606h44.149a.3.3,0,1,1,0,.606" transform="translate(-250.213 -264.186)"/>
              <path id="Path_1248442" data-name="Path 1248442" d="M437.393,516.289a.3.3,0,0,1-.3-.3l.027-86.124a.3.3,0,0,1,.606,0l-.027,86.124a.3.3,0,0,1-.3.3" transform="translate(-239.516 -235.39)"/>
              <path id="Path_1248443" data-name="Path 1248443" d="M537.073,414.924a.3.3,0,0,1,0-.606l7.919-.109a.3.3,0,0,1,0,.606Z" transform="translate(-294.139 -226.978)"/>
              <path id="Path_1248444" data-name="Path 1248444" d="M549.915,553.468a4.2,4.2,0,1,1,4.195-4.2,4.2,4.2,0,0,1-4.195,4.2m0-7.806a3.6,3.6,0,1,0,3.594,3.6,3.6,3.6,0,0,0-3.594-3.6" transform="translate(-299.043 -298.681)"/>
              <path id="Path_1248445" data-name="Path 1248445" d="M500.838,459.887a40.172,40.172,0,1,1-28.382,11.775,39.828,39.828,0,0,1,28.382-11.775m0-4.547A44.759,44.759,0,1,0,545.516,500.1a44.717,44.717,0,0,0-44.678-44.759" transform="translate(-249.966 -249.517)"/>
              <path id="Path_1248446" data-name="Path 1248446" d="M432.906,620.621a3.811,3.811,0,1,1,3.806-3.81,3.813,3.813,0,0,1-3.806,3.81m0-7.02a3.209,3.209,0,1,0,3.2,3.209,3.205,3.205,0,0,0-3.2-3.209" transform="translate(-235.138 -335.911)"/>
              <path id="Path_1248447" data-name="Path 1248447" d="M419.311,618.236a15.048,15.048,0,1,1,15.021-15.048,15.051,15.051,0,0,1-15.021,15.048m0-29.49a14.442,14.442,0,1,0,14.415,14.442,14.442,14.442,0,0,0-14.415-14.442" transform="translate(-221.542 -322.288)"/>
              <path id="Path_1248448" data-name="Path 1248448" d="M242.346,203.161h-.05l-4.475-.75a.3.3,0,0,1-.249-.348L238,199.5a10.069,10.069,0,0,1-2.337-1.469l-2.111,1.514a.3.3,0,0,1-.226.054.3.3,0,0,1-.194-.122l-2.635-3.711a.307.307,0,0,1,.068-.42l2.111-1.514a10.091,10.091,0,0,1-.619-2.7L229.5,190.7a.3.3,0,0,1-.249-.348l.75-4.493a.309.309,0,0,1,.122-.194.3.3,0,0,1,.226-.05l2.554.429a10.147,10.147,0,0,1,1.46-2.346l-1.505-2.12a.307.307,0,0,1,.068-.42l3.693-2.644a.31.31,0,0,1,.226-.054.3.3,0,0,1,.194.122l1.505,2.12a9.961,9.961,0,0,1,2.685-.624l.429-2.567a.309.309,0,0,1,.122-.194.3.3,0,0,1,.226-.05l4.475.75a.3.3,0,0,1,.249.348l-.429,2.567a10.069,10.069,0,0,1,2.337,1.469l2.111-1.514a.3.3,0,0,1,.226-.054.3.3,0,0,1,.194.122l2.635,3.711a.307.307,0,0,1-.068.42L251.63,186.6a10.091,10.091,0,0,1,.619,2.7l2.554.429a.3.3,0,0,1,.249.348l-.75,4.493a.309.309,0,0,1-.122.194.3.3,0,0,1-.226.05l-2.554-.429a9.994,9.994,0,0,1-1.46,2.346l1.505,2.12a.3.3,0,0,1-.072.42l-3.693,2.644a.3.3,0,0,1-.226.054.3.3,0,0,1-.194-.122l-1.505-2.12a9.963,9.963,0,0,1-2.685.624l-.429,2.568a.309.309,0,0,1-.122.194.3.3,0,0,1-.176.054Zm-4.127-1.3,3.878.651.416-2.5a.308.308,0,0,1,.276-.253,9.4,9.4,0,0,0,2.956-.687.3.3,0,0,1,.362.1l1.469,2.066,3.2-2.3-1.469-2.07a.3.3,0,0,1,.018-.371,9.469,9.469,0,0,0,1.609-2.586.3.3,0,0,1,.33-.181l2.491.42.651-3.9-2.491-.42a.3.3,0,0,1-.249-.276,9.6,9.6,0,0,0-.683-2.97.3.3,0,0,1,.1-.357l2.057-1.474-2.287-3.218-2.057,1.474a.306.306,0,0,1-.375-.018,9.494,9.494,0,0,0-2.572-1.618.3.3,0,0,1-.181-.325l.416-2.5-3.878-.651-.416,2.5a.307.307,0,0,1-.276.253,9.4,9.4,0,0,0-2.956.687.3.3,0,0,1-.362-.1l-1.469-2.066-3.2,2.3,1.469,2.07a.3.3,0,0,1-.018.371,9.467,9.467,0,0,0-1.609,2.586.3.3,0,0,1-.33.181l-2.491-.42-.651,3.9,2.491.42a.3.3,0,0,1,.249.276,9.6,9.6,0,0,0,.683,2.97.3.3,0,0,1-.1.357l-2.057,1.474,2.287,3.218,2.057-1.474a.306.306,0,0,1,.375.018,9.495,9.495,0,0,0,2.572,1.618.3.3,0,0,1,.181.325l-.416,2.5Zm3.951-5.61a5.876,5.876,0,0,1-1.008-.086,6.057,6.057,0,0,1-2.5-10.894,5.982,5.982,0,0,1,4.48-1.035,6.057,6.057,0,0,1,2.5,10.894,5.947,5.947,0,0,1-3.472,1.117Zm-5.655-7,.3.05a5.452,5.452,0,0,0,4.452,6.27A5.421,5.421,0,0,0,247.5,191.1a5.452,5.452,0,0,0-4.452-6.269,5.346,5.346,0,0,0-4.027.931,5.409,5.409,0,0,0-2.206,3.539l-.3-.05Z" transform="translate(-125.625 -97.135)"/>
            </g>
          </g>
        </g>
        <g id="Group_1184257" data-name="Group 1184257" transform="translate(447.588 197.512)">
          <g transform="matrix(1, 0, 0, 1, -462.35, -203.51)" filter="url(#Rectangle_401315)">
            <rect id="Rectangle_401315-2" data-name="Rectangle 401315" width="16" height="99.092" rx="8" transform="translate(462.35 203.51)" fill="#e6e51d"/>
          </g>
        </g>
        <g id="Group_1200381" data-name="Group 1200381" transform="translate(0 250.835)">
          <path id="Path_1241404" data-name="Path 1241404" d="M.914.745H76.092V75.922H.914Z" transform="translate(-0.914 -0.745)" fill="#222223" fill-rule="evenodd"/>
          <path id="Path_1241405" data-name="Path 1241405" d="M34.519.687H.856V14.271H24.889L.856,38.14l9.712,9.646L34.519,24V47.786H48.278V.687Z" transform="translate(14.073 12.884)" fill="#e6e51d" fill-rule="evenodd"/>
        </g>
      </g>
      <g id="Group_1200235" data-name="Group 1200235" transform="translate(645.691 2832)">
        <g transform="matrix(1, 0, 0, 1, -461, -44)" filter="url(#Ellipse_12336)">
          <circle id="Ellipse_12336-2" data-name="Ellipse 12336" cx="9" cy="9" r="9" transform="translate(461 44)" fill="#e6e51d"/>
        </g>
        <g transform="matrix(1, 0, 0, 1, -461, -44)" filter="url(#Ellipse_12337)">
          <circle id="Ellipse_12337-2" data-name="Ellipse 12337" cx="9" cy="9" r="9" transform="translate(461 67)" fill="#e6e51d"/>
        </g>
        <g transform="matrix(1, 0, 0, 1, -461, -44)" filter="url(#Ellipse_12338)">
          <circle id="Ellipse_12338-2" data-name="Ellipse 12338" cx="9" cy="9" r="9" transform="translate(461 90)" fill="#e6e51d"/>
        </g>
      </g>
    </g>
  </g>
</svg>
