<svg xmlns="http://www.w3.org/2000/svg" xmlns:xlink="http://www.w3.org/1999/xlink" width="100" height="100" viewBox="0 0 100 100">
  <defs>
    <clipPath id="clip-path">
      <rect id="Rectangle_411295" data-name="Rectangle 411295" width="100" height="100" transform="translate(792.781 1954)" fill="#e8bad8" opacity="0.41"/>
    </clipPath>
    <clipPath id="clip-path-2">
      <rect id="Rectangle_411296" data-name="Rectangle 411296" width="74" height="88" transform="translate(-87 -7955)" fill="#fff" stroke="#707070" stroke-width="1" opacity="0"/>
    </clipPath>
  </defs>
  <g id="Group_1207095" data-name="Group 1207095" transform="translate(100.051 7960.752)">
    <g id="Mask_Group_1099510" data-name="Mask Group 1099510" transform="translate(-892.832 -9914.752)" clip-path="url(#clip-path)">
      <g id="Group_1207094" data-name="Group 1207094" transform="translate(793.651 1960)">
        <g id="Group_1207093" data-name="Group 1207093">
          <ellipse id="Ellipse_12582" data-name="Ellipse 12582" cx="24.92" cy="24.92" rx="24.92" ry="24.92" transform="translate(49.154 38.512)" fill="#c8a0e6"/>
          <ellipse id="Ellipse_12583" data-name="Ellipse 12583" cx="18.123" cy="18.123" rx="18.123" ry="18.123" fill="#c8a0e6"/>
        </g>
      </g>
    </g>
    <g id="Mask_Group_1099511" data-name="Mask Group 1099511" clip-path="url(#clip-path-2)">
      <g id="comportamiento" transform="translate(-87.949 -7949.256)">
        <g id="Group_1207097" data-name="Group 1207097">
          <path id="Path_1257111" data-name="Path 1257111" d="M45.853,55.469H30.046a8.894,8.894,0,0,0-8.894,8.894v9.975h33.6V64.364A8.9,8.9,0,0,0,45.853,55.469Z" fill="#72c2e9"/>
          <path id="Path_1257112" data-name="Path 1257112" d="M45.853,55.469H30.046a8.894,8.894,0,0,0-8.894,8.894v9.975h33.6V64.364A8.9,8.9,0,0,0,45.853,55.469Z" fill="#fc5d3d"/>
          <path id="Path_1257113" data-name="Path 1257113" d="M48.327,69.933h6.42v4.406h-6.42Z" fill="#ffb69f"/>
          <path id="Path_1257114" data-name="Path 1257114" d="M47.416,39.013l-1.052,1.068H29.536V37.643a3.819,3.819,0,0,1,3.82-3.817H42.43a2.89,2.89,0,0,0,2.838-2.35l1.524,1.042a4.253,4.253,0,0,1,.623,6.494Z" fill="#7c7b7a"/>
          <g id="Group_1207096" data-name="Group 1207096">
            <path id="Path_1257115" data-name="Path 1257115" d="M47.215,43.722H46.36V40.081H29.532v3.645h-.845a2.42,2.42,0,1,0,0,4.84h.98a8.124,8.124,0,0,0,8.252,6.9,8.189,8.189,0,0,0,8.312-6.9h.984a2.422,2.422,0,0,0,0-4.843Z" fill="#ffb69f"/>
            <path id="Path_1257116" data-name="Path 1257116" d="M21.152,69.933H27.6v4.406H21.152Z" fill="#ffb69f"/>
          </g>
        </g>
        <path id="Path_1257117" data-name="Path 1257117" d="M50.158,14.383A12.209,12.209,0,1,0,35.536,26.352l2.413,3.864,2.413-3.864a12.212,12.212,0,0,0,9.8-11.969Z" fill="#efefef"/>
        <path id="Path_1257118" data-name="Path 1257118" d="M63.583,53.5c-1.106-.364-1.969-.6-2.547-3.09a.789.789,0,0,0-1.536,0c-.565,2.435-1.354,2.7-2.547,3.09a.789.789,0,0,0,0,1.5c1.982.655,2.207,1.624,2.547,3.09a.789.789,0,0,0,1.536,0c.565-2.435,1.4-2.71,2.547-3.09a.79.79,0,0,0,0-1.5Z"/>
        <path id="Path_1257119" data-name="Path 1257119" d="M61.468,54.273A3.909,3.909,0,0,0,60.3,55.59a4.087,4.087,0,0,0-1.236-1.3,3.893,3.893,0,0,0,1.221-1.376,4.032,4.032,0,0,0,1.18,1.364Z" fill="#f0c020"/>
        <path id="Path_1257120" data-name="Path 1257120" d="M18.946,53.5c-1.106-.364-1.969-.6-2.547-3.09a.789.789,0,0,0-1.536,0c-.565,2.435-1.354,2.7-2.547,3.09a.789.789,0,0,0,0,1.5c1.982.655,2.207,1.624,2.547,3.09a.789.789,0,0,0,1.536,0c.565-2.435,1.4-2.71,2.547-3.09a.79.79,0,0,0,0-1.5Z"/>
        <path id="Path_1257121" data-name="Path 1257121" d="M16.832,54.273a3.909,3.909,0,0,0-1.165,1.316,4.087,4.087,0,0,0-1.236-1.3,3.893,3.893,0,0,0,1.221-1.376,4.031,4.031,0,0,0,1.18,1.364Z" fill="#f0c020"/>
        <g id="Group_1207098" data-name="Group 1207098">
          <path id="Path_1257122" data-name="Path 1257122" d="M23.089,35.445a11.659,11.659,0,1,0-3.347,3.347l4.864,1.517Z" fill="#efefef"/>
        </g>
        <g id="Group_1207099" data-name="Group 1207099">
          <circle id="Ellipse_12584" data-name="Ellipse 12584" cx="8.098" cy="8.098" r="8.098" transform="translate(5.248 20.951)" fill="#72c2e9"/>
        </g>
        <circle id="Ellipse_12585" data-name="Ellipse 12585" cx="8.098" cy="8.098" r="8.098" transform="translate(29.851 6.285)" fill="#f0c020"/>
        <g id="Group_1207100" data-name="Group 1207100">
          <path id="Path_1257123" data-name="Path 1257123" d="M56.157,38.792a11.658,11.658,0,1,0-3.347-3.347l-1.517,4.864Z" fill="#efefef"/>
        </g>
        <circle id="Ellipse_12586" data-name="Ellipse 12586" cx="8.098" cy="8.098" r="8.098" transform="translate(54.454 20.951)" fill="#fc5d3d"/>
        <g id="Group_1207101" data-name="Group 1207101">
          <path id="Path_1257124" data-name="Path 1257124" d="M51.782,67.227a.741.741,0,0,1-.741-.741V64.364a5.194,5.194,0,0,0-5.188-5.188H33.9a.741.741,0,1,1,0-1.482H45.853a6.678,6.678,0,0,1,6.671,6.671v2.122A.741.741,0,0,1,51.782,67.227ZM30.935,59.175h-.889a.741.741,0,1,1,0-1.482h.889a.741.741,0,1,1,0,1.482Z" fill="#ffcbc3"/>
        </g>
        <path id="Path_1257125" data-name="Path 1257125" d="M40.659,49.109a.754.754,0,0,0-.955.433,1.884,1.884,0,0,1-1.752,1.216h-.006a1.856,1.856,0,0,1-1.752-1.213.74.74,0,0,0-1.37-.05.728.728,0,0,0-.021.563v0a3.361,3.361,0,0,0,6.291,0,.743.743,0,0,0-.436-.955Z"/>
        <path id="Path_1257126" data-name="Path 1257126" d="M34.774,44.382a.741.741,0,1,0-1.482,0v.5a.741.741,0,0,0,1.482,0Z"/>
        <path id="Path_1257127" data-name="Path 1257127" d="M41.863,43.641a.741.741,0,0,0-.741.741v.5a.741.741,0,0,0,1.482,0v-.5A.741.741,0,0,0,41.863,43.641Z"/>
        <path id="Path_1257128" data-name="Path 1257128" d="M37.948,47.879a.741.741,0,0,0,.741-.741v-2.26a.741.741,0,1,0-1.482,0v2.26a.741.741,0,0,0,.741.741Z"/>
        <path id="Path_1257129" data-name="Path 1257129" d="M20.41,64.364v9.975a.741.741,0,0,0,1.482,0V70.675H26.86v3.665a.741.741,0,0,0,1.482,0v-8.3a.741.741,0,0,0-1.482,0v3.151H21.892V64.364a8.162,8.162,0,0,1,8.153-8.153H45.852a8.162,8.162,0,0,1,8.153,8.153v4.828H49.068V66.041a.741.741,0,1,0-1.482,0v8.3a.741.741,0,1,0,1.482,0V70.674h4.937v3.664a.741.741,0,0,0,1.482,0V64.364a9.647,9.647,0,0,0-9.636-9.636H43.067a8.6,8.6,0,0,0,3.767-5.422h.38a3.164,3.164,0,1,0-.113-6.326V40.388l.841-.853a5,5,0,0,0-.732-7.628l-1.524-1.042a.742.742,0,0,0-1.146.474,2.149,2.149,0,0,1-2.1,1.746H40.176a.741.741,0,0,0,0,1.482H42.43a3.634,3.634,0,0,0,3.211-1.937l.733.5a3.512,3.512,0,0,1,.513,5.362l-.834.847H30.277v-1.7a3.081,3.081,0,0,1,3.079-3.076h.89a.741.741,0,0,0,0-1.482h-.9a4.565,4.565,0,0,0-4.552,4.558c0,1.864,0,2.44,0,5.341a3.162,3.162,0,1,0-.1,6.322h.378a8.649,8.649,0,0,0,3.751,5.422H30.046A9.647,9.647,0,0,0,20.41,64.364ZM47.1,44.463a1.685,1.685,0,1,1-.027,3.361c.006-.076.027-.547.027-.724V44.463Zm-20.1,1.682a1.686,1.686,0,0,1,1.786-1.679V47.1c0,.193.008.448.03.723A1.69,1.69,0,0,1,27.005,46.145Zm3.27.954c0-1.083,0-5.2,0-6.278H45.619V47.1a7.5,7.5,0,0,1-7.7,7.628A7.442,7.442,0,0,1,30.275,47.1Z"/>
        <circle id="Ellipse_12587" data-name="Ellipse 12587" cx="0.741" cy="0.741" r="0.741" transform="translate(36.47 33.084)"/>
        <path id="Path_1257130" data-name="Path 1257130" d="M35.074,27.011l2.247,3.6a.742.742,0,0,0,1.257,0l2.247-3.6A12.951,12.951,0,0,0,37.951,1.433h0a12.938,12.938,0,0,0-4.32.738.741.741,0,1,0,.5,1.4,11.474,11.474,0,0,1,3.817-.652h.007a11.468,11.468,0,0,1,2.267,22.71.742.742,0,0,0-.483.334l-1.785,2.858-1.785-2.858a.742.742,0,0,0-.483-.334,11.492,11.492,0,0,1-9.2-11.242s0,0,0,0A11.435,11.435,0,0,1,29.52,6.605a.74.74,0,0,0-.039-1.046.764.764,0,0,0-1.05.042A12.909,12.909,0,0,0,25,14.382s0,0,0,.005A12.981,12.981,0,0,0,35.074,27.011Z"/>
        <path id="Path_1257131" data-name="Path 1257131" d="M30.822,3.57a.74.74,0,1,0,1.026.21.754.754,0,0,0-1.026-.211Z"/>
        <path id="Path_1257132" data-name="Path 1257132" d="M13.346,41.446a12.342,12.342,0,0,0,6.5-1.844l4.535,1.415a.742.742,0,0,0,.928-.928L23.9,35.553a12.4,12.4,0,1,0-10.553,5.894Zm0-23.312a10.912,10.912,0,0,1,9.123,16.9.741.741,0,0,0-.088.628l1.1,3.515-3.515-1.1a.741.741,0,0,0-.628.088,10.914,10.914,0,1,1-5.988-20.038Z"/>
        <path id="Path_1257133" data-name="Path 1257133" d="M13.346,37.889a8.839,8.839,0,1,0-8.839-8.84,8.849,8.849,0,0,0,8.839,8.84Zm0-16.2a7.357,7.357,0,1,1-7.357,7.357,7.365,7.365,0,0,1,7.357-7.357Z"/>
        <path id="Path_1257134" data-name="Path 1257134" d="M10.6,28.042a.741.741,0,0,0,.741-.741V26.98a.741.741,0,1,0-1.482,0V27.3A.741.741,0,0,0,10.6,28.042Z"/>
        <path id="Path_1257135" data-name="Path 1257135" d="M16.089,28.042a.741.741,0,0,0,.741-.741V26.98a.741.741,0,0,0-1.482,0V27.3A.741.741,0,0,0,16.089,28.042Z"/>
        <path id="Path_1257136" data-name="Path 1257136" d="M37.949,19.169a4.118,4.118,0,0,0,4.114-4.114.741.741,0,1,0-1.482,0,2.631,2.631,0,0,1-5.263,0,.741.741,0,1,0-1.482,0A4.118,4.118,0,0,0,37.949,19.169Z"/>
        <path id="Path_1257137" data-name="Path 1257137" d="M29.11,14.383a8.839,8.839,0,1,0,8.839-8.839,8.849,8.849,0,0,0-8.839,8.839Zm8.839-7.357a7.357,7.357,0,1,1-7.357,7.357,7.365,7.365,0,0,1,7.357-7.357Z"/>
        <path id="Path_1257138" data-name="Path 1257138" d="M35.207,13.376a.741.741,0,0,0,.741-.741v-.321a.741.741,0,0,0-1.482,0v.321A.741.741,0,0,0,35.207,13.376Z"/>
        <path id="Path_1257139" data-name="Path 1257139" d="M40.692,13.376a.741.741,0,0,0,.741-.741v-.321a.741.741,0,0,0-1.482,0v.321A.741.741,0,0,0,40.692,13.376Z"/>
        <path id="Path_1257140" data-name="Path 1257140" d="M74.949,29.049A12.4,12.4,0,1,0,52,35.553l-1.415,4.536a.742.742,0,0,0,.928.928L56.048,39.6a12.4,12.4,0,0,0,18.9-10.553ZM55.936,38.084l-3.515,1.1,1.1-3.515a.741.741,0,0,0-.088-.628,10.919,10.919,0,1,1,3.135,3.135.741.741,0,0,0-.628-.088Z"/>
        <path id="Path_1257141" data-name="Path 1257141" d="M71.392,29.049a8.839,8.839,0,1,0-8.839,8.839,8.849,8.849,0,0,0,8.839-8.839Zm-16.2,0a7.357,7.357,0,1,1,7.357,7.357A7.365,7.365,0,0,1,55.2,29.049Z"/>
        <path id="Path_1257142" data-name="Path 1257142" d="M59.216,27.938l.83.1a.741.741,0,0,0,.175-1.472l-.83-.1a.741.741,0,1,0-.175,1.472Z"/>
        <path id="Path_1257143" data-name="Path 1257143" d="M64.97,28.042a.743.743,0,0,0,.088-.005l.83-.1a.741.741,0,0,0-.175-1.472l-.83.1a.741.741,0,0,0,.087,1.477Z"/>
        <path id="Path_1257144" data-name="Path 1257144" d="M11.92,31.76h2.854a.741.741,0,1,0,0-1.482H11.92a.741.741,0,1,0,0,1.482Z"/>
        <path id="Path_1257145" data-name="Path 1257145" d="M63.566,32a.741.741,0,0,0,1.048,0l1.014-1.014L66.642,32a.741.741,0,0,0,1.048-1.048l-1.538-1.538a.741.741,0,0,0-1.048,0L64.09,30.428l-1.014-1.014a.741.741,0,0,0-1.048,0l-1.014,1.014L60,29.414a.741.741,0,0,0-1.048,0l-1.538,1.538A.741.741,0,0,0,58.462,32l1.014-1.014L60.49,32a.741.741,0,0,0,1.048,0l1.014-1.014Z"/>
      </g>
    </g>
  </g>
</svg>
