<svg xmlns="http://www.w3.org/2000/svg" xmlns:xlink="http://www.w3.org/1999/xlink" width="503.348" height="344.012" viewBox="0 0 503.348 344.012">
  <defs>
    <filter id="Rectangle_409501" x="5.76" y="0" width="497.588" height="344.012" filterUnits="userSpaceOnUse">
      <feOffset dy="3" input="SourceAlpha"/>
      <feGaussianBlur stdDeviation="3" result="blur"/>
      <feFlood flood-opacity="0.161"/>
      <feComposite operator="in" in2="blur"/>
      <feComposite in="SourceGraphic"/>
    </filter>
    <clipPath id="clip-path">
      <rect id="Rectangle_411863" data-name="Rectangle 411863" width="430.623" height="309.012" fill="none"/>
    </clipPath>
    <clipPath id="clip-path-2">
      <rect id="Rectangle_411865" data-name="Rectangle 411865" width="15.813" height="5.301" fill="none"/>
    </clipPath>
    <linearGradient id="linear-gradient" x1="-7.3" y1="16.366" x2="-7.272" y2="16.366" gradientUnits="objectBoundingBox">
      <stop offset="0" stop-color="#6debb8"/>
      <stop offset="1" stop-color="#6deb7e"/>
    </linearGradient>
    <clipPath id="clip-path-4">
      <path id="Path_1248497" data-name="Path 1248497" d="M357.494,236.7a2.9,2.9,0,1,0,0,5.8H369a2.9,2.9,0,1,0,0-5.8Z" transform="translate(-354.59 -236.701)" fill="#c8a0e6"/>
    </clipPath>
    <clipPath id="clip-path-6">
      <path id="Path_1248517" data-name="Path 1248517" d="M540.62,364.843v0h0Zm30.43-15.688c-6.506.494-8.742-4.411-8.742-4.411s-9.236,1.619-12.024,2.957c-2.824,1.356-4.914,4.265-6.417,7.311a42.013,42.013,0,0,0-3.245,9.828l9.115,6.016,7.946,28.264,44.388-11.3-7.529-17.832,17.134-5.323s-.365-.792-.974-2.023c-.8-1.627-2.028-4.024-3.388-6.377a44.753,44.753,0,0,0-3.34-5.092,11.6,11.6,0,0,0-1.721-1.828,16.524,16.524,0,0,0-3.9-2.063,48.965,48.965,0,0,0-12.247-3.059c-1.009-.111-3.335-.418-3.335-.418s-1.432,4.571-11.717,5.354" transform="translate(-540.62 -343.801)" fill="#c8a0e6"/>
    </clipPath>
    <clipPath id="clip-path-8">
      <path id="Path_1248552" data-name="Path 1248552" d="M519.516,256a11.387,11.387,0,1,0,8.716,20.776c1.3.7,3.651,1.89,4.2,1.419s-.28-3.38-.707-4.709A11.383,11.383,0,0,0,519.516,256" transform="translate(-510.953 -255.643)" fill="#c8a0e6"/>
    </clipPath>
    <clipPath id="clip-path-10">
      <path id="Path_1248557" data-name="Path 1248557" d="M531.81,293.83a7.364,7.364,0,0,1,.044.827v.529a1.788,1.788,0,0,0,1.788,1.788h.583a1.788,1.788,0,0,0,1.788-1.788v-.769h0c0-.2,0-.391.018-.587Z" transform="translate(-531.81 -293.83)" fill="none"/>
    </clipPath>
    <linearGradient id="linear-gradient-2" x1="-56.098" y1="35.845" x2="-55.993" y2="35.845" gradientUnits="objectBoundingBox">
      <stop offset="0" stop-color="#1ccbf4"/>
      <stop offset="1" stop-color="#1c9ef4"/>
    </linearGradient>
    <clipPath id="clip-path-12">
      <path id="Path_1248579" data-name="Path 1248579" d="M135.109,226.93c-.071.018-.147.036-.231.053.178,2.81-.218,7.2-4.015,9.112-3.059,1.539-7.711-.107-10.108-1.17-5.514,3.669-10.592,6.888-12.629,10.5-2.2,3.9-2.37,7.689.943,12.536a102.849,102.849,0,0,0,12.994,14.844c.516.5,1.036,1,1.552,1.489,8.551,8.107,16.707,14.292,16.707,14.292V225.765a32.732,32.732,0,0,0-5.212,1.165m5.212-1.165h0l0,0Z" transform="translate(-106.521 -225.76)" fill="#c8a0e6"/>
    </clipPath>
    <clipPath id="clip-path-14">
      <path id="Path_1248605" data-name="Path 1248605" d="M106.335,271.228c-.591,4.887.454,10.121,5.647,13.474,10.032,6.479,23.719,6.163,23.719,6.163l-.543-22.826c-7.924.022-15.333-.836-20.109-2.539a5.531,5.531,0,0,0-1.868-.32,7.174,7.174,0,0,0-6.848,6.047" transform="translate(-106.187 -265.181)" fill="#c8a0e6"/>
    </clipPath>
    <clipPath id="clip-path-16">
      <path id="Path_1248646" data-name="Path 1248646" d="M241.17,111.715a2.655,2.655,0,1,0,2.655-2.655,2.655,2.655,0,0,0-2.655,2.655" transform="translate(-241.17 -109.06)" fill="none"/>
    </clipPath>
    <linearGradient id="linear-gradient-3" x1="-20.198" y1="36.699" x2="-20.115" y2="36.699" xlink:href="#linear-gradient"/>
    <clipPath id="clip-path-18">
      <path id="Path_1248648" data-name="Path 1248648" d="M238.364,382.655c-6.426,2.784-9.249,9.9-9.943,11.931a.6.6,0,0,0,.36.756v0c1.93.716,8.7,3,13.856,2.046,6.07-1.125,10.455-5.51,9.667-10.681-.531-3.49-3.262-5.6-7.3-5.6a16.982,16.982,0,0,0-6.643,1.55" transform="translate(-228.39 -381.105)" fill="none"/>
    </clipPath>
    <linearGradient id="linear-gradient-4" x1="-4.097" y1="4.287" x2="-4.079" y2="4.287" xlink:href="#linear-gradient-2"/>
    <clipPath id="clip-path-20">
      <path id="Path_1248650" data-name="Path 1248650" d="M207.924,349.433c-.454,7.119,4.616,12.887,6.119,14.43a.592.592,0,0,0,.84.009c1.521-1.45,6.661-6.617,8.164-11.757,1.774-6.057-.142-12.029-5.127-13.621a6.771,6.771,0,0,0-2.063-.334c-4.1,0-7.479,4.1-7.934,11.273" transform="translate(-207.896 -338.16)" fill="none"/>
    </clipPath>
    <linearGradient id="linear-gradient-5" x1="-5.303" y1="3.584" x2="-5.278" y2="3.584" xlink:href="#linear-gradient-2"/>
    <clipPath id="clip-path-22">
      <path id="Path_1248652" data-name="Path 1248652" d="M154.217,383.353c-5.776.454-10.268,4.007-9.992,8.747s5.341,7.191,12.673,4.945c6.252-1.912,9.534-8.075,10.361-9.845a.534.534,0,0,0-.267-.716l0,0c-1.628-.768-7.084-3.163-11.79-3.163-.331,0-.659.012-.981.037" transform="translate(-144.213 -383.316)" fill="none"/>
    </clipPath>
    <linearGradient id="linear-gradient-6" x1="-2.725" y1="4.564" x2="-2.706" y2="4.564" xlink:href="#linear-gradient-2"/>
    <clipPath id="clip-path-24">
      <path id="Path_1248654" data-name="Path 1248654" d="M139.835,341.819c-1.628,3.148-1.236,13.323,10.232,15.853s18.383,0,18.383,0h0c1.485-1.049-1.645-6.813-4.064-10.779a22.349,22.349,0,0,0-8.889-8.342,15.2,15.2,0,0,0-6.869-1.833,9.835,9.835,0,0,0-8.788,5.1" transform="translate(-139.133 -336.718)" fill="none"/>
    </clipPath>
    <linearGradient id="linear-gradient-7" x1="-1.921" y1="3.987" x2="-1.907" y2="3.987" xlink:href="#linear-gradient-2"/>
    <clipPath id="clip-path-26">
      <path id="Path_1248659" data-name="Path 1248659" d="M189.64,450.49a15.3,15.3,0,0,0,2.4,8.262,8.43,8.43,0,0,0,.543.7c2.157,2.552,5.318,3.571,8.863,3.571,6.177,0,11.611-3.135,11.82-11.989.009-.178.009-.36.009-.547Z" transform="translate(-189.64 -450.49)" fill="#c8a0e6"/>
    </clipPath>
    <clipPath id="clip-path-28">
      <rect id="Rectangle_411892" data-name="Rectangle 411892" width="25.885" height="3.371" fill="none"/>
    </clipPath>
    <linearGradient id="linear-gradient-8" x1="-3.217" y1="13.767" x2="-3.2" y2="13.767" xlink:href="#linear-gradient"/>
    <filter id="Rectangle_401315" x="453.348" y="197.512" width="34" height="117.092" filterUnits="userSpaceOnUse">
      <feOffset dy="3" input="SourceAlpha"/>
      <feGaussianBlur stdDeviation="3" result="blur-2"/>
      <feFlood flood-opacity="0.161"/>
      <feComposite operator="in" in2="blur-2"/>
      <feComposite in="SourceGraphic"/>
    </filter>
    <filter id="Ellipse_12336" x="452" y="38" width="36" height="36" filterUnits="userSpaceOnUse">
      <feOffset dy="3" input="SourceAlpha"/>
      <feGaussianBlur stdDeviation="3" result="blur-3"/>
      <feFlood flood-opacity="0.161"/>
      <feComposite operator="in" in2="blur-3"/>
      <feComposite in="SourceGraphic"/>
    </filter>
    <filter id="Ellipse_12337" x="452" y="61" width="36" height="36" filterUnits="userSpaceOnUse">
      <feOffset dy="3" input="SourceAlpha"/>
      <feGaussianBlur stdDeviation="3" result="blur-4"/>
      <feFlood flood-opacity="0.161"/>
      <feComposite operator="in" in2="blur-4"/>
      <feComposite in="SourceGraphic"/>
    </filter>
    <filter id="Ellipse_12338" x="452" y="84" width="36" height="36" filterUnits="userSpaceOnUse">
      <feOffset dy="3" input="SourceAlpha"/>
      <feGaussianBlur stdDeviation="3" result="blur-5"/>
      <feFlood flood-opacity="0.161"/>
      <feComposite operator="in" in2="blur-5"/>
      <feComposite in="SourceGraphic"/>
    </filter>
  </defs>
  <g id="Group_1207107" data-name="Group 1207107" transform="translate(-184.691 -2788)">
    <g id="Group_1187160" data-name="Group 1187160" transform="translate(184.691 2811)">
      <g id="Group_1187160-2" data-name="Group 1187160">
        <rect id="Rectangle_410370" data-name="Rectangle 410370" width="57" height="212" rx="5" fill="#e6e51d"/>
      </g>
    </g>
    <g id="Group_1207133" data-name="Group 1207133">
      <g id="Group_1187161" data-name="Group 1187161" transform="translate(199.451 2794)">
        <g transform="matrix(1, 0, 0, 1, -14.76, -6)" filter="url(#Rectangle_409501)">
          <path id="Rectangle_409501-2" data-name="Rectangle 409501" d="M5,0H474.588a5,5,0,0,1,5,5V321.012a5,5,0,0,1-5,5H0a0,0,0,0,1,0,0V5A5,5,0,0,1,5,0Z" transform="translate(14.76 6)" fill="#9a2cec"/>
        </g>
        <g id="Group_1200933" data-name="Group 1200933" transform="translate(24.965 17)">
          <path id="Path_1248663" data-name="Path 1248663" d="M0,0H430.623V309.012H0Z" fill="#cff1ef"/>
          <g id="Group_1200876" data-name="Group 1200876">
            <g id="Group_1200875" data-name="Group 1200875" clip-path="url(#clip-path)">
              <path id="Path_1248450" data-name="Path 1248450" d="M207.266,99.16H384.907c13.595,0,24.616,11.882,24.616,26.539V278.265c0,14.657-11.021,26.539-24.616,26.539H207.266c-13.595,0-24.616-11.882-24.616-26.539V125.7c0-14.657,11.021-26.539,24.616-26.539" transform="translate(-86.989 -43.168)" fill="#edebed"/>
              <path id="Path_1248451" data-name="Path 1248451" d="M401.193,304.864H190.514c-4.609,0-8.354-4.043-8.354-9.006V107.666c0-4.969,3.75-9.006,8.354-9.006H401.2c4.609,0,8.354,4.043,8.354,9.006V295.857c0,4.969-3.75,9.006-8.354,9.006ZM190.514,99.219c-4.321,0-7.835,3.789-7.835,8.447V295.857c0,4.658,3.514,8.447,7.835,8.447H401.2c4.321,0,7.835-3.789,7.835-8.447V107.666c0-4.658-3.514-8.447-7.835-8.447Z" transform="translate(-86.756 -42.95)"/>
              <path id="Path_1248452" data-name="Path 1248452" d="M198.058,99.16H394.115c8.506,0,15.414,7.442,15.414,16.618H182.65c0-9.17,6.9-16.618,15.414-16.618Z" transform="translate(-86.989 -43.168)" fill="#c6c4c6"/>
              <path id="Path_1248453" data-name="Path 1248453" d="M409.542,115.841H182.15v-8.165c0-4.969,3.75-9.006,8.354-9.006H401.188c4.609,0,8.354,4.043,8.354,9.006Zm-226.873-.559h226.36v-7.606c0-4.658-3.514-8.447-7.835-8.447H190.509c-4.321,0-7.835,3.789-7.835,8.447v7.606Z" transform="translate(-86.751 -42.955)"/>
              <path id="Path_1248454" data-name="Path 1248454" d="M416.01,307.823H295.136a7.543,7.543,0,0,1,0-15.043H416.01a7.543,7.543,0,0,1,0,15.043" transform="translate(-137.24 -127.458)" fill="#fff"/>
              <path id="Path_1248455" data-name="Path 1248455" d="M415.781,307.9H294.913c-3.991,0-7.233-3.5-7.233-7.8s3.247-7.8,7.233-7.8H415.786c3.991,0,7.233,3.5,7.233,7.8s-3.247,7.8-7.233,7.8ZM294.913,292.853a7.265,7.265,0,0,0,0,14.489H415.786a7.265,7.265,0,0,0,0-14.489Z" transform="translate(-137.011 -127.249)"/>
              <path id="Path_1248456" data-name="Path 1248456" d="M421.81,336.843h75.947a2.509,2.509,0,0,0,0-5H421.81a2.509,2.509,0,0,0,0,5" transform="translate(-199.787 -144.462)" fill="#fff"/>
              <path id="Path_1248457" data-name="Path 1248457" d="M497.524,336.906H421.577a2.786,2.786,0,0,1,0-5.556h75.942a2.786,2.786,0,0,1,0,5.556Zm-75.947-5a2.231,2.231,0,0,0,0,4.45h75.942a2.231,2.231,0,0,0,0-4.45Z" transform="translate(-199.554 -144.249)"/>
              <path id="Path_1248458" data-name="Path 1248458" d="M290.681,162.743H206.563a6.274,6.274,0,0,1,0-12.513h84.118a6.274,6.274,0,0,1,0,12.513" transform="translate(-95.614 -65.401)" fill="#fff"/>
              <path id="Path_1248459" data-name="Path 1248459" d="M290.457,162.806H206.34a6.552,6.552,0,0,1,0-13.066h84.118a6.552,6.552,0,0,1,0,13.066M206.34,150.293a6,6,0,0,0,0,11.96h84.118a6,6,0,0,0,0-11.96Z" transform="translate(-95.386 -65.187)"/>
              <path id="Path_1248460" data-name="Path 1248460" d="M89.46,477.86h0Z" transform="translate(-42.606 -208.03)" fill="#fff"/>
              <path id="Path_1248461" data-name="Path 1248461" d="M436.617,477.923H89.227a.277.277,0,0,1,0-.553h347.39a.277.277,0,0,1,0,.553" transform="translate(-42.373 -207.817)"/>
              <path id="Path_1248462" data-name="Path 1248462" d="M502.725,221.728h-83.84a5.531,5.531,0,0,1-5.305-5.72V156.73a5.531,5.531,0,0,1,5.305-5.72h83.84a5.531,5.531,0,0,1,5.305,5.72v59.278A5.531,5.531,0,0,1,502.725,221.728Zm-83.84-70.159a5,5,0,0,0-4.792,5.167v59.278a5,5,0,0,0,4.792,5.167h83.84a5,5,0,0,0,4.792-5.167V156.736a5,5,0,0,0-4.792-5.167Z" transform="translate(-196.972 -65.74)"/>
              <path id="Path_1248463" data-name="Path 1248463" d="M523.87,172.893H468.013a2.138,2.138,0,0,1-2.053-2.214v-.006a2.138,2.138,0,0,1,2.053-2.213H523.87a2.138,2.138,0,0,1,2.053,2.213v.006a2.138,2.138,0,0,1-2.053,2.214" transform="translate(-221.919 -73.337)" fill="#fff"/>
              <path id="Path_1248464" data-name="Path 1248464" d="M523.966,172.956H467.45a2.063,2.063,0,0,1-1.98-2.134V170.1a2.063,2.063,0,0,1,1.98-2.134h56.517a2.063,2.063,0,0,1,1.98,2.134v.717a2.063,2.063,0,0,1-1.98,2.134m-56.517-4.427a1.528,1.528,0,0,0-1.466,1.581v.717a1.528,1.528,0,0,0,1.466,1.581h56.517a1.528,1.528,0,0,0,1.467-1.581v-.717a1.528,1.528,0,0,0-1.467-1.581Z" transform="translate(-221.685 -73.124)"/>
              <path id="Path_1248465" data-name="Path 1248465" d="M523.87,189.023H468.013a2.138,2.138,0,0,1-2.053-2.213V186.8a2.138,2.138,0,0,1,2.053-2.213H523.87a2.138,2.138,0,0,1,2.053,2.213v.006a2.138,2.138,0,0,1-2.053,2.213" transform="translate(-221.919 -80.359)" fill="#fff"/>
              <path id="Path_1248466" data-name="Path 1248466" d="M523.966,189.086H467.45a2.063,2.063,0,0,1-1.98-2.134v-.717a2.063,2.063,0,0,1,1.98-2.134h56.517a2.063,2.063,0,0,1,1.98,2.134v.717a2.063,2.063,0,0,1-1.98,2.134m-56.517-4.433a1.528,1.528,0,0,0-1.466,1.581v.717a1.528,1.528,0,0,0,1.466,1.581h56.517a1.528,1.528,0,0,0,1.467-1.581v-.717a1.528,1.528,0,0,0-1.467-1.581Z" transform="translate(-221.685 -80.146)"/>
              <path id="Path_1248467" data-name="Path 1248467" d="M501.417,205.143H468.023a2.138,2.138,0,0,1-2.053-2.214v-.006a2.138,2.138,0,0,1,2.053-2.213h33.394a2.138,2.138,0,0,1,2.053,2.213v.006a2.138,2.138,0,0,1-2.053,2.214" transform="translate(-221.924 -87.377)" fill="#fff"/>
              <path id="Path_1248468" data-name="Path 1248468" d="M501.5,205.206H467.45a2.063,2.063,0,0,1-1.98-2.134v-.717a2.063,2.063,0,0,1,1.98-2.134H501.5a2.063,2.063,0,0,1,1.98,2.134v.717a2.063,2.063,0,0,1-1.98,2.134m-34.053-4.427a1.528,1.528,0,0,0-1.466,1.581v.717a1.528,1.528,0,0,0,1.466,1.581H501.5a1.528,1.528,0,0,0,1.466-1.581v-.717a1.528,1.528,0,0,0-1.466-1.581Z" transform="translate(-221.685 -87.163)"/>
              <path id="Path_1248469" data-name="Path 1248469" d="M426.656,170.472c5.037-2.25,10.813.329,12.9,5.761s-.306,11.657-5.343,13.907-10.813-.329-12.9-5.76.306-11.657,5.343-13.907" transform="translate(-200.296 -73.859)" fill="#c6c4c6"/>
              <path id="Path_1248470" data-name="Path 1248470" d="M430.209,191.011c-5.583,0-10.129-4.9-10.129-10.921s4.546-10.921,10.129-10.921,10.129,4.9,10.129,10.921-4.546,10.921-10.129,10.921m0-21.282c-5.3,0-9.611,4.647-9.611,10.362s4.31,10.362,9.611,10.362,9.611-4.647,9.611-10.362S435.509,169.729,430.209,169.729Z" transform="translate(-200.068 -73.646)"/>
              <path id="Path_1248471" data-name="Path 1248471" d="M430.524,242.778a.2.2,0,0,1-.068-.011.285.285,0,0,1-.183-.344,45.032,45.032,0,0,1,3.865-9.6c3.467-6.217,7.736-9.187,12.35-8.583,5.494.717,7.495,4.653,9.427,8.459,2,3.936,4.064,8.007,10.1,8.589,6.274.61,9.364-6.251,12.355-12.88,2.682-5.946,5.216-11.564,9.888-12,6.809-.627,8.862,4.3,10.679,8.651a28.08,28.08,0,0,0,1.639,3.5,3.309,3.309,0,0,0,3.221,1.66c1.33-.175,3.268-1.033,4.939-4.111a.257.257,0,0,1,.356-.1.3.3,0,0,1,.094.384c-1.781,3.275-3.881,4.19-5.326,4.382a3.8,3.8,0,0,1-3.719-1.909,27.8,27.8,0,0,1-1.681-3.569c-1.744-4.178-3.724-8.922-10.161-8.329-4.378.407-6.85,5.884-9.469,11.683-3.069,6.8-6.238,13.834-12.863,13.191-6.306-.61-8.437-4.811-10.5-8.876-1.959-3.851-3.8-7.493-9.034-8.176-4.457-.582-8.443,2.214-11.842,8.306a44.527,44.527,0,0,0-3.813,9.469.261.261,0,0,1-.251.2Z" transform="translate(-204.918 -94.187)"/>
              <path id="Path_1248472" data-name="Path 1248472" d="M456.707,227.79a1.716,1.716,0,1,1-1.587,1.711,1.653,1.653,0,0,1,1.587-1.711" transform="translate(-216.756 -99.165)" fill="#fff"/>
              <path id="Path_1248473" data-name="Path 1248473" d="M456.469,231.277a2,2,0,1,1,1.849-1.993,1.925,1.925,0,0,1-1.849,1.993m0-3.428a1.438,1.438,0,1,0,1.33,1.434,1.387,1.387,0,0,0-1.33-1.434" transform="translate(-216.518 -98.948)"/>
              <path id="Path_1248474" data-name="Path 1248474" d="M565.667,237.26a1.716,1.716,0,1,1-1.587,1.711,1.653,1.653,0,0,1,1.587-1.711" transform="translate(-268.65 -103.288)" fill="#fff"/>
              <path id="Path_1248475" data-name="Path 1248475" d="M565.429,240.747a2,2,0,1,1,1.849-1.993,1.925,1.925,0,0,1-1.849,1.993m0-3.428a1.438,1.438,0,1,0,1.33,1.434,1.387,1.387,0,0,0-1.33-1.434" transform="translate(-268.411 -103.07)"/>
              <path id="Path_1248476" data-name="Path 1248476" d="M588.2,269.15a7,7,0,0,0-5.169,5.257,23.935,23.935,0,0,0,.178,9.5l9.092-10.966-4.1-3.783Z" transform="translate(-277.477 -117.171)" fill="#084e5e"/>
              <path id="Path_1248477" data-name="Path 1248477" d="M582.841,284.249l-.12-.5a23.979,23.979,0,0,1-.178-9.633,7.316,7.316,0,0,1,5.374-5.46l.12-.023,4.394,4.054Zm5.049-15.02a6.774,6.774,0,0,0-4.85,5.02,23.223,23.223,0,0,0,.068,8.837l8.584-10.35-3.8-3.512Z" transform="translate(-277.239 -116.945)"/>
              <path id="Path_1248478" data-name="Path 1248478" d="M307.621,388.262H252.775a5.531,5.531,0,0,1-5.305-5.72V342.79a5.531,5.531,0,0,1,5.305-5.72h54.846a5.531,5.531,0,0,1,5.305,5.72v39.752a5.531,5.531,0,0,1-5.305,5.72m-54.846-50.639a5,5,0,0,0-4.792,5.167v39.752a5,5,0,0,0,4.792,5.167h54.846a5,5,0,0,0,4.792-5.167V342.79a5,5,0,0,0-4.792-5.167Z" transform="translate(-117.86 -146.739)"/>
              <path id="Path_1248479" data-name="Path 1248479" d="M331.652,344.82c6.358,0,11.512,5.557,11.512,12.411s-5.154,12.411-11.512,12.411-11.512-5.557-11.512-12.411,5.154-12.411,11.512-12.411" transform="translate(-152.47 -150.113)" fill="#fff"/>
              <path id="Path_1248480" data-name="Path 1248480" d="M331.418,369.706c-6.489,0-11.768-5.692-11.768-12.688s5.279-12.688,11.768-12.688,11.768,5.692,11.768,12.688-5.279,12.688-11.768,12.688m0-24.817c-6.206,0-11.25,5.443-11.25,12.129s5.049,12.129,11.25,12.129,11.25-5.443,11.25-12.129-5.049-12.129-11.25-12.129" transform="translate(-152.237 -149.9)"/>
              <path id="Path_1248481" data-name="Path 1248481" d="M329.647,366.8H315.93c0,8.165,6.138,14.789,13.717,14.789Z" transform="translate(-150.465 -159.682)" fill="#c6c4c6"/>
              <path id="Path_1248482" data-name="Path 1248482" d="M329.68,381.652h-.257c-7.7,0-13.973-6.759-13.973-15.065v-.277h14.23Zm-13.711-14.788c.136,7.781,5.981,14.077,13.193,14.224V366.863Z" transform="translate(-150.237 -159.468)"/>
            </g>
          </g>
          <g id="Group_1200878" data-name="Group 1200878" transform="translate(136.89 199.798)">
            <g id="Group_1200877" data-name="Group 1200877" clip-path="url(#clip-path-2)">
              <rect id="Rectangle_411864" data-name="Rectangle 411864" width="15.813" height="5.301" transform="translate(0 0)" fill="url(#linear-gradient)"/>
            </g>
          </g>
          <g id="Group_1200880" data-name="Group 1200880">
            <g id="Group_1200879" data-name="Group 1200879" clip-path="url(#clip-path)">
              <path id="Path_1248483" data-name="Path 1248483" d="M275.125,358.964H262.247a3.261,3.261,0,0,1-3.127-3.371v-.542a3.261,3.261,0,0,1,3.127-3.371h12.879a3.261,3.261,0,0,1,3.127,3.371v.542a3.261,3.261,0,0,1-3.127,3.371m-12.884-6.731a2.726,2.726,0,0,0-2.613,2.818v.542a2.726,2.726,0,0,0,2.613,2.818H275.12a2.725,2.725,0,0,0,2.613-2.818v-.542a2.725,2.725,0,0,0-2.613-2.818Z" transform="translate(-123.409 -153.099)"/>
              <path id="Path_1248484" data-name="Path 1248484" d="M275.754,354.858l-1.912-2.061a.3.3,0,0,1,0-.4.245.245,0,0,1,.367,0l1.55,1.671,5.793-6.245a.249.249,0,0,1,.367,0,.3.3,0,0,1,0,.4l-6.159,6.641Z" transform="translate(-130.385 -151.387)"/>
              <path id="Path_1248485" data-name="Path 1248485" d="M284.574,404.036H254.113a1.863,1.863,0,0,1,0-3.716h30.461a1.863,1.863,0,0,1,0,3.716" transform="translate(-120.204 -174.274)" fill="#fff"/>
              <path id="Path_1248486" data-name="Path 1248486" d="M284.33,404.109H253.87a2.14,2.14,0,0,1,0-4.269H284.33a2.14,2.14,0,0,1,0,4.269m-30.461-3.715a1.586,1.586,0,0,0,0,3.162H284.33a1.586,1.586,0,0,0,0-3.162Z" transform="translate(-119.965 -174.065)"/>
              <path id="Path_1248487" data-name="Path 1248487" d="M254.1,390.846h28.088a1.863,1.863,0,0,0,0-3.715H254.1a1.863,1.863,0,0,0,0,3.715" transform="translate(-120.199 -168.532)" fill="#fff"/>
              <path id="Path_1248488" data-name="Path 1248488" d="M281.958,390.909H253.87a2.14,2.14,0,0,1,0-4.269h28.088a2.14,2.14,0,0,1,0,4.269m-28.088-3.715a1.586,1.586,0,0,0,0,3.162h28.088a1.586,1.586,0,0,0,0-3.162Z" transform="translate(-119.965 -168.319)"/>
              <path id="Path_1248489" data-name="Path 1248489" d="M254.1,417.245h32.922a1.863,1.863,0,0,0,0-3.715H254.1a1.863,1.863,0,0,0,0,3.715" transform="translate(-120.199 -180.025)" fill="#fff"/>
              <path id="Path_1248490" data-name="Path 1248490" d="M286.792,417.309H253.87a2.14,2.14,0,0,1,0-4.269h32.922a2.14,2.14,0,0,1,0,4.269m-32.922-3.716a1.586,1.586,0,0,0,0,3.162h32.922a1.586,1.586,0,0,0,0-3.162Z" transform="translate(-119.965 -179.812)"/>
              <path id="Path_1248491" data-name="Path 1248491" d="M602.755,338.748c-.246,0-21.829,1.005-22.076.531a43.171,43.171,0,0,0-3.289-3.252l.524-5.443a41.687,41.687,0,0,0,5.52-1.174,3.6,3.6,0,0,0,2.739-4.444l-.01-.068-2.378-12.665-.068-.367,2.079-.508,11.957-2.914,2.226-.542.393,1.762.7,3.134,2.666,11.914a4.4,4.4,0,0,0,3.519,3.269c2.76.514,2.027.6,4.174,1.491,5.829,2.422-8.432,9.277-8.684,9.277Z" transform="translate(-274.989 -134.04)" fill="#fec4a7"/>
              <path id="Path_1248492" data-name="Path 1248492" d="M582.652,339.442c-2.3,0-2.372-.124-2.446-.271A38.938,38.938,0,0,0,576.975,336l-.1-.1.555-5.81.21-.023a42.4,42.4,0,0,0,5.483-1.169,3.634,3.634,0,0,0,2.294-1.722,3.25,3.25,0,0,0,.262-2.377l-.016-.09-2.493-13.3,16.754-4.082,3.823,17.075a4.14,4.14,0,0,0,3.31,3.06,7.755,7.755,0,0,1,2.818.841,14.8,14.8,0,0,0,1.4.661c1.466.61,1.645,1.491,1.54,2.123-.23,1.338-2.006,3.038-5.274,5.048a34.117,34.117,0,0,1-5.038,2.648c-.042,0-.471.017-1.074.045-2.215.1-7.4.322-12.072.469-3.284.107-5.374.147-6.709.147Zm-2.053-.632c.518.119,4.028.181,20.813-.542.665-.028.964-.04,1.058-.045.89-.288,9.731-4.738,9.852-7.391.026-.553-.377-.994-1.231-1.35-.728-.3-1.126-.514-1.446-.678a7.287,7.287,0,0,0-2.682-.8,4.666,4.666,0,0,1-3.724-3.473l-3.708-16.545-15.765,3.845.021.1,2.388,12.727a3.853,3.853,0,0,1-.314,2.8,4.128,4.128,0,0,1-2.613,1.982,44.612,44.612,0,0,1-5.347,1.152l-.487,5.076a41.24,41.24,0,0,1,3.184,3.145Z" transform="translate(-274.741 -133.792)"/>
              <path id="Path_1248493" data-name="Path 1248493" d="M606.643,312.749c-.733,8.436-10.841,11.773-14.675,12.536l-2.378-12.665c.639-.288,1.309-.582,2.006-.875,4.007-1.683,8.815-3.275,11.957-2.914a3.824,3.824,0,0,1,2.619,1.22c.524.627.477,2.569.461,2.7Z" transform="translate(-280.799 -134.423)" fill="#084e5e"/>
              <path id="Path_1248494" data-name="Path 1248494" d="M306.855,231.471h-61.33a5.531,5.531,0,0,1-5.305-5.72v-25.9a5.531,5.531,0,0,1,5.305-5.72h61.33a5.531,5.531,0,0,1,5.305,5.72v25.9a5.531,5.531,0,0,1-5.305,5.72m-61.33-36.788a5,5,0,0,0-4.792,5.167v25.9a5,5,0,0,0,4.792,5.167h61.33a5,5,0,0,0,4.792-5.167v-25.9a5,5,0,0,0-4.792-5.167Z" transform="translate(-114.408 -84.512)"/>
              <path id="Path_1248495" data-name="Path 1248495" d="M301.553,210.686H334.4a1.863,1.863,0,0,0,0-3.715H301.553a1.863,1.863,0,0,0,0,3.715" transform="translate(-142.797 -90.102)" fill="#fff"/>
              <path id="Path_1248496" data-name="Path 1248496" d="M301.553,222.925H334.4a1.863,1.863,0,0,0,0-3.715H301.553a1.863,1.863,0,0,0,0,3.715" transform="translate(-142.797 -95.43)" fill="#fff"/>
            </g>
          </g>
          <g id="Group_1200882" data-name="Group 1200882" transform="translate(187.106 134.35)">
            <g id="Group_1200881" data-name="Group 1200881" clip-path="url(#clip-path-4)">
              <rect id="Rectangle_411867" data-name="Rectangle 411867" width="17.316" height="5.803" transform="translate(0 0)" fill="#c8a0e6"/>
            </g>
          </g>
          <g id="Group_1200884" data-name="Group 1200884">
            <g id="Group_1200883" data-name="Group 1200883" clip-path="url(#clip-path)">
              <path id="Path_1248498" data-name="Path 1248498" d="M371.687,244.132H357.421a3.462,3.462,0,0,1-3.321-3.58v-.762a3.462,3.462,0,0,1,3.321-3.58h14.267a3.462,3.462,0,0,1,3.32,3.58v.762a3.462,3.462,0,0,1-3.32,3.58m-14.261-7.374a2.927,2.927,0,0,0-2.807,3.027v.762a2.927,2.927,0,0,0,2.807,3.027h14.267a2.927,2.927,0,0,0,2.807-3.027v-.762a2.927,2.927,0,0,0-2.807-3.027Z" transform="translate(-168.644 -102.831)"/>
              <path id="Path_1248499" data-name="Path 1248499" d="M372.3,239.144l-2.079-2.242a.3.3,0,0,1,0-.4.249.249,0,0,1,.367,0l1.713,1.846,6.358-6.855a.249.249,0,0,1,.367,0,.3.3,0,0,1,0,.4Z" transform="translate(-176.287 -100.745)"/>
              <path id="Path_1248500" data-name="Path 1248500" d="M316.534,244.069H302.98a3.695,3.695,0,0,1,0-7.369h13.554a3.695,3.695,0,0,1,0,7.369" transform="translate(-142.669 -103.044)" fill="#fff"/>
              <path id="Path_1248501" data-name="Path 1248501" d="M316.657,244.132H302.391a3.462,3.462,0,0,1-3.321-3.58v-.762a3.462,3.462,0,0,1,3.321-3.58h14.267a3.462,3.462,0,0,1,3.32,3.58v.762a3.462,3.462,0,0,1-3.32,3.58M302.4,236.758a2.927,2.927,0,0,0-2.807,3.027v.762a2.927,2.927,0,0,0,2.807,3.027h14.261a2.927,2.927,0,0,0,2.807-3.027v-.762a2.927,2.927,0,0,0-2.807-3.027H302.4Z" transform="translate(-142.436 -102.831)"/>
              <path id="Path_1248502" data-name="Path 1248502" d="M317.958,243.083a.244.244,0,0,1-.12-.034L312,239.8a.285.285,0,0,1-.11-.373.246.246,0,0,1,.346-.119l5.834,3.252a.286.286,0,0,1,.11.373.26.26,0,0,1-.23.152Z" transform="translate(-148.528 -104.164)"/>
              <path id="Path_1248503" data-name="Path 1248503" d="M312.133,243.085a.26.26,0,0,1-.23-.152.284.284,0,0,1,.11-.373l5.834-3.252a.249.249,0,0,1,.346.119.284.284,0,0,1-.11.373l-5.834,3.252a.23.23,0,0,1-.12.034Z" transform="translate(-148.533 -104.166)"/>
              <path id="Path_1248504" data-name="Path 1248504" d="M269.29,218.277H249.655a2.3,2.3,0,0,1-2.2-2.377V205.753a2.463,2.463,0,0,1,.807-1.841,2.1,2.1,0,0,1,1.4-.542H269.29a2.3,2.3,0,0,1,2.2,2.377v10.147a2.3,2.3,0,0,1-2.2,2.377Z" transform="translate(-117.851 -88.535)" fill="#def4fc"/>
              <path id="Path_1248505" data-name="Path 1248505" d="M269.052,218.346H249.417a2.569,2.569,0,0,1-2.467-2.66V205.54a2.749,2.749,0,0,1,.9-2.055,2.364,2.364,0,0,1,1.566-.6h19.635a2.569,2.569,0,0,1,2.467,2.66v10.147a2.573,2.573,0,0,1-2.467,2.66m-19.635-14.907a1.874,1.874,0,0,0-1.236.474,2.173,2.173,0,0,0-.712,1.626v10.147a2.032,2.032,0,0,0,1.948,2.1h19.635a2.032,2.032,0,0,0,1.948-2.1V205.54a2.032,2.032,0,0,0-1.948-2.1Z" transform="translate(-117.613 -88.321)"/>
              <path id="Path_1248506" data-name="Path 1248506" d="M248.98,204.33c.33.282,11.218,8.34,11.218,8.34l11.234-8.323Z" transform="translate(-118.58 -88.952)" fill="#def4fc"/>
              <path id="Path_1248507" data-name="Path 1248507" d="M259.962,212.8l-.147-.107c-.445-.328-10.9-8.063-11.234-8.351a.293.293,0,0,1-.042-.39.246.246,0,0,1,.361-.045c.251.215,7.254,5.4,11.056,8.216l11.088-8.216a.25.25,0,0,1,.361.073.3.3,0,0,1-.068.39l-11.381,8.43Z" transform="translate(-118.343 -88.741)"/>
              <path id="Path_1248508" data-name="Path 1248508" d="M258.27,218.369l3.19-3.439-3.19,3.439" transform="translate(-123.004 -93.567)" fill="#def4fc"/>
              <path id="Path_1248509" data-name="Path 1248509" d="M258.035,218.431a.261.261,0,0,1-.183-.079.3.3,0,0,1,0-.4l3.19-3.439a.249.249,0,0,1,.367,0,.3.3,0,0,1,0,.4l-3.19,3.439a.239.239,0,0,1-.183.079" transform="translate(-122.77 -93.353)"/>
              <path id="Path_1248510" data-name="Path 1248510" d="M280.05,218.369l-3.19-3.439Z" transform="translate(-131.858 -93.567)" fill="#def4fc"/>
              <path id="Path_1248511" data-name="Path 1248511" d="M279.815,218.431a.261.261,0,0,1-.183-.079l-3.19-3.439a.3.3,0,0,1,0-.4.249.249,0,0,1,.367,0l3.19,3.439a.3.3,0,0,1,0,.4.239.239,0,0,1-.183.079" transform="translate(-131.623 -93.353)"/>
              <path id="Path_1248512" data-name="Path 1248512" d="M603.281,293.511c-2.614,8.453-10.386,12.615-16.147,10.542s-6.84-9.43-4.719-18.035c3.53-14.337,10.2-16.906,15.964-14.834S605.895,285.058,603.281,293.511Z" transform="translate(-276.903 -117.782)" fill="#fec4a7"/>
              <path id="Path_1248513" data-name="Path 1248513" d="M589.99,304.646a9.356,9.356,0,0,1-3.174-.542c-2.807-1.011-4.7-3.348-5.484-6.765a25.994,25.994,0,0,1,.6-11.609c1.833-7.442,4.64-12.31,8.333-14.461a9.2,9.2,0,0,1,7.961-.57c2.744.983,4.845,4.258,5.761,8.978a29.457,29.457,0,0,1-.7,13.7,16.652,16.652,0,0,1-7.008,9.373,12.089,12.089,0,0,1-6.29,1.886Zm4.735-34.021a8.261,8.261,0,0,0-4.216,1.141c-3.567,2.072-6.285,6.821-8.081,14.111a25.4,25.4,0,0,0-.6,11.333c.744,3.269,2.477,5.409,5.148,6.369a10.559,10.559,0,0,0,9.045-1.3,16.083,16.083,0,0,0,6.772-9.063,28.836,28.836,0,0,0,.681-13.411c-.88-4.523-2.86-7.64-5.421-8.56a9.861,9.861,0,0,0-3.336-.61Z" transform="translate(-276.669 -117.568)"/>
              <path id="Path_1248514" data-name="Path 1248514" d="M537.508,389.48l-7.228,19.989s-9.815,19.136.759,23.919c3.043,1.378,11.438,1.18,15.9-5.472,3.729-5.556,10-22.925,10-22.925Z" transform="translate(-250.578 -169.555)" fill="#fec4a7"/>
              <path id="Path_1248515" data-name="Path 1248515" d="M534.775,434a10.431,10.431,0,0,1-4.064-.695,8.05,8.05,0,0,1-4.488-5.065c-2.367-7.358,3.247-18.555,3.593-19.232l7.343-20.311,19.865,15.856-.073.2c-.063.175-6.332,17.465-10.035,22.987A14.422,14.422,0,0,1,534.769,434Zm2.619-44.422-7.112,19.667-.01.017a46.718,46.718,0,0,0-2.666,6.7c-1.074,3.45-2.1,8.351-.9,12.1a7.529,7.529,0,0,0,4.2,4.732,12.413,12.413,0,0,0,7.264.26,13.572,13.572,0,0,0,8.327-5.635c3.451-5.144,9.192-20.723,9.9-22.666Z" transform="translate(-250.343 -169.216)"/>
              <path id="Path_1248516" data-name="Path 1248516" d="M544.91,394.75l7.547,5.8,7.212,20.271-1.22-19.4-3.582-6.07-9.029-3.574Z" transform="translate(-259.52 -170.556)" fill="#084e5e"/>
            </g>
          </g>
          <g id="Group_1200886" data-name="Group 1200886" transform="translate(305.405 218.541)">
            <g id="Group_1200885" data-name="Group 1200885" clip-path="url(#clip-path-6)">
              <rect id="Rectangle_411869" data-name="Rectangle 411869" width="71.056" height="55.318" transform="translate(0 0)" fill="#c8a0e6"/>
            </g>
          </g>
          <g id="Group_1200888" data-name="Group 1200888">
            <g id="Group_1200887" data-name="Group 1200887" clip-path="url(#clip-path)">
              <path id="Path_1248518" data-name="Path 1248518" d="M607.085,392.28c-2.483,0-4.745-1.141-7.285-2.428-.639-.322-1.3-.655-1.99-.988a21.319,21.319,0,0,1-9.113-9.4c-2.111-4.037-3.006-8.385-2.4-11.621.864-4.636,4.965-7.843,12.188-9.537,5.473-1.282,12.737-1.705,21.583-1.254,4.09.209,7.018-2.789,8.956-4.771.414-.424.77-.791,1.095-1.079a.244.244,0,0,1,.361.034.292.292,0,0,1-.031.39c-.309.277-.66.638-1.068,1.056-2,2.05-5.028,5.144-9.333,4.924-14.151-.723-31.4.491-33.242,10.345-1.168,6.256,3.577,16.754,11.218,20.407.7.333,1.362.666,2,.994,4.824,2.439,8.312,4.2,14.256-.915,3.085-2.66,13.151-3.168,13.575-3.185h.01a.278.278,0,0,1,.01.553c-.1,0-10.323.52-13.277,3.066-2.917,2.507-5.3,3.411-7.505,3.416Z" transform="translate(-279.141 -152.863)" fill="#fff"/>
              <path id="Path_1248519" data-name="Path 1248519" d="M614.547,388.091a12.372,12.372,0,0,1-6.458-1.666c-3.017-1.83-4.808-4.958-5.18-9.052-.932-10.271,27.36-13.834,42.559-15.754l.084-.011a.264.264,0,0,1,.288.243.276.276,0,0,1-.225.311l-.084.011c-7.27.915-18.263,2.3-27.077,4.675-10.349,2.784-15.408,6.307-15.031,10.469.356,3.9,2.058,6.883,4.923,8.617,4,2.422,9.846,2.072,15.655-.937.848-.44,1.639-.853,2.383-1.242,8.3-4.342,10.8-5.658,18.928-3.416a.29.29,0,0,1,.189.339.265.265,0,0,1-.314.2c-7.94-2.191-10.192-1.011-18.572,3.377-.744.39-1.535.8-2.383,1.242a21.354,21.354,0,0,1-9.673,2.586Z" transform="translate(-287.132 -157.421)" fill="#fff"/>
              <path id="Path_1248520" data-name="Path 1248520" d="M629.492,385.778a2.3,2.3,0,0,1-2.3-1.451,1.7,1.7,0,0,1,.23-1.671c1.33-2.072,6.578-4.625,13.7-6.663,7.406-2.123,14.843-3.1,19.886-2.609a.275.275,0,0,1,.236.3.266.266,0,0,1-.283.254c-4.986-.48-12.355.486-19.708,2.6-6.9,1.976-12.161,4.506-13.408,6.443a1.134,1.134,0,0,0-.189,1.112c.985,2.2,3.991.9,8.82-1.389a52.545,52.545,0,0,1,8.919-3.58c8.348-2.219,18.483.774,18.587.808a.28.28,0,0,1,.178.344.259.259,0,0,1-.319.192c-.1-.028-10.108-2.987-18.326-.8a52.274,52.274,0,0,0-8.835,3.552c-2.9,1.378-5.415,2.575-7.191,2.575Z" transform="translate(-298.646 -162.494)" fill="#fff"/>
              <path id="Path_1248521" data-name="Path 1248521" d="M632.684,435.783a.236.236,0,0,1-.188-.09c-2.179-2.564-2.964-6.24-1.865-8.741.911-2.072,2.943-3.111,5.74-2.942,1.66.1,2.98.26,4.043.384,4.321.508,4.876.576,9.951-5a.245.245,0,0,1,.367,0,.293.293,0,0,1,0,.4c-5.253,5.765-5.934,5.686-10.375,5.161-1.058-.124-2.372-.282-4.017-.384-2.566-.158-4.426.774-5.243,2.62-1.016,2.309-.267,5.726,1.776,8.125a.3.3,0,0,1-.016.4.232.232,0,0,1-.173.073" transform="translate(-300.11 -182.543)" fill="#fff"/>
              <path id="Path_1248522" data-name="Path 1248522" d="M571.787,443.713a.266.266,0,0,1-.257-.271.278.278,0,0,1,.251-.288c.152,0,3.661-.2,5.033-5.505,1.357-5.263-9.05-8.606-9.155-8.639a.288.288,0,0,1-.178-.344.261.261,0,0,1,.319-.192,27.154,27.154,0,0,1,5.264,2.422c3.4,2.095,4.871,4.483,4.247,6.9a8.178,8.178,0,0,1-3.294,5.116,4.747,4.747,0,0,1-2.221.8h-.005Z" transform="translate(-270.265 -186.526)" fill="#fff"/>
              <path id="Path_1248523" data-name="Path 1248523" d="M549.94,392.782a.263.263,0,0,1-.251-.22.279.279,0,0,1,.2-.333c10-2.372,11.926-4.93,11.779-6.657a2.73,2.73,0,0,0-1.137-2.05c-4.1-3.094-17.383.6-17.514.644a.257.257,0,0,1-.314-.2.282.282,0,0,1,.183-.339,62.621,62.621,0,0,1,7.306-1.508c5.243-.74,8.825-.418,10.637.949a3.33,3.33,0,0,1,1.357,2.456c.241,2.84-3.855,5.28-12.182,7.256-.021,0-.037.006-.058.006Z" transform="translate(-258.464 -166.183)" fill="#fff"/>
              <path id="Path_1248524" data-name="Path 1248524" d="M596.048,429.606a.263.263,0,0,1-.141-.045,8.354,8.354,0,0,0-2.556-1.259,19.659,19.659,0,0,0-2.922-.491c-3.865-.457-8.684-1.022-11.994-7.623a30.638,30.638,0,0,1-2.221-7.358c-.77-3.62-1.5-7.036-3.939-8.408-2.168-1.214-5.609-.762-10.527,1.383a.252.252,0,0,1-.335-.152.287.287,0,0,1,.141-.361c5.138-2.242,8.615-2.676,10.957-1.361,2.65,1.491,3.4,5.031,4.2,8.775a29.939,29.939,0,0,0,2.173,7.216c3.184,6.341,7.846,6.895,11.6,7.335a18.939,18.939,0,0,1,3,.508,9.022,9.022,0,0,1,2.708,1.333.289.289,0,0,1,.073.384A.253.253,0,0,1,596.048,429.606Z" transform="translate(-267.371 -175.524)" fill="#fff"/>
              <path id="Path_1248525" data-name="Path 1248525" d="M559.788,362.049a20.524,20.524,0,0,1-6.369-1.6,27.8,27.8,0,0,0-5.122-1.5.272.272,0,0,1-.22-.311.259.259,0,0,1,.288-.237,28.245,28.245,0,0,1,5.222,1.525c4.221,1.519,8.2,2.959,9.967-.847.335-.723.052-2.185-.225-3.6-.382-1.954-.775-3.975.194-4.941.639-.638,1.77-.689,3.451-.158.3.1.681.237,1.168.412a37.225,37.225,0,0,0,12.837,2.682h.115A23.6,23.6,0,0,0,598.7,345.8a.245.245,0,0,1,.367.006.293.293,0,0,1-.005.4,24.092,24.092,0,0,1-17.964,7.832h-.115a37.615,37.615,0,0,1-13-2.71c-.482-.175-.859-.316-1.147-.407-1.472-.463-2.461-.452-2.954.034-.754.751-.387,2.614-.037,4.416.309,1.575.6,3.061.183,3.958a4.287,4.287,0,0,1-4.227,2.727Z" transform="translate(-261.027 -150.504)" fill="#fff"/>
              <path id="Path_1248526" data-name="Path 1248526" d="M560.281,414.158l-.068-.26L550.88,378.11l-10.8-7.685.031-.181a57.075,57.075,0,0,1,3.849-12.558c2.163-4.726,4.745-7.894,7.678-9.413,3.279-1.694,13.78-3.7,14.225-3.778l.2-.04.084.2a9.756,9.756,0,0,0,10.045,5.438c11.758-.966,13.56-6.544,13.575-6.6l.068-.22.215.028c.026,0,2.75.39,3.923.531a54.954,54.954,0,0,1,14.492,3.9,19.173,19.173,0,0,1,4.661,2.66,14.527,14.527,0,0,1,2.069,2.366,56.454,56.454,0,0,1,3.954,6.5c1.613,3,3.064,6.07,4,8.114.707,1.553,1.147,2.569,1.152,2.581l.126.288L604.233,377l8.872,22.66-.293.079-52.521,14.421Zm-19.635-44,10.674,7.595,9.317,35.726,51.74-14.207-8.862-22.626,20.169-6.753c-.178-.407-.534-1.214-1.021-2.276-.932-2.038-2.378-5.093-3.98-8.08a56.927,56.927,0,0,0-3.912-6.437,14.408,14.408,0,0,0-1.985-2.276,19.08,19.08,0,0,0-4.53-2.581,54.4,54.4,0,0,0-14.361-3.868c-.99-.119-3.074-.412-3.734-.5-.445,1.107-3,5.867-13.947,6.77A10.491,10.491,0,0,1,568,348.013a10.322,10.322,0,0,1-2.252-2.936c-1.461.282-10.925,2.157-13.905,3.7-2.823,1.462-5.327,4.54-7.437,9.153a56.182,56.182,0,0,0-3.771,12.231Z" transform="translate(-257.219 -149.438)"/>
              <path id="Path_1248527" data-name="Path 1248527" d="M596.286,246.926a5.38,5.38,0,0,0-3.567,2.756c-1.053,1.886-2.215,7.414-.419,11.079,2.179,4.444,11.91,5.33,14.439,5.274a.6.6,0,0,1,.44.96,4.629,4.629,0,0,0-.89,3.281,6.952,6.952,0,0,0,.817,2.716,1.846,1.846,0,0,1,.079,1.671c-.466,1.033-1.032,2.71-.461,3.851.875,1.75-.529,7.092,1.823,8.8.021.017.047.034.068.051a2.724,2.724,0,0,0,4.227-1.982c.319-1.926.9-4.658,1.807-6.008,1.487-2.213,6.63-5.528,6.138-8.25a6.758,6.758,0,0,0-.817-2.321,2.493,2.493,0,0,1-.178-2.242,2.842,2.842,0,0,0-.026-2.473c-.749-1.446-2.294.553-3.651-.988s1.587-4.32-.063-6.369c-2.132-2.643-5.793-1.112-8.94-3.653-2.7-2.174-7.1-6.9-10.831-6.16Z" transform="translate(-281.645 -107.46)" fill="#084e5e"/>
              <path id="Path_1248528" data-name="Path 1248528" d="M609.895,287.937a2.853,2.853,0,0,1-1.645-.531l-.073-.051c-1.576-1.146-1.587-3.67-1.6-5.9a8.324,8.324,0,0,0-.309-3.01c-.608-1.208-.084-2.9.456-4.105a1.549,1.549,0,0,0-.068-1.406,7.278,7.278,0,0,1-.854-2.835,4.93,4.93,0,0,1,.943-3.484.33.33,0,0,0,.031-.339.277.277,0,0,0-.257-.169h-.005c-2.357.051-12.381-.745-14.675-5.421-1.812-3.693-.686-9.356.429-11.35a5.624,5.624,0,0,1,3.745-2.885c3.179-.632,6.8,2.541,9.453,4.862.571.5,1.105.966,1.582,1.35a9.074,9.074,0,0,0,4.583,1.705c1.665.277,3.237.542,4.4,1.982.969,1.2.524,2.6.131,3.834-.33,1.028-.613,1.92-.079,2.524a1.684,1.684,0,0,0,1.88.435c.634-.124,1.357-.265,1.807.61a3.13,3.13,0,0,1,.037,2.722,2.184,2.184,0,0,0,.157,1.976,7.108,7.108,0,0,1,.854,2.422c.356,1.971-1.885,4.111-3.86,6a18.226,18.226,0,0,0-2.32,2.468c-.869,1.287-1.435,3.919-1.765,5.9a3.219,3.219,0,0,1-1.781,2.428A2.8,2.8,0,0,1,609.895,287.937Zm-3.373-22.383a.785.785,0,0,1,.717.48.93.93,0,0,1-.089.932,4.3,4.3,0,0,0-.838,3.077,6.731,6.731,0,0,0,.78,2.6,2.154,2.154,0,0,1,.094,1.942c-.4.892-1,2.541-.466,3.6a8.385,8.385,0,0,1,.372,3.269c.01,2.089.016,4.455,1.367,5.438l.068.051a2.32,2.32,0,0,0,2.352.215,2.68,2.68,0,0,0,1.477-2.016c.335-2.033.932-4.749,1.854-6.127a18.41,18.41,0,0,1,2.393-2.558c1.875-1.79,4-3.817,3.7-5.477a6.552,6.552,0,0,0-.78-2.225,2.788,2.788,0,0,1-.2-2.513,2.532,2.532,0,0,0-.016-2.219c-.262-.5-.6-.463-1.267-.333a2.159,2.159,0,0,1-2.352-.6c-.749-.853-.388-1.988-.037-3.089.367-1.146.739-2.326-.031-3.286-1.037-1.287-2.451-1.525-4.085-1.8a9.6,9.6,0,0,1-4.813-1.813c-.482-.39-1.027-.864-1.6-1.366-2.566-2.247-6.086-5.33-9.034-4.743l-.047-.277.047.277a5.123,5.123,0,0,0-3.394,2.626c-1.058,1.9-2.137,7.29-.414,10.8,2.016,4.111,11.119,5.195,14.2,5.127h.016Z" transform="translate(-281.417 -107.256)"/>
              <path id="Path_1248529" data-name="Path 1248529" d="M603.872,297.86a1.637,1.637,0,0,1,1.857,1.443,1.733,1.733,0,0,1-1.338,2,1.637,1.637,0,0,1-1.857-1.443,1.734,1.734,0,0,1,1.338-2" transform="translate(-286.954 -129.66)" fill="#f7b28f"/>
              <path id="Path_1248530" data-name="Path 1248530" d="M602.771,285.377c.236-.452,1.335-.277,2.456.4s1.838,1.587,1.608,2.038-1.336.277-2.456-.4-1.838-1.587-1.608-2.038" transform="translate(-287.056 -124.126)"/>
              <path id="Path_1248531" data-name="Path 1248531" d="M587.471,279.318c.115-.5,1.22-.649,2.462-.316s2.163,1.005,2.048,1.513-1.22.649-2.461.316-2.163-1.005-2.048-1.513" transform="translate(-279.785 -121.382)"/>
              <path id="Path_1248532" data-name="Path 1248532" d="M588.2,294.664a.213.213,0,0,1-.1-.023c-.272-.124-.545-.226-.8-.328-.927-.361-1.723-.678-1.906-1.434-.3-1.276,1.006-1.728,2.163-2.129a4.546,4.546,0,0,0,1.807-.909,9.654,9.654,0,0,0,1.938-3.755.259.259,0,0,1,.314-.2.282.282,0,0,1,.189.339,10.212,10.212,0,0,1-2.064,4,4.7,4.7,0,0,1-2.027,1.056c-1.247.429-1.99.74-1.817,1.457.115.474.759.728,1.582,1.05.267.107.539.215.822.339a.287.287,0,0,1,.141.361.262.262,0,0,1-.241.175Z" transform="translate(-278.777 -124.452)"/>
              <path id="Path_1248533" data-name="Path 1248533" d="M589.163,304.882a3.683,3.683,0,0,1-2.451-.909.3.3,0,0,1-.021-.4.249.249,0,0,1,.367-.023,3.263,3.263,0,0,0,2.975.655c1.76-.423,2.085-.949,2.09-.954a.248.248,0,0,1,.346-.119.3.3,0,0,1,.115.378c-.058.124-.44.757-2.43,1.237a4.144,4.144,0,0,1-.979.119Z" transform="translate(-279.388 -131.954)"/>
              <path id="Path_1248534" data-name="Path 1248534" d="M598.928,292.821a.928.928,0,0,1-1.168.666,1.046,1.046,0,0,1-.45-1.344.928.928,0,0,1,1.168-.666,1.046,1.046,0,0,1,.45,1.344" transform="translate(-284.439 -126.867)"/>
              <path id="Path_1248535" data-name="Path 1248535" d="M589.168,290a.928.928,0,0,1-1.168.666,1.046,1.046,0,0,1-.45-1.344.928.928,0,0,1,1.168-.666,1.046,1.046,0,0,1,.45,1.344" transform="translate(-279.791 -125.639)"/>
              <path id="Path_1248536" data-name="Path 1248536" d="M491.983,328.8s-1.76-13.428-2.43-15.726a5.728,5.728,0,0,0-3.5-3.857,2.109,2.109,0,0,1-1.372-1.3c-1.9-5.6-4.8-11.05-7.343-9.661-2.7,1.479,2.242,12.778,2.242,12.778a1.831,1.831,0,0,0-2.158-.22c-1.425.615-1.126,3-1.126,3a1.918,1.918,0,0,0-2.614-.83c-1.739.774-1.089,3.269-1.089,3.269a2.114,2.114,0,0,0-1.493-.813,2.81,2.81,0,0,0-2.818,3.179c.377,6.189,8.306,17.313,8.306,17.313s10.543,48.86,16.147,54.953c4.4,4.783,17.639,6.889,22.28-2.7,3.907-8.075-16.76-47.093-23.034-59.38Z" transform="translate(-223.023 -129.744)" fill="#fec4a7"/>
              <path id="Path_1248537" data-name="Path 1248537" d="M503.3,394.982c-4.253,0-8.668-1.592-10.993-4.122-5.541-6.031-15.613-52.316-16.2-55.026-.272-.39-2.126-3.038-4-6.313-2.718-4.754-4.174-8.493-4.331-11.107a3.5,3.5,0,0,1,.927-2.631,2.6,2.6,0,0,1,2.174-.841,2.34,2.34,0,0,1,1.1.384,2.7,2.7,0,0,1,1.362-2.818,2.09,2.09,0,0,1,2.43.311,2.673,2.673,0,0,1,1.309-2.485,2.42,2.42,0,0,1,1.7-.158c-1.131-2.722-4.31-11.011-1.807-12.389a1.972,1.972,0,0,1,1.8-.068c2.7,1.146,5.028,7.29,5.908,9.876a1.831,1.831,0,0,0,1.2,1.135,6,6,0,0,1,3.671,4.037c.66,2.247,2.3,14.687,2.435,15.72.435.847.932,1.818,1.487,2.9,3.76,7.318,10.056,19.56,14.958,30.91,6.044,14,8.191,22.44,6.568,25.794a11.922,11.922,0,0,1-9.176,6.691,15.562,15.562,0,0,1-2.524.2Zm-32.676-79.5a2.14,2.14,0,0,0-1.561.7,2.951,2.951,0,0,0-.77,2.2c.367,6.036,8.176,17.053,8.254,17.16l.037.045.01.056c.1.486,10.59,48.849,16.079,54.818,2.687,2.919,8.306,4.54,13.073,3.761a11.4,11.4,0,0,0,8.794-6.4c1.524-3.145-.691-11.655-6.578-25.3-4.892-11.333-11.182-23.563-14.942-30.87-.566-1.1-1.074-2.084-1.508-2.942l-.021-.045v-.051c-.026-.136-1.77-13.428-2.43-15.681a5.454,5.454,0,0,0-3.326-3.67,2.356,2.356,0,0,1-1.54-1.479c-1.781-5.246-3.876-8.814-5.609-9.554a1.487,1.487,0,0,0-1.372.045c-.958.525-.875,2.874.241,6.607a58.1,58.1,0,0,0,2.121,5.8l.691,1.581-1.116-1.276a1.632,1.632,0,0,0-1.875-.158c-1.226.531-.969,2.688-.964,2.7l.2,1.558-.681-1.395a1.665,1.665,0,0,0-2.284-.706c-1.508.672-.948,2.914-.943,2.936l.314,1.214-.759-.96a1.879,1.879,0,0,0-1.32-.717c-.068-.006-.136-.011-.209-.011Z" transform="translate(-222.785 -129.528)"/>
              <path id="Path_1248538" data-name="Path 1248538" d="M473.99,337.173s2.383,1,3.383-.5-2.064-6.386-2.064-6.386Z" transform="translate(-225.743 -143.788)" fill="#fec4a7"/>
              <path id="Path_1248539" data-name="Path 1248539" d="M475.4,337.569a4.846,4.846,0,0,1-1.728-.35.287.287,0,0,1-.147-.361.255.255,0,0,1,.335-.158c.021.011,2.21.9,3.08-.4.655-.977-.922-4.241-2.064-6.064a.3.3,0,0,1,.068-.39.254.254,0,0,1,.361.073c.325.52,3.132,5.093,2.058,6.7a2.226,2.226,0,0,1-1.959.943Z" transform="translate(-225.513 -143.573)"/>
              <path id="Path_1248540" data-name="Path 1248540" d="M483.561,325.97s2.519,4.562,2.163,5.7-1.582,1.852-2.195,1.474l.031-7.166Z" transform="translate(-230.287 -141.907)" fill="#fec4a7"/>
              <path id="Path_1248541" data-name="Path 1248541" d="M483.675,333.307a.966.966,0,0,1-.524-.141.285.285,0,0,1-.094-.378.244.244,0,0,1,.351-.1.747.747,0,0,0,.649-.017,2.144,2.144,0,0,0,1.168-1.3c.126-.39-.346-2.219-2.142-5.466a.3.3,0,0,1,.089-.384.252.252,0,0,1,.356.1c.005.011.644,1.163,1.226,2.445,1.22,2.665,1.021,3.281.958,3.484a2.7,2.7,0,0,1-1.477,1.643,1.56,1.56,0,0,1-.571.119Z" transform="translate(-230.044 -141.694)"/>
              <path id="Path_1248542" data-name="Path 1248542" d="M499.007,321.269c-1-1.784-4.305-1.491-6.107.361-1.692,1.734-4.829,4.421-2.9,6.776s4.787-4.754,6.29-1.8a6.457,6.457,0,0,1,.372,1.451l2.352-6.787Z" transform="translate(-233.079 -139.341)" fill="#fec4a7"/>
              <path id="Path_1248543" data-name="Path 1248543" d="M490.653,328.965h-.079a1.419,1.419,0,0,1-1.016-.582c-1.912-2.338.686-4.93,2.409-6.646.178-.181.351-.35.513-.514a5.442,5.442,0,0,1,4.457-1.587,2.7,2.7,0,0,1,2.048,1.282.291.291,0,0,1-.089.384.248.248,0,0,1-.356-.1,2.2,2.2,0,0,0-1.676-1.022,4.919,4.919,0,0,0-4.033,1.44c-.162.164-.335.339-.518.519-2.079,2.078-3.829,4.088-2.373,5.867a.914.914,0,0,0,.66.39c.66.04,1.461-.745,2.242-1.5.864-.841,1.686-1.638,2.467-1.5a1.428,1.428,0,0,1,.958.858l.01.023a7.327,7.327,0,0,1,.393,1.525.274.274,0,0,1-.215.316.259.259,0,0,1-.293-.231,7.049,7.049,0,0,0-.346-1.372c-.178-.344-.367-.525-.587-.565-.534-.1-1.294.644-2.032,1.361-.833.813-1.692,1.649-2.54,1.649Z" transform="translate(-232.838 -139.131)"/>
              <path id="Path_1248544" data-name="Path 1248544" d="M489.86,321.05s.545.378,1.535,2.778Z" transform="translate(-233.301 -139.765)" fill="#fec4a7"/>
              <path id="Path_1248545" data-name="Path 1248545" d="M491.158,323.9a.258.258,0,0,1-.236-.164,7.863,7.863,0,0,0-1.44-2.665.293.293,0,0,1-.063-.384.247.247,0,0,1,.351-.079c.063.045.639.491,1.629,2.9a.286.286,0,0,1-.131.367.221.221,0,0,1-.1.023Z" transform="translate(-233.07 -139.554)"/>
              <path id="Path_1248546" data-name="Path 1248546" d="M631.063,422.515c-1.11-7.973-10.14-28.905-10.569-30.735L602.2,397.94l7.662,19.571c-2.42.452-30.8,8.622-44.355,12.355-3.6-.937-14.549-3.06-17.388-2.038s-11.554,4.9-11.554,4.9l3.221,7.555,19.965-.457a2.76,2.76,0,0,1,.932.13c2.535.853,27.91,1.445,49.451-.311,22.767-1.852,21.609-12.191,20.923-17.138Z" transform="translate(-255.548 -170.556)" fill="#fec4a7"/>
              <path id="Path_1248547" data-name="Path 1248547" d="M579.7,440.79c-10.333,0-18.1-.4-19.4-.841a2.525,2.525,0,0,0-.848-.119l-20.133.463-3.4-7.984.246-.113c.089-.039,8.752-3.9,11.569-4.907,2.86-1.028,13.591,1.016,17.472,2.016,5.389-1.485,13.114-3.665,20.588-5.777,10.831-3.06,21.091-5.963,23.406-6.5l-7.652-19.537,18.823-6.341.068.288c.115.48.922,2.53,1.948,5.127,2.922,7.414,7.819,19.814,8.626,25.636.314,2.242.89,6.415-1.8,10.051-3.043,4.116-9.558,6.607-19.357,7.4-10.291.836-21.185,1.141-30.141,1.141Zm-20.185-1.519a3.065,3.065,0,0,1,.932.141c2.477.836,28.1,1.412,49.357-.322,9.652-.785,16.042-3.207,19-7.194,2.551-3.45,2.016-7.312,1.692-9.622-.8-5.748-5.871-18.594-8.595-25.5-.964-2.445-1.645-4.173-1.891-4.929l-17.77,5.985,7.678,19.611-.32.062c-1.446.271-12.245,3.326-23.683,6.556-7.5,2.117-15.256,4.314-20.651,5.793l-.063.017-.063-.017c-3.661-.954-14.508-3.032-17.247-2.044-2.53.909-9.846,4.145-11.287,4.783l3.038,7.126,19.792-.457h.084Z" transform="translate(-255.233 -170.282)"/>
              <path id="Path_1248548" data-name="Path 1248548" d="M507.1,474.411H428.27V470.56h75.256a3.721,3.721,0,0,1,3.572,3.851" transform="translate(-203.969 -204.852)" fill="#084e5e"/>
              <path id="Path_1248549" data-name="Path 1248549" d="M507.126,474.47H427.78v-4.41h76.848a2.6,2.6,0,0,1,2.5,2.693Zm-78.828-.559h78.309v-1.163a2.063,2.063,0,0,0-1.98-2.134H428.3Z" transform="translate(-203.735 -204.635)"/>
              <path id="Path_1248550" data-name="Path 1248550" d="M411.726,429.55H473.6l-18.98-51.655a2.25,2.25,0,0,0-2.084-1.525H395.48a2.4,2.4,0,0,0-2.085,3.3l18.326,49.882Z" transform="translate(-187.283 -163.848)" fill="#084e5e"/>
              <path id="Path_1248551" data-name="Path 1248551" d="M473.759,429.615h-62.43l-.063-.175-18.326-49.882a2.877,2.877,0,0,1,.257-2.507,2.446,2.446,0,0,1,2.064-1.18h57.056a2.487,2.487,0,0,1,2.32,1.7l19.116,52.039Zm-62.079-.559H473L454.16,377.779a1.985,1.985,0,0,0-1.844-1.35H395.261a1.918,1.918,0,0,0-1.639.937,2.238,2.238,0,0,0-.2,1.988Z" transform="translate(-187.059 -163.63)"/>
            </g>
          </g>
          <g id="Group_1200890" data-name="Group 1200890" transform="translate(270.29 147.52)">
            <g id="Group_1200889" data-name="Group 1200889" clip-path="url(#clip-path-8)">
              <rect id="Rectangle_411871" data-name="Rectangle 411871" width="24.475" height="23.98" transform="translate(-1.202)" fill="#c8a0e6"/>
            </g>
          </g>
          <g id="Group_1200892" data-name="Group 1200892">
            <g id="Group_1200891" data-name="Group 1200891" clip-path="url(#clip-path)">
              <path id="Path_1248553" data-name="Path 1248553" d="M524.136,284.632c-6.091,0-11.664-4.433-13.24-11.079a15.632,15.632,0,0,1,1.477-11.163,13.736,13.736,0,0,1,8.369-6.77,12.728,12.728,0,0,1,10.354,1.592,14.583,14.583,0,0,1,6.28,9.023,15.7,15.7,0,0,1-1.912,11.9c1.048,3.546,1.288,5.618.718,6.149-.361.339-1.283.525-5.106-1.688a13.135,13.135,0,0,1-3.551,1.581,12.823,12.823,0,0,1-3.394.463Zm.021-28.928a12.19,12.19,0,0,0-3.289.452,13.206,13.206,0,0,0-8.05,6.511,15.082,15.082,0,0,0-1.425,10.746c1.8,7.572,8.982,12.157,16.005,10.215a12.716,12.716,0,0,0,3.54-1.6l.126-.085.131.073c3.876,2.264,4.551,1.925,4.651,1.835.3-.282.141-2.151-.911-5.686l-.037-.13.073-.113a15.105,15.105,0,0,0,1.906-11.553,14.02,14.02,0,0,0-6.039-8.679,12.364,12.364,0,0,0-6.678-1.982Z" transform="translate(-243.113 -111.077)"/>
              <path id="Path_1248554" data-name="Path 1248554" d="M536.983,276.889a5.233,5.233,0,0,1-.649,2.547,11.576,11.576,0,0,0-1.43,4.845c-.016.248-.026.5-.021.745V286a2.192,2.192,0,0,1-2.105,2.27h-.686a2.192,2.192,0,0,1-2.105-2.27v-.672a10.068,10.068,0,0,0-.052-1.05,12.512,12.512,0,0,0-1.571-4.828,5.306,5.306,0,0,1-.6-3.371,4.627,4.627,0,0,1,9.218.813Z" transform="translate(-251.326 -118.366)" fill="#fff"/>
              <path id="Path_1248555" data-name="Path 1248555" d="M532.537,288.326h-.686a2.465,2.465,0,0,1-2.362-2.552V285.1a9.659,9.659,0,0,0-.052-1.016,12.078,12.078,0,0,0-1.54-4.715,5.59,5.59,0,0,1-.634-3.557,5.129,5.129,0,0,1,4.274-4.393,4.645,4.645,0,0,1,3.823,1.31,5.469,5.469,0,0,1,1.629,3.93,5.546,5.546,0,0,1-.686,2.688,11.493,11.493,0,0,0-1.4,4.721c-.016.271-.021.508-.021.728v.977a2.469,2.469,0,0,1-2.367,2.552Zm-.424-16.381c-.168,0-.335.011-.508.028a4.575,4.575,0,0,0-3.823,3.924,5.014,5.014,0,0,0,.566,3.185,12.638,12.638,0,0,1,1.608,4.941,9.486,9.486,0,0,1,.052,1.079v.672a1.924,1.924,0,0,0,1.844,1.993h.686a1.925,1.925,0,0,0,1.849-1.993V284.8c0-.226.005-.48.021-.768a11.973,11.973,0,0,1,1.466-4.969,5.005,5.005,0,0,0,.613-2.4,4.91,4.91,0,0,0-1.461-3.518,4.154,4.154,0,0,0-2.912-1.2Z" transform="translate(-251.085 -118.142)"/>
              <path id="Path_1248556" data-name="Path 1248556" d="M534.853,289.323a.181.181,0,0,1-.173-.169,44.652,44.652,0,0,1-.115-4.517,3.058,3.058,0,0,1-.393.028,3.8,3.8,0,0,1-.513-.034c.073,1.892-.089,4.133-.115,4.517a.175.175,0,0,1-.183.169.18.18,0,0,1-.157-.2,45.347,45.347,0,0,0,.11-4.551,2.905,2.905,0,0,1-1.629-1.022,1.109,1.109,0,0,1,.1-1.553.99.99,0,0,1,.739-.265.883.883,0,0,1,.644.327,4.648,4.648,0,0,1,.471,2.2,3.065,3.065,0,0,0,.948.006,4.662,4.662,0,0,1,.477-2.208.873.873,0,0,1,.644-.327.983.983,0,0,1,.739.265,1.1,1.1,0,0,1,.1,1.553,2.888,2.888,0,0,1-1.629,1.028,45.346,45.346,0,0,0,.11,4.551.18.18,0,0,1-.157.2Zm.911-7.228h-.037a.534.534,0,0,0-.4.2,4.165,4.165,0,0,0-.382,1.886,2.548,2.548,0,0,0,1.346-.881.722.722,0,0,0-.068-1.039.652.652,0,0,0-.45-.169Zm-3.3,0a.653.653,0,0,0-.45.169.722.722,0,0,0-.068,1.039,2.54,2.54,0,0,0,1.346.875,4.118,4.118,0,0,0-.382-1.88.543.543,0,0,0-.408-.2Z" transform="translate(-253.092 -122.646)"/>
            </g>
          </g>
          <g id="Group_1200894" data-name="Group 1200894" transform="translate(279.02 166.376)">
            <g id="Group_1200893" data-name="Group 1200893" clip-path="url(#clip-path-10)">
              <rect id="Rectangle_411873" data-name="Rectangle 411873" width="4.216" height="3.144" transform="translate(0 0)" fill="url(#linear-gradient-2)"/>
            </g>
          </g>
          <g id="Group_1200896" data-name="Group 1200896">
            <g id="Group_1200895" data-name="Group 1200895" clip-path="url(#clip-path)">
              <path id="Path_1248558" data-name="Path 1248558" d="M534.4,297.877h-.686a2.465,2.465,0,0,1-2.362-2.552v-.678a9.66,9.66,0,0,0-.052-1.016l-.031-.311H536.8l-.016.3c-.016.271-.026.508-.021.728v.977a2.465,2.465,0,0,1-2.362,2.552m-2.556-3.992c.021.26.026.519.026.774v.672a1.924,1.924,0,0,0,1.844,1.993h.686a1.925,1.925,0,0,0,1.849-1.993v-1.446Z" transform="translate(-253.023 -127.693)"/>
              <path id="Path_1248559" data-name="Path 1248559" d="M522.585,274.426l-2.545-.486Z" transform="translate(-247.675 -119.256)" fill="#fff"/>
              <path id="Path_1248560" data-name="Path 1248560" d="M522.348,274.49H522.3L519.756,274a.275.275,0,0,1-.21-.322.258.258,0,0,1,.3-.226l2.545.486a.275.275,0,0,1,.21.322.265.265,0,0,1-.257.232Z" transform="translate(-247.438 -119.044)"/>
              <path id="Path_1248561" data-name="Path 1248561" d="M535.94,265.234v0Z" transform="translate(-255.248 -114.254)" fill="#fff"/>
              <path id="Path_1248562" data-name="Path 1248562" d="M535.707,265.3a.268.268,0,0,1-.257-.277v-2.784a.257.257,0,1,1,.513,0v2.784a.268.268,0,0,1-.257.277" transform="translate(-255.014 -114.041)"/>
              <path id="Path_1248563" data-name="Path 1248563" d="M527.752,267.641l-1.482-2.281Z" transform="translate(-250.642 -115.521)" fill="#fff"/>
              <path id="Path_1248564" data-name="Path 1248564" d="M527.519,267.7a.239.239,0,0,1-.209-.119l-1.482-2.281a.3.3,0,0,1,.063-.39.248.248,0,0,1,.361.068l1.482,2.281a.3.3,0,0,1-.063.39.245.245,0,0,1-.147.051Z" transform="translate(-250.409 -115.303)"/>
              <path id="Path_1248565" data-name="Path 1248565" d="M548.24,274.426l2.545-.486Z" transform="translate(-261.106 -119.256)" fill="#fff"/>
              <path id="Path_1248566" data-name="Path 1248566" d="M548,274.485a.281.281,0,0,1-.047-.553l2.545-.486a.259.259,0,0,1,.3.226.275.275,0,0,1-.209.322l-2.545.486H548Z" transform="translate(-260.868 -119.039)"/>
              <path id="Path_1248567" data-name="Path 1248567" d="M544.04,267.641l1.482-2.281Z" transform="translate(-259.105 -115.521)" fill="#fff"/>
              <path id="Path_1248568" data-name="Path 1248568" d="M543.807,267.7a.233.233,0,0,1-.147-.051.294.294,0,0,1-.063-.39l1.482-2.281a.248.248,0,0,1,.361-.068.294.294,0,0,1,.063.39l-1.482,2.281a.251.251,0,0,1-.21.119Z" transform="translate(-258.872 -115.303)"/>
              <path id="Path_1248569" data-name="Path 1248569" d="M180.246,270.68h-.257a1.665,1.665,0,0,1,0-3.32h.257Zm-.513-2.727a1.127,1.127,0,0,0,0,2.134Z" transform="translate(-84.989 -116.392)" fill="#fff"/>
              <path id="Path_1248570" data-name="Path 1248570" d="M616.048,283.548a.267.267,0,0,1-.257-.26c-.173-2.609,1.33-5.647,2.661-8.329.508-1.033,1-2,1.32-2.846.906-2.315.251-2.688-1.917-3.936-.377-.215-.8-.457-1.257-.74-1.854-1.129-2.011-2.309-2.221-3.936a15.331,15.331,0,0,0-1.32-4.873c-1.137-2.5-2.912-2.168-5.368-1.705a12.05,12.05,0,0,1-6.138.011,5.6,5.6,0,0,1-4-3.467,7.246,7.246,0,0,1,.288-4.625,11.792,11.792,0,0,1,1.058-2.236.253.253,0,0,1,.361-.073.3.3,0,0,1,.068.39c-.021.034-2.221,3.529-1.288,6.364A5.1,5.1,0,0,0,601.7,256.4a11.633,11.633,0,0,0,5.9-.028c2.477-.463,4.614-.864,5.918,2.01a15.8,15.8,0,0,1,1.367,5.042c.2,1.575.33,2.53,1.964,3.529.45.277.875.52,1.247.734,2.158,1.237,3.242,1.858,2.153,4.642-.335.864-.827,1.846-1.341,2.891-1.294,2.614-2.765,5.579-2.6,8.024a.276.276,0,0,1-.241.3h-.016Z" transform="translate(-284.469 -107.305)"/>
              <path id="Path_1248571" data-name="Path 1248571" d="M609.857,293.111a.245.245,0,0,1-.147-.051c-1.514-1.112-1.189-5.522-.9-9.419.162-2.18.314-4.241.047-4.935a5.235,5.235,0,0,1,.094-3.58,22.832,22.832,0,0,0,.649-3.286,3.8,3.8,0,0,0-1.047-3.19c-1.634-1.694-4.766-2.276-8.584-1.587a6.639,6.639,0,0,1-5.609-1.231c-2.734-2.219-3.2-6.273-3.221-6.443a.276.276,0,0,1,.225-.311.264.264,0,0,1,.288.243c0,.039.461,3.992,3.017,6.064a6.2,6.2,0,0,0,5.211,1.124c3.986-.717,7.275-.085,9.029,1.733a4.374,4.374,0,0,1,1.2,3.665,23.327,23.327,0,0,1-.665,3.365,4.632,4.632,0,0,0-.11,3.219c.314.819.173,2.75-.01,5.195-.251,3.371-.592,7.979.676,8.91a.294.294,0,0,1,.068.39A.259.259,0,0,1,609.857,293.111Z" transform="translate(-281.536 -112.786)"/>
              <path id="Path_1248572" data-name="Path 1248572" d="M619.548,295.046c1.382-1.851,3.664-2.343,5.1-1.1s1.475,3.752.093,5.6-3.664,2.343-5.1,1.1-1.475-3.753-.093-5.6" transform="translate(-294.586 -127.667)" fill="#fec4a7"/>
              <path id="Path_1248573" data-name="Path 1248573" d="M621.266,301.39a3.04,3.04,0,0,1-2.027-.751,3.7,3.7,0,0,1-1.2-2.784,5.294,5.294,0,0,1,1.068-3.213c1.472-1.971,3.918-2.485,5.463-1.146s1.6,4.026.131,6a4.648,4.648,0,0,1-2.682,1.813,3.5,3.5,0,0,1-.754.085m1.278-8.08a3.9,3.9,0,0,0-3.027,1.683,4.705,4.705,0,0,0-.953,2.852,3.111,3.111,0,0,0,1.006,2.36,2.653,2.653,0,0,0,2.357.553,4.1,4.1,0,0,0,2.378-1.615c1.294-1.728,1.267-4.066-.052-5.212a2.564,2.564,0,0,0-1.707-.627Z" transform="translate(-294.348 -127.445)"/>
              <path id="Path_1248574" data-name="Path 1248574" d="M621.538,300.209a.271.271,0,0,1-.183-.079.293.293,0,0,1,0-.4,1.319,1.319,0,0,0,.346-.757.36.36,0,0,0-.162-.271.391.391,0,0,0-.346-.1.929.929,0,0,0-.471.418.25.25,0,0,1-.335.107.289.289,0,0,1-.131-.35,3.377,3.377,0,0,1,.728-1.112,3.49,3.49,0,0,1,2.739-1.011.27.27,0,0,1,.251.288.268.268,0,0,1-.267.271,3.027,3.027,0,0,0-2.341.83,1,1,0,0,1,.477.209.949.949,0,0,1,.377.672,1.8,1.8,0,0,1-.492,1.191.246.246,0,0,1-.183.085Z" transform="translate(-295.396 -129.144)"/>
              <path id="Path_1248575" data-name="Path 1248575" d="M630.108,265.568a.23.23,0,0,1-.12-.034.291.291,0,0,1-.1-.378c1.084-2.174,1.225-4.517.346-5.822a1.932,1.932,0,0,0-2.116-.836,18.676,18.676,0,0,1-6.961-.542.289.289,0,0,1-.189-.339.265.265,0,0,1,.314-.2c.042.011,3.986,1.067,6.746.536a2.446,2.446,0,0,1,2.629,1.056c1,1.479.87,4.054-.309,6.415a.252.252,0,0,1-.225.147Z" transform="translate(-295.738 -112.059)"/>
              <path id="Path_1248576" data-name="Path 1248576" d="M635.6,296.466a.278.278,0,0,1-.094-.017.289.289,0,0,1-.147-.361c.026-.079.723-1.886,4.7-3.6a4.41,4.41,0,0,0,2.671-3.761,2.9,2.9,0,0,0-1.7-2.761.293.293,0,0,1-.126-.373.255.255,0,0,1,.346-.136,3.46,3.46,0,0,1,2,3.281,4.991,4.991,0,0,1-3,4.263c-3.771,1.621-4.4,3.269-4.41,3.281a.262.262,0,0,1-.241.175Z" transform="translate(-302.591 -124.261)"/>
              <path id="Path_1248577" data-name="Path 1248577" d="M149.653,230.469c-3.5,1.9-11.59-.136-14.481-1.479a1.32,1.32,0,0,1,.11-.079,4.426,4.426,0,0,0,1.341-4.8l-3.148-10.045a4.636,4.636,0,0,1-.084-1.225,6.556,6.556,0,0,1,4.949-5.607l5.782-2.383c.079.254.168.508.257.774,1.388,4.145,3.624,9.825,4.384,11.739.016.04.031.073.047.113.141.35.22.548.22.548.2.779,2.991.215,3.949.113C153.168,221.705,154.068,228.08,149.653,230.469Z" transform="translate(-63.524 -89.179)" fill="#fec4a7"/>
              <path id="Path_1248578" data-name="Path 1248578" d="M145.445,231.229a29.478,29.478,0,0,1-10.6-2.259l-.419-.2.372-.288c.042-.028.079-.062.12-.09,1.241-.892,1.7-2.569,1.231-4.489L133,213.849a5.177,5.177,0,0,1-.089-1.3,6.831,6.831,0,0,1,5.133-5.856l6.013-2.479.089.271c.068.209.136.418.21.632l.047.141c1.414,4.229,3.708,10.04,4.378,11.722l.047.113c.141.35.22.548.22.548l.01.034c.047.192.618.344,3.053-.006.246-.034.461-.068.623-.085l.267-.028.016.294c.016.333.042.695.068,1.073.246,3.693.618,9.272-3.535,11.525a8.9,8.9,0,0,1-4.1.785Zm-9.972-2.586c3.341,1.412,10.669,3.015,13.837,1.3,3.844-2.084,3.488-7.442,3.252-10.988-.016-.271-.037-.536-.052-.791-.1.017-.22.028-.34.051-1.838.265-3.383.418-3.614-.373-.021-.051-.094-.237-.215-.536l-.047-.113c-.67-1.683-2.97-7.51-4.389-11.756l-.047-.141c-.042-.124-.084-.248-.12-.367l-5.573,2.293a6.264,6.264,0,0,0-4.745,5.353,4.347,4.347,0,0,0,.079,1.135l3.142,10.028a4.838,4.838,0,0,1-1.168,4.9Z" transform="translate(-63.296 -88.9)"/>
            </g>
          </g>
          <g id="Group_1200898" data-name="Group 1200898" transform="translate(47.368 136.905)">
            <g id="Group_1200897" data-name="Group 1200897" clip-path="url(#clip-path-12)">
              <rect id="Rectangle_411875" data-name="Rectangle 411875" width="34.57" height="62.829" transform="translate(-0.765 0)" fill="#c8a0e6"/>
            </g>
          </g>
          <g id="Group_1200900" data-name="Group 1200900">
            <g id="Group_1200899" data-name="Group 1200899" clip-path="url(#clip-path)">
              <path id="Path_1248580" data-name="Path 1248580" d="M146.374,305.856l-.414-.339c-.094-.079-9.731-7.979-19.7-18.171-.581-.593-1.178-1.214-1.828-1.892a127.252,127.252,0,0,1-15.34-18.888c-3.64-5.743-3.986-10.74-1.121-16.211,2.278-4.359,7.594-8.165,13.743-12.569.4-.288.807-.576,1.21-.87l.12-.085.131.062c2.865,1.372,8.2,3.382,11.685,1.491,2.325-1.259,5.007-4.241,4.588-11.3l-.016-.243.225-.045a1.939,1.939,0,0,0,.241-.062,36.167,36.167,0,0,1,6.185-1.491l.293-.04v80.656Zm-23.285-68.392c-.367.265-.733.525-1.095.785-6.1,4.365-11.36,8.131-13.581,12.377-2.792,5.33-2.462,10.006,1.1,15.624a126.114,126.114,0,0,0,15.272,18.8c.649.678,1.246,1.293,1.828,1.886,8.773,8.973,17.289,16.166,19.242,17.787V225.832a37.06,37.06,0,0,0-5.808,1.429c-.021.006-.047.017-.073.023.162,3.365-.3,9.114-4.886,11.6C131.458,240.847,126.068,238.871,123.088,237.464Z" transform="translate(-50.514 -98.038)"/>
              <path id="Path_1248581" data-name="Path 1248581" d="M153.5,199.079a.277.277,0,0,0,.351.2c1.377-.486,5.452-2.038,5.557-3.049.115-1.1-1.184-4.63.11-3.546s.7,2.456,1.849,2.3c.869-.119,3.666-2.016,4.986-2.942a.309.309,0,0,0-.115-.553c-1.4-.2-4.211-1.107-5.154-5.195-1.283-5.539.911-9.21-3.483-11.242s-12.056-8.583-12.963-9.1c-.859-.486,7.9,29.831,8.856,33.129Z" transform="translate(-68.856 -72.244)" fill="#084e5e"/>
              <path id="Path_1248582" data-name="Path 1248582" d="M153.55,199.344a.55.55,0,0,1-.246-.062.555.555,0,0,1-.267-.344c-.456-1.564-2.828-9.769-5-17.6-4.284-15.4-4.028-15.624-3.808-15.822a.269.269,0,0,1,.319-.034c.267.152.99.723,2.09,1.581,2.687,2.112,7.694,6.042,10.857,7.5,3.043,1.406,3.085,3.636,3.137,6.454a22.778,22.778,0,0,0,.492,4.98c.9,3.862,3.478,4.783,4.939,4.986a.559.559,0,0,1,.456.446.6.6,0,0,1-.23.615c-1.854,1.3-4.242,2.868-5.1,2.987-.817.107-1.011-.457-1.178-.96a2.771,2.771,0,0,0-.864-1.4,1.31,1.31,0,0,0-.157-.119,8.561,8.561,0,0,0,.225,1.6,7.672,7.672,0,0,1,.241,1.88c-.12,1.141-3.645,2.547-5.735,3.286a.579.579,0,0,1-.168.028Zm-.021-.57a.082.082,0,0,0,.01.017c3.027-1.062,5.337-2.27,5.4-2.818a7.948,7.948,0,0,0-.23-1.7c-.257-1.3-.372-1.988-.005-2.23.293-.2.634.09.765.2a3.334,3.334,0,0,1,1.032,1.649c.178.525.236.649.628.6.571-.079,2.4-1.158,4.881-2.9.005,0,.01-.011.01-.023s-.01-.017-.016-.017c-1.283-.181-4.368-1.067-5.374-5.4a23.75,23.75,0,0,1-.508-5.1c-.052-2.823-.089-4.687-2.828-5.952-3.216-1.491-8.06-5.3-10.957-7.566-.7-.553-1.3-1.022-1.676-1.3.414,2.756,4.635,17.922,8.872,32.558Z" transform="translate(-68.641 -72.024)"/>
              <path id="Path_1248583" data-name="Path 1248583" d="M150.958,218.089c-4.384.322-9.642-.412-12.528-4.856a6.556,6.556,0,0,1,4.949-5.607l3.4-1.406c1.388,4.145,4.158,11.835,4.174,11.869" transform="translate(-65.929 -89.775)" fill="#084e5e"/>
              <path id="Path_1248584" data-name="Path 1248584" d="M122.074,190.27c3.708,7.962,13.769,9.17,18.053,7.1,5.546-2.671,4.845-9.56,1.6-17.747-5.4-13.642-12.345-15.15-17.77-12.214s-5.594,14.89-1.88,22.852Z" transform="translate(-56.936 -72.334)" fill="#fec4a7"/>
              <path id="Path_1248585" data-name="Path 1248585" d="M135.306,198.319c-4.818,0-10.951-2.242-13.7-8.137a29.267,29.267,0,0,1-2.514-13.456c.283-4.811,1.927-8.374,4.509-9.774a9.192,9.192,0,0,1,7.95-.666c3.944,1.559,7.364,5.935,10.171,13.021,3.865,9.763,3.3,15.686-1.734,18.109a11.105,11.105,0,0,1-4.687.9Zm-6.95-32.09a9.478,9.478,0,0,0-4.525,1.22c-2.414,1.3-3.954,4.7-4.227,9.311a28.666,28.666,0,0,0,2.456,13.168c2.65,5.686,8.558,7.843,13.2,7.849a10.708,10.708,0,0,0,4.515-.87c4.719-2.276,5.2-7.956,1.466-17.38-2.75-6.934-6.07-11.214-9.872-12.716a8.217,8.217,0,0,0-3.017-.576Z" transform="translate(-56.698 -72.123)"/>
              <path id="Path_1248586" data-name="Path 1248586" d="M142.193,196.608a1.829,1.829,0,0,0,.592,2.389,1.562,1.562,0,0,0,2.215-.638,1.823,1.823,0,0,0-.592-2.389,1.562,1.562,0,0,0-2.215.638" transform="translate(-67.618 -85.211)" fill="#f7b28f"/>
              <path id="Path_1248587" data-name="Path 1248587" d="M105.78,173.6s-5.494,3.241-7.474-2.1a6.93,6.93,0,0,1-.037-5.02c1.006-2.569,3.462-4.128,5.08-3.9,2.5.356,4.876,2.609,5.206,2.868s-2.781,8.154-2.781,8.154Z" transform="translate(-46.587 -70.768)" fill="#084e5e"/>
              <path id="Path_1248588" data-name="Path 1248588" d="M102.084,174.634a4.443,4.443,0,0,1-1.624-.288,4.7,4.7,0,0,1-2.629-2.964,7.249,7.249,0,0,1-.031-5.234c1.068-2.733,3.635-4.308,5.353-4.066,2.3.327,4.452,2.168,5.154,2.772.079.068.136.119.168.141.209.158.372.288-1.178,4.5-.728,1.988-1.508,3.964-1.519,3.987l-.037.09-.079.045a7.913,7.913,0,0,1-3.582,1.011Zm.7-12.022c-1.5,0-3.609,1.446-4.509,3.749a6.688,6.688,0,0,0,.037,4.811,4.173,4.173,0,0,0,2.325,2.648c1.954.757,4.258-.4,4.708-.644a69.961,69.961,0,0,0,2.744-7.792c-.031-.023-.063-.056-.1-.09a10.854,10.854,0,0,0-4.9-2.66A2.474,2.474,0,0,0,102.785,162.612Z" transform="translate(-46.353 -70.549)"/>
              <path id="Path_1248589" data-name="Path 1248589" d="M156.053,179.79c-.073-.327-.8-.423-1.6-.209s-1.409.655-1.336.983.8.424,1.6.209,1.409-.655,1.336-.983" transform="translate(-72.92 -78.129)"/>
              <path id="Path_1248590" data-name="Path 1248590" d="M143.268,185c-.141-.3.346-.875,1.095-1.282s1.466-.491,1.608-.192-.346.875-1.095,1.282-1.466.491-1.608.192" transform="translate(-68.221 -79.816)"/>
              <path id="Path_1248591" data-name="Path 1248591" d="M154.613,192.461a.267.267,0,0,1-.241-.175.287.287,0,0,1,.141-.361c.241-.107.477-.2.707-.288.665-.26,1.236-.486,1.325-.87.136-.576-.487-.836-1.529-1.2a4.04,4.04,0,0,1-1.744-.915,8.79,8.79,0,0,1-1.77-3.433.285.285,0,0,1,.189-.339.261.261,0,0,1,.314.2,8.3,8.3,0,0,0,1.65,3.185,3.819,3.819,0,0,0,1.524.762c1.006.344,2.142.74,1.87,1.869-.162.672-.848.943-1.65,1.254-.22.085-.45.175-.686.282A.213.213,0,0,1,154.613,192.461Z" transform="translate(-72.151 -80.483)"/>
              <path id="Path_1248592" data-name="Path 1248592" d="M154.154,201.191a3.591,3.591,0,0,1-.848-.1c-1.718-.418-2.053-.971-2.1-1.078a.291.291,0,0,1,.115-.373.251.251,0,0,1,.346.124s.293.429,1.755.785a2.769,2.769,0,0,0,2.509-.553.25.25,0,0,1,.367.023.286.286,0,0,1-.021.39A3.168,3.168,0,0,1,154.154,201.191Z" transform="translate(-72.001 -86.897)"/>
              <path id="Path_1248593" data-name="Path 1248593" d="M148,191.44a.794.794,0,0,0,1,.57.9.9,0,0,0,.388-1.146.794.794,0,0,0-1-.57A.9.9,0,0,0,148,191.44" transform="translate(-70.457 -82.822)"/>
              <path id="Path_1248594" data-name="Path 1248594" d="M157.462,188.46a.794.794,0,0,0,1,.57.9.9,0,0,0,.388-1.146.794.794,0,0,0-1-.57A.9.9,0,0,0,157.462,188.46Z" transform="translate(-74.963 -81.524)"/>
              <path id="Path_1248595" data-name="Path 1248595" d="M116.724,184.873a.758.758,0,0,1,.11-.023c.581-.045,5.7-.548,5.8-8.007a25.423,25.423,0,0,0-.513-6.539c-.068-.435,1.87.175,6.28-1.2,2.587-.813,1.556-4.783.482-5.929-3.006-3.2-7.029-6.155-15.147-3.416s-7.463,14.354-8.72,17.121-5.321,8.238-2.928,12,7.4,8.278,5.609,11.463c-1.713,3.038-2.608,7.51-.943,10.988a.5.5,0,0,0,.707.226l4.258-2.53a.562.562,0,0,0,.262-.542c-.1-1.09-.34-4.19.293-3.241.545.813,1.336,1.9,1.749,2.468a.481.481,0,0,0,.649.141c1.807-1.067,9.464-5.613,10.229-6.285.864-.762-.8-8.752-4.85-9.961-4.007-1.2-5.347-6.064-3.321-6.731Z" transform="translate(-48.267 -69.078)" fill="#084e5e"/>
              <path id="Path_1248596" data-name="Path 1248596" d="M106.959,211.686a.752.752,0,0,1-.225-.034.769.769,0,0,1-.456-.412,10.608,10.608,0,0,1-.822-5.822,15,15,0,0,1,1.775-5.438c1.231-2.185-1.1-5.189-3.357-8.092-.833-1.073-1.618-2.084-2.247-3.066-2.027-3.179.267-7.369,1.938-10.424.393-.712.728-1.333.969-1.858a15.983,15.983,0,0,0,.718-3.315c.754-4.715,1.891-11.835,8.155-13.947,8.092-2.733,12.182.062,15.4,3.484a5.737,5.737,0,0,1,1.116,4.495,2.469,2.469,0,0,1-1.707,1.9,20.582,20.582,0,0,1-5.52,1.005c-.209.011-.424.023-.555.04.026.136.052.271.079.418a26,26,0,0,1,.409,6.019c-.094,7.414-5.044,8.2-6.039,8.284a.081.081,0,0,0-.052.011,1.32,1.32,0,0,0-.754,1.372,5.678,5.678,0,0,0,4.069,4.822c3.017.9,4.609,5.2,5.075,7.595.136.7.4,2.389-.131,2.852-.765.672-8.05,5-10.265,6.313a.734.734,0,0,1-.979-.215c-.4-.548-1.142-1.564-1.681-2.366a16.94,16.94,0,0,0,.1,2.936.852.852,0,0,1-.4.813l-4.258,2.53a.744.744,0,0,1-.377.1Zm12.4-52.948a18.214,18.214,0,0,0-5.787,1.067c-5.965,2.016-7.07,8.933-7.8,13.512a16.131,16.131,0,0,1-.765,3.461c-.246.542-.592,1.169-.985,1.892-1.6,2.931-3.8,6.94-1.959,9.825.613.966,1.393,1.965,2.215,3.027,2.373,3.055,4.824,6.211,3.4,8.741a12.007,12.007,0,0,0-.937,10.717.244.244,0,0,0,.147.13.238.238,0,0,0,.2-.023l4.258-2.53a.286.286,0,0,0,.131-.271c-.325-3.478.021-3.614.225-3.7.126-.051.325-.045.539.271.539.807,1.325,1.886,1.739,2.456a.247.247,0,0,0,.325.073c4.546-2.688,9.605-5.743,10.187-6.256.1-.1.241-.807-.047-2.3-.571-2.948-2.289-6.448-4.708-7.171a6.187,6.187,0,0,1-4.447-5.353,1.815,1.815,0,0,1,1.116-1.914.76.76,0,0,1,.162-.034c.911-.073,5.468-.8,5.562-7.736a25.4,25.4,0,0,0-.4-5.9c-.042-.209-.079-.4-.11-.593a.4.4,0,0,1,.068-.3c.141-.192.393-.2,1-.232a20.135,20.135,0,0,0,5.4-.983,1.934,1.934,0,0,0,1.351-1.5,5.153,5.153,0,0,0-.979-3.964c-2.226-2.366-4.886-4.416-9.1-4.416Z" transform="translate(-48.023 -68.86)"/>
              <path id="Path_1248597" data-name="Path 1248597" d="M217.333,222.638a1.152,1.152,0,0,0-1.178-.39c-.251.028-.183-.023-.01-.26a2,2,0,0,0-.429-2.654,2.7,2.7,0,0,0-1.341-.418c-.115,0,.021-.186.021-.186a2.021,2.021,0,0,0,.042-2.473c-.634-.847-1.493-.8-2.472-.13l-.539.407c-.115.09-.073.034,0-.1,0,0,1.891-2.874,3.242-5.285.749-1.338,2.289-3.077-.01-4.224-1.938-.966-8,8.973-8,8.973-.063.107-.037-1.615-2.593-1.338-1.419.152-1.5.226-2.53,2.326l-.78,1.852-4.232,10.842c-3.886,4.433-18.509,21.711-18.509,21.711l-17.634-4.037-3.567,20.977s18.1,5.121,27.983.689c4.394-1.971,17.969-22.434,20.939-29.7,1.838-4.489,6.672-7.256,8.526-9.328a6.509,6.509,0,0,0,.827-.943l2.231-3.766a1.9,1.9,0,0,0,.005-2.535Z" transform="translate(-74.683 -90.055)" fill="#fec4a7"/>
              <path id="Path_1248598" data-name="Path 1248598" d="M174.093,270.764a75.207,75.207,0,0,1-17.6-2.485l-.23-.068,3.656-21.514,17.749,4.066c1.294-1.53,14.659-17.307,18.378-21.559l4.211-10.8.78-1.858c1.042-2.117,1.184-2.321,2.739-2.485a2.488,2.488,0,0,1,2.666,1.033c1.466-2.36,6.164-9.588,8.066-8.645a2.22,2.22,0,0,1,1.3,1.378,3.716,3.716,0,0,1-.854,2.693c-.12.192-.23.378-.33.553-.864,1.542-1.954,3.281-2.629,4.337a1.7,1.7,0,0,1,2.378.452,2.37,2.37,0,0,1,.126,2.6,2.688,2.688,0,0,1,1.095.424,2.2,2.2,0,0,1,.6,2.84,1.342,1.342,0,0,1,1.042.491,2.2,2.2,0,0,1,.016,2.908l-2.215,3.744a3.62,3.62,0,0,1-.592.711c-.089.09-.178.181-.267.277a23.67,23.67,0,0,1-2.315,2.089c-2.179,1.813-4.9,4.071-6.159,7.16-3.043,7.437-16.639,27.849-21.075,29.837a26.391,26.391,0,0,1-10.543,1.813ZM156.857,267.8a74.173,74.173,0,0,0,17.241,2.411,25.9,25.9,0,0,0,10.344-1.773c1.906-.858,5.981-5.63,10.894-12.773,4.488-6.522,8.469-13.264,9.9-16.776,1.315-3.219,4.09-5.522,6.316-7.38a22.85,22.85,0,0,0,2.257-2.033c.094-.1.189-.2.288-.3a3.145,3.145,0,0,0,.508-.6l2.263-3.811a1.6,1.6,0,0,0,.01-2.14.912.912,0,0,0-.974-.311.364.364,0,0,1-.414-.158c-.094-.192.021-.344.126-.48l.047-.062a1.7,1.7,0,0,0-.367-2.264,2.513,2.513,0,0,0-1.2-.367.288.288,0,0,1-.267-.186.472.472,0,0,1,.1-.457l.016-.017a1.72,1.72,0,0,0,.026-2.106c-.508-.678-1.21-.7-2.137-.068l-.529.4c-.157.119-.293.124-.4.017a.35.35,0,0,1,0-.44l.037-.062c.021-.028,1.9-2.9,3.231-5.268.1-.186.22-.373.34-.57.45-.734.964-1.57.791-2.236a1.745,1.745,0,0,0-1.027-1.022c-.309-.152-1.356-.068-4.415,4.043-1.734,2.326-3.247,4.805-3.263,4.828l-.089.147-.168-.017c-.173-.028-.215-.186-.241-.277-.23-.847-1-1.208-2.284-1.067-1.3.141-1.325.141-2.325,2.18l-.77,1.835-4.248,10.881-.031.04c-3.839,4.382-18.357,21.531-18.5,21.706l-.1.119-17.519-4.015-3.472,20.441Z" transform="translate(-74.421 -89.841)"/>
              <path id="Path_1248599" data-name="Path 1248599" d="M262.59,231.33a33.357,33.357,0,0,1,2.184-3.45Z" transform="translate(-125.062 -99.205)" fill="#fec4a7"/>
              <path id="Path_1248600" data-name="Path 1248600" d="M262.352,231.4a.235.235,0,0,1-.131-.04.285.285,0,0,1-.094-.378,35.065,35.065,0,0,1,2.2-3.484.246.246,0,0,1,.361-.045.293.293,0,0,1,.042.39,34.153,34.153,0,0,0-2.163,3.422.257.257,0,0,1-.225.141Z" transform="translate(-124.824 -98.993)"/>
              <path id="Path_1248601" data-name="Path 1248601" d="M257.85,226.661a16.972,16.972,0,0,1,1.7-2.671Z" transform="translate(-122.804 -97.511)" fill="#fec4a7"/>
              <path id="Path_1248602" data-name="Path 1248602" d="M257.617,226.719a.224.224,0,0,1-.131-.04.3.3,0,0,1-.089-.384,17.018,17.018,0,0,1,1.739-2.722.245.245,0,0,1,.367-.006.293.293,0,0,1,.005.4,18,18,0,0,0-1.665,2.62.26.26,0,0,1-.22.136Z" transform="translate(-122.571 -97.293)"/>
              <path id="Path_1248603" data-name="Path 1248603" d="M266.76,236.763a19.24,19.24,0,0,1,1.6-2.772Z" transform="translate(-127.048 -101.865)" fill="#fec4a7"/>
              <path id="Path_1248604" data-name="Path 1248604" d="M266.526,236.834a.287.287,0,0,1-.115-.028.291.291,0,0,1-.115-.373,18.5,18.5,0,0,1,1.634-2.818.242.242,0,0,1,.361-.051.288.288,0,0,1,.047.39,18.532,18.532,0,0,0-1.576,2.727.265.265,0,0,1-.23.158Z" transform="translate(-126.814 -101.653)"/>
            </g>
          </g>
          <g id="Group_1200902" data-name="Group 1200902" transform="translate(47.22 153.493)">
            <g id="Group_1200901" data-name="Group 1200901" clip-path="url(#clip-path-14)">
              <rect id="Rectangle_411877" data-name="Rectangle 411877" width="29.958" height="26" transform="translate(-0.444 0)" fill="#c8a0e6"/>
            </g>
          </g>
          <g id="Group_1200904" data-name="Group 1200904">
            <g id="Group_1200903" data-name="Group 1200903" clip-path="url(#clip-path)">
              <path id="Path_1248606" data-name="Path 1248606" d="M140.427,297.856c-2.252,0-16.917-.3-27.79-7.871-5.29-3.682-7.631-9.69-6.767-17.375a9.266,9.266,0,0,1,4.069-6.561,7.113,7.113,0,0,1,6.536-.943c5.384,2.072,13.989,3.241,23.594,3.207h.251l.655,29.538h-.257s-.115.011-.293.011Zm-26.234-32.609a7.232,7.232,0,0,0-3.98,1.276,8.679,8.679,0,0,0-3.829,6.155,21.422,21.422,0,0,0,.754,9.153,14.889,14.889,0,0,0,5.777,7.685c10.752,7.482,25.265,7.781,27.5,7.781h.031l-.628-28.431h-.131c-9.511,0-18.017-1.174-23.385-3.241a5.866,5.866,0,0,0-2.111-.39Z" transform="translate(-50.339 -115.227)"/>
              <path id="Path_1248607" data-name="Path 1248607" d="M136.61,261.56a1.665,1.665,0,1,1,1.54-1.66,1.606,1.606,0,0,1-1.54,1.66m0-2.761a1.1,1.1,0,1,0,1.021,1.1,1.065,1.065,0,0,0-1.021-1.1" transform="translate(-64.329 -112.421)" fill="#fff"/>
              <path id="Path_1248608" data-name="Path 1248608" d="M164.65,256.67a1.665,1.665,0,1,1,1.54-1.66,1.606,1.606,0,0,1-1.54,1.66m0-2.767a1.1,1.1,0,1,0,1.021,1.1,1.065,1.065,0,0,0-1.021-1.1" transform="translate(-77.683 -110.293)" fill="#fff"/>
              <path id="Path_1248609" data-name="Path 1248609" d="M175.42,235.55a1.665,1.665,0,1,1,1.54-1.66,1.606,1.606,0,0,1-1.54,1.66m0-2.761a1.1,1.1,0,1,0,1.021,1.1,1.065,1.065,0,0,0-1.021-1.1" transform="translate(-82.812 -101.098)" fill="#fff"/>
              <path id="Path_1248610" data-name="Path 1248610" d="M150.89,286.5a1.665,1.665,0,1,1,1.54-1.66,1.606,1.606,0,0,1-1.54,1.66m0-2.761a1.1,1.1,0,1,0,1.021,1.1,1.065,1.065,0,0,0-1.021-1.1" transform="translate(-71.13 -123.279)" fill="#fff"/>
              <path id="Path_1248611" data-name="Path 1248611" d="M129.54,281.61a1.665,1.665,0,1,1,1.54-1.66,1.606,1.606,0,0,1-1.54,1.66m0-2.767a1.1,1.1,0,1,0,1.021,1.1,1.065,1.065,0,0,0-1.021-1.1" transform="translate(-60.961 -121.15)" fill="#fff"/>
              <path id="Path_1248612" data-name="Path 1248612" d="M113.3,287.8a1.665,1.665,0,1,1,1.54-1.66,1.606,1.606,0,0,1-1.54,1.66m0-2.761a1.1,1.1,0,1,0,1.021,1.1,1.065,1.065,0,0,0-1.021-1.1" transform="translate(-53.227 -123.845)" fill="#fff"/>
              <path id="Path_1248613" data-name="Path 1248613" d="M159.6,309.7a1.665,1.665,0,1,1,1.54-1.66,1.606,1.606,0,0,1-1.54,1.66m0-2.767a1.1,1.1,0,1,0,1.021,1.1,1.065,1.065,0,0,0-1.021-1.1" transform="translate(-75.278 -133.379)" fill="#fff"/>
              <path id="Path_1248614" data-name="Path 1248614" d="M172.27,332.1a1.665,1.665,0,1,1,1.54-1.66,1.606,1.606,0,0,1-1.54,1.66m0-2.761a1.1,1.1,0,1,0,1.021,1.1,1.065,1.065,0,0,0-1.021-1.1" transform="translate(-81.312 -143.13)" fill="#fff"/>
              <path id="Path_1248615" data-name="Path 1248615" d="M143.617,332.456l-.162-.164c-.581-.593-1.178-1.214-1.828-1.892l-.157-.164.126-.192a1.508,1.508,0,0,1,1.252-.695,1.606,1.606,0,0,1,1.54,1.66,1.679,1.679,0,0,1-.6,1.31l-.173.147Zm-1.451-2.27c.519.536,1,1.039,1.472,1.525a1.134,1.134,0,0,0,.236-.706,1.065,1.065,0,0,0-1.021-1.1.987.987,0,0,0-.686.282" transform="translate(-67.377 -143.378)" fill="#fff"/>
              <path id="Path_1248616" data-name="Path 1248616" d="M135.78,303.14a1.665,1.665,0,1,1,1.54-1.66,1.606,1.606,0,0,1-1.54,1.66m0-2.761a1.1,1.1,0,1,0,1.021,1.1,1.065,1.065,0,0,0-1.021-1.1" transform="translate(-63.933 -130.523)" fill="#fff"/>
              <path id="Path_1248617" data-name="Path 1248617" d="M99.94,179.012a2.478,2.478,0,0,1-1.634-.553c-1.43-1.2-1.655-4.308-.66-9.249a.259.259,0,0,1,.309-.215.279.279,0,0,1,.2.333c-.932,4.647-.77,7.651.471,8.69,1.3,1.09,3.582-.141,4.551-.672.44-.237.56-.3.707-.243a.291.291,0,0,1,.157.164.287.287,0,0,1-.141.361.189.189,0,0,1-.11.017c-.079.034-.236.119-.372.2a7.987,7.987,0,0,1-3.467,1.163Z" transform="translate(-46.214 -73.567)"/>
              <path id="Path_1248618" data-name="Path 1248618" d="M118.974,207.9a.15.15,0,0,1-.084-.017.285.285,0,0,1-.162-.356,10.247,10.247,0,0,0,.293-3.269,14.25,14.25,0,0,0-2.786-7.544c-7.406-10.3-6.17-14.969-3.829-17.07a33.99,33.99,0,0,1,2.954-2.321c2.467-1.773,4.1-2.948,4.8-7.29.178-1.084.325-2.117.461-3.111.649-4.642,1.121-8,3.829-8.724a.257.257,0,0,1,.314.2.277.277,0,0,1-.189.339c-2.373.638-2.823,3.84-3.446,8.267-.141,1-.288,2.033-.466,3.128-.749,4.574-2.54,5.867-5.028,7.651a31.8,31.8,0,0,0-2.912,2.287c-1.713,1.542-2.069,3.958-1.053,7.188a33.809,33.809,0,0,0,4.96,9.108c4.237,5.889,2.645,11.118,2.577,11.338a.262.262,0,0,1-.246.186Z" transform="translate(-52.674 -68.868)"/>
              <path id="Path_1248619" data-name="Path 1248619" d="M129.568,206.2h-.016a.271.271,0,0,1-.241-.294,8.336,8.336,0,0,1,1.32-3.7c1.592-2.518-.34-5.274-2.383-8.193-2.446-3.5-4.981-7.115-1.446-10.57,1.8-1.762,2.242-4.664,2.671-7.47.534-3.5,1.037-6.8,4.09-7.583a3.283,3.283,0,0,0,2.43-1.954c.99-2.535-1.152-6.465-1.173-6.5a.3.3,0,0,1,.089-.384.252.252,0,0,1,.356.1c.094.169,2.3,4.212,1.21,7.007a3.779,3.779,0,0,1-2.786,2.276c-2.718.7-3.195,3.823-3.7,7.132-.445,2.9-.9,5.906-2.833,7.8-3.184,3.111-.9,6.369,1.514,9.819,2.064,2.948,4.2,6,2.393,8.843a8.056,8.056,0,0,0-1.231,3.416.267.267,0,0,1-.257.26Z" transform="translate(-59.56 -69.441)"/>
              <path id="Path_1248620" data-name="Path 1248620" d="M164.582,200.934a.264.264,0,0,1-.23-.147c-1.791-3.653-1.545-9.831-1.325-15.28l.021-.542c.209-5.313-4.7-9.2-5.447-9.611a.291.291,0,0,1-.115-.373.251.251,0,0,1,.346-.124c.932.5,5.955,4.506,5.735,10.13l-.021.542c-.215,5.381-.456,11.48,1.267,15a.287.287,0,0,1-.11.378.23.23,0,0,1-.12.034Z" transform="translate(-74.992 -76.11)"/>
              <path id="Path_1248621" data-name="Path 1248621" d="M124.2,202.615a3.165,3.165,0,0,1,4.448-1.308,3.63,3.63,0,0,1,1.991,4.484,3.166,3.166,0,0,1-4.449,1.308,3.63,3.63,0,0,1-1.991-4.484" transform="translate(-59.041 -87.459)" fill="#fec4a7"/>
              <path id="Path_1248622" data-name="Path 1248622" d="M127.641,207.567a4.109,4.109,0,0,1-1.8-.429,4.306,4.306,0,0,1-2.043-2.106,3.45,3.45,0,0,1-.079-2.75,3.009,3.009,0,0,1,1.98-1.734,3.877,3.877,0,0,1,2.812.288,4.306,4.306,0,0,1,2.043,2.106,3.45,3.45,0,0,1,.079,2.75,3.159,3.159,0,0,1-2.991,1.875Zm-.927-6.607a3.038,3.038,0,0,0-.875.124,2.51,2.51,0,0,0-1.645,1.429,2.833,2.833,0,0,0,.073,2.276,3.753,3.753,0,0,0,1.791,1.835,2.921,2.921,0,0,0,4.106-1.169,2.833,2.833,0,0,0-.073-2.276,3.753,3.753,0,0,0-1.791-1.835,3.59,3.59,0,0,0-1.587-.384" transform="translate(-58.806 -87.243)"/>
              <path id="Path_1248623" data-name="Path 1248623" d="M130.7,205.894a.15.15,0,0,1-.084-.017,1.477,1.477,0,0,1-.843-.757.9.9,0,0,1,.052-.723,1.027,1.027,0,0,1,.257-.339,2.626,2.626,0,0,0-2.079.361.25.25,0,0,1-.351-.113.291.291,0,0,1,.1-.378,3.05,3.05,0,0,1,2.566-.373,2.752,2.752,0,0,1,1,.576.287.287,0,0,1,.026.373.248.248,0,0,1-.346.062.708.708,0,0,0-.5-.124.376.376,0,0,0-.22.215.286.286,0,0,0-.026.254,1.029,1.029,0,0,0,.534.435.285.285,0,0,1,.162.356.262.262,0,0,1-.246.186Z" transform="translate(-60.781 -88.557)"/>
              <path id="Path_1248624" data-name="Path 1248624" d="M134.156,208.02a1.693,1.693,0,1,1-1.566,1.688,1.631,1.631,0,0,1,1.566-1.688" transform="translate(-63.148 -90.559)" fill="#fff"/>
              <path id="Path_1248625" data-name="Path 1248625" d="M134,211.439a1.88,1.88,0,1,1,1.739-1.875A1.813,1.813,0,0,1,134,211.439m0-3.377a1.506,1.506,0,1,0,1.393,1.5,1.45,1.45,0,0,0-1.393-1.5" transform="translate(-62.99 -90.415)"/>
              <path id="Path_1248626" data-name="Path 1248626" d="M105.4,174.439a.19.19,0,0,1-.079-.011,7.822,7.822,0,0,1-5.19-7.527c-.047-1.242.628-3.14,1.838-3.4,1.592-.339,3.8-.113,4.881,1.186a3.485,3.485,0,0,1,.44,3.36.255.255,0,0,1-.325.181.284.284,0,0,1-.168-.35,2.933,2.933,0,0,0-.335-2.823c-.906-1.09-2.9-1.333-4.394-1.011-.608.13-1.482,1.327-1.425,2.829.094,2.451,1.011,5.664,4.839,7.019a.279.279,0,0,1,.162.35.26.26,0,0,1-.246.192Z" transform="translate(-47.686 -71.117)"/>
              <path id="Path_1248627" data-name="Path 1248627" d="M99.514,164.2h-.042a.28.28,0,0,1-.215-.322,6.576,6.576,0,0,1,2.184-3.941,4,4,0,0,1,3.472-.531c1.917.486,3.116,1.254,3.567,2.281a2.137,2.137,0,0,1,.047,1.654.247.247,0,0,1-.346.124.286.286,0,0,1-.115-.373,1.527,1.527,0,0,0-.058-1.18c-.267-.593-1.042-1.417-3.216-1.965a3.539,3.539,0,0,0-3.069.452,6.088,6.088,0,0,0-1.964,3.569.265.265,0,0,1-.257.232Z" transform="translate(-47.271 -69.32)"/>
              <path id="Path_1248628" data-name="Path 1248628" d="M171.55,271.6s1.152-.232,1.147,5.037l-1.053-.254Z" transform="translate(-81.703 -118.236)" fill="#084e5e"/>
              <path id="Path_1248629" data-name="Path 1248629" d="M172.711,276.774l-1.566-.373-.1-5.24.215-.045a.6.6,0,0,1,.5.181c.639.57.958,2.3.953,5.127v.344Zm-1.053-.824.539.13c-.026-2.7-.372-3.755-.618-4.162Z" transform="translate(-81.46 -118.025)"/>
              <path id="Path_1248630" data-name="Path 1248630" d="M172.56,321.264s.759.085.759-2.174h-.759Z" transform="translate(-82.184 -138.912)" fill="#084e5e"/>
              <path id="Path_1248631" data-name="Path 1248631" d="M172.337,321.323H172.3l-.23-.028v-2.7h1.273v.277a3.248,3.248,0,0,1-.555,2.247A.647.647,0,0,1,172.337,321.323Zm.251-2.174v1.344a3.346,3.346,0,0,0,.236-1.344Z" transform="translate(-81.95 -138.694)"/>
              <path id="Path_1248632" data-name="Path 1248632" d="M698.7,390.716s.435,1.084-1.466,1.829l-.424-1.237,1.891-.6Z" transform="translate(-331.864 -170.091)" fill="#084e5e"/>
              <path id="Path_1248633" data-name="Path 1248633" d="M696.763,392.644l-.613-1.773,2.378-.751.089.226a1.256,1.256,0,0,1-.037.9,2.582,2.582,0,0,1-1.576,1.3Zm.068-1.406.236.689a1.857,1.857,0,0,0,1.037-.886.688.688,0,0,0,.057-.226l-1.33.418Z" transform="translate(-331.549 -169.834)"/>
              <path id="Path_1248634" data-name="Path 1248634" d="M540.561,391.12s-.66,1.4,2.247,3.343l.5-1.389-2.744-1.954Z" transform="translate(-257.418 -170.269)" fill="#084e5e"/>
              <path id="Path_1248635" data-name="Path 1248635" d="M542.7,394.566l-.262-.175c-3.074-2.05-2.372-3.636-2.341-3.7l.131-.277,3.163,2.253-.691,1.909Zm-2.174-3.281c.037.463.356,1.338,1.917,2.445l.309-.858-2.231-1.587Z" transform="translate(-257.185 -169.96)"/>
              <path id="Path_1248636" data-name="Path 1248636" d="M663.168,401.542l17.231-8.317-.487-1.174-18.032,6.008Z" transform="translate(-315.228 -170.674)" fill="#084e5e"/>
              <path id="Path_1248637" data-name="Path 1248637" d="M460.506,427.646a4.666,4.666,0,1,1,4.316-4.653,4.5,4.5,0,0,1-4.316,4.653m0-8.747a4.105,4.105,0,1,0,3.8,4.094,3.957,3.957,0,0,0-3.8-4.094" transform="translate(-217.266 -182.119)" fill="#dbdbdb"/>
              <path id="Path_1248638" data-name="Path 1248638" d="M545.08,464.738l6.652-2.3Z" transform="translate(-259.601 -201.317)" fill="#c6c4c6"/>
              <path id="Path_1248639" data-name="Path 1248639" d="M544.845,464.811a.26.26,0,0,1-.246-.192.284.284,0,0,1,.168-.35l6.651-2.3a.255.255,0,0,1,.325.181.284.284,0,0,1-.168.35l-6.651,2.3a.189.189,0,0,1-.079.011" transform="translate(-259.366 -201.107)"/>
              <path id="Path_1248640" data-name="Path 1248640" d="M551.31,469.257l4.845-1.677Z" transform="translate(-262.568 -203.555)" fill="#c6c4c6"/>
              <path id="Path_1248641" data-name="Path 1248641" d="M551.076,469.329a.26.26,0,0,1-.246-.192.284.284,0,0,1,.168-.35l4.844-1.677a.256.256,0,0,1,.325.181.284.284,0,0,1-.168.35l-4.845,1.677a.191.191,0,0,1-.079.011" transform="translate(-262.333 -203.345)"/>
              <path id="Path_1248642" data-name="Path 1248642" d="M205.417,109.06a3.381,3.381,0,1,1-3.127,3.371,3.256,3.256,0,0,1,3.127-3.371" transform="translate(-96.343 -47.478)" fill="#edebed"/>
              <path id="Path_1248643" data-name="Path 1248643" d="M205.183,115.865a3.658,3.658,0,1,1,3.383-3.648,3.528,3.528,0,0,1-3.383,3.648m0-6.736a3.1,3.1,0,1,0,2.865,3.089,2.984,2.984,0,0,0-2.865-3.089" transform="translate(-96.11 -47.265)"/>
              <path id="Path_1248644" data-name="Path 1248644" d="M224.857,109.06a3.381,3.381,0,1,1-3.127,3.371,3.256,3.256,0,0,1,3.127-3.371" transform="translate(-105.601 -47.478)" fill="#def4fc"/>
              <path id="Path_1248645" data-name="Path 1248645" d="M224.623,115.865a3.658,3.658,0,1,1,3.383-3.648,3.528,3.528,0,0,1-3.383,3.648m0-6.736a3.1,3.1,0,1,0,2.865,3.089,2.984,2.984,0,0,0-2.865-3.089" transform="translate(-105.368 -47.265)"/>
            </g>
          </g>
          <g id="Group_1200906" data-name="Group 1200906" transform="translate(126.591 61.874)">
            <g id="Group_1200905" data-name="Group 1200905" clip-path="url(#clip-path-16)">
              <rect id="Rectangle_411879" data-name="Rectangle 411879" width="5.31" height="5.31" fill="url(#linear-gradient-3)"/>
            </g>
          </g>
          <g id="Group_1200908" data-name="Group 1200908">
            <g id="Group_1200907" data-name="Group 1200907" clip-path="url(#clip-path)">
              <path id="Path_1248647" data-name="Path 1248647" d="M244.063,115.865a3.658,3.658,0,1,1,3.383-3.648,3.528,3.528,0,0,1-3.383,3.648m0-6.736a3.1,3.1,0,1,0,2.865,3.089,2.984,2.984,0,0,0-2.865-3.089" transform="translate(-114.627 -47.265)"/>
            </g>
          </g>
          <g id="Group_1200910" data-name="Group 1200910" transform="translate(120.885 218.523)">
            <g id="Group_1200909" data-name="Group 1200909" clip-path="url(#clip-path-18)">
              <rect id="Rectangle_411881" data-name="Rectangle 411881" width="24.773" height="17.234" transform="translate(-0.071)" fill="url(#linear-gradient-4)"/>
            </g>
          </g>
          <g id="Group_1200912" data-name="Group 1200912">
            <g id="Group_1200911" data-name="Group 1200911" clip-path="url(#clip-path)">
              <path id="Path_1248649" data-name="Path 1248649" d="M241.752,402.123c-5.442,0-11.3-2.14-13.224-2.9a1.055,1.055,0,0,1-.576-1.31c.848-2.693,4.216-11.751,11.852-15.314,5.127-2.394,9.736-2.648,12.963-.723a8.075,8.075,0,0,1,3.813,6.076,11.144,11.144,0,0,1-2.734,8.939,15.748,15.748,0,0,1-8.867,4.935,16.418,16.418,0,0,1-3.231.294ZM228.705,398.7c2.284.909,10.192,3.778,16.184,2.581a15.243,15.243,0,0,0,8.579-4.771,10.564,10.564,0,0,0,2.6-8.476,7.528,7.528,0,0,0-3.551-5.669c-3.043-1.818-7.6-1.542-12.507.745-7.442,3.473-10.737,12.344-11.569,14.98A.494.494,0,0,0,228.705,398.7Z" transform="translate(-108.539 -165.687)"/>
            </g>
          </g>
          <g id="Group_1200914" data-name="Group 1200914" transform="translate(109.625 195.775)">
            <g id="Group_1200913" data-name="Group 1200913" clip-path="url(#clip-path-20)">
              <rect id="Rectangle_411883" data-name="Rectangle 411883" width="17.352" height="25.943" transform="translate(-0.425)" fill="url(#linear-gradient-5)"/>
            </g>
          </g>
          <g id="Group_1200916" data-name="Group 1200916">
            <g id="Group_1200915" data-name="Group 1200915" clip-path="url(#clip-path)">
              <path id="Path_1248651" data-name="Path 1248651" d="M215.4,371.093a.912.912,0,0,1-.681-.311c-1.844-2.044-7.819-9.413-7.28-18.532.361-6.1,2.331-10.892,5.4-13.157a7.015,7.015,0,0,1,6.7-.983,10.114,10.114,0,0,1,6.17,6.7,19.254,19.254,0,0,1,.042,10.943c-1.786,6.578-7.867,13.185-9.689,15.054a.921.921,0,0,1-.67.294Zm1.634-32.869a6.513,6.513,0,0,0-3.9,1.321c-2.943,2.168-4.834,6.81-5.18,12.733-.524,8.893,5.332,16.11,7.133,18.109a.413.413,0,0,0,.623,0c1.8-1.841,7.8-8.357,9.548-14.805a18.618,18.618,0,0,0-.031-10.6,9.593,9.593,0,0,0-5.84-6.352,7.166,7.166,0,0,0-2.357-.412Z" transform="translate(-98.779 -147.001)"/>
            </g>
          </g>
          <g id="Group_1200918" data-name="Group 1200918" transform="translate(76.299 219.374)">
            <g id="Group_1200917" data-name="Group 1200917" clip-path="url(#clip-path-22)">
              <rect id="Rectangle_411885" data-name="Rectangle 411885" width="23.439" height="15.975" transform="translate(-0.264 0)" fill="url(#linear-gradient-6)"/>
            </g>
          </g>
          <g id="Group_1200920" data-name="Group 1200920">
            <g id="Group_1200919" data-name="Group 1200919" clip-path="url(#clip-path)">
              <path id="Path_1248653" data-name="Path 1248653" d="M152.876,401.888a10.143,10.143,0,0,1-6.175-1.8,7.5,7.5,0,0,1-2.954-5.8,9.779,9.779,0,0,1,3.3-7.821,14.723,14.723,0,0,1,8.7-3.574c5.829-.5,13.088,2.936,15.173,4a.989.989,0,0,1,.44,1.276c-1.021,2.349-4.923,10.2-12.36,12.654a19.744,19.744,0,0,1-6.128,1.073Zm4.059-18.493c-.388,0-.77.017-1.142.045a14.205,14.205,0,0,0-8.411,3.444,9.21,9.21,0,0,0-3.121,7.363,6.946,6.946,0,0,0,2.734,5.376c2.687,2.016,7.008,2.253,11.857.655,7.238-2.388,11.051-10.062,12.046-12.355a.415.415,0,0,0-.194-.536C168.782,386.41,162.413,383.395,156.935,383.395Z" transform="translate(-68.455 -166.666)"/>
            </g>
          </g>
          <g id="Group_1200922" data-name="Group 1200922" transform="translate(73.842 194.163)">
            <g id="Group_1200921" data-name="Group 1200921" clip-path="url(#clip-path-24)">
              <rect id="Rectangle_411887" data-name="Rectangle 411887" width="31.724" height="23.485" transform="translate(-0.926 0)" fill="url(#linear-gradient-7)"/>
            </g>
          </g>
          <g id="Group_1200924" data-name="Group 1200924">
            <g id="Group_1200923" data-name="Group 1200923" clip-path="url(#clip-path)">
              <path id="Path_1248655" data-name="Path 1248655" d="M163.344,364.8a50.26,50.26,0,0,1-11.627-1.423c-7.1-1.688-10.281-5.946-11.706-9.227a16.852,16.852,0,0,1-1.372-6.482,11.415,11.415,0,0,1,.854-4.822c1.912-3.987,8.3-10.006,18.787-4.274a27.444,27.444,0,0,1,10.574,10.7c4.63,8.188,6.217,12.919,4.719,14.06l-.026.023-.031.011a30.615,30.615,0,0,1-10.166,1.434Zm-13.251-28.019a11.336,11.336,0,0,0-10.145,6.324c-1.063,2.208-1.236,6.748.529,10.813,1.372,3.162,4.457,7.279,11.349,8.916,12.826,3.049,20.881.243,21.473.023.55-.474,1.084-2.727-4.886-13.292a26.9,26.9,0,0,0-10.365-10.491A16.625,16.625,0,0,0,150.093,336.782Z" transform="translate(-66.028 -146.366)"/>
              <path id="Path_1248656" data-name="Path 1248656" d="M187.458,411.849a.26.26,0,0,1-.246-.2l-5.693-21.485-22.406,5.353a.261.261,0,0,1-.309-.215.28.28,0,0,1,.194-.333L181.88,389.5l5.829,21.988a.285.285,0,0,1-.178.344.332.332,0,0,1-.073.011Z" transform="translate(-75.629 -169.564)"/>
              <path id="Path_1248657" data-name="Path 1248657" d="M217.086,417.5h-.016a.271.271,0,0,1-.241-.294l3.577-58.245a.265.265,0,0,1,.272-.26.271.271,0,0,1,.241.294l-3.577,58.245a.267.267,0,0,1-.257.26" transform="translate(-103.267 -156.155)"/>
              <path id="Path_1248658" data-name="Path 1248658" d="M187.458,415.531l-2.341-43.321L157.17,355.3a.289.289,0,0,1-.1-.378.248.248,0,0,1,.351-.107l28.193,17.064,1.681,31.13,3.577-14.15.126-.051,13.209-5.353a.254.254,0,0,1,.335.164.284.284,0,0,1-.152.361l-13.083,5.3-3.829,15.133.492,11.09-.519.028Z" transform="translate(-74.791 -154.448)"/>
            </g>
          </g>
          <g id="Group_1200926" data-name="Group 1200926" transform="translate(100.358 265.984)">
            <g id="Group_1200925" data-name="Group 1200925" clip-path="url(#clip-path-26)">
              <rect id="Rectangle_411889" data-name="Rectangle 411889" width="23.63" height="12.536" fill="#c8a0e6"/>
            </g>
          </g>
          <g id="Group_1200928" data-name="Group 1200928">
            <g id="Group_1200927" data-name="Group 1200927" clip-path="url(#clip-path)">
              <path id="Path_1248660" data-name="Path 1248660" d="M203.292,466.467c-4.646,0-8.228-1.558-10.637-4.63a10.784,10.784,0,0,1-.655-.915c-1.718-2.637-2.687-6.217-2.87-10.638l-.01-.294h28.36v.277c0,.237,0,.474-.01.706-.115,5.325-1.6,9.373-4.415,12.027a13.89,13.89,0,0,1-9.768,3.461Zm-13.633-15.918a20.2,20.2,0,0,0,2.765,10.057c.2.311.414.6.623.875,2.31,2.942,5.756,4.433,10.244,4.433,4.981,0,13.376-1.942,13.664-14.947,0-.135.005-.271.005-.412h-27.3Z" transform="translate(-90.071 -195.897)"/>
            </g>
          </g>
          <g id="Group_1200930" data-name="Group 1200930" transform="translate(99.203 262.609)">
            <g id="Group_1200929" data-name="Group 1200929" clip-path="url(#clip-path-28)">
              <rect id="Rectangle_411891" data-name="Rectangle 411891" width="25.885" height="3.371" fill="url(#linear-gradient-8)"/>
            </g>
          </g>
          <g id="Group_1200932" data-name="Group 1200932">
            <g id="Group_1200931" data-name="Group 1200931" clip-path="url(#clip-path)">
              <path id="Path_1248661" data-name="Path 1248661" d="M217.775,447.249H186.77V442.41h31.005Zm-30.487-.553h29.974v-3.727H187.288Z" transform="translate(-88.951 -192.598)"/>
              <path id="Path_1248662" data-name="Path 1248662" d="M196.355,462s17.121-4.771,24.254-10.282c-.246,11.242-6.646,15.223-13.921,15.223-4.174,0-7.9-1.293-10.438-4.534.068-.26.1-.407.1-.407" transform="translate(-93.466 -196.651)" fill="#084e5e"/>
            </g>
          </g>
        </g>
        <g id="Group_1184257" data-name="Group 1184257" transform="translate(447.588 197.512)">
          <g transform="matrix(1, 0, 0, 1, -462.35, -203.51)" filter="url(#Rectangle_401315)">
            <rect id="Rectangle_401315-2" data-name="Rectangle 401315" width="16" height="99.092" rx="8" transform="translate(462.35 203.51)" fill="#e6e51d"/>
          </g>
        </g>
        <g id="Group_1200381" data-name="Group 1200381" transform="translate(0 250.835)">
          <path id="Path_1241404" data-name="Path 1241404" d="M.914.745H76.092V75.922H.914Z" transform="translate(-0.914 -0.745)" fill="#222223" fill-rule="evenodd"/>
          <path id="Path_1241405" data-name="Path 1241405" d="M34.519.687H.856V14.271H24.889L.856,38.14l9.712,9.646L34.519,24V47.786H48.278V.687Z" transform="translate(14.073 12.884)" fill="#e6e51d" fill-rule="evenodd"/>
        </g>
      </g>
      <g id="Group_1200235" data-name="Group 1200235" transform="translate(645.691 2832)">
        <g transform="matrix(1, 0, 0, 1, -461, -44)" filter="url(#Ellipse_12336)">
          <circle id="Ellipse_12336-2" data-name="Ellipse 12336" cx="9" cy="9" r="9" transform="translate(461 44)" fill="#e6e51d"/>
        </g>
        <g transform="matrix(1, 0, 0, 1, -461, -44)" filter="url(#Ellipse_12337)">
          <circle id="Ellipse_12337-2" data-name="Ellipse 12337" cx="9" cy="9" r="9" transform="translate(461 67)" fill="#e6e51d"/>
        </g>
        <g transform="matrix(1, 0, 0, 1, -461, -44)" filter="url(#Ellipse_12338)">
          <circle id="Ellipse_12338-2" data-name="Ellipse 12338" cx="9" cy="9" r="9" transform="translate(461 90)" fill="#e6e51d"/>
        </g>
      </g>
    </g>
  </g>
</svg>
