<svg xmlns="http://www.w3.org/2000/svg" xmlns:xlink="http://www.w3.org/1999/xlink" width="100" height="100" viewBox="0 0 100 100">
  <defs>
    <clipPath id="clip-path">
      <rect id="Rectangle_411223" data-name="Rectangle 411223" width="100" height="100" transform="translate(792.781 1954)" fill="#e8bad8" opacity="0.41"/>
    </clipPath>
    <clipPath id="clip-path-2">
      <rect id="Rectangle_411224" data-name="Rectangle 411224" width="74" height="88" transform="translate(908 -10732)" fill="#fff" stroke="#707070" stroke-width="1" opacity="0"/>
    </clipPath>
  </defs>
  <g id="Group_1206825" data-name="Group 1206825" transform="translate(-894.73 10737.516)">
    <g id="Mask_Group_1099468" data-name="Mask Group 1099468" transform="translate(101.949 -12691.516)" clip-path="url(#clip-path)">
      <g id="Group_1206826" data-name="Group 1206826" transform="translate(793.651 1960)">
        <g id="Group_1206825-2" data-name="Group 1206825">
          <ellipse id="Ellipse_12523" data-name="Ellipse 12523" cx="24.92" cy="24.92" rx="24.92" ry="24.92" transform="translate(49.154 38.512)" fill="#c8a0e6"/>
          <ellipse id="Ellipse_12524" data-name="Ellipse 12524" cx="18.123" cy="18.123" rx="18.123" ry="18.123" fill="#c8a0e6"/>
        </g>
      </g>
    </g>
    <g id="Mask_Group_1099469" data-name="Mask Group 1099469" clip-path="url(#clip-path-2)">
      <g id="sensorial" transform="translate(907.918 -10725.117)">
        <g id="Group_1206828" data-name="Group 1206828">
          <circle id="Ellipse_12525" data-name="Ellipse 12525" cx="15.43" cy="15.43" r="15.43" transform="translate(1.531 1.449)" fill="#e0ef9b"/>
          <circle id="Ellipse_12526" data-name="Ellipse 12526" cx="15.43" cy="15.43" r="15.43" transform="translate(41.772 1.449)" fill="#a0c8ff"/>
          <path id="Path_1256877" data-name="Path 1256877" d="M21.925,19.013a.353.353,0,0,1-.229-.239L18.754,10.2a1.866,1.866,0,0,0-3.587,0l-2.943,8.574a.353.353,0,0,1-.228.239A2.582,2.582,0,1,0,14.5,23.407h.061a3.879,3.879,0,0,0,4.788,0h.063a2.582,2.582,0,1,0,2.508-4.393Z" fill="#ffdfe5"/>
          <path id="Path_1256878" data-name="Path 1256878" d="M57.2,7.623a5.417,5.417,0,0,0-5.417,5.417v9.322a3.773,3.773,0,0,0,7.54.209A7.6,7.6,0,0,1,60.1,18.8a23.416,23.416,0,0,1,1.4-1.9,7.021,7.021,0,0,0,1.088-3.278,5.494,5.494,0,0,0,.031-.583A5.417,5.417,0,0,0,57.2,7.623Z" fill="#ffdfe5"/>
          <circle id="Ellipse_12527" data-name="Ellipse 12527" cx="15.43" cy="15.43" r="15.43" transform="translate(1.531 41.854)" fill="#fff"/>
          <path id="Path_1256879" data-name="Path 1256879" d="M57.2,41.855A15.43,15.43,0,1,0,72.487,59.4a15.26,15.26,0,0,0,.146-2.118A15.43,15.43,0,0,0,57.2,41.855Z" fill="#fff3a0"/>
          <circle id="Ellipse_12528" data-name="Ellipse 12528" cx="13.914" cy="13.914" r="13.914" transform="translate(23.168 23.156)" fill="#ff9eb1"/>
          <path id="Path_1256880" data-name="Path 1256880" d="M37.082,44.708c-4.695,0-8.991-2.731-12.305-7.258a.644.644,0,0,1,0-.76c3.315-4.527,7.61-7.258,12.305-7.258s8.991,2.731,12.305,7.258a.644.644,0,0,1,0,.76C46.073,41.976,41.776,44.708,37.082,44.708Z" fill="#fff"/>
          <path id="Path_1256881" data-name="Path 1256881" d="M72.487,58.94V59.4A15.437,15.437,0,0,1,54.926,72.547L49.5,64.221a2.636,2.636,0,0,1,4.159-3.212l3.135,3.448L56.8,50.739a2.582,2.582,0,0,1,2.583-2.582h0a2.585,2.585,0,0,1,2.58,2.582v6.51A2.626,2.626,0,0,1,64.6,54.9a2.682,2.682,0,0,1,1.874.757,2.541,2.541,0,0,1,.778,1.827V58.94a2.625,2.625,0,0,1,4.469-1.826A2.559,2.559,0,0,1,72.487,58.94Z" fill="#ffdfe5"/>
          <circle id="Ellipse_12529" data-name="Ellipse 12529" cx="5.891" cy="5.891" r="5.891" transform="translate(31.191 31.179)" fill="#ffbe90"/>
          <path id="Path_1256882" data-name="Path 1256882" d="M31.228,58.178a.839.839,0,0,0-.1-1.4L23.617,52.6h0a5.3,5.3,0,0,0-6.692.523,5.3,5.3,0,0,0-6.692-.523h0L2.725,56.779a.839.839,0,0,0-.1,1.4l2.164,1.663A19.653,19.653,0,0,0,16.743,64h.364a19.653,19.653,0,0,0,11.957-4.161Z" fill="#ff9eb1"/>
        </g>
        <g id="Group_1206829" data-name="Group 1206829">
          <path id="Path_1256883" data-name="Path 1256883" d="M30.2,24.818a15.427,15.427,0,1,0-5.342,5.323" fill="none" stroke="#000" stroke-linecap="round" stroke-linejoin="round" stroke-miterlimit="10" stroke-width="2.897"/>
          <path id="Path_1256884" data-name="Path 1256884" d="M49.31,30.141a15.425,15.425,0,1,0-5.342-5.323" fill="none" stroke="#000" stroke-linecap="round" stroke-linejoin="round" stroke-miterlimit="10" stroke-width="2.897"/>
          <path id="Path_1256885" data-name="Path 1256885" d="M21.925,19.013a.353.353,0,0,1-.229-.239L18.754,10.2a1.866,1.866,0,0,0-3.587,0l-2.943,8.574a.353.353,0,0,1-.228.239A2.582,2.582,0,1,0,14.5,23.407h.061a3.879,3.879,0,0,0,4.788,0h.063a2.582,2.582,0,1,0,2.508-4.393Z" fill="none" stroke="#000" stroke-linecap="round" stroke-linejoin="round" stroke-miterlimit="10" stroke-width="2.897"/>
          <path id="Path_1256886" data-name="Path 1256886" d="M51.786,22.362a3.773,3.773,0,0,0,7.54.209A7.6,7.6,0,0,1,60.1,18.8a23.415,23.415,0,0,1,1.4-1.9,7.021,7.021,0,0,0,1.088-3.278,5.492,5.492,0,0,0,.031-.583,5.417,5.417,0,0,0-10.833,0" fill="none" stroke="#000" stroke-linecap="round" stroke-linejoin="round" stroke-miterlimit="10" stroke-width="2.897"/>
          <line id="Line_1117" data-name="Line 1117" x1="0.507" y2="1.516" transform="translate(54.943 16.605)" fill="none" stroke="#000" stroke-linecap="round" stroke-linejoin="round" stroke-miterlimit="10" stroke-width="2.897"/>
          <path id="Path_1256887" data-name="Path 1256887" d="M10.4,71.254A15.433,15.433,0,1,1,24.875,44.037" fill="none" stroke="#000" stroke-linecap="round" stroke-linejoin="round" stroke-miterlimit="10" stroke-width="2.897"/>
          <path id="Path_1256888" data-name="Path 1256888" d="M30.174,49.309A15.439,15.439,0,0,1,23.14,71.428" fill="none" stroke="#000" stroke-linecap="round" stroke-linejoin="round" stroke-miterlimit="10" stroke-width="2.897"/>
          <path id="Path_1256889" data-name="Path 1256889" d="M49.289,44.037a15.42,15.42,0,1,1-5.3,5.272" fill="none" stroke="#000" stroke-linecap="round" stroke-linejoin="round" stroke-miterlimit="10" stroke-width="2.897"/>
          <circle id="Ellipse_12530" data-name="Ellipse 12530" cx="13.914" cy="13.914" r="13.914" transform="translate(23.168 23.156)" fill="none" stroke="#000" stroke-linecap="round" stroke-linejoin="round" stroke-miterlimit="10" stroke-width="2.897"/>
          <path id="Path_1256890" data-name="Path 1256890" d="M37.082,44.708c-4.695,0-8.991-2.731-12.305-7.258a.644.644,0,0,1,0-.76c3.315-4.527,7.61-7.258,12.305-7.258s8.991,2.731,12.305,7.258a.644.644,0,0,1,0,.76C46.073,41.976,41.776,44.708,37.082,44.708Z" fill="none" stroke="#000" stroke-linecap="round" stroke-linejoin="round" stroke-miterlimit="10" stroke-width="2.897"/>
          <path id="Path_1256891" data-name="Path 1256891" d="M61.957,60.744v-3.49A2.626,2.626,0,0,1,64.6,54.9a2.682,2.682,0,0,1,1.874.757,2.541,2.541,0,0,1,.778,1.827V58.94l.007,1.8h0l0-1.8a2.625,2.625,0,0,1,4.469-1.826,2.559,2.559,0,0,1,.766,1.826" fill="none" stroke="#000" stroke-linecap="round" stroke-linejoin="round" stroke-miterlimit="10" stroke-width="2.897"/>
          <path id="Path_1256892" data-name="Path 1256892" d="M54.719,72.23,49.5,64.221a2.636,2.636,0,0,1,4.159-3.212l3.135,3.448" fill="none" stroke="#000" stroke-linecap="round" stroke-linejoin="round" stroke-miterlimit="10" stroke-width="2.897"/>
          <path id="Path_1256893" data-name="Path 1256893" d="M56.789,64.459h0L56.8,50.739a2.582,2.582,0,0,1,2.583-2.582h0a2.585,2.585,0,0,1,2.58,2.582l0,6.516" fill="none" stroke="#000" stroke-linecap="round" stroke-linejoin="round" stroke-miterlimit="10" stroke-width="2.897"/>
          <path id="Path_1256894" data-name="Path 1256894" d="M31.228,58.178a.839.839,0,0,0-.1-1.4L23.617,52.6h0a5.3,5.3,0,0,0-6.692.523,5.3,5.3,0,0,0-6.692-.523h0L2.725,56.779a.839.839,0,0,0-.1,1.4l2.164,1.663A19.653,19.653,0,0,0,16.743,64h.364a19.653,19.653,0,0,0,11.957-4.161Z" fill="none" stroke="#000" stroke-linecap="round" stroke-linejoin="round" stroke-miterlimit="10" stroke-width="2.897"/>
          <circle id="Ellipse_12531" data-name="Ellipse 12531" cx="5.891" cy="5.891" r="5.891" transform="translate(31.191 31.179)" fill="none" stroke="#000" stroke-linecap="round" stroke-linejoin="round" stroke-miterlimit="10" stroke-width="2.897"/>
          <line id="Line_1118" data-name="Line 1118" transform="translate(37.082 37.069)" fill="none" stroke="#000" stroke-linecap="round" stroke-linejoin="round" stroke-miterlimit="10" stroke-width="2.897"/>
          <path id="Path_1256895" data-name="Path 1256895" d="M3.209,57.285a97.614,97.614,0,0,0,13.715.943,97.6,97.6,0,0,0,13.361-.943" fill="none" stroke="#000" stroke-linecap="round" stroke-linejoin="round" stroke-miterlimit="10" stroke-width="2.897"/>
          <line id="Line_1119" data-name="Line 1119" transform="translate(16.747 72.715)" fill="none" stroke="#000" stroke-linecap="round" stroke-linejoin="round" stroke-miterlimit="10" stroke-width="2.897"/>
        </g>
      </g>
    </g>
  </g>
</svg>
