<svg xmlns="http://www.w3.org/2000/svg" xmlns:xlink="http://www.w3.org/1999/xlink" width="100" height="100" viewBox="0 0 100 100">
  <defs>
    <clipPath id="clip-path">
      <rect id="Rectangle_411225" data-name="Rectangle 411225" width="100" height="100" transform="translate(792.781 1954)" fill="#e8bad8" opacity="0.41"/>
    </clipPath>
    <clipPath id="clip-path-2">
      <rect id="Rectangle_411226" data-name="Rectangle 411226" width="74" height="88" transform="translate(1005 -10720)" fill="#fff" stroke="#707070" stroke-width="1" opacity="0"/>
    </clipPath>
  </defs>
  <g id="Group_1206832" data-name="Group 1206832" transform="translate(-992.449 10726.016)">
    <g id="Mask_Group_1099470" data-name="Mask Group 1099470" transform="translate(199.668 -12680.016)" clip-path="url(#clip-path)">
      <g id="Group_1206831" data-name="Group 1206831" transform="translate(793.651 1960)">
        <g id="Group_1206830" data-name="Group 1206830">
          <ellipse id="Ellipse_12532" data-name="Ellipse 12532" cx="24.92" cy="24.92" rx="24.92" ry="24.92" transform="translate(49.154 38.512)" fill="#c8a0e6"/>
          <ellipse id="Ellipse_12533" data-name="Ellipse 12533" cx="18.123" cy="18.123" rx="18.123" ry="18.123" fill="#c8a0e6"/>
        </g>
      </g>
    </g>
    <g id="Mask_Group_1099471" data-name="Mask Group 1099471" clip-path="url(#clip-path-2)">
      <g id="red" transform="translate(1003.806 -10714.193)">
        <g id="Group_1206842" data-name="Group 1206842">
          <g id="Group_1206833" data-name="Group 1206833">
            <circle id="Ellipse_12534" data-name="Ellipse 12534" cx="25.065" cy="25.065" r="25.065" transform="translate(13.129 13.129)" fill="#69d6f4"/>
          </g>
          <g id="Group_1206834" data-name="Group 1206834">
            <path id="Path_1256896" data-name="Path 1256896" d="M69.6,7.161H49.759a4.4,4.4,0,0,0-4.4,4.4,4.859,4.859,0,0,0,.06.728l.334,1.993,1.385,8.283a4.4,4.4,0,0,0,4.345,3.688H54.9v2.936a1.832,1.832,0,0,0,2.853,1.528l3.509-2.339,3.187-2.125h3.425a4.4,4.4,0,0,0,4.345-3.688L73.94,12.294a4.859,4.859,0,0,0,.06-.728,4.4,4.4,0,0,0-4.4-4.4Z" fill="#e6e9ed"/>
          </g>
          <g id="Group_1206835" data-name="Group 1206835">
            <path id="Path_1256897" data-name="Path 1256897" d="M29.743,51.418a4.383,4.383,0,0,0-3.115-1.289H6.791a4.4,4.4,0,0,0-4.4,4.4,4.858,4.858,0,0,0,.06.728L4.165,65.538A4.4,4.4,0,0,0,8.51,69.226h3.425l6.7,4.464a1.832,1.832,0,0,0,2.853-1.528V69.226h3.425a4.4,4.4,0,0,0,4.345-3.688l.621-3.724,1.1-6.553a4.858,4.858,0,0,0,.06-.728,4.383,4.383,0,0,0-1.289-3.115Z" fill="#e6e9ed"/>
          </g>
          <g id="Group_1206836" data-name="Group 1206836">
            <path id="Path_1256898" data-name="Path 1256898" d="M69.226,21.484h-19.1a9.548,9.548,0,1,1,19.1,0Z" fill="#b4dd7f"/>
          </g>
          <g id="Group_1206837" data-name="Group 1206837">
            <path id="Path_1256899" data-name="Path 1256899" d="M26.258,64.452H7.161a9.548,9.548,0,1,1,19.1,0Z" fill="#fcd770"/>
          </g>
          <g id="Group_1206838" data-name="Group 1206838">
            <circle id="Ellipse_12535" data-name="Ellipse 12535" cx="4.774" cy="4.774" r="4.774" transform="translate(54.903 2.387)" fill="#f0d0b4"/>
          </g>
          <g id="Group_1206839" data-name="Group 1206839">
            <path id="Path_1256900" data-name="Path 1256900" d="M16.71,45.355a4.765,4.765,0,1,1-2.339.609A4.841,4.841,0,0,1,16.71,45.355Z" fill="#f0d0b4"/>
          </g>
          <g id="Group_1206840" data-name="Group 1206840">
            <circle id="Ellipse_12536" data-name="Ellipse 12536" cx="2.387" cy="2.387" r="2.387" transform="translate(58.484 58.484)" fill="#ef7385"/>
          </g>
          <g id="Group_1206841" data-name="Group 1206841">
            <circle id="Ellipse_12537" data-name="Ellipse 12537" cx="2.387" cy="2.387" r="2.387" transform="translate(13.129 13.129)" fill="#ef7385"/>
          </g>
        </g>
        <g id="Group_1206843" data-name="Group 1206843">
          <path id="Path_1256901" data-name="Path 1256901" d="M68.173,30.148A31.115,31.115,0,0,1,64,55.432l1.984,1.328A33.5,33.5,0,0,0,70.478,29.53Z"/>
          <path id="Path_1256902" data-name="Path 1256902" d="M38.194,7.161a31.651,31.651,0,0,1,4.6.338l.35-2.362a34.087,34.087,0,0,0-4.95-.363A33.267,33.267,0,0,0,19.626,10.4l1.327,1.984A30.889,30.889,0,0,1,38.194,7.161Z"/>
          <path id="Path_1256903" data-name="Path 1256903" d="M8.214,46.239a31.115,31.115,0,0,1,4.173-25.284L10.4,19.627A33.5,33.5,0,0,0,5.909,46.858Z"/>
          <path id="Path_1256904" data-name="Path 1256904" d="M38.194,69.226a31.3,31.3,0,0,1-5.748-.53l-.439,2.345a33.637,33.637,0,0,0,6.187.572A33.258,33.258,0,0,0,56.76,65.984L55.433,64A30.882,30.882,0,0,1,38.194,69.226Z"/>
          <path id="Path_1256905" data-name="Path 1256905" d="M60.871,57.29a3.581,3.581,0,1,0,3.581,3.581A3.585,3.585,0,0,0,60.871,57.29Zm0,4.774a1.194,1.194,0,1,1,1.194-1.194A1.195,1.195,0,0,1,60.871,62.065Z"/>
          <path id="Path_1256906" data-name="Path 1256906" d="M15.516,19.1a3.581,3.581,0,1,0-3.581-3.581A3.585,3.585,0,0,0,15.516,19.1Zm0-4.774a1.194,1.194,0,1,1-1.194,1.194A1.195,1.195,0,0,1,15.516,14.323Z"/>
          <path id="Path_1256907" data-name="Path 1256907" d="M69.591,5.968H65.525a5.968,5.968,0,0,0-11.694,0H49.764a5.609,5.609,0,0,0-5.6,5.6,5.513,5.513,0,0,0,.076.92l.026.158A26.187,26.187,0,0,0,13,45.492a5.948,5.948,0,0,0-2.136,3.443H6.8a5.609,5.609,0,0,0-5.6,5.6,5.514,5.514,0,0,0,.076.92L2.983,65.736a5.584,5.584,0,0,0,5.526,4.683h3.065l6.4,4.266a3.026,3.026,0,0,0,4.7-2.517V70.419h2.233a5.584,5.584,0,0,0,5.526-4.682l.4-2.381a26.014,26.014,0,0,0,7.359,1.1,26.194,26.194,0,0,0,24.513-35.6l2.107-1.4h3.065A5.584,5.584,0,0,0,73.4,22.769l1.713-10.276a5.6,5.6,0,0,0-5.526-6.525ZM59.677,3.581A3.581,3.581,0,1,1,56.1,7.161,3.585,3.585,0,0,1,59.677,3.581ZM44.7,15.24l1.254,7.529a5.583,5.583,0,0,0,.958,2.3H32.321c1.4-6.567,3.714-10.742,5.872-10.742A23.882,23.882,0,0,1,44.7,15.24ZM62,39.387a23.69,23.69,0,0,1-2.522,9.548H46.937a70.335,70.335,0,0,0,.795-9.548ZM44.511,48.935H31.868a67.224,67.224,0,0,1-.81-9.548H45.335A66.083,66.083,0,0,1,44.511,48.935ZM14.383,37a23.69,23.69,0,0,1,2.522-9.548H29.45A70.336,70.336,0,0,0,28.655,37Zm16.669,0a66.081,66.081,0,0,1,.824-9.548H44.519A67.224,67.224,0,0,1,45.33,37ZM33.7,14.761c-1.694,2.37-2.977,6.045-3.827,10.3H18.278A23.915,23.915,0,0,1,33.7,14.761ZM14.37,39.387h14.3a70.356,70.356,0,0,0,.783,9.548h-6.9a5.978,5.978,0,0,0-5.847-4.774,5.905,5.905,0,0,0-1.544.228A23.9,23.9,0,0,1,14.37,39.387ZM16.71,53.71a3.581,3.581,0,1,1,3.581-3.581A3.585,3.585,0,0,1,16.71,53.71ZM28.082,65.346a3.205,3.205,0,0,1-3.171,2.687H20.29v4.136a.66.66,0,0,1-.993.531l-7-4.667H8.509a3.206,3.206,0,0,1-3.172-2.687L3.624,55.067a3.28,3.28,0,0,1-.043-.529A3.219,3.219,0,0,1,6.8,51.323h4.066A5.943,5.943,0,0,0,12.679,54.5a10.754,10.754,0,0,0-6.711,9.951v1.194H27.452V64.452A10.754,10.754,0,0,0,20.74,54.5a5.947,5.947,0,0,0,1.817-3.178h4.066a3.219,3.219,0,0,1,3.215,3.215,3.161,3.161,0,0,1-.044.529ZM16.71,56.1a8.368,8.368,0,0,1,8.27,7.161H8.44A8.368,8.368,0,0,1,16.71,56.1Zm14.52,4.885.92-5.523a5.551,5.551,0,0,0-.952-4.137H44.066c-1.4,6.567-3.714,10.742-5.872,10.742A23.666,23.666,0,0,1,31.229,60.982Zm11.459.645c1.694-2.37,2.977-6.045,3.827-10.3H58.109A23.915,23.915,0,0,1,42.688,61.626ZM62,37H47.717a70.356,70.356,0,0,0-.783-9.548H53.71V29.2a3.025,3.025,0,0,0,4.7,2.517l2.252-1.5A23.593,23.593,0,0,1,62,37ZM72.762,12.1,71.05,22.378a3.205,3.205,0,0,1-3.171,2.687H64.091l-7,4.667A.66.66,0,0,1,56.1,29.2V25.065h-4.62A3.206,3.206,0,0,1,48.3,22.378L46.591,12.1a3.28,3.28,0,0,1-.043-.529,3.219,3.219,0,0,1,3.215-3.215H53.83a5.943,5.943,0,0,0,1.817,3.178,10.754,10.754,0,0,0-6.711,9.951v1.194H70.419V21.484a10.754,10.754,0,0,0-6.711-9.951,5.95,5.95,0,0,0,1.817-3.178h4.066a3.219,3.219,0,0,1,3.215,3.215,3.176,3.176,0,0,1-.044.53ZM59.677,13.129a8.368,8.368,0,0,1,8.27,7.161H51.407a8.368,8.368,0,0,1,8.27-7.161Z"/>
        </g>
      </g>
    </g>
  </g>
</svg>
